<svg width="22" height="22" viewBox="0 0 22 22" fill="none" xmlns="http://www.w3.org/2000/svg">
<g clip-path="url(#clip0_1_6065)">
<path d="M11 20.625C8.44729 20.625 5.99913 19.6109 4.1941 17.8059C2.38906 16.0009 1.375 13.5527 1.375 11C1.375 8.44729 2.38906 5.99913 4.1941 4.1941C5.99913 2.38906 8.44729 1.375 11 1.375C13.5527 1.375 16.0009 2.38906 17.8059 4.1941C19.6109 5.99913 20.625 8.44729 20.625 11C20.625 13.5527 19.6109 16.0009 17.8059 17.8059C16.0009 19.6109 13.5527 20.625 11 20.625ZM11 22C13.9174 22 16.7153 20.8411 18.7782 18.7782C20.8411 16.7153 22 13.9174 22 11C22 8.08262 20.8411 5.28473 18.7782 3.22183C16.7153 1.15893 13.9174 0 11 0C8.08262 0 5.28473 1.15893 3.22183 3.22183C1.15893 5.28473 0 8.08262 0 11C0 13.9174 1.15893 16.7153 3.22183 18.7782C5.28473 20.8411 8.08262 22 11 22Z" fill="black"/>
<path d="M12.2787 9.0585L9.12993 9.45312L9.01718 9.97563L9.63593 10.0897C10.0402 10.186 10.1199 10.3318 10.0319 10.7346L9.01718 15.5031C8.75043 16.7365 9.16156 17.3167 10.1282 17.3167C10.8776 17.3167 11.7479 16.9703 12.1426 16.4945L12.2636 15.9225C11.9886 16.1645 11.5871 16.2607 11.3203 16.2607C10.9422 16.2607 10.8047 15.9954 10.9023 15.5279L12.2787 9.0585ZM12.3749 6.1875C12.3749 6.55217 12.2301 6.90191 11.9722 7.15977C11.7143 7.41763 11.3646 7.5625 10.9999 7.5625C10.6353 7.5625 10.2855 7.41763 10.0277 7.15977C9.7698 6.90191 9.62493 6.55217 9.62493 6.1875C9.62493 5.82283 9.7698 5.47309 10.0277 5.21523C10.2855 4.95737 10.6353 4.8125 10.9999 4.8125C11.3646 4.8125 11.7143 4.95737 11.9722 5.21523C12.2301 5.47309 12.3749 5.82283 12.3749 6.1875Z" fill="black"/>
</g>
<defs>
<clipPath id="clip0_1_6065">
<rect width="22" height="22" fill="white"/>
</clipPath>
</defs>
</svg>
