<svg width="28" height="15" viewBox="0 0 28 15" fill="none" xmlns="http://www.w3.org/2000/svg">
<g clip-path="url(#clip0_1_21)">
<path d="M28 8.08551C28 8.47121 28 8.86391 28 9.24961C27.9795 9.26363 27.959 9.26363 27.9384 9.27065C27.9111 9.27065 27.8769 9.27065 27.8495 9.27065C18.6234 9.27065 9.39033 9.27065 0.164146 9.27065C0.0136819 9.27065 0.0273604 9.25662 0.0273604 9.4109C0.0273604 9.70543 0.0273604 9.99294 0.0273604 10.2875C0.0273604 10.3927 0.0273605 10.3927 0.136789 10.3927C0.157307 10.3927 0.170985 10.3927 0.191503 10.3927C9.41769 10.3927 18.6439 10.3927 27.8701 10.3927C27.9111 10.3927 27.959 10.3786 28 10.4137C28 10.7994 28 11.1921 28 11.5778C27.9795 11.5918 27.959 11.5918 27.9384 11.5988C27.9111 11.5988 27.8769 11.5988 27.8495 11.5988C18.6234 11.5988 9.39033 11.5988 0.164146 11.5988C0.0136819 11.5988 0.0273604 11.5848 0.0273604 11.7391C0.0273604 12.0336 0.0273604 12.3281 0.0273604 12.6227C0.0273604 12.7279 0.0273605 12.7279 0.136789 12.7279C0.157307 12.7279 0.170985 12.7279 0.191503 12.7279C9.41769 12.7279 18.6439 12.7279 27.8701 12.7279C27.9111 12.7279 27.959 12.7138 28 12.7489C28 13.1346 28 13.5203 28 13.906C27.9795 13.92 27.959 13.92 27.9384 13.927C27.9111 13.927 27.8769 13.927 27.8495 13.927C18.6234 13.927 9.39033 13.927 0.164146 13.927C0.00684261 13.927 0.0273604 13.913 0.0273604 14.0673C0.0273604 14.3688 0.0273604 14.6774 0.0273604 14.9789C0.0273604 15.007 0.0341997 15.042 0.00684262 15.0701C0.00684262 15.0701 -0.00683594 15.0771 -0.00683594 15.0631C-0.00683594 15.049 -0.00683594 15.035 -0.00683594 15.021C3.33972e-06 9.99996 3.33972e-06 4.99996 3.33972e-06 -4.29042e-05C3.33972e-06 -0.0421186 0.00684262 -0.0491313 0.0478783 -0.0491313C9.3493 -0.0491313 18.6507 -0.0491313 27.9453 -0.0491313C27.959 -0.0491313 27.9795 -0.0631565 27.9932 -0.0421186C27.9795 -0.0280934 27.959 -0.0280934 27.9384 -0.0210808C27.9179 -0.0210808 27.8974 -0.0210808 27.8701 -0.0210808C22.3302 -0.0210808 16.7973 -0.0210808 11.2575 -0.0210808C11.2369 -0.0210808 11.2164 -0.0210808 11.1959 -0.0210808C11.1617 -0.0210808 11.1275 -0.0210808 11.1002 -0.0210808C7.44114 -0.0210808 3.78896 -0.0210808 0.12995 -0.0210808C0.0136819 -0.0210808 0.0205212 -0.0280934 0.0205212 0.0911212C0.0205212 2.71384 0.0205212 5.32955 0.0205212 7.95227C0.0205212 8.07149 0.0136819 8.06447 0.136789 8.06447C3.80264 8.06447 7.47533 8.06447 11.1412 8.06447C11.1617 8.06447 11.1822 8.06447 11.2027 8.06447C11.2438 8.06447 11.2848 8.06447 11.3258 8.06447C16.8383 8.06447 22.3576 8.06447 27.8701 8.06447C27.9179 8.06447 27.9658 8.05746 28 8.08551Z" fill="#FFFEFE"/>
<path d="M0.0136719 15.0491C0.0136719 14.6774 0.0136719 14.3128 0.0136719 13.9411C0.0136719 13.899 0.0205112 13.885 0.0615468 13.892C0.0752254 13.892 0.0957432 13.892 0.109422 13.892C9.38348 13.892 18.6507 13.892 27.9248 13.892C27.9521 13.892 27.9726 13.892 28 13.885C28 14.2567 28 14.6283 28 15C28 15.0421 27.9932 15.0491 27.9521 15.0491C23.6639 15.0491 19.3825 15.0491 15.0943 15.0491C10.0674 15.0491 5.04054 15.0491 0.0136719 15.0491Z" fill="#B22435"/>
<path d="M28 12.735C27.9726 12.735 27.9521 12.735 27.9248 12.735C18.6439 12.735 9.3698 12.735 0.0889039 12.735C0.0136719 12.735 0.0136719 12.735 0.0136719 12.6578C0.0136719 12.3142 0.0136719 11.9706 0.0136719 11.627C0.0136719 11.5849 0.0205112 11.5709 0.0615468 11.5779C0.0752254 11.5779 0.0889039 11.5779 0.102582 11.5779C9.37664 11.5779 18.6507 11.5779 27.9179 11.5779C27.9453 11.5779 27.9658 11.5779 27.9932 11.5779C28 11.9566 28 12.3423 28 12.735Z" fill="#B22435"/>
<path d="M28 10.3996C27.9795 10.3996 27.959 10.4066 27.9384 10.4066C18.6507 10.4066 9.36296 10.4066 0.0752254 10.4066C0.0273504 10.4066 0.0136719 10.3996 0.0136719 10.3435C0.0136719 9.99286 0.0136719 9.64223 0.0136719 9.29861C0.0136719 9.25654 0.0273504 9.24251 0.0683861 9.24952C0.0752254 9.24952 0.0820646 9.24952 0.0820646 9.24952C9.3698 9.24952 18.6644 9.24952 27.9521 9.24952C27.9658 9.24952 27.9863 9.24952 28 9.24952C28 9.63522 28 10.0209 28 10.3996Z" fill="#B22435"/>
<path d="M11.2096 -0.0351562C11.2301 -0.0351562 11.2575 -0.0351562 11.278 -0.0351562C16.852 -0.0351562 22.426 -0.0351562 28 -0.0351562C28 0.350538 28 0.743245 28 1.12894C27.9863 1.14296 27.9658 1.14296 27.9453 1.14998C27.9248 1.14998 27.9043 1.14998 27.8769 1.14998C22.3576 1.14998 16.8383 1.14998 11.319 1.14998C11.278 1.14998 11.237 1.15699 11.2028 1.13595C11.1822 1.11491 11.1891 1.07985 11.1891 1.05881C11.1891 0.722207 11.1891 0.385601 11.1891 0.0489952C11.1891 0.0139321 11.1891 -0.0141184 11.2096 -0.0351562Z" fill="#B22435"/>
<path d="M27.9999 3.44307C27.9999 3.82876 27.9999 4.22147 27.9999 4.60716C27.9862 4.6282 27.9657 4.6282 27.9452 4.6282C27.9247 4.6282 27.9042 4.6282 27.8836 4.6282C22.3643 4.6282 16.8382 4.6282 11.3189 4.6282C11.2779 4.6282 11.2437 4.63521 11.2095 4.61418C11.1958 4.59314 11.1958 4.5721 11.1958 4.55106C11.1958 4.20043 11.1958 3.85681 11.1958 3.50618C11.1958 3.48514 11.1958 3.46411 11.2095 3.44307C11.2232 3.42904 11.2437 3.42904 11.2642 3.42904C11.2847 3.42904 11.3052 3.42904 11.3326 3.42904C16.8519 3.42904 22.3643 3.42904 27.8836 3.42904C27.9178 3.42904 27.9657 3.41502 27.9999 3.44307Z" fill="white"/>
<path d="M27.9999 3.4431C27.9794 3.4431 27.952 3.4431 27.9315 3.4431C22.3575 3.4431 16.7835 3.4431 11.2095 3.4431C11.189 3.42206 11.189 3.39401 11.189 3.37297C11.189 3.02935 11.189 2.69275 11.189 2.34913C11.189 2.32809 11.189 2.30004 11.2026 2.279C11.2163 2.26498 11.2368 2.26498 11.2574 2.26498C11.2779 2.26498 11.2984 2.26498 11.3257 2.26498C16.845 2.26498 22.3575 2.26498 27.8768 2.26498C27.9178 2.26498 27.9589 2.25095 27.9999 2.28602C27.9999 2.67171 27.9999 3.0574 27.9999 3.4431Z" fill="#B22435"/>
<path d="M27.9999 5.76444C27.9999 6.15013 27.9999 6.54284 27.9999 6.92853C27.9862 6.94256 27.9657 6.94256 27.9452 6.94957C27.9247 6.94957 27.911 6.94957 27.8905 6.94957C22.3643 6.94957 16.8382 6.94957 11.3121 6.94957C11.2779 6.94957 11.2368 6.95658 11.2026 6.93555C11.189 6.91451 11.189 6.89347 11.189 6.87243C11.189 6.5218 11.189 6.17818 11.189 5.82755C11.189 5.80651 11.189 5.78548 11.2026 5.76444C11.2163 5.75041 11.2368 5.75041 11.2574 5.75041C11.2779 5.75041 11.2984 5.75041 11.3257 5.75041C16.845 5.75041 22.3575 5.75041 27.8768 5.75041C27.9178 5.7434 27.9657 5.73639 27.9999 5.76444Z" fill="white"/>
<path d="M27.9999 2.27915C27.9725 2.27915 27.952 2.27915 27.9247 2.27915C22.3507 2.27915 16.7835 2.27915 11.2095 2.27915C11.189 2.25812 11.189 2.23006 11.189 2.20903C11.189 1.87242 11.189 1.5288 11.189 1.1922C11.189 1.16415 11.189 1.1361 11.2095 1.12207C16.7835 1.12207 22.3507 1.12207 27.9247 1.12207C27.952 1.12207 27.9725 1.12207 27.9999 1.12908C27.9999 1.50776 27.9999 1.89346 27.9999 2.27915Z" fill="white"/>
<path d="M11.2095 6.92847C16.7903 6.92847 22.3712 6.92847 27.9589 6.92847C27.9726 6.92847 27.9862 6.92847 27.9999 6.92847C27.9999 7.31416 27.9999 7.69986 27.9999 8.08555C27.9794 8.08555 27.9589 8.08555 27.9315 8.08555C22.378 8.08555 16.8245 8.08555 11.271 8.08555C11.2505 8.08555 11.23 8.08555 11.2026 8.08555C11.1821 8.06451 11.1821 8.03646 11.1821 8.00841C11.1821 7.6718 11.1821 7.3352 11.1821 6.99859C11.189 6.97755 11.189 6.9495 11.2095 6.92847Z" fill="#B22435"/>
<path d="M27.9999 5.76437C26.9603 5.76437 25.9139 5.76437 24.8744 5.76437C20.3194 5.76437 15.7644 5.76437 11.2095 5.76437C11.189 5.74333 11.189 5.71528 11.189 5.69425C11.189 5.35764 11.189 5.02103 11.189 4.68443C11.189 4.65638 11.189 4.62833 11.2095 4.6143C11.23 4.6143 11.2505 4.6143 11.271 4.6143C16.8245 4.6143 22.3712 4.6143 27.9247 4.6143C27.952 4.6143 27.9725 4.60729 27.9999 4.62131C27.9999 4.99298 27.9999 5.37868 27.9999 5.76437Z" fill="#B22435"/>
<path d="M11.2096 4.60727C11.2096 4.88076 11.2096 5.15425 11.2096 5.42774C11.2096 5.53995 11.2096 5.65215 11.2096 5.77136C11.2096 6.15706 11.2096 6.54976 11.2096 6.93546C11.2096 7.32115 11.2096 7.70685 11.2096 8.09254C11.189 8.09254 11.1685 8.09955 11.148 8.09955C7.4548 8.09955 3.76844 8.09955 0.0752254 8.09955C0.0273504 8.09955 0.0136719 8.09254 0.0136719 8.03644C0.0136719 5.37164 0.0136719 2.69983 0.0136719 0.0350374C0.0136719 -0.0210635 0.0273504 -0.0280762 0.0752254 -0.0280762C3.76844 -0.0280762 7.46164 -0.0280762 11.1549 -0.0280762C11.1754 -0.0280762 11.189 -0.0280762 11.2096 -0.0280762C11.2096 0.357618 11.2096 0.743312 11.2096 1.12901C11.2096 1.5147 11.2096 1.9004 11.2096 2.28609C11.2096 2.67178 11.2096 3.05748 11.2096 3.45018C11.2096 3.82887 11.2096 4.22157 11.2096 4.60727Z" fill="#3D3C6E"/>
<path d="M7.23576 0.792484C7.17421 0.841572 7.10581 0.890661 7.04426 0.932736C6.99638 0.960787 6.98271 0.988837 7.00322 1.05195C7.03742 1.12909 7.0511 1.20623 7.08529 1.30441C7.00322 1.24129 6.92799 1.18519 6.85276 1.12909C6.8254 1.10805 6.81172 1.10805 6.78437 1.12909C6.71597 1.18519 6.64074 1.23428 6.55867 1.29739C6.56551 1.24129 6.58603 1.1922 6.59971 1.14312C6.61338 1.08701 6.65442 1.03091 6.64074 0.981825C6.6339 0.939749 6.55867 0.918711 6.51763 0.883648C6.48344 0.855597 6.4424 0.827547 6.40137 0.785471C6.46976 0.785471 6.54499 0.785471 6.61339 0.785471C6.71597 0.785471 6.71597 0.785471 6.74333 0.687295C6.76385 0.617168 6.78437 0.547042 6.81172 0.462891C6.83908 0.561067 6.87328 0.645219 6.8938 0.72937C6.90747 0.771446 6.92115 0.792484 6.96903 0.785471C7.0511 0.778459 7.14001 0.785471 7.22208 0.785471C7.23576 0.785471 7.23576 0.792484 7.23576 0.792484Z" fill="#FEFEFF"/>
<path d="M5.87485 1.30441C5.79277 1.24129 5.71754 1.18519 5.64231 1.12909C5.61495 1.10805 5.60127 1.10805 5.57392 1.12909C5.50552 1.18519 5.43029 1.24129 5.34138 1.30441C5.37558 1.20623 5.40294 1.11506 5.43029 1.03091C5.44397 0.99585 5.43713 0.974812 5.40294 0.953774C5.33454 0.904686 5.25931 0.848585 5.19092 0.785471C5.27983 0.785471 5.3619 0.785471 5.45081 0.785471C5.49185 0.785471 5.51236 0.778459 5.52604 0.736383C5.54656 0.645219 5.58076 0.561067 5.60811 0.462891C5.64231 0.561067 5.66967 0.645219 5.69702 0.736383C5.70386 0.771446 5.72438 0.785471 5.75858 0.785471C5.84749 0.785471 5.9364 0.785471 6.02531 0.792484C5.95692 0.848585 5.88852 0.904686 5.81329 0.953774C5.7791 0.974812 5.7791 0.99585 5.79277 1.03091C5.82013 1.11506 5.84749 1.20623 5.87485 1.30441Z" fill="#FEFEFF"/>
<path d="M8.0295 0.462891C8.0637 0.56808 8.09105 0.652231 8.11841 0.743395C8.12525 0.778459 8.14577 0.785471 8.17313 0.785471C8.26204 0.785471 8.35095 0.785471 8.4467 0.792484C8.37146 0.848585 8.30307 0.904686 8.22784 0.953774C8.20048 0.974812 8.19364 0.99585 8.20732 1.0239C8.23468 1.10805 8.26204 1.19922 8.29623 1.29739C8.221 1.24129 8.15261 1.19922 8.09789 1.14312C8.05002 1.10104 8.01582 1.09403 7.96795 1.14312C7.92007 1.1922 7.86536 1.22727 7.81748 1.26233C7.8038 1.26934 7.79013 1.29038 7.76277 1.28337C7.79013 1.19922 7.81748 1.11506 7.84484 1.03091C7.85852 0.99585 7.85852 0.974812 7.82432 0.953774C7.74909 0.904686 7.6807 0.848585 7.6123 0.785471C7.68754 0.785471 7.76277 0.785471 7.838 0.785471C7.92007 0.785471 7.92007 0.785471 7.94743 0.70132C7.97479 0.624181 8.00214 0.554055 8.0295 0.462891Z" fill="#FEFEFF"/>
<path d="M4.66439 1.30441C4.58232 1.24129 4.51393 1.1922 4.44554 1.14312C4.41134 1.11506 4.38398 1.11506 4.34979 1.14312C4.28139 1.19922 4.213 1.2483 4.13093 1.30441C4.16513 1.20623 4.18564 1.12208 4.21984 1.04494C4.23352 1.00286 4.23352 0.974812 4.19248 0.946762C4.12409 0.897673 4.0557 0.848585 3.9873 0.785471C4.07622 0.785471 4.16513 0.785471 4.25404 0.785471C4.29507 0.785471 4.30875 0.771446 4.31559 0.736383C4.34295 0.645219 4.3703 0.561067 4.39766 0.462891C4.43186 0.561067 4.45921 0.645219 4.48657 0.736383C4.49341 0.771446 4.51393 0.785471 4.54813 0.785471C4.63704 0.778459 4.72595 0.785471 4.81486 0.792484C4.7533 0.841572 4.69175 0.890661 4.6302 0.932736C4.58232 0.967799 4.5618 0.99585 4.58916 1.05896C4.61652 1.12909 4.63704 1.21324 4.66439 1.30441Z" fill="#FFFEFF"/>
<path d="M0.362308 0.785471C0.451219 0.785471 0.540129 0.785471 0.62904 0.785471C0.663236 0.785471 0.676915 0.778459 0.683754 0.743395C0.711111 0.652231 0.738468 0.56808 0.772665 0.462891C0.806861 0.561067 0.834218 0.645219 0.861575 0.736383C0.875254 0.778459 0.888932 0.785471 0.929968 0.785471C1.01888 0.785471 1.10095 0.785471 1.1967 0.799497C1.12831 0.855597 1.05991 0.911698 0.984682 0.960787C0.943647 0.974812 0.943647 0.99585 0.957325 1.03091C0.984682 1.11506 1.0052 1.1922 1.03256 1.27635C1.0052 1.29038 0.991521 1.26934 0.977843 1.25532C0.923129 1.22025 0.868415 1.17818 0.8137 1.1361C0.786343 1.11506 0.765825 1.11506 0.738468 1.1361C0.670076 1.1922 0.594843 1.24129 0.505933 1.30441C0.53329 1.22727 0.553808 1.15714 0.574326 1.09403C0.608522 0.981825 0.608522 0.981825 0.519611 0.911698C0.464897 0.876635 0.410183 0.83456 0.355469 0.792484C0.355469 0.792484 0.355469 0.785471 0.362308 0.785471Z" fill="#FFFEFF"/>
<path d="M2.92732 1.30441C2.96152 1.19922 2.98887 1.11506 3.01623 1.0239C3.02991 0.99585 3.02307 0.974812 2.99571 0.953774C2.92048 0.904686 2.84525 0.848585 2.77686 0.785471C2.86577 0.785471 2.95468 0.785471 3.04359 0.785471C3.08462 0.785471 3.0983 0.771446 3.11198 0.736383C3.1325 0.645219 3.15986 0.561067 3.19405 0.462891C3.22141 0.561067 3.2556 0.645219 3.27612 0.72937C3.2898 0.771446 3.30348 0.785471 3.35135 0.785471C3.43343 0.778459 3.52234 0.785471 3.62493 0.785471C3.57021 0.827547 3.52234 0.86261 3.47446 0.897673C3.44027 0.925724 3.37871 0.946762 3.36503 0.988837C3.35135 1.0239 3.38555 1.08 3.39923 1.12208C3.41291 1.16415 3.42659 1.20623 3.44027 1.2483C3.44027 1.25532 3.4471 1.26934 3.44027 1.27635C3.43343 1.29038 3.41975 1.27635 3.41291 1.26934C3.35135 1.22727 3.2898 1.18519 3.23509 1.1361C3.20089 1.10805 3.18037 1.11506 3.15302 1.1361C3.08462 1.1922 3.00939 1.24129 2.92732 1.30441Z" fill="#FEFEFF"/>
<path d="M10.8608 0.792416C10.7924 0.841505 10.724 0.897606 10.6556 0.946694C10.6145 0.974745 10.6077 0.995783 10.6282 1.04487C10.6556 1.12902 10.6829 1.20616 10.7103 1.30434C10.6214 1.24122 10.553 1.18512 10.4778 1.12902C10.4504 1.10798 10.4299 1.10798 10.4094 1.12902C10.3547 1.1711 10.2931 1.21317 10.2384 1.25525C10.2247 1.26927 10.211 1.2833 10.1837 1.27629C10.211 1.18512 10.2384 1.09396 10.2726 1.00981C10.2794 0.981757 10.2726 0.974745 10.2521 0.960719C10.1768 0.904618 10.1016 0.848517 10.0264 0.778391C10.0948 0.778391 10.1632 0.778391 10.2315 0.778391C10.341 0.778391 10.341 0.778391 10.3752 0.666189C10.3957 0.603076 10.4162 0.532949 10.4436 0.455811C10.4778 0.561 10.5051 0.645151 10.5325 0.729303C10.5393 0.764366 10.5598 0.778391 10.594 0.778391C10.6829 0.778391 10.7718 0.778391 10.8608 0.778391C10.8608 0.785404 10.8608 0.792416 10.8608 0.792416Z" fill="#FEFEFF"/>
<path d="M2.4008 0.792484C2.33241 0.848585 2.26401 0.904686 2.18878 0.953774C2.16142 0.974812 2.14774 0.99585 2.16142 1.03091C2.18878 1.11506 2.21614 1.20623 2.25033 1.30441C2.16826 1.24129 2.09987 1.19922 2.03832 1.14312C1.99728 1.10805 1.96992 1.11506 1.93573 1.14312C1.86733 1.19922 1.79894 1.24129 1.72371 1.30441C1.75107 1.20623 1.77842 1.11506 1.80578 1.03091C1.81946 0.99585 1.81262 0.981825 1.78526 0.960787C1.71003 0.904686 1.64164 0.848585 1.56641 0.785471C1.64164 0.785471 1.71687 0.785471 1.7921 0.785471C1.88101 0.785471 1.88101 0.785471 1.90837 0.694307C1.92889 0.624181 1.95625 0.547042 1.9836 0.462891C2.01096 0.561067 2.04516 0.638206 2.06567 0.722358C2.07935 0.778459 2.10671 0.785471 2.15458 0.785471C2.23666 0.778459 2.31873 0.785471 2.4008 0.785471V0.792484Z" fill="#FEFEFF"/>
<path d="M8.97322 1.29038C9.00058 1.20623 9.02793 1.11506 9.05529 1.03091C9.06897 0.99585 9.06213 0.974812 9.03477 0.953774C8.95954 0.904686 8.89115 0.848585 8.82275 0.785471C8.89115 0.785471 8.9527 0.785471 9.02109 0.785471C9.13736 0.785471 9.13736 0.785471 9.1784 0.673269C9.19891 0.610156 9.21943 0.547042 9.24679 0.462891C9.28099 0.561067 9.30834 0.645219 9.3357 0.736383C9.34938 0.771446 9.36306 0.785471 9.39725 0.785471C9.48616 0.785471 9.57507 0.785471 9.66399 0.792484C9.59559 0.848585 9.52036 0.897673 9.45197 0.953774C9.41777 0.974812 9.41093 0.99585 9.42461 1.03091C9.45197 1.11506 9.47932 1.19922 9.493 1.29038C9.42461 1.24129 9.35622 1.1922 9.28782 1.1361C9.26047 1.11506 9.23995 1.10805 9.20575 1.1361C9.13736 1.1922 9.06897 1.24129 8.99374 1.29739C8.98006 1.29038 8.98006 1.29038 8.97322 1.29038Z" fill="#FEFEFF"/>
<path d="M7.80363 6.98449C7.7284 7.04059 7.66001 7.09669 7.58477 7.14578C7.55742 7.16682 7.55742 7.18084 7.56426 7.20889C7.59161 7.29304 7.61897 7.38421 7.65317 7.4894C7.56426 7.42628 7.48902 7.37018 7.42063 7.31408C7.39327 7.29304 7.3796 7.29304 7.35224 7.31408C7.27701 7.37018 7.20177 7.42628 7.1197 7.4894C7.14706 7.39122 7.17442 7.30707 7.20177 7.22993C7.22229 7.18084 7.20861 7.15279 7.16758 7.12474C7.09918 7.07565 7.03079 7.02656 6.96924 6.96345C7.05815 6.96345 7.14022 6.96345 7.22913 6.96345C7.27017 6.96345 7.29068 6.94942 7.29752 6.90735C7.32488 6.8232 7.35224 6.73905 7.3796 6.64087C7.41379 6.73905 7.44115 6.83021 7.46851 6.92137C7.47535 6.95644 7.48902 6.96345 7.52322 6.96345C7.61213 6.96345 7.70104 6.96345 7.79679 6.96345C7.80363 6.97748 7.80363 6.98449 7.80363 6.98449Z" fill="white"/>
<path d="M4.19232 6.97761C4.10341 7.04072 4.02818 7.09682 3.95294 7.15293C3.92559 7.17396 3.92559 7.18799 3.93243 7.21604C3.95978 7.3072 3.98714 7.39837 4.02134 7.49654C3.93927 7.43343 3.86403 7.37733 3.7888 7.32123C3.76144 7.30019 3.74777 7.30019 3.72041 7.32123C3.64518 7.37733 3.57678 7.43343 3.48787 7.49654C3.52207 7.39837 3.54259 7.3072 3.57678 7.22305C3.59046 7.18799 3.58362 7.16695 3.54943 7.1389C3.47419 7.08981 3.4058 7.03371 3.32373 6.9706C3.4058 6.9706 3.47419 6.9706 3.54943 6.9706C3.65885 6.9706 3.65886 6.9706 3.69305 6.86541C3.71357 6.79528 3.73409 6.73217 3.76144 6.65503C3.7888 6.74619 3.823 6.81632 3.83668 6.90047C3.85035 6.96358 3.87771 6.98462 3.93927 6.97761C4.0145 6.9706 4.09657 6.97761 4.19232 6.97761Z" fill="white"/>
<path d="M8.32333 7.49654C8.35752 7.39135 8.38488 7.3072 8.41224 7.21604C8.42591 7.18098 8.41908 7.15994 8.38488 7.14591C8.30965 7.09682 8.24125 7.04072 8.15234 6.97761C8.25493 6.97761 8.34384 6.97761 8.43275 6.97761C8.47379 6.97761 8.49431 6.96358 8.50115 6.92151C8.52166 6.83736 8.55586 6.75321 8.58322 6.65503C8.61741 6.76022 8.64477 6.84437 8.67213 6.93553C8.67897 6.96359 8.69265 6.97761 8.72684 6.97761C8.81575 6.97761 8.9115 6.97761 9.01409 6.97761C8.93202 7.04072 8.85679 7.09682 8.78156 7.14591C8.74736 7.16695 8.74736 7.18799 8.76104 7.22305C8.7884 7.3072 8.81575 7.39837 8.84995 7.49654C8.76788 7.43343 8.69949 7.39135 8.63109 7.33525C8.59006 7.30019 8.56954 7.3072 8.5285 7.33525C8.47379 7.39135 8.4054 7.44044 8.32333 7.49654Z" fill="white"/>
<path d="M1.75773 6.98456C1.6825 7.04066 1.61411 7.09676 1.53888 7.14585C1.51152 7.16688 1.50468 7.18091 1.51836 7.21597C1.54572 7.30012 1.57307 7.38428 1.59359 7.48245C1.5252 7.42635 1.44997 7.37726 1.38157 7.32116C1.35422 7.30012 1.34054 7.30012 1.31318 7.32116C1.23795 7.37726 1.16956 7.43336 1.08065 7.49648C1.108 7.3983 1.13536 7.32116 1.16272 7.23701C1.18324 7.18792 1.16956 7.15987 1.12852 7.13182C1.06013 7.08273 0.991736 7.03364 0.916504 6.97053C1.01225 6.97053 1.09433 6.96352 1.1764 6.97053C1.23111 6.97053 1.25847 6.96352 1.27215 6.9004C1.29266 6.81625 1.32002 6.73911 1.35422 6.64795C1.38841 6.74613 1.41577 6.83729 1.44313 6.92845C1.44997 6.95651 1.46365 6.97053 1.49784 6.97053C1.57307 6.97053 1.65515 6.97053 1.73038 6.97053C1.73038 6.97754 1.7509 6.97053 1.75773 6.98456Z" fill="white"/>
<path d="M4.19232 4.50202C4.10341 4.56514 4.03502 4.62124 3.95978 4.67033C3.93243 4.69136 3.92559 4.70539 3.93927 4.74045C3.97346 4.83162 3.99398 4.92278 4.02818 5.02096C3.93927 4.95784 3.86403 4.90174 3.7888 4.83863C3.76828 4.8246 3.7546 4.8246 3.73409 4.83863C3.65885 4.90174 3.58362 4.95083 3.49471 5.02096C3.52207 4.93681 3.54259 4.87369 3.56311 4.80357C3.59046 4.69838 3.59046 4.69838 3.50839 4.63526C3.44684 4.59319 3.39212 4.55111 3.32373 4.50202C3.42632 4.50202 3.51523 4.50202 3.60414 4.50202C3.63834 4.50202 3.65885 4.49501 3.67253 4.45294C3.69989 4.36878 3.72725 4.27762 3.7546 4.17944C3.78196 4.26359 3.80248 4.32671 3.823 4.39683C3.85719 4.50202 3.85719 4.50202 3.95978 4.50202C4.03502 4.50202 4.10341 4.50202 4.19232 4.50202Z" fill="white"/>
<path d="M4.96554 6.65503C4.99974 6.75321 5.0271 6.83736 5.04761 6.92852C5.06129 6.96358 5.08181 6.97761 5.12285 6.97761C5.21176 6.9706 5.29383 6.97761 5.39642 6.97761C5.30751 7.04072 5.23911 7.09682 5.16388 7.15293C5.13652 7.17396 5.12968 7.195 5.14336 7.22305C5.17072 7.3072 5.19808 7.39837 5.23227 7.49654C5.1502 7.44044 5.08181 7.39135 5.02026 7.33525C4.97922 7.30019 4.95186 7.30019 4.91767 7.33525C4.85611 7.39135 4.78088 7.43343 4.70565 7.49654C4.73301 7.39837 4.76036 7.3072 4.78772 7.22305C4.8014 7.18799 4.79456 7.16695 4.76036 7.1389C4.68513 7.08981 4.61674 7.03371 4.53467 6.9706C4.6441 6.9706 4.73301 6.9706 4.82876 6.9706C4.86295 6.9706 4.86979 6.96358 4.88347 6.92852C4.90399 6.84437 4.93819 6.75321 4.96554 6.65503Z" fill="white"/>
<path d="M7.80364 4.50915C7.7284 4.56525 7.66001 4.62135 7.58478 4.67044C7.55742 4.69147 7.55058 4.7055 7.56426 4.73355C7.59162 4.82471 7.61898 4.91588 7.65317 5.01405C7.56426 4.95094 7.48903 4.89484 7.42064 4.83874C7.40012 4.8177 7.3796 4.8177 7.35908 4.83874C7.28385 4.89484 7.21546 4.95094 7.12655 5.00704C7.14023 4.9299 7.16074 4.8738 7.18126 4.81069C7.2223 4.69147 7.2223 4.69147 7.11971 4.61434C7.07183 4.57927 7.01712 4.5372 6.95557 4.48811C7.06499 4.48811 7.15391 4.48811 7.24282 4.48811C7.27701 4.48811 7.29069 4.4811 7.29753 4.44603C7.32489 4.35487 7.35224 4.27072 7.38644 4.16553C7.42064 4.2637 7.44799 4.34786 7.46851 4.43201C7.48219 4.47408 7.50271 4.48811 7.54374 4.48811C7.62582 4.4811 7.71473 4.48811 7.7968 4.48811C7.80364 4.50213 7.80364 4.50915 7.80364 4.50915Z" fill="white"/>
<path d="M5.23227 5.02096C5.1502 4.95784 5.08181 4.91577 5.02026 4.85967C4.97922 4.8246 4.95186 4.83162 4.91083 4.85967C4.84927 4.91577 4.77404 4.95784 4.69881 5.02096C4.73301 4.91577 4.76036 4.8246 4.78772 4.74045C4.8014 4.70539 4.79456 4.69136 4.7672 4.67033C4.69197 4.62124 4.62358 4.56514 4.53467 4.50202C4.6441 4.50202 4.73301 4.50202 4.82192 4.50202C4.85611 4.50202 4.86295 4.49501 4.87663 4.45995C4.90399 4.36878 4.93135 4.27762 4.96554 4.17944C4.99974 4.27762 5.0271 4.36177 5.05445 4.44592C5.06129 4.488 5.08181 4.50202 5.12285 4.50202C5.21176 4.49501 5.29383 4.50202 5.39642 4.50202C5.31435 4.56514 5.23911 4.62124 5.17072 4.67033C5.14336 4.69136 5.13652 4.70539 5.1502 4.74045C5.17756 4.8246 5.20492 4.91577 5.23227 5.02096Z" fill="white"/>
<path d="M3.76144 1.7041C3.79564 1.80228 3.823 1.88643 3.85035 1.97759C3.86403 2.01967 3.87771 2.02668 3.91875 2.02668C4.00766 2.02668 4.09657 2.02668 4.19916 2.02668C4.11025 2.08278 4.03502 2.13888 3.95978 2.19499C3.93243 2.21602 3.92559 2.23005 3.93927 2.27212C3.96662 2.35628 3.99398 2.44043 4.02818 2.54562C3.93927 2.4825 3.86403 2.4264 3.79564 2.3703C3.76828 2.34926 3.74777 2.34926 3.72041 2.3703C3.65202 2.4264 3.57678 2.47549 3.49471 2.5386C3.52207 2.45445 3.53575 2.3703 3.56994 2.30017C3.5973 2.23706 3.58362 2.202 3.52891 2.16693C3.46052 2.13187 3.4058 2.08278 3.32373 2.01967C3.4058 2.01967 3.47419 2.01967 3.54259 2.01967C3.65202 2.01967 3.65202 2.01967 3.68621 1.91448C3.70673 1.85137 3.72725 1.78825 3.74777 1.73215C3.74777 1.72514 3.7546 1.71813 3.76144 1.7041Z" fill="white"/>
<path d="M8.5969 4.1936C8.62426 4.27775 8.65161 4.36191 8.67897 4.45307C8.69265 4.48813 8.70633 4.50216 8.74052 4.50216C8.82944 4.50216 8.91835 4.50216 9.02094 4.50216C8.93202 4.56527 8.86363 4.62137 8.7884 4.67747C8.76104 4.69851 8.76104 4.71254 8.76788 4.74059C8.79524 4.83175 8.8226 4.92292 8.85679 5.02109C8.76788 4.95798 8.69265 4.90188 8.61742 4.84578C8.5969 4.82474 8.58322 4.83175 8.55586 4.84578C8.48063 4.90188 8.4054 4.95798 8.31649 5.02109C8.34385 4.92292 8.3712 4.83876 8.39856 4.75461C8.41224 4.71254 8.41224 4.6915 8.3712 4.67046C8.29597 4.62137 8.22758 4.56527 8.14551 4.50216C8.25494 4.50216 8.34385 4.50216 8.43276 4.50216C8.46695 4.50216 8.48063 4.49515 8.48747 4.46008C8.51483 4.36892 8.54219 4.28477 8.56954 4.1936C8.59006 4.1936 8.5969 4.1936 8.5969 4.1936Z" fill="white"/>
<path d="M1.07381 5.02089C1.10801 4.92271 1.12852 4.83856 1.15588 4.75441C1.16956 4.71234 1.16956 4.68428 1.12852 4.65623C1.06013 4.60715 0.991739 4.55806 0.909668 4.49494C1.01226 4.49494 1.10117 4.49494 1.18324 4.49494C1.23111 4.49494 1.24479 4.48092 1.25847 4.43884C1.27899 4.35469 1.31319 4.27054 1.34054 4.17236C1.37474 4.27755 1.4021 4.3617 1.42945 4.44586C1.43629 4.48793 1.44997 4.50196 1.49101 4.50196C1.57992 4.49494 1.66199 4.50196 1.75774 4.50897C1.69618 4.55806 1.62779 4.60715 1.5594 4.65623C1.51836 4.68428 1.50469 4.71234 1.5252 4.76142C1.55256 4.83856 1.57308 4.9157 1.5936 5.00687C1.5252 4.95076 1.44997 4.90168 1.38158 4.84558C1.35422 4.82454 1.3337 4.82454 1.30635 4.84558C1.23111 4.90168 1.16272 4.95778 1.07381 5.02089Z" fill="white"/>
<path d="M2.96819 6.98449C2.89296 7.04059 2.82456 7.09669 2.74933 7.14578C2.72197 7.16682 2.72197 7.18084 2.72881 7.20889C2.75617 7.30006 2.78353 7.39122 2.81772 7.4894C2.73565 7.42628 2.66042 7.37018 2.58519 7.31408C2.55783 7.29304 2.54415 7.29304 2.5168 7.31408C2.44156 7.37018 2.36633 7.42628 2.28426 7.4894C2.31846 7.39122 2.34581 7.30006 2.37317 7.20889C2.38685 7.17383 2.38001 7.1598 2.35265 7.13877C2.27742 7.08266 2.20903 7.03358 2.12012 6.96345C2.22271 6.96345 2.30478 6.95644 2.38685 6.96345C2.44156 6.97046 2.46208 6.94241 2.46892 6.90034C2.48944 6.81618 2.5168 6.73905 2.55099 6.64087C2.58519 6.74606 2.61255 6.83021 2.6399 6.91436C2.65358 6.94942 2.66726 6.96345 2.70146 6.96345C2.79037 6.96345 2.87928 6.96345 2.96819 6.96345C2.96819 6.97748 2.96819 6.98449 2.96819 6.98449Z" fill="white"/>
<path d="M5.90926 7.49637C5.93662 7.4052 5.95714 7.32806 5.99133 7.25093C6.01869 7.18781 5.99817 7.15976 5.9503 7.1247C5.8819 7.08262 5.82035 7.03353 5.74512 6.97743C5.84087 6.97743 5.92294 6.97743 6.00501 6.97743C6.05288 6.97743 6.08024 6.97042 6.09392 6.91432C6.11444 6.83017 6.1418 6.75303 6.17599 6.66187C6.21019 6.76004 6.23755 6.84419 6.25806 6.92834C6.27174 6.97042 6.28542 6.98445 6.32646 6.97743C6.41537 6.97743 6.49744 6.97743 6.60003 6.97743C6.51796 7.04055 6.44956 7.09665 6.37433 7.14574C6.34013 7.16677 6.3333 7.19482 6.34697 7.22989C6.37433 7.293 6.38801 7.36313 6.40853 7.43325C6.41537 7.44728 6.42221 7.4613 6.40853 7.48234C6.3333 7.42624 6.2649 7.37715 6.18967 7.32105C6.16231 7.30001 6.14863 7.30001 6.12128 7.32105C6.0734 7.37715 5.99817 7.43325 5.90926 7.49637Z" fill="white"/>
<path d="M10.2177 6.98462C10.1425 7.04072 10.0741 7.09682 9.99884 7.14591C9.97149 7.16695 9.96465 7.18098 9.97832 7.20903C10.0125 7.30019 10.033 7.39136 10.0672 7.48953C9.97832 7.42642 9.90309 7.37032 9.8347 7.31422C9.80734 7.29318 9.79366 7.29318 9.76631 7.31422C9.69107 7.37032 9.61584 7.42642 9.53377 7.48953C9.56797 7.38434 9.59532 7.29318 9.62268 7.20903C9.63636 7.18098 9.62952 7.15994 9.60216 7.14591C9.52693 7.08981 9.4517 7.03371 9.36963 6.9706C9.45854 6.9706 9.53377 6.9706 9.60216 6.9706C9.69791 6.9706 9.69791 6.9706 9.73211 6.87242C9.75263 6.80931 9.77315 6.73918 9.79366 6.67607C9.79366 6.66906 9.8005 6.66905 9.80734 6.65503C9.8347 6.73918 9.8689 6.81632 9.88257 6.90047C9.89625 6.96358 9.92361 6.97761 9.97832 6.9706C10.0604 6.96358 10.1356 6.9706 10.2177 6.9706C10.2177 6.97761 10.2177 6.98462 10.2177 6.98462Z" fill="white"/>
<path d="M7.65317 2.54548C7.56426 2.48237 7.49587 2.42627 7.42064 2.37017C7.39328 2.34913 7.3796 2.34913 7.35224 2.37017C7.28385 2.42627 7.20862 2.47536 7.12655 2.52444C7.15391 2.4473 7.16758 2.36315 7.20178 2.28601C7.2223 2.22991 7.20862 2.20186 7.16758 2.17381C7.09919 2.13174 7.03764 2.07564 6.95557 2.01953C7.05816 2.01953 7.14023 2.01953 7.22914 2.01953C7.27701 2.01953 7.29753 2.00551 7.30437 1.95642C7.32489 1.87227 7.35908 1.78812 7.38644 1.68994C7.42064 1.78812 7.44799 1.87227 7.46851 1.95642C7.48219 1.9985 7.49587 2.01252 7.53691 2.01252C7.62582 2.00551 7.70789 2.01252 7.81048 2.01252C7.7284 2.07564 7.65317 2.13174 7.57794 2.18082C7.55058 2.20186 7.54374 2.21589 7.55742 2.25095C7.59162 2.34913 7.61898 2.44029 7.65317 2.54548Z" fill="white"/>
<path d="M2.12012 4.50202C2.22271 4.50202 2.31846 4.50202 2.40737 4.50202C2.44156 4.50202 2.45524 4.488 2.46892 4.45294C2.48944 4.36878 2.5168 4.27762 2.55099 4.17944C2.58519 4.28463 2.61255 4.36878 2.6399 4.45995C2.64674 4.488 2.66042 4.50202 2.69462 4.50202C2.78353 4.50202 2.87928 4.50202 2.98187 4.50202C2.92031 4.5441 2.87244 4.57916 2.82456 4.61423C2.71513 4.69838 2.71513 4.69838 2.75617 4.83162C2.77669 4.88772 2.79037 4.95083 2.81772 5.02096C2.73565 4.95784 2.66042 4.90174 2.58519 4.84564C2.55783 4.8246 2.53731 4.8246 2.50996 4.84564C2.45524 4.89473 2.39369 4.93681 2.33213 4.9859C2.31846 4.99291 2.31162 5.00693 2.2911 4.99992C2.31846 4.91577 2.34581 4.83162 2.37317 4.74747C2.38685 4.7124 2.38001 4.69136 2.34581 4.66331C2.27058 4.61423 2.20219 4.55813 2.12012 4.50202Z" fill="white"/>
<path d="M9.02776 2.01956C8.94569 2.08267 8.8773 2.13877 8.80207 2.18786C8.76787 2.2089 8.76103 2.22994 8.77471 2.27201C8.80891 2.35617 8.82943 2.44733 8.86362 2.53849C8.78155 2.47538 8.70632 2.42629 8.63793 2.37019C8.61057 2.34915 8.59005 2.34915 8.56269 2.37019C8.4943 2.42629 8.41907 2.48239 8.33016 2.54551C8.36436 2.44733 8.38487 2.35617 8.41907 2.27201C8.43275 2.23695 8.42591 2.21591 8.39171 2.19488C8.31648 2.14579 8.24809 2.08969 8.16602 2.02657C8.27544 2.02657 8.36435 2.02657 8.45327 2.02657C8.48746 2.02657 8.4943 2.01956 8.50798 1.9845C8.53534 1.89333 8.56269 1.80918 8.59005 1.71802C8.61057 1.73204 8.61057 1.75308 8.61741 1.77412C8.63793 1.84424 8.66528 1.91437 8.6858 1.9845C8.69264 2.01255 8.70632 2.02657 8.74051 2.02657C8.82943 2.01956 8.91834 2.01956 9.02776 2.01956Z" fill="white"/>
<path d="M10.0672 5.02096C9.97833 4.95784 9.9031 4.90174 9.82786 4.84564C9.80735 4.8246 9.78683 4.83162 9.76631 4.84564C9.69108 4.90174 9.61585 4.95784 9.52694 5.02096C9.56113 4.92278 9.58165 4.83162 9.61585 4.74747C9.62953 4.7124 9.62269 4.69136 9.58849 4.67033C9.51326 4.62124 9.44486 4.56514 9.36279 4.50202C9.47222 4.50202 9.56113 4.50202 9.65004 4.50202C9.68424 4.50202 9.69792 4.488 9.70476 4.45995C9.73211 4.36878 9.75947 4.28463 9.79367 4.17944C9.82786 4.27762 9.85522 4.36878 9.88258 4.45294C9.88942 4.488 9.90994 4.49501 9.94413 4.49501C10.033 4.49501 10.122 4.49501 10.2177 4.50202C10.1493 4.55813 10.0741 4.60721 10.0057 4.66331C9.97149 4.68435 9.96465 4.70539 9.97833 4.74747C10.0125 4.83162 10.0399 4.91577 10.0672 5.02096Z" fill="white"/>
<path d="M4.53467 2.0196C4.63726 2.0196 4.72617 2.0196 4.81508 2.0196C4.84927 2.0196 4.86979 2.01259 4.87663 1.97051C4.90399 1.87935 4.93135 1.7952 4.96554 1.69702C4.99974 1.80221 5.0271 1.88636 5.05445 1.97753C5.06129 2.00558 5.07497 2.0196 5.10917 2.0196C5.19808 2.0196 5.29383 2.0196 5.39642 2.0196C5.33486 2.0757 5.27331 2.11778 5.2186 2.15985C5.12969 2.22297 5.12969 2.22297 5.16388 2.32816C5.1844 2.39828 5.20492 2.4614 5.23227 2.54555C5.1502 2.48244 5.07497 2.42633 5.00658 2.37023C4.97922 2.3492 4.96554 2.3492 4.93819 2.37023C4.87663 2.41932 4.81508 2.4614 4.75352 2.51049C4.73301 2.5175 4.72617 2.53152 4.70565 2.52451C4.73301 2.43335 4.76036 2.3492 4.78772 2.25803C4.79456 2.22998 4.79456 2.21596 4.7672 2.19492C4.69197 2.14583 4.62358 2.08973 4.53467 2.0196Z" fill="white"/>
<path d="M1.5936 2.53152C1.5252 2.48244 1.44997 2.42633 1.38158 2.37023C1.34738 2.34218 1.3337 2.3492 1.29951 2.37023C1.23111 2.42633 1.15588 2.48244 1.07381 2.54555C1.10801 2.44036 1.12852 2.35621 1.16272 2.26504C1.1764 2.22998 1.16956 2.20894 1.1422 2.19492C1.06697 2.13882 0.998579 2.08973 0.909668 2.0196C1.00542 2.0196 1.09433 2.0196 1.1764 2.0196C1.22427 2.0196 1.24479 2.00558 1.25847 1.95649C1.27899 1.87234 1.31319 1.78819 1.34054 1.69702C1.37474 1.7952 1.4021 1.88636 1.42945 1.97753C1.43629 2.01259 1.44997 2.02661 1.48417 2.02661C1.57308 2.02661 1.66199 2.02661 1.77142 2.02661C1.68935 2.08973 1.61411 2.14583 1.53888 2.19492C1.51836 2.21596 1.50469 2.22998 1.51836 2.26504C1.55256 2.3492 1.57308 2.43335 1.60043 2.52451C1.60043 2.52451 1.5936 2.52451 1.5936 2.53152Z" fill="white"/>
<path d="M6.43588 2.5386C6.34697 2.47549 6.27858 2.41939 6.20335 2.36329C6.18283 2.34225 6.16231 2.34926 6.1418 2.36329C6.0734 2.4264 5.99817 2.47549 5.90926 2.54562C5.93662 2.45445 5.96397 2.3703 5.99133 2.29316C6.01185 2.24407 6.00501 2.21602 5.95714 2.18096C5.88874 2.13888 5.82719 2.08278 5.74512 2.01967C5.82035 2.01967 5.8819 2.01967 5.94346 2.01967C6.0734 2.01967 6.0734 2.01967 6.11444 1.89344C6.13496 1.83033 6.15547 1.77423 6.17599 1.7041C6.21019 1.77423 6.22387 1.83734 6.24438 1.90747C6.27858 2.01967 6.27858 2.01967 6.39485 2.01967C6.4564 2.01967 6.51796 2.01967 6.57951 2.01967C6.58635 2.01967 6.58635 2.01967 6.60003 2.01967C6.53163 2.06876 6.47008 2.11785 6.40853 2.15992C6.34013 2.22304 6.34013 2.22304 6.36749 2.30719C6.38801 2.37731 6.42221 2.44744 6.43588 2.5386Z" fill="white"/>
<path d="M6.42221 5.00693C6.36065 4.95784 6.29226 4.91577 6.23071 4.85967C6.18967 4.8246 6.16231 4.8246 6.12128 4.85967C6.05972 4.91577 5.98449 4.95784 5.90926 5.02096C5.94346 4.92278 5.96397 4.83162 5.99817 4.74747C6.01185 4.7124 6.00501 4.69136 5.97765 4.67033C5.90242 4.62124 5.82719 4.56514 5.74512 4.50202C5.83403 4.50202 5.9161 4.50202 5.99133 4.50202C6.08024 4.50202 6.08024 4.50202 6.1076 4.41787C6.12812 4.34073 6.15547 4.27061 6.18283 4.17944C6.20335 4.26359 6.23071 4.34073 6.25122 4.41787C6.2649 4.48099 6.29226 4.50904 6.36065 4.50202C6.43588 4.49501 6.51796 4.50202 6.61371 4.50202C6.5248 4.55813 6.46324 4.61423 6.38801 4.66331C6.35381 4.68435 6.34013 4.7124 6.36065 4.75448C6.38801 4.83162 6.40853 4.91577 6.43588 4.99291C6.42905 4.99992 6.42905 4.99992 6.42221 5.00693Z" fill="white"/>
<path d="M10.2177 2.03363C10.1493 2.08272 10.0878 2.1318 10.0194 2.18089C9.97832 2.20894 9.96465 2.23699 9.98516 2.28608C10.0125 2.36322 10.033 2.44036 10.0536 2.53152C9.98516 2.47542 9.90993 2.42633 9.84154 2.37023C9.81418 2.3492 9.79366 2.3492 9.76631 2.37023C9.69791 2.42633 9.62268 2.48244 9.53377 2.54555C9.56797 2.44737 9.58849 2.35621 9.62268 2.26504C9.63636 2.22998 9.62952 2.21596 9.60216 2.19492C9.52693 2.14583 9.45854 2.08973 9.36963 2.0196C9.47906 2.0196 9.56797 2.0196 9.65688 2.0196C9.69107 2.0196 9.70475 2.01259 9.71159 1.97753C9.73895 1.88636 9.76631 1.80221 9.8005 1.69702C9.8347 1.7952 9.86206 1.88636 9.88941 1.97051C9.89625 2.00558 9.91677 2.0196 9.95097 2.01259C10.0399 2.01259 10.1288 2.01259 10.2177 2.01259C10.2177 2.02661 10.2177 2.02661 10.2177 2.03363Z" fill="white"/>
<path d="M2.98187 2.01967C2.89979 2.0898 2.82456 2.1459 2.74933 2.19499C2.72197 2.21602 2.71513 2.23005 2.72881 2.26511C2.75617 2.34926 2.78353 2.44043 2.81772 2.54562C2.73565 2.4825 2.66042 2.4264 2.58519 2.3703C2.55783 2.34926 2.53731 2.34926 2.50996 2.3703C2.45524 2.41939 2.39369 2.46146 2.33213 2.50354C2.31846 2.51757 2.31162 2.53159 2.2911 2.52458C2.31846 2.44043 2.33897 2.35628 2.37317 2.27914C2.39369 2.23005 2.38001 2.20901 2.33897 2.18797C2.27058 2.13888 2.20219 2.0898 2.12012 2.02668C2.22955 2.02668 2.31846 2.02668 2.40737 2.02668C2.44156 2.02668 2.4484 2.01266 2.46208 1.98461C2.48944 1.89344 2.5168 1.80228 2.55099 1.7041C2.58519 1.80929 2.61255 1.90045 2.6399 1.98461C2.64674 2.01266 2.66042 2.02668 2.69462 2.02668C2.78353 2.01967 2.87244 2.01967 2.98187 2.01967Z" fill="white"/>
<path d="M1.02571 6.24814C0.957322 6.19204 0.888929 6.14295 0.820536 6.09387C0.78634 6.06582 0.765822 6.0588 0.724786 6.09387C0.656394 6.14997 0.588001 6.19906 0.512769 6.25516C0.519608 6.18503 0.546965 6.13594 0.560644 6.08685C0.608519 5.93959 0.608519 5.93959 0.485412 5.84842C0.444376 5.81336 0.40334 5.7783 0.362305 5.73622C0.430697 5.73622 0.50593 5.73622 0.574322 5.73622C0.676911 5.73622 0.670072 5.73622 0.704269 5.63805C0.724786 5.56792 0.745304 5.49779 0.772661 5.42065C0.800018 5.48377 0.813697 5.53987 0.834215 5.60298C0.875251 5.73622 0.875251 5.73622 1.01204 5.73622C1.07359 5.73622 1.1283 5.73622 1.18986 5.73622C1.18986 5.74324 1.18986 5.74323 1.18986 5.75025C1.12146 5.80635 1.04623 5.85544 0.971 5.91154C0.943643 5.93258 0.936804 5.9466 0.950483 5.98166C0.97784 6.05179 0.991518 6.12192 1.01888 6.18503C1.02571 6.20607 1.03255 6.22009 1.02571 6.24814Z" fill="white"/>
<path d="M10.4436 5.41382C10.4778 5.51901 10.5051 5.61017 10.5325 5.69432C10.5393 5.72237 10.553 5.7364 10.5872 5.7364C10.6761 5.7364 10.765 5.7364 10.8744 5.7364C10.7924 5.79951 10.7308 5.8486 10.6624 5.89769C10.6145 5.92574 10.6077 5.9608 10.6282 6.00989C10.6556 6.08703 10.6829 6.16417 10.7103 6.26235C10.6282 6.19923 10.553 6.15014 10.4846 6.09404C10.4572 6.073 10.4367 6.06599 10.4025 6.09404C10.3478 6.14313 10.2863 6.18521 10.2247 6.22728C10.211 6.2343 10.1973 6.25533 10.1768 6.25533C10.2042 6.17118 10.2247 6.08703 10.2589 6.00288C10.2794 5.95379 10.2657 5.93275 10.2247 5.9047C10.1563 5.85561 10.0879 5.80653 10.0264 5.74341C10.1084 5.74341 10.1905 5.7364 10.2657 5.74341C10.3205 5.75042 10.3478 5.72237 10.3615 5.67329C10.3888 5.58913 10.4162 5.512 10.4436 5.41382Z" fill="white"/>
<path d="M6.81856 5.41382C6.85276 5.512 6.88012 5.60316 6.90747 5.69432C6.91431 5.72939 6.93483 5.7364 6.96219 5.7364C7.0511 5.7364 7.14001 5.7364 7.23576 5.75042C7.16737 5.80653 7.09213 5.85561 7.02374 5.91171C6.99638 5.93275 6.98954 5.94678 6.99638 5.98184C7.02374 6.06599 7.0511 6.15716 7.08529 6.26235C7.00322 6.19923 6.92799 6.15014 6.85276 6.09404C6.8254 6.073 6.80488 6.073 6.77753 6.09404C6.70913 6.14313 6.6339 6.19222 6.55183 6.25533C6.58603 6.15014 6.60655 6.06599 6.64074 5.98184C6.65442 5.94678 6.64758 5.92574 6.61339 5.9047C6.54499 5.85561 6.46976 5.79951 6.40137 5.7364C6.46292 5.7364 6.52447 5.7364 6.57919 5.7364C6.71597 5.7364 6.70913 5.7364 6.75017 5.60316C6.77753 5.54706 6.79121 5.49096 6.81856 5.41382Z" fill="white"/>
<path d="M3.9873 5.7364C4.06938 5.7364 4.15829 5.7364 4.24036 5.7364C4.28823 5.7364 4.30875 5.72237 4.32243 5.67329C4.34295 5.58913 4.3703 5.50498 4.4045 5.41382C4.4387 5.512 4.46605 5.60316 4.49341 5.68731C4.50025 5.72939 4.51393 5.7364 4.54813 5.7364C4.63704 5.7364 4.72595 5.7364 4.83538 5.7364C4.74646 5.79951 4.67807 5.85561 4.60968 5.9047C4.57548 5.92574 4.56864 5.94678 4.58232 5.98885C4.60968 6.07301 4.63704 6.15716 4.65071 6.24832C4.58232 6.19222 4.50709 6.14313 4.4387 6.08703C4.41134 6.06599 4.39766 6.06599 4.3703 6.08703C4.29507 6.14313 4.21984 6.19222 4.13093 6.25533C4.16513 6.15716 4.18564 6.06599 4.21984 5.98184C4.23352 5.94678 4.22668 5.92574 4.19932 5.9047C4.12409 5.85561 4.0557 5.79951 3.9873 5.75042C3.9873 5.74341 3.9873 5.74341 3.9873 5.7364Z" fill="white"/>
<path d="M7.76961 6.23425C7.79696 6.14309 7.82432 6.05894 7.85168 5.96777C7.86536 5.93972 7.85168 5.9257 7.83116 5.91167C7.75593 5.85557 7.68754 5.79947 7.6123 5.73636C7.67386 5.73636 7.74225 5.73636 7.8038 5.73636C7.92691 5.73636 7.92691 5.73636 7.96111 5.62416C7.98163 5.56104 8.00214 5.49793 8.02266 5.44183C8.02266 5.44183 8.02266 5.44183 8.0295 5.43481C8.05686 5.52598 8.08421 5.61013 8.11157 5.69428C8.11841 5.72934 8.13893 5.74337 8.17313 5.74337C8.26204 5.74337 8.35095 5.74337 8.46037 5.74337C8.3783 5.80648 8.30991 5.86258 8.23468 5.91167C8.20048 5.9257 8.19364 5.94674 8.20732 5.98881C8.23468 6.07296 8.26204 6.15711 8.29623 6.2623C8.221 6.2062 8.15945 6.16413 8.09789 6.11504C8.0295 6.06595 8.0295 6.06595 7.95427 6.11504C7.91323 6.1501 7.86536 6.17815 7.82432 6.21322C7.81064 6.22023 7.79696 6.24127 7.76961 6.23425Z" fill="white"/>
<path d="M7.23576 3.27491C7.16737 3.33101 7.09897 3.3801 7.02374 3.42918C6.98955 3.45022 6.98271 3.47126 6.99638 3.50632C7.02374 3.59047 7.0511 3.67463 7.08529 3.77981C7.00322 3.72371 6.93483 3.67463 6.87328 3.62554C6.83224 3.59047 6.79805 3.59047 6.75701 3.62554C6.69546 3.67463 6.6339 3.72371 6.55867 3.77981C6.57235 3.70268 6.59971 3.63255 6.62022 3.56944C6.65442 3.45723 6.65442 3.45723 6.56551 3.39412C6.5108 3.35204 6.45608 3.30997 6.40137 3.26088C6.49028 3.26088 6.57919 3.26088 6.6681 3.26088C6.7023 3.26088 6.72281 3.25387 6.72965 3.21881C6.75701 3.12764 6.78437 3.04349 6.81856 2.94531C6.85276 3.04349 6.88012 3.13465 6.90747 3.22582C6.91431 3.26088 6.92799 3.26789 6.96219 3.26789C7.0511 3.26789 7.14001 3.26789 7.23576 3.26789C7.23576 3.26789 7.23576 3.26789 7.23576 3.27491Z" fill="white"/>
<path d="M3.44027 6.24113C3.38555 6.20607 3.33768 6.171 3.2898 6.13594C3.18721 6.0588 3.18721 6.0588 3.08462 6.13594C3.04359 6.171 2.99571 6.20607 2.94784 6.24113C2.94784 6.24113 2.941 6.24113 2.93416 6.24113C2.95468 6.16399 2.97519 6.08685 3.00939 6.00971C3.02307 5.95361 3.02307 5.92556 2.97519 5.8905C2.9068 5.84842 2.84525 5.79934 2.77686 5.75025C2.80421 5.73622 2.83157 5.74323 2.85209 5.74323C2.91364 5.74323 2.97519 5.74323 3.02991 5.74323C3.07778 5.74323 3.0983 5.73622 3.11198 5.68713C3.1325 5.60298 3.16669 5.51883 3.19405 5.42065C3.22141 5.51182 3.2556 5.59597 3.27612 5.68012C3.2898 5.7222 3.30348 5.74324 3.35135 5.73622C3.43343 5.72921 3.52234 5.73622 3.61125 5.74323C3.53602 5.79934 3.46762 5.85544 3.39239 5.91154C3.36503 5.93258 3.35819 5.9466 3.37187 5.98166C3.39923 6.05179 3.41975 6.12192 3.44027 6.19204C3.44027 6.20607 3.4471 6.22009 3.44027 6.24113Z" fill="white"/>
<path d="M8.82275 5.7364C8.91166 5.7364 9.00058 5.7364 9.08949 5.7364C9.12368 5.7364 9.13736 5.72237 9.15104 5.68731C9.1784 5.59615 9.20575 5.512 9.23995 5.41382C9.26731 5.50498 9.3015 5.58212 9.31518 5.65926C9.32886 5.72237 9.36306 5.74341 9.41777 5.7364C9.493 5.72939 9.57507 5.7364 9.65031 5.74341C9.57507 5.79951 9.49984 5.85561 9.42461 5.91171C9.40409 5.92574 9.39725 5.93977 9.40409 5.96782C9.43829 6.05898 9.45881 6.15014 9.493 6.25533C9.41777 6.19923 9.34254 6.15014 9.27415 6.09404C9.23311 6.05898 9.20575 6.06599 9.17156 6.09404C9.10316 6.15014 9.03477 6.19222 8.95954 6.25533C8.99374 6.15716 9.01425 6.06599 9.04845 5.98184C9.06213 5.94678 9.05529 5.92574 9.02793 5.9047C8.95954 5.85561 8.89115 5.79951 8.82275 5.75042C8.82275 5.74341 8.82275 5.74341 8.82275 5.7364Z" fill="white"/>
<path d="M4.81486 3.27491C4.74646 3.32399 4.67807 3.3801 4.60284 3.42918C4.57548 3.45022 4.56864 3.47126 4.58232 3.51334C4.60968 3.59749 4.63704 3.68164 4.67123 3.77981C4.58232 3.7167 4.50709 3.66761 4.4387 3.61151C4.41134 3.58346 4.39082 3.59047 4.35663 3.61151C4.29507 3.66761 4.21984 3.7167 4.14461 3.77981C4.15145 3.7167 4.17197 3.66761 4.18564 3.61151C4.19932 3.56242 4.24036 3.50632 4.22668 3.45723C4.20616 3.42217 4.15145 3.39412 4.11041 3.36607C4.06938 3.33101 4.02834 3.30296 3.9873 3.26088C4.06254 3.26088 4.14461 3.25387 4.21984 3.26088C4.28139 3.26789 4.30875 3.24686 4.32243 3.19075C4.34295 3.11362 4.3703 3.03648 4.39766 2.94531C4.43186 3.04349 4.45921 3.13465 4.48657 3.21881C4.50025 3.25387 4.51393 3.26789 4.55496 3.26789C4.64388 3.26789 4.73279 3.26789 4.81486 3.26789C4.81486 3.26789 4.81486 3.26789 4.81486 3.27491Z" fill="white"/>
<path d="M10.0332 3.26095C10.1016 3.26095 10.17 3.26095 10.2384 3.26095C10.341 3.26095 10.341 3.26095 10.3752 3.15576C10.3957 3.09265 10.4162 3.02252 10.4367 2.95941L10.4436 2.95239C10.4709 3.04356 10.5051 3.13472 10.5256 3.22588C10.5325 3.25394 10.5462 3.26095 10.5735 3.26095C10.6624 3.26095 10.7582 3.26095 10.8539 3.26796C10.7992 3.31004 10.7445 3.35211 10.6898 3.39419C10.6009 3.4573 10.6009 3.4573 10.6351 3.56249C10.6556 3.6256 10.6761 3.69573 10.6966 3.75884C10.6966 3.75884 10.6966 3.75884 10.6898 3.77287C10.6145 3.71677 10.5462 3.66768 10.4778 3.61158C10.4436 3.58353 10.423 3.59054 10.3957 3.61158C10.341 3.65365 10.2863 3.69573 10.2315 3.73781C10.2179 3.75183 10.2042 3.76586 10.1837 3.75183C10.211 3.66768 10.2384 3.57652 10.2657 3.49236C10.2726 3.46431 10.2726 3.45029 10.2452 3.43626C10.17 3.38016 10.0948 3.33107 10.0264 3.27497C10.0264 3.26796 10.0332 3.26796 10.0332 3.26095Z" fill="white"/>
<path d="M2.25034 6.25533C2.16827 6.19222 2.09303 6.14313 2.02464 6.08703C1.99728 6.06599 1.97677 6.06599 1.94941 6.08703C1.87418 6.14313 1.79895 6.19923 1.71687 6.25533C1.75107 6.15716 1.77843 6.06599 1.80578 5.97483C1.81262 5.94678 1.81262 5.93275 1.78527 5.91873C1.71687 5.86263 1.64164 5.80653 1.55957 5.74341C1.61428 5.72939 1.66216 5.7364 1.71003 5.7364C1.76475 5.7364 1.83314 5.75042 1.87418 5.72939C1.91521 5.70134 1.91521 5.6242 1.93573 5.5681C1.94941 5.52602 1.96309 5.47693 1.98361 5.41382C2.0178 5.512 2.04516 5.59615 2.06568 5.68731C2.07936 5.72939 2.09987 5.7364 2.13407 5.7364C2.22298 5.7364 2.30505 5.7364 2.4008 5.74341C2.33241 5.79951 2.26402 5.85561 2.18878 5.9047C2.15459 5.92574 2.14775 5.94678 2.16143 5.98184C2.19562 6.06599 2.21614 6.15716 2.25034 6.25533Z" fill="white"/>
<path d="M7.76961 3.75871C7.79696 3.67456 7.82432 3.58339 7.85168 3.49924C7.85852 3.47119 7.85852 3.45717 7.83116 3.43613C7.75593 3.38704 7.68754 3.33094 7.6123 3.26081C7.70122 3.26081 7.79013 3.26081 7.87904 3.26081C7.91323 3.26081 7.92691 3.2538 7.94059 3.21874C7.96795 3.12757 7.9953 3.04342 8.0295 2.93823C8.0637 3.04342 8.09105 3.12757 8.11841 3.21874C8.12525 3.2538 8.14577 3.26081 8.17313 3.26081C8.26204 3.26081 8.35095 3.26081 8.4467 3.27484C8.3783 3.32393 8.31675 3.38003 8.24836 3.4221C8.20048 3.45015 8.20048 3.4782 8.21416 3.52729C8.24152 3.60443 8.26888 3.68858 8.29623 3.78676C8.20732 3.71663 8.13209 3.66755 8.0637 3.61144C8.03634 3.59041 8.02266 3.59041 7.9953 3.61144C7.94059 3.65352 7.87904 3.6956 7.82432 3.73767C7.8038 3.74468 7.79013 3.76572 7.76961 3.75871Z" fill="white"/>
<path d="M6.02531 5.75032C5.95691 5.7994 5.88852 5.8555 5.81329 5.90459C5.78593 5.92563 5.77909 5.94667 5.79277 5.98173C5.82013 6.06588 5.84749 6.15705 5.88168 6.25522C5.79277 6.19912 5.72438 6.14302 5.65599 6.09393C5.62179 6.06588 5.60127 6.06588 5.56708 6.09393C5.49868 6.15003 5.42345 6.19912 5.34138 6.26224C5.37558 6.15705 5.40293 6.06588 5.43029 5.98173C5.44397 5.94667 5.43713 5.92563 5.40293 5.90459C5.33454 5.8555 5.26615 5.7994 5.19775 5.73629C5.26615 5.73629 5.33454 5.73629 5.40293 5.73629C5.51236 5.73629 5.51236 5.73629 5.54656 5.6311C5.56707 5.56799 5.58759 5.49786 5.60811 5.43475C5.60811 5.43475 5.60811 5.43475 5.61495 5.42773C5.64231 5.51189 5.66966 5.59604 5.69702 5.6872C5.7107 5.72928 5.72438 5.73629 5.76541 5.73629C5.85432 5.73629 5.9364 5.73629 6.02531 5.73629C6.02531 5.7433 6.02531 5.7433 6.02531 5.75032Z" fill="white"/>
<path d="M5.19775 3.26081C5.27983 3.26081 5.3619 3.26081 5.45081 3.26081C5.49184 3.26081 5.51236 3.2538 5.52604 3.20471C5.54656 3.12056 5.58075 3.03641 5.60811 2.93823C5.64231 3.04342 5.66966 3.12757 5.69702 3.21874C5.70386 3.24679 5.71754 3.26081 5.75174 3.26081C5.84065 3.26081 5.92956 3.26081 6.02531 3.26783C5.97743 3.3099 5.92956 3.34496 5.87484 3.38704C5.77225 3.45717 5.77225 3.45717 5.81329 3.57638C5.83381 3.63949 5.85432 3.70261 5.87484 3.77975C5.79961 3.72365 5.72438 3.67456 5.66282 3.61846C5.62179 3.58339 5.59443 3.58339 5.5534 3.61846C5.49184 3.67456 5.41661 3.71663 5.34138 3.77975C5.37558 3.68157 5.40293 3.59041 5.43029 3.50625C5.44397 3.47119 5.43713 3.45717 5.40977 3.43613C5.33454 3.38003 5.26615 3.32393 5.19775 3.27484C5.19775 3.26783 5.19775 3.26783 5.19775 3.26081Z" fill="white"/>
<path d="M9.49984 3.77975C9.41777 3.71663 9.34254 3.66755 9.27415 3.61144C9.24679 3.59041 9.22627 3.59041 9.19207 3.61144C9.12368 3.66755 9.04845 3.71663 8.96638 3.77975C9.00058 3.67456 9.02109 3.59041 9.05529 3.49924C9.06897 3.46418 9.06213 3.45015 9.03477 3.42912C8.95954 3.38003 8.89115 3.32393 8.82275 3.26081C8.90483 3.26081 8.9869 3.26081 9.06897 3.26081C9.11684 3.26081 9.1442 3.24679 9.15788 3.1977C9.1784 3.11355 9.20575 3.03641 9.23995 2.93823C9.26731 3.0294 9.3015 3.10654 9.32202 3.19069C9.3357 3.24679 9.35622 3.26783 9.41777 3.26081C9.49984 3.2538 9.58191 3.26081 9.66399 3.26783C9.58875 3.32393 9.52036 3.38003 9.44513 3.42912C9.41777 3.44314 9.41093 3.46418 9.42461 3.49223C9.44513 3.59041 9.47249 3.67456 9.49984 3.77975Z" fill="white"/>
<path d="M3.19405 2.93823C3.22824 3.03641 3.2556 3.12056 3.27612 3.20471C3.2898 3.2538 3.31032 3.26081 3.35135 3.26081C3.43342 3.2538 3.51549 3.26081 3.61124 3.26783C3.57021 3.29588 3.53601 3.32393 3.50182 3.35198C3.45394 3.38704 3.38555 3.41509 3.36503 3.46418C3.35135 3.50625 3.39239 3.57638 3.4129 3.63248C3.42658 3.67456 3.4471 3.70962 3.4471 3.7517C3.42658 3.76572 3.41974 3.7517 3.40607 3.74468C3.34451 3.6956 3.28296 3.65352 3.22824 3.60443C3.20089 3.58339 3.18721 3.58339 3.15985 3.60443C3.08462 3.66053 3.00939 3.71663 2.92732 3.77975C2.95467 3.68858 2.97519 3.60443 3.00939 3.52729C3.02991 3.4782 3.02307 3.44314 2.97519 3.41509C2.9068 3.37301 2.84524 3.32393 2.78369 3.26081C2.86576 3.26081 2.95467 3.26081 3.03674 3.26081C3.07778 3.26081 3.0983 3.2538 3.11198 3.20471C3.13249 3.12056 3.15985 3.03641 3.19405 2.93823Z" fill="white"/>
<path d="M0.50593 3.77981C0.540126 3.68164 0.567483 3.59047 0.59484 3.50632C0.608519 3.47126 0.601679 3.45022 0.574322 3.42918C0.49909 3.3801 0.430697 3.32399 0.362305 3.26088C0.444376 3.26088 0.526447 3.26088 0.601679 3.26088C0.656394 3.26088 0.676911 3.24686 0.69059 3.19777C0.711108 3.11362 0.738465 3.03648 0.772661 2.94531C0.806858 3.04349 0.834215 3.13465 0.861572 3.21881C0.87525 3.25387 0.888929 3.26088 0.923125 3.26088C1.01204 3.26088 1.10095 3.26088 1.18986 3.27491C1.12146 3.33101 1.04623 3.38711 0.97784 3.4362C0.943643 3.45022 0.943643 3.47126 0.950483 3.50632C0.97784 3.57645 0.991518 3.64657 1.01888 3.70969C1.02571 3.72371 1.03255 3.73774 1.01888 3.75878C0.957322 3.7167 0.888929 3.67463 0.827376 3.61852C0.78634 3.58346 0.758983 3.58346 0.717947 3.61852C0.656394 3.67463 0.588001 3.72371 0.50593 3.77981Z" fill="white"/>
<path d="M1.71687 3.77968C1.75107 3.6815 1.77158 3.59735 1.79894 3.5132C1.81262 3.47112 1.81262 3.44307 1.77158 3.41502C1.70319 3.36593 1.6348 3.31685 1.56641 3.26075C1.59376 3.24672 1.62112 3.25373 1.64848 3.25373C1.71003 3.25373 1.77842 3.25373 1.83998 3.25373C1.86733 3.25373 1.88785 3.24672 1.89469 3.21166C1.92205 3.12049 1.94941 3.02933 1.9836 2.93115C2.0178 3.03634 2.04516 3.12049 2.07251 3.21166C2.07935 3.23971 2.09303 3.25373 2.12723 3.25373C2.21614 3.25373 2.30505 3.25373 2.41448 3.25373C2.33241 3.32386 2.26401 3.37996 2.18878 3.42905C2.16142 3.45009 2.14774 3.47112 2.16142 3.50619C2.18878 3.59034 2.21614 3.6815 2.25033 3.77968C2.16142 3.71657 2.09303 3.66748 2.0178 3.60436C1.99044 3.58333 1.96992 3.58333 1.94941 3.60436C1.87417 3.66748 1.79894 3.71657 1.71687 3.77968Z" fill="white"/>
</g>
<defs>
<clipPath id="clip0_1_21">
<rect width="28" height="15" fill="white"/>
</clipPath>
</defs>
</svg>
