<svg width="15" height="20" viewBox="0 0 15 20" fill="none" xmlns="http://www.w3.org/2000/svg">
<g clip-path="url(#clip0_1_2981)">
<path d="M0 7.17504V7.13254C0 6.26754 0.165833 5.44171 0.466667 4.68421L0.450833 4.72921C0.736668 3.98852 1.15993 3.30853 1.69833 2.72504L1.69417 2.72921C2.7747 1.57211 4.15688 0.739738 5.685 0.325877L5.74417 0.312544C6.53362 0.102602 7.34728 -0.00246746 8.16417 4.39756e-05H8.17333H8.1725H8.23333C9.49667 4.39756e-05 10.6917 0.295877 11.7517 0.820877L11.705 0.800044C12.7732 1.32043 13.6844 2.11461 14.3458 3.10171L14.3608 3.12588C15.0299 4.12123 15.3857 5.29406 15.3825 6.49338L15.3817 6.57921V6.57504V6.58838C15.3817 7.38338 15.2983 8.15921 15.14 8.90671L15.1525 8.83421C14.9978 9.58984 14.7474 10.3227 14.4075 11.015L14.4317 10.9617C14.12 11.6195 13.7137 12.2282 13.2258 12.7684L13.2317 12.7617C12.7506 13.2813 12.1691 13.698 11.5225 13.9867L11.4892 14C10.7938 14.308 10.0413 14.4658 9.28083 14.4634H9.21417H9.2175C8.64648 14.4597 8.08393 14.3249 7.57333 14.0692L7.595 14.0792C7.10829 13.8657 6.70515 13.4982 6.4475 13.0334L6.44083 13.0209C6.36083 13.332 6.24972 13.7825 6.1075 14.3725C5.96528 14.9625 5.87111 15.3431 5.825 15.5142C5.78056 15.6864 5.69833 15.9709 5.57833 16.3675C5.485 16.7009 5.37833 16.9842 5.25083 17.2559L5.26583 17.2209L4.88083 17.9725C4.69417 18.3367 4.51083 18.6425 4.30917 18.9342L4.3275 18.9059C4.12694 19.1981 3.87861 19.5445 3.5825 19.945L3.41417 20.005L3.30583 19.885C3.18583 18.6267 3.12583 17.8737 3.12583 17.6259C3.13667 16.7409 3.23 15.885 3.39917 15.0567L3.38417 15.1442C3.55639 14.227 3.82306 13.0753 4.18417 11.6892C4.54528 10.3031 4.75361 9.48977 4.80917 9.24921C4.52521 8.60773 4.39372 7.90919 4.425 7.20838V7.21754C4.425 6.50838 4.6575 5.85421 5.05 5.32588L5.04417 5.33421C5.21344 5.06625 5.4476 4.84534 5.72495 4.69195C6.00231 4.53856 6.31389 4.45765 6.63083 4.45671C6.65333 4.45504 6.67917 4.45504 6.70583 4.45504C7.13167 4.45504 7.51333 4.64338 7.77167 4.94171L7.77333 4.94338C8.02833 5.25838 8.18333 5.66338 8.18333 6.10504L8.18167 6.17921V6.17588C8.12539 6.98219 7.94085 7.77437 7.635 8.52254L7.65333 8.47171C7.36373 9.18021 7.18605 9.92944 7.12667 10.6925L7.125 10.7192L7.12417 10.7592C7.12417 11.2409 7.3325 11.6742 7.66417 11.9734L7.66583 11.975C7.99833 12.2842 8.445 12.4742 8.93667 12.4742L8.97833 12.4734H8.97667H8.99667C9.43833 12.4734 9.85333 12.3617 10.2167 12.1659L10.2033 12.1725C10.5729 11.9763 10.8936 11.6995 11.1417 11.3625L11.1467 11.355C11.39 11.025 11.6142 10.65 11.8025 10.255L11.82 10.2134C12.0025 9.83421 12.16 9.39171 12.2675 8.93004L12.2767 8.88588C12.365 8.53171 12.45 8.07921 12.51 7.61921L12.5175 7.55254C12.5658 7.19504 12.5942 6.78004 12.5958 6.35838V6.35671C12.6302 5.75371 12.5302 5.15061 12.3033 4.5909C12.0763 4.03119 11.7279 3.52883 11.2833 3.12004L11.2808 3.11754C10.3208 2.31041 9.09109 1.89605 7.83833 1.95754H7.84917C7.10964 1.93531 6.37317 2.06171 5.68338 2.32924C4.99358 2.59677 4.36448 3 3.83333 3.51504L3.835 3.51338C3.30385 4.02273 2.88591 4.63821 2.60838 5.31978C2.33084 6.00134 2.19993 6.73371 2.22417 7.46921V7.46088V7.47088C2.22417 7.83171 2.27917 8.17921 2.38083 8.50671L2.37417 8.48171C2.45917 8.77921 2.57 9.03921 2.70833 9.28004L2.69917 9.26254C2.81528 9.45477 2.92361 9.63699 3.02417 9.80921C3.0975 9.91338 3.15 10.0367 3.17333 10.17L3.17417 10.1759C3.15946 10.483 3.09647 10.7859 2.9875 11.0734L2.99417 11.0534C2.87417 11.4139 2.72583 11.5942 2.54917 11.5942C2.53306 11.5942 2.465 11.5823 2.345 11.5584C1.93019 11.4335 1.55546 11.2019 1.25833 10.8867L1.2575 10.885C0.947435 10.5645 0.701369 10.1878 0.5325 9.77504L0.524167 9.75171C0.358184 9.3478 0.230132 8.92934 0.141667 8.50171L0.133333 8.45338C0.0456931 8.03318 0.00129504 7.60512 0.000833333 7.17588V7.17421L0 7.17504Z" fill="white"/>
</g>
<defs>
<clipPath id="clip0_1_2981">
<rect width="15" height="20" fill="white"/>
</clipPath>
</defs>
</svg>
