<svg width="13" height="16" viewBox="0 0 13 16" fill="none" xmlns="http://www.w3.org/2000/svg">
<path d="M1.97412 5.32224C1.97412 7.90868 4.0903 10.0249 6.67673 10.0249C9.26317 10.0249 11.3793 7.90868 11.3793 5.32224C11.3793 2.7358 9.26317 0.619629 6.67673 0.619629C4.0903 0.619629 1.97412 2.7358 1.97412 5.32224ZM10.2729 5.32224C10.2729 7.30011 8.6546 8.91836 6.67673 8.91836C4.69887 8.91836 3.08062 7.30011 3.08062 5.32224C3.08062 3.34438 4.69887 1.72613 6.67673 1.72613C8.6546 1.72613 10.2729 3.34438 10.2729 5.32224Z" fill="white"/>
<path d="M1.19951 15.0594C2.66562 13.5933 4.60199 12.7911 6.67667 12.7911C8.75135 12.7911 10.6877 13.5933 12.1538 15.0594L12.9422 14.271C11.2686 12.6113 9.04181 11.6846 6.67667 11.6846C4.31153 11.6846 2.08471 12.6113 0.411133 14.271L1.19951 15.0594Z" fill="white"/>
</svg>
