<?xml version="1.0" standalone="no"?>
<!DOCTYPE svg PUBLIC "-//W3C//DTD SVG 1.1//EN" "http://www.w3.org/Graphics/SVG/1.1/DTD/svg11.dtd" >
<svg xmlns="http://www.w3.org/2000/svg" xmlns:xlink="http://www.w3.org/1999/xlink" version="1.1">
<metadata>
Created by FontForge 20170731 at Sun Sep 20 17:55:05 2020
 By Aleksey,,,
Copyright (c) 2015 by Mika Mischler. All rights reserved.
</metadata>
<defs>
<font id="T-StarPro-Light" horiz-adv-x="1097" >
  <font-face 
    font-family="T-Star Pro Light"
    font-weight="250"
    font-stretch="normal"
    units-per-em="2048"
    panose-1="0 0 3 0 0 0 0 0 0 0"
    ascent="1638"
    descent="-410"
    x-height="1065"
    cap-height="1475"
    bbox="-877 -430 2087 2136"
    underline-thickness="102"
    underline-position="-409"
    unicode-range="U+0020-FB02"
  />
<missing-glyph horiz-adv-x="1222" 
d="M0 -410v1885h1223v-1885h-1223zM520 233h84v37q0 72 18.5 119.5t52 81.5t107.5 88q226 154 226 383q0 172 -108 270.5t-286 98.5q-86 0 -155 -24.5t-112.5 -62t-73 -88t-42 -98.5t-14.5 -96h84q11 135 94 212t219 77q139 0 224.5 -80t85.5 -209q0 -102 -42 -172
t-139 -143q-54 -41 -84.5 -67t-61 -59t-45 -65.5t-23.5 -75t-9 -96.5v-31zM494 -184h141v143h-141v-143z" />
    <glyph glyph-name="fi" unicode="fi" horiz-adv-x="1085" 
d="M608 1065v-80h-274v-985h-84v985h-178v80h178v147q0 133 67.5 198t210.5 65h54v-80h-54q-100 0 -147 -38.5t-47 -142.5v-149h274zM821 1270v151h103v-151h-103zM831 0v1065h82v-1065h-82z" />
    <glyph glyph-name="fl" unicode="fl" horiz-adv-x="1134" 
d="M608 1065v-80h-274v-985h-84v985h-178v80h178v147q0 133 67.5 198t210.5 65h54v-80h-54q-100 0 -147 -38.5t-47 -142.5v-149h274zM1061 0q-238 0 -238 221v1254h84v-1225q0 -92 39.5 -131t124.5 -39h12v-80h-22z" />
    <glyph glyph-name=".notdef" horiz-adv-x="1222" 
d="M0 -410v1885h1223v-1885h-1223zM520 233h84v37q0 72 18.5 119.5t52 81.5t107.5 88q226 154 226 383q0 172 -108 270.5t-286 98.5q-86 0 -155 -24.5t-112.5 -62t-73 -88t-42 -98.5t-14.5 -96h84q11 135 94 212t219 77q139 0 224.5 -80t85.5 -209q0 -102 -42 -172
t-139 -143q-54 -41 -84.5 -67t-61 -59t-45 -65.5t-23.5 -75t-9 -96.5v-31zM494 -184h141v143h-141v-143z" />
    <glyph glyph-name=".null" horiz-adv-x="0" 
 />
    <glyph glyph-name="nonmarkingreturn" horiz-adv-x="682" 
 />
    <glyph glyph-name="space" unicode=" " horiz-adv-x="512" 
 />
    <glyph glyph-name="exclam" unicode="!" horiz-adv-x="493" 
d="M205 432v1043h84v-1043h-84zM174 0v143h145v-143h-145z" />
    <glyph glyph-name="quotedbl" unicode="&#x22;" horiz-adv-x="688" 
d="M174 1137v383h80v-383h-80zM436 1137v383h80v-383h-80z" />
    <glyph glyph-name="numbersign" unicode="#" horiz-adv-x="1374" 
d="M1192 999h-211l-82 -516h223v-65h-233l-68 -418h-73l67 418h-375l-67 -418h-74l68 418h-205v65h215l82 516h-228v66h238l66 410h73l-65 -410h375l65 410h74l-66 -410h201v-66zM825 483l82 516h-375l-81 -516h374z" />
    <glyph glyph-name="dollar" unicode="$" horiz-adv-x="1044" 
d="M938 379q0 -169 -105.5 -276t-269.5 -121v-121h-84v121q-169 11 -271 116.5t-102 288.5h84q0 -156 88.5 -242t239.5 -86q149 0 242.5 87.5t93.5 226.5q0 111 -65 181t-214 142l-153 74q-139 66 -214 153t-75 216q0 144 96 243t250 111v121h84v-121q165 -12 260 -111
t95 -256h-84q0 133 -85.5 211t-228.5 78q-133 0 -218 -78t-85 -192q0 -104 55.5 -169.5t186.5 -127.5l174 -84q159 -76 232 -164t73 -221z" />
    <glyph glyph-name="percent" unicode="%" horiz-adv-x="1548" 
d="M457 -113l555 1694h80l-551 -1694h-84zM350 782q-115 0 -181.5 65.5t-66.5 180.5v223q0 110 68 177t180 67q117 0 183.5 -65.5t66.5 -178.5v-223q0 -113 -67.5 -179.5t-182.5 -66.5zM350 856q83 0 128.5 45t45.5 127v223q0 81 -46 125.5t-128 44.5t-127 -44t-45 -126
v-223q0 -82 45 -127t127 -45zM1196 -10q-115 0 -181.5 65.5t-66.5 180.5v223q0 110 67.5 176.5t180.5 66.5q117 0 183.5 -65t66.5 -178v-223q0 -113 -67.5 -179.5t-182.5 -66.5zM1196 63q83 0 128.5 45.5t45.5 127.5v223q0 81 -46 125.5t-128 44.5t-127 -44t-45 -126v-223
q0 -82 45 -127.5t127 -45.5z" />
    <glyph glyph-name="ampersand" unicode="&#x26;" horiz-adv-x="1312" 
d="M1161 307l-51 -63l-102 88q-19 -156 -131.5 -254t-284.5 -98q-184 0 -302 104t-118 274q0 255 234 394l67 41l-27 22q-118 101 -164 177.5t-46 164.5q0 149 104 243.5t266 94.5q170 0 282.5 -104.5t112.5 -264.5h-75q-4 132 -92 211.5t-228 79.5q-131 0 -210 -69
t-79 -187q0 -75 42 -139t151 -158zM594 59q149 0 244 89.5t98 244.5l-406 350l-73 -45q-201 -122 -201 -333q0 -139 92.5 -222.5t245.5 -83.5z" />
    <glyph glyph-name="quotesingle" unicode="'" horiz-adv-x="425" 
d="M174 1137v383h80v-383h-80z" />
    <glyph glyph-name="parenleft" unicode="(" horiz-adv-x="557" 
d="M369 -430q-48 48 -72.5 76.5t-46 66.5t-28.5 79.5t-7 101.5v1277q0 110 32.5 173.5t119.5 150.5l57 -59q-68 -64 -96.5 -125.5t-28.5 -151.5v-1251q0 -172 125 -277z" />
    <glyph glyph-name="parenright" unicode=")" horiz-adv-x="557" 
d="M188 -430l-55 61q125 105 125 277v1251q0 90 -28.5 151.5t-96.5 125.5l57 59q87 -87 119.5 -150.5t32.5 -173.5v-1277q0 -60 -7 -101.5t-28.5 -79.5t-46 -66.5t-72.5 -76.5z" />
    <glyph glyph-name="asterisk" unicode="*" horiz-adv-x="907" 
d="M424 840l2 268l-231 -135l-31 51l231 133l-231 133l31 51l231 -135l-2 269h59l-2 -269l232 135l30 -51l-231 -133l231 -133l-30 -51l-232 135l2 -268h-59z" />
    <glyph glyph-name="plus" unicode="+" horiz-adv-x="1150" 
d="M991 657v-79h-373v-385h-83v385h-375v79h375v367h83v-367h373z" />
    <glyph glyph-name="comma" unicode="," horiz-adv-x="534" 
d="M76 -229l153 379h117l-184 -379h-86z" />
    <glyph glyph-name="hyphen" unicode="-" horiz-adv-x="915" 
d="M172 524v76h571v-76h-571z" />
    <glyph glyph-name="period" unicode="." horiz-adv-x="489" 
d="M166 0v158h158v-158h-158z" />
    <glyph glyph-name="slash" unicode="/" horiz-adv-x="907" 
d="M102 -410l617 1885h86l-617 -1885h-86z" />
    <glyph glyph-name="zero" unicode="0" horiz-adv-x="1044" 
d="M514 -20q-177 0 -273 106.5t-96 288.5v729q0 180 100 285.5t283 105.5q178 0 274.5 -105.5t96.5 -287.5v-729q0 -181 -100.5 -287t-284.5 -106zM520 59q132 0 213.5 78.5t81.5 237.5v727q0 158 -81 235.5t-212 77.5q-130 0 -211.5 -78.5t-81.5 -234.5v-727
q0 -160 80.5 -238t210.5 -78z" />
    <glyph glyph-name="one" unicode="1" horiz-adv-x="1044" 
d="M573 80h320v-80h-723v80h319v1325l-292 -25v76l376 31v-1407z" />
    <glyph glyph-name="two" unicode="2" horiz-adv-x="1044" 
d="M125 0v205q0 72 19.5 133.5t47.5 105.5t80 90t96 76.5t117 75.5q78 49 126 83t95.5 76.5t72.5 83.5t40 92.5t15 113.5q0 129 -84 204.5t-222 75.5q-144 0 -229 -71.5t-92 -221.5h-82q5 172 111 272.5t292 100.5q175 0 282.5 -98.5t107.5 -266.5q0 -70 -18 -131
t-47.5 -108t-79.5 -94t-100.5 -83t-125.5 -83q-66 -41 -106 -68t-83.5 -61.5t-67 -65t-44.5 -70t-29 -85t-8 -101.5v-100h711v-80h-795z" />
    <glyph glyph-name="three" unicode="3" horiz-adv-x="1044" 
d="M530 836q184 0 289 -100.5t105 -274.5v-105q0 -168 -113 -272t-281 -104t-281.5 101.5t-113.5 268.5h84q0 -131 86.5 -211t224.5 -80q139 0 224.5 81.5t85.5 213.5v107q0 136 -83.5 215.5t-226.5 79.5h-112v73l389 566h-610v80h702v-84l-385 -555h16z" />
    <glyph glyph-name="four" unicode="4" horiz-adv-x="1044" 
d="M821 1065h84v-1065h-84v434h-674v121l416 920h84l-428 -961h602v551z" />
    <glyph glyph-name="five" unicode="5" horiz-adv-x="1044" 
d="M537 860q172 0 282.5 -103.5t110.5 -271.5v-131q0 -169 -111.5 -271.5t-281.5 -102.5q-167 0 -281.5 101.5t-114.5 268.5h84q0 -131 87 -211t225 -80q141 0 225 81t84 214v131q0 132 -84 213.5t-225 81.5h-336v80l65 615h625v-80h-549l-57 -535h252z" />
    <glyph glyph-name="six" unicode="6" horiz-adv-x="1044" 
d="M524 899q183 0 288.5 -103t105.5 -278v-151q0 -175 -106.5 -281t-289.5 -106q-184 0 -288.5 105.5t-104.5 281.5v745q0 178 105 280.5t288 102.5q179 0 286 -96.5t107 -255.5h-81q-1 127 -84 199.5t-226 72.5q-150 0 -230.5 -78t-80.5 -225v-360q51 74 134.5 110.5
t176.5 36.5zM834 369v149q0 137 -84 219t-228 82q-140 0 -224.5 -79.5t-84.5 -223.5v-147q0 -140 82.5 -225t226.5 -85q150 0 231 82t81 228z" />
    <glyph glyph-name="seven" unicode="7" horiz-adv-x="1044" 
d="M109 1475h835v-89l-588 -1386h-84l592 1395h-755v80z" />
    <glyph glyph-name="eight" unicode="8" horiz-adv-x="1044" 
d="M709 760q104 -46 164.5 -146t60.5 -229q0 -182 -112 -292.5t-300 -110.5t-299.5 110.5t-111.5 292.5q0 129 60.5 229t164.5 146q-94 45 -150.5 138t-56.5 210q0 171 111 279t282 108t282 -108t111 -279q0 -117 -56 -210t-150 -138zM213 1106q0 -141 84.5 -225t224.5 -84
t224.5 84t84.5 225q0 142 -84.5 225.5t-224.5 83.5t-224.5 -83.5t-84.5 -225.5zM522 59q150 0 239 87.5t89 238.5q0 153 -89.5 245.5t-238.5 92.5t-238 -92.5t-89 -245.5q0 -151 88.5 -238.5t238.5 -87.5z" />
    <glyph glyph-name="nine" unicode="9" horiz-adv-x="1044" 
d="M522 1495q184 0 288.5 -105.5t104.5 -281.5v-746q0 -178 -105 -280t-288 -102q-179 0 -286 96.5t-107 255.5h82q1 -127 83.5 -200t225.5 -73q150 0 230.5 78t80.5 225v361q-51 -74 -135 -111t-176 -37q-183 0 -288 103t-105 278v152q0 175 106 281t289 106zM522 655
q140 0 224.5 79.5t84.5 223.5v148q0 140 -82.5 224.5t-226.5 84.5q-150 0 -230.5 -81.5t-80.5 -227.5v-150q0 -137 83.5 -219t227.5 -82z" />
    <glyph glyph-name="colon" unicode=":" horiz-adv-x="489" 
d="M166 705v157h158v-157h-158zM166 0v158h158v-158h-158z" />
    <glyph glyph-name="semicolon" unicode=";" horiz-adv-x="473" 
d="M154 705v157h157v-157h-157zM18 -229l154 379h117l-185 -379h-86z" />
    <glyph glyph-name="less" unicode="&#x3c;" horiz-adv-x="997" 
d="M821 1475l-534 -533l534 -532h-108l-535 532l535 533h108z" />
    <glyph glyph-name="equal" unicode="=" horiz-adv-x="1099" 
d="M215 723v76h721v-76h-721zM215 412v75h721v-75h-721z" />
    <glyph glyph-name="greater" unicode="&#x3e;" horiz-adv-x="997" 
d="M176 0l535 532l-535 533h109l534 -533l-534 -532h-109z" />
    <glyph glyph-name="question" unicode="?" horiz-adv-x="909" 
d="M362 418v31q0 68 11.5 115.5t43 90.5t66.5 74t103 82q97 73 138.5 143.5t41.5 173.5q0 129 -85 208t-224 79q-136 0 -219.5 -77t-94.5 -212h-84q3 48 16 96t43.5 98.5t74 88.5t112 62t152.5 24q184 0 288.5 -104.5t104.5 -260.5q0 -128 -56.5 -219.5t-168.5 -167.5
q-108 -79 -143.5 -132t-35.5 -156v-37h-84zM336 0v143h141v-143h-141z" />
    <glyph glyph-name="at" unicode="@" horiz-adv-x="2246" 
d="M1081 -430q-204 0 -375.5 65t-290.5 181.5t-185 283t-66 363.5q0 214 73.5 403.5t202.5 328.5t314.5 219.5t400.5 80.5q206 0 379.5 -62t294 -173t187.5 -269t67 -346q0 -189 -63 -337.5t-168.5 -228t-233.5 -79.5q-108 0 -189 56.5t-98 146.5q-123 -185 -346 -185
q-159 0 -246.5 99t-56.5 272l59 318q31 172 139 275t267 103q101 0 184 -43t107 -100l24 121h84l-131 -670q-30 -150 27.5 -231.5t181.5 -81.5q155 0 265 157t110 400q0 361 -229 569.5t-619 208.5q-199 0 -368.5 -73t-286.5 -199.5t-182.5 -302t-65.5 -375.5
q0 -244 102.5 -428.5t292.5 -285.5t442 -101q163 0 306 45l22 -74q-175 -51 -332 -51zM993 96q130 0 219.5 77t118.5 222l64 326q25 135 -49.5 213t-206.5 78q-121 0 -204.5 -82.5t-107.5 -212.5l-59 -318q-28 -142 33 -222.5t192 -80.5z" />
    <glyph glyph-name="A" unicode="A" horiz-adv-x="1089" 
d="M950 0l-119 434h-573l-119 -434h-80l402 1475h168l401 -1475h-80zM281 514h528l-240 881h-49z" />
    <glyph glyph-name="B" unicode="B" horiz-adv-x="1122" 
d="M737 772q111 -25 177.5 -121.5t66.5 -236.5q0 -196 -106 -305t-295 -109h-408v1475h371q403 0 403 -359q0 -128 -54.5 -220t-154.5 -124zM545 1395h-289v-588h299q157 0 232 81t75 226q0 147 -76.5 214t-240.5 67zM582 80q158 0 236.5 86t78.5 246q0 158 -87.5 236.5
t-250.5 78.5h-303v-647h326z" />
    <glyph glyph-name="C" unicode="C" horiz-adv-x="1056" 
d="M543 -20q-170 0 -280.5 106.5t-110.5 284.5v737q0 170 112.5 278.5t284.5 108.5q168 0 279 -100.5t118 -268.5h-84q-6 129 -94 209t-219 80q-138 0 -225.5 -85.5t-87.5 -225.5v-719q0 -150 85.5 -238t219.5 -88q140 0 227.5 80.5t87.5 210.5h84q0 -165 -111.5 -267.5
t-285.5 -102.5z" />
    <glyph glyph-name="D" unicode="D" horiz-adv-x="1116" 
d="M172 0v1475h391q180 0 291 -103.5t111 -263.5v-733q0 -167 -110 -271t-298 -104h-385zM256 80h291q156 0 245 77t89 220v725q0 139 -91 216t-243 77h-291v-1315z" />
    <glyph glyph-name="E" unicode="E" horiz-adv-x="1015" 
d="M926 1395h-670v-578h618v-80h-618v-657h670v-80h-754v1475h754v-80z" />
    <glyph glyph-name="F" unicode="F" horiz-adv-x="995" 
d="M926 1395h-670v-578h618v-80h-618v-737h-84v1475h754v-80z" />
    <glyph glyph-name="G" unicode="G" horiz-adv-x="1095" 
d="M549 -20q-176 0 -286.5 106t-110.5 287v735q0 170 112.5 278.5t284.5 108.5q168 0 279 -100.5t118 -268.5h-84q-6 129 -94 209t-219 80q-138 0 -225.5 -85.5t-87.5 -225.5v-731q0 -139 89 -226.5t224 -87.5t224 87.5t89 226.5v313h-321v80h405v-393q0 -175 -112.5 -284
t-284.5 -109z" />
    <glyph glyph-name="H" unicode="H" horiz-adv-x="1165" 
d="M909 1475h84v-1475h-84v729h-653v-729h-84v1475h84v-666h653v666z" />
    <glyph glyph-name="I" unicode="I" horiz-adv-x="428" 
d="M172 0v1475h84v-1475h-84z" />
    <glyph glyph-name="J" unicode="J" horiz-adv-x="919" 
d="M401 -20q-166 0 -261 99t-95 271h84q9 -291 272 -291q273 0 273 316v1020h-506v80h590v-1125q0 -172 -95.5 -271t-261.5 -99z" />
    <glyph glyph-name="K" unicode="K" horiz-adv-x="1026" 
d="M862 0l-434 764l-172 -242v-522h-84v1475h84v-818l586 818h94l-455 -635l475 -840h-94z" />
    <glyph glyph-name="L" unicode="L" horiz-adv-x="962" 
d="M172 0v1475h84v-1395h668v-80h-752z" />
    <glyph glyph-name="M" unicode="M" horiz-adv-x="1306" 
d="M1008 1475h127v-1475h-84v1360l-357 -885h-82l-356 885v-1360h-84v1475h127l354 -887z" />
    <glyph glyph-name="N" unicode="N" horiz-adv-x="1146" 
d="M891 1475h84v-1475h-139l-580 1378v-1378h-84v1475h133l586 -1393v1393z" />
    <glyph glyph-name="O" unicode="O" 
d="M549 -20q-176 0 -286.5 106t-110.5 287v735q0 170 112.5 278.5t284.5 108.5t284.5 -108.5t112.5 -278.5v-735q0 -181 -110.5 -287t-286.5 -106zM549 59q135 0 224 87.5t89 226.5v731q0 140 -87.5 225.5t-225.5 85.5t-225.5 -85.5t-87.5 -225.5v-731q0 -139 89 -226.5
t224 -87.5z" />
    <glyph glyph-name="P" unicode="P" horiz-adv-x="1067" 
d="M569 1475q180 0 289 -100.5t109 -272.5v-121q0 -172 -109 -272.5t-289 -100.5h-313v-608h-84v1475h397zM883 985v113q0 137 -83 217t-231 80h-313v-707h313q148 0 231 80t83 217z" />
    <glyph glyph-name="Q" unicode="Q" 
d="M549 1495q172 0 284.5 -108.5t112.5 -278.5v-735q0 -171 -98.5 -275.5t-259.5 -115.5v-211h-80v211q-160 12 -258 116.5t-98 274.5v735q0 170 112.5 278.5t284.5 108.5zM862 373v731q0 140 -87.5 225.5t-225.5 85.5t-225.5 -85.5t-87.5 -225.5v-731q0 -129 76 -213.5
t196 -98.5v304h80v-304q120 12 197 97.5t77 214.5z" />
    <glyph glyph-name="R" unicode="R" horiz-adv-x="1081" 
d="M967 1014q0 -139 -80 -230.5t-223 -117.5l299 -666h-99l-286 655h-25h-297v-655h-84v1475h381q191 0 302.5 -97t111.5 -262v-102zM565 735q151 0 234.5 77t83.5 210v86q0 133 -83.5 210t-234.5 77h-309v-660h309z" />
    <glyph glyph-name="S" unicode="S" horiz-adv-x="1044" 
d="M518 -20q-185 0 -298.5 107t-113.5 300h84q0 -156 88.5 -242t239.5 -86q149 0 242.5 87.5t93.5 226.5q0 111 -65 181t-214 142l-153 74q-139 66 -214 153t-75 216q0 154 108.5 255t278.5 101q184 0 291 -100.5t107 -268.5h-84q0 133 -85.5 211t-228.5 78q-133 0 -218 -78
t-85 -192q0 -104 55.5 -169.5t186.5 -127.5l174 -84q159 -76 232 -164t73 -221q0 -182 -119 -290.5t-301 -108.5z" />
    <glyph glyph-name="T" unicode="T" horiz-adv-x="958" 
d="M897 1475v-80h-375v-1395h-84v1395h-377v80h836z" />
    <glyph glyph-name="U" unicode="U" 
d="M549 -20q-176 0 -286.5 106t-110.5 287v1102h84v-1102q0 -139 89 -226.5t224 -87.5t224 87.5t89 226.5v1102h84v-1102q0 -181 -110.5 -287t-286.5 -106z" />
    <glyph glyph-name="V" unicode="V" horiz-adv-x="1056" 
d="M451 0l-394 1475h93l362 -1395h33l362 1395h92l-393 -1475h-155z" />
    <glyph glyph-name="W" unicode="W" horiz-adv-x="1607" 
d="M1444 1475h90l-303 -1475h-117l-309 1286l-311 -1286h-117l-303 1475h90l272 -1393l326 1393h84l325 -1393z" />
    <glyph glyph-name="X" unicode="X" horiz-adv-x="995" 
d="M936 0h-90l-348 674l-348 -674h-91l392 756l-373 719h90l330 -637l329 637h91l-373 -719z" />
    <glyph glyph-name="Y" unicode="Y" horiz-adv-x="976" 
d="M825 1475h88l-383 -951v-524h-84v524l-383 951h89l337 -846z" />
    <glyph glyph-name="Z" unicode="Z" horiz-adv-x="921" 
d="M156 80h696v-80h-782v90l665 1305h-633v80h717v-84z" />
    <glyph glyph-name="bracketleft" unicode="[" horiz-adv-x="604" 
d="M193 -410v1885h260v-72h-177v-1741h177v-72h-260z" />
    <glyph glyph-name="backslash" unicode="\" horiz-adv-x="907" 
d="M102 1884h86l617 -1884h-86z" />
    <glyph glyph-name="bracketright" unicode="]" horiz-adv-x="604" 
d="M412 1884v-1884h-260v72h176v1740h-176v72h260z" />
    <glyph glyph-name="asciicircum" unicode="^" horiz-adv-x="972" 
d="M168 973l270 502h101l264 -502h-84l-232 438l-235 -438h-84z" />
    <glyph glyph-name="underscore" unicode="_" horiz-adv-x="1079" 
d="M0 -348v72h1079v-72h-1079z" />
    <glyph glyph-name="grave" unicode="`" horiz-adv-x="395" 
d="M242 1247l-160 277h96l135 -277h-71z" />
    <glyph glyph-name="a" unicode="a" horiz-adv-x="1056" 
d="M526 1085q169 0 268 -89.5t99 -245.5v-750h-84v137q-118 -157 -334 -157q-162 0 -259 86t-97 229q0 149 103 229t284 80h303v141q0 123 -72.5 192t-210.5 69q-131 0 -201.5 -63t-76.5 -171h-86q7 147 107.5 230t256.5 83zM485 59q144 0 234 87.5t90 224.5v153h-303
q-139 0 -221 -58t-82 -165q0 -113 77 -177.5t205 -64.5z" />
    <glyph glyph-name="b" unicode="b" horiz-adv-x="1091" 
d="M555 1085q178 0 281.5 -100.5t103.5 -273.5v-357q0 -172 -104 -273t-281 -101q-88 0 -168.5 34.5t-130.5 104.5v-119h-84v1475h84v-529q50 70 130.5 104.5t168.5 34.5zM856 354v357q0 136 -81.5 215.5t-217.5 79.5t-218.5 -81.5t-82.5 -213.5v-357q0 -132 82.5 -213.5
t218.5 -81.5q137 0 218 79t81 216z" />
    <glyph glyph-name="c" unicode="c" horiz-adv-x="1032" 
d="M537 -20q-177 0 -281 101t-104 273v357q0 172 104 273t281 101q167 0 274.5 -96t110.5 -250h-84q-9 125 -89 196t-212 71q-138 0 -219.5 -79t-81.5 -216v-357q0 -136 84 -215.5t217 -79.5q137 0 213.5 70t87.5 203h84q-5 -158 -110.5 -255t-274.5 -97z" />
    <glyph glyph-name="d" unicode="d" horiz-adv-x="1091" 
d="M836 1475h84v-1475h-84v119q-50 -70 -130.5 -104.5t-168.5 -34.5q-177 0 -281 101t-104 273v357q0 173 103.5 273.5t281.5 100.5q88 0 168.5 -34.5t130.5 -104.5v529zM535 59q136 0 218.5 81.5t82.5 213.5v357q0 132 -82.5 213.5t-218.5 81.5t-217.5 -79.5t-81.5 -215.5
v-357q0 -137 81 -216t218 -79z" />
    <glyph glyph-name="e" unicode="e" horiz-adv-x="1073" 
d="M838 332h84q-7 -163 -111 -257.5t-274 -94.5q-177 0 -281 101t-104 273v357q0 172 104 273t281 101t280 -100.5t103 -273.5v-191h-684v-166q0 -136 83.5 -215.5t217.5 -79.5q136 0 213 70.5t88 202.5zM537 1006q-138 0 -219.5 -79t-81.5 -216v-111h600v111q0 137 -81 216
t-218 79z" />
    <glyph glyph-name="f" unicode="f" horiz-adv-x="659" 
d="M608 1065v-80h-274v-985h-84v985h-178v80h178v147q0 133 67.5 198t210.5 65h54v-80h-54q-100 0 -147 -38.5t-47 -142.5v-149h274z" />
    <glyph glyph-name="g" unicode="g" horiz-adv-x="1091" 
d="M836 1065h84v-1122q0 -93 -29 -165t-80.5 -117t-118.5 -68t-147 -23q-166 0 -265 90t-110 236h84q9 -110 85.5 -178t205.5 -68q134 0 212.5 75t78.5 216v198q-50 -70 -130.5 -104.5t-168.5 -34.5q-177 0 -281 101.5t-104 273.5v336q0 173 103.5 273.5t281.5 100.5
q88 0 168.5 -34.5t130.5 -104.5v119zM535 80q136 0 218.5 81.5t82.5 213.5v336q0 132 -82.5 213.5t-218.5 81.5t-217.5 -79.5t-81.5 -215.5v-336q0 -137 81 -216t218 -79z" />
    <glyph glyph-name="h" unicode="h" horiz-adv-x="1103" 
d="M555 1085q178 0 281.5 -100.5t103.5 -273.5v-711h-84v711q0 136 -81.5 215.5t-217.5 79.5t-218.5 -81.5t-82.5 -213.5v-711h-84v1475h84v-529q50 70 130.5 104.5t168.5 34.5z" />
    <glyph glyph-name="i" unicode="i" horiz-adv-x="425" 
d="M162 1270v151h102v-151h-102zM172 0v1065h82v-1065h-82z" />
    <glyph glyph-name="j" unicode="j" horiz-adv-x="471" 
d="M188 1270v151h103v-151h-103zM-41 -410v80h43q93 0 144 45t51 158v1192h84v-1200q0 -151 -73.5 -213t-205.5 -62h-43z" />
    <glyph glyph-name="k" unicode="k" horiz-adv-x="919" 
d="M760 0l-328 565l-176 -215v-350h-84v1475h84v-1004l483 594h99l-349 -428l369 -637h-98z" />
    <glyph glyph-name="l" unicode="l" horiz-adv-x="475" 
d="M401 0q-237 0 -237 221v1254h84v-1225q0 -92 39.5 -131t124.5 -39h12v-80h-23z" />
    <glyph glyph-name="m" unicode="m" horiz-adv-x="1546" 
d="M1059 1085q63 0 119 -19t102.5 -57t74 -102t27.5 -147v-760h-84v733q0 136 -69.5 204.5t-169.5 68.5t-170 -68.5t-70 -202.5v-735h-84v733q0 136 -69.5 204.5t-169.5 68.5t-170 -68.5t-70 -202.5v-735h-84v1065h84v-96q86 116 240 116q55 0 104 -13t99.5 -52t80.5 -102
q42 78 114.5 122.5t164.5 44.5z" />
    <glyph glyph-name="n" unicode="n" horiz-adv-x="1103" 
d="M555 1085q178 0 281.5 -100.5t103.5 -273.5v-711h-84v711q0 136 -81.5 215.5t-217.5 79.5t-218.5 -81.5t-82.5 -213.5v-711h-84v1065h84v-119q50 70 130.5 104.5t168.5 34.5z" />
    <glyph glyph-name="o" unicode="o" horiz-adv-x="1069" 
d="M535 -20q-175 0 -279 101.5t-104 272.5v357q0 171 104 272.5t279 101.5t279 -101.5t104 -272.5v-357q0 -171 -104 -272.5t-279 -101.5zM535 59q137 0 218 79t81 216v357q0 137 -81 216t-218 79t-218 -79t-81 -216v-357q0 -137 81 -216t218 -79z" />
    <glyph glyph-name="p" unicode="p" horiz-adv-x="1091" 
d="M555 1085q178 0 281.5 -100.5t103.5 -273.5v-357q0 -172 -104 -273t-281 -101q-88 0 -168.5 34.5t-130.5 104.5v-529h-84v1475h84v-119q50 70 130.5 104.5t168.5 34.5zM856 354v357q0 136 -81.5 215.5t-217.5 79.5t-218.5 -81.5t-82.5 -213.5v-357q0 -132 82.5 -213.5
t218.5 -81.5q137 0 218 79t81 216z" />
    <glyph glyph-name="q" unicode="q" horiz-adv-x="1091" 
d="M836 1065h84v-1475h-84v529q-50 -70 -130.5 -104.5t-168.5 -34.5q-177 0 -281 101t-104 273v357q0 173 103.5 273.5t281.5 100.5q88 0 168.5 -34.5t130.5 -104.5v119zM535 59q136 0 218.5 81.5t82.5 213.5v357q0 132 -82.5 213.5t-218.5 81.5t-217.5 -79.5t-81.5 -215.5
v-357q0 -137 81 -216t218 -79z" />
    <glyph glyph-name="r" unicode="r" horiz-adv-x="626" 
d="M518 1065h62v-82h-62q-110 0 -186 -76.5t-76 -216.5v-690h-84v1065h84v-137q90 137 262 137z" />
    <glyph glyph-name="s" unicode="s" horiz-adv-x="993" 
d="M496 -20q-107 0 -194 37.5t-141.5 118t-54.5 192.5h84q0 -125 84 -198t222 -73q137 0 219 63.5t82 158.5q0 80 -55 124t-171 80l-168 54q-65 20 -109.5 41t-83.5 51.5t-58 73.5t-19 100q0 126 101.5 204t263.5 78q179 0 274.5 -84t101.5 -227h-83q-17 234 -293 234
q-128 0 -204.5 -57t-76.5 -144q0 -79 51 -119t166 -76l170 -53q142 -44 209.5 -105.5t67.5 -170.5q0 -137 -108 -220t-277 -83z" />
    <glyph glyph-name="t" unicode="t" horiz-adv-x="710" 
d="M629 985h-275v-735q0 -92 39.5 -131t124.5 -39h90v-80h-100q-238 0 -238 225v760h-198v80h198v410h84v-410h275v-80z" />
    <glyph glyph-name="u" unicode="u" horiz-adv-x="1103" 
d="M848 1065h84v-1065h-84v135q-53 -75 -133 -115t-180 -40q-172 0 -271.5 100t-99.5 295v690h84v-690q0 -153 77.5 -234.5t213.5 -81.5q138 0 223.5 88.5t85.5 233.5v684z" />
    <glyph glyph-name="v" unicode="v" horiz-adv-x="905" 
d="M375 0l-322 1065h84l299 -993h33l299 993h84l-322 -1065h-155z" />
    <glyph glyph-name="w" unicode="w" horiz-adv-x="1357" 
d="M328 0l-250 1065h86l225 -985h4l238 985h96l238 -985h4l225 985h86l-250 -1065h-125l-225 938h-2l-225 -938h-125z" />
    <glyph glyph-name="x" unicode="x" horiz-adv-x="878" 
d="M827 0h-92l-297 471l-297 -471h-92l344 543l-334 522h93l290 -457l287 457h92l-334 -528z" />
    <glyph glyph-name="y" unicode="y" horiz-adv-x="905" 
d="M141 -410v80h41q90 0 143.5 45.5t82.5 147.5l38 137h-71l-322 1065h86l297 -993h33l297 993h86l-371 -1231q-72 -244 -295 -244h-45z" />
    <glyph glyph-name="z" unicode="z" horiz-adv-x="917" 
d="M170 72h670v-72h-748v92l615 901h-592v72h673v-86z" />
    <glyph glyph-name="braceleft" unicode="{" horiz-adv-x="600" 
d="M395 -410q-128 0 -175.5 49t-47.5 173v1439q0 124 48.5 174t174.5 50h33v-74h-22q-55 0 -86.5 -8.5t-47.5 -32t-20 -51.5t-4 -82v-1399q0 -101 28 -132.5t130 -31.5h22v-74h-33z" />
    <glyph glyph-name="bar" unicode="|" horiz-adv-x="419" 
d="M172 -141v1616h76v-1616h-76z" />
    <glyph glyph-name="braceright" unicode="}" horiz-adv-x="600" 
d="M205 1884q128 0 175.5 -48.5t47.5 -172.5v-1440q0 -124 -48.5 -173.5t-174.5 -49.5h-33v74h23q44 0 72.5 6.5t46 17.5t25.5 34.5t10.5 48t2.5 67.5v1399q0 101 -27.5 132t-129.5 31h-23v74h33z" />
    <glyph glyph-name="asciitilde" unicode="~" horiz-adv-x="1024" 
d="M225 504l-45 51q99 84 189 84q57 0 155.5 -51t141.5 -51q33 0 62.5 13.5t78.5 51.5l45 -51q-99 -84 -188 -84q-44 0 -104 25.5t-113 51t-80 25.5q-33 0 -63 -13.5t-79 -51.5z" />
    <glyph glyph-name="exclamdown" unicode="&#xa1;" horiz-adv-x="493" 
d="M319 1475v-144h-145v144h145zM289 1042v-1042h-84v1042h84z" />
    <glyph glyph-name="cent" unicode="&#xa2;" horiz-adv-x="1032" 
d="M537 59q137 0 213.5 70t87.5 203h84q-4 -149 -99.5 -244t-249.5 -106v-314h-75v314q-160 11 -253 110.5t-93 261.5v357q0 162 93 261.5t253 110.5v314h75v-314q153 -11 249.5 -105.5t99.5 -238.5h-84q-9 125 -89 196t-212 71q-138 0 -219.5 -79t-81.5 -216v-357
q0 -136 84 -215.5t217 -79.5z" />
    <glyph glyph-name="sterling" unicode="&#xa3;" horiz-adv-x="1050" 
d="M279 735v-653h677v-82h-759v735h-150v80h150v270q0 188 105.5 299t281.5 111q154 0 266.5 -107t112.5 -262h-76q-4 129 -92 209t-213 80q-139 0 -221 -84t-82 -235v-281h440v-80h-440z" />
    <glyph glyph-name="currency" unicode="&#xa4;" horiz-adv-x="1325" 
d="M1092 653q0 -153 -99 -276l215 -215l-53 -53l-213 213q-121 -105 -280 -105q-158 0 -279 105l-213 -213l-53 53l215 215q-99 120 -99 274q0 157 101 279l-217 217l53 53l217 -217q120 102 275 102q156 0 276 -102l217 217l53 -53l-217 -217q101 -119 101 -277zM662 297
q146 0 246 104t100 252q0 147 -100 250t-246 103q-145 0 -245 -102.5t-100 -250.5q0 -149 100 -252.5t245 -103.5z" />
    <glyph glyph-name="yen" unicode="&#xa5;" horiz-adv-x="976" 
d="M913 1475l-356 -885h268v-76h-295v-231h295v-76h-295v-207h-84v207h-294v76h294v231h-294v76h268l-357 885h89l337 -846l336 846h88z" />
    <glyph glyph-name="brokenbar" unicode="&#xa6;" horiz-adv-x="419" 
d="M172 860v615h76v-615h-76zM172 -141v616h76v-616h-76z" />
    <glyph glyph-name="section" unicode="&#xa7;" horiz-adv-x="1134" 
d="M813 459q98 -69 98 -197q0 -71 -29 -126t-79 -88.5t-112 -50.5t-132 -17q-181 0 -290 83t-115 224h82q7 -99 89 -163.5t238 -64.5q126 0 195 49.5t69 145.5q0 73 -45.5 116.5t-136.5 69.5l-174 52q-60 17 -101 32.5t-82.5 39t-66 51.5t-40 69.5t-15.5 93.5q0 162 139 238
q-98 69 -98 196q0 93 51 159t128.5 95t172.5 29q167 0 273 -83.5t112 -223.5h-82q-7 99 -85 163t-230 64q-114 0 -185 -52.5t-71 -141.5q0 -73 45.5 -117t136.5 -70l174 -51q60 -17 101 -32.5t82.5 -39.5t66 -52t40 -69.5t15.5 -93.5q0 -161 -139 -237zM500 571l170 -49
q60 -19 71 -24q127 53 127 192q0 89 -59.5 132.5t-190.5 80.5l-169 49q-55 18 -72 25q-127 -53 -127 -193q0 -89 59.5 -132.5t190.5 -80.5z" />
    <glyph glyph-name="dieresis" unicode="&#xa8;" horiz-adv-x="722" 
d="M82 1292v152h119v-152h-119zM522 1292v152h119v-152h-119z" />
    <glyph glyph-name="copyright" unicode="&#xa9;" horiz-adv-x="1800" 
d="M899 -10q-199 0 -366.5 98.5t-264 267.5t-96.5 369q0 150 57 286.5t154 235.5t232 158t284 59q199 0 367 -99.5t265 -269.5t97 -370t-97 -369t-264.5 -267.5t-367.5 -98.5zM899 59q135 0 257 52.5t210.5 141.5t140.5 212.5t52 259.5t-52 260t-140.5 214t-211 143
t-256.5 53q-179 0 -330.5 -90t-239 -244t-87.5 -336t87.5 -335t238.5 -242t331 -89zM881 303q-96 0 -153.5 59t-57.5 156v408q0 96 59 153.5t156 57.5q95 0 154 -59t59 -156h-70q0 73 -37.5 111t-105.5 38q-69 0 -107.5 -38.5t-38.5 -110.5v-402q0 -73 39 -112t107 -39
t105.5 38.5t37.5 112.5h70q0 -99 -59 -158t-158 -59z" />
    <glyph glyph-name="ordfeminine" unicode="&#xaa;" horiz-adv-x="837" 
d="M428 1495q113 0 179.5 -63t66.5 -175v-514h-74v80q-75 -92 -209 -92q-111 0 -180.5 62t-69.5 165q0 104 69.5 160t192.5 56h197v75q0 93 -42.5 133.5t-129.5 40.5q-173 0 -182 -153h-74q6 103 74.5 164t181.5 61zM395 803q90 0 147.5 54t57.5 134v117h-190
q-195 0 -195 -141q0 -78 48.5 -121t131.5 -43z" />
    <glyph glyph-name="guillemotleft" unicode="&#xab;" horiz-adv-x="989" 
d="M414 197l-344 342l344 344v-109l-238 -235l238 -236v-106zM838 197l-344 342l344 344v-109l-240 -235l240 -236v-106z" />
    <glyph glyph-name="logicalnot" unicode="&#xac;" horiz-adv-x="1150" 
d="M883 358v361h-740v80h824v-441h-84z" />
    <glyph glyph-name="uni00AD" unicode="&#xad;" horiz-adv-x="915" 
d="M172 524v76h571v-76h-571z" />
    <glyph glyph-name="registered" unicode="&#xae;" horiz-adv-x="1001" 
d="M500 1493q159 0 269 -111.5t110 -271.5q0 -157 -110 -268t-269 -111q-158 0 -267.5 111t-109.5 268q0 160 109.5 271.5t267.5 111.5zM500 780q137 0 232 96.5t95 233.5q0 139 -95 236.5t-232 97.5q-136 0 -231 -98t-95 -236q0 -137 95 -233.5t231 -96.5zM522 1325
q55 0 87 -30t32 -83v-20q0 -46 -26 -76.5t-70 -34.5l88 -176h-49l-84 174h-58v-174h-43v420h123zM598 1194v16q0 76 -78 76h-78v-168h78q78 0 78 76z" />
    <glyph glyph-name="macron" unicode="&#xaf;" horiz-adv-x="753" 
d="M82 1315v71h590v-71h-590z" />
    <glyph glyph-name="degree" unicode="&#xb0;" horiz-adv-x="694" 
d="M346 1004q-101 0 -172.5 72t-71.5 173t71.5 173.5t172.5 72.5q102 0 174 -72t72 -174q0 -101 -72.5 -173t-173.5 -72zM346 1073q73 0 123.5 51.5t50.5 124.5q0 74 -50.5 125t-123.5 51q-72 0 -122 -51t-50 -125q0 -72 50 -124t122 -52z" />
    <glyph glyph-name="plusminus" unicode="&#xb1;" horiz-adv-x="1150" 
d="M618 659h373v-79h-373v-365h-81v365h-375v79h375v367h81v-367zM162 59v80h829v-80h-829z" />
    <glyph glyph-name="uni00B2" unicode="&#xb2;" horiz-adv-x="528" 
d="M133 805h344v-72h-416v125q0 47 19 87t49 68.5t66.5 54t73 49.5t66.5 48.5t49 57.5t19 71q0 54 -36 87.5t-99 33.5q-19 0 -38.5 -5t-42.5 -17.5t-38.5 -40t-17.5 -66.5h-70q1 32 12.5 64.5t34.5 64t64.5 51t95.5 19.5q92 0 149.5 -54t57.5 -139q0 -53 -25.5 -98.5
t-63.5 -75.5t-82 -60t-82 -54.5t-63.5 -57.5t-25.5 -69v-72z" />
    <glyph glyph-name="uni00B3" unicode="&#xb3;" horiz-adv-x="524" 
d="M258 1169q97 0 151 -52.5t54 -147.5v-58q0 -85 -59 -136.5t-148 -51.5q-88 0 -146.5 50t-58.5 134h72q0 -52 37 -83t98 -31q60 0 96.5 32t36.5 84v60q0 61 -35 95t-98 34h-94v69l205 238h-289v70h375v-72l-203 -234h6z" />
    <glyph glyph-name="acute" unicode="&#xb4;" horiz-adv-x="395" 
d="M82 1247l135 277h96l-159 -277h-72z" />
    <glyph glyph-name="paragraph" unicode="&#xb6;" horiz-adv-x="1005" 
d="M418 0v838q-169 0 -273 87.5t-104 219.5q0 165 93.5 247.5t266.5 82.5h433v-1475h-78v1395h-260v-1395h-78z" />
    <glyph glyph-name="periodcentered" unicode="&#xb7;" horiz-adv-x="497" 
d="M172 467v154h154v-154h-154z" />
    <glyph glyph-name="cedilla" unicode="&#xb8;" horiz-adv-x="395" 
d="M82 -365l160 277h71l-135 -277h-96z" />
    <glyph glyph-name="uni00B9" unicode="&#xb9;" horiz-adv-x="415" 
d="M203 733v676l-148 -25v58l219 43v-752h-71z" />
    <glyph glyph-name="ordmasculine" unicode="&#xba;" horiz-adv-x="737" 
d="M369 731q-123 0 -193 68.5t-70 191.5v244q0 121 71 190.5t192 69.5q122 0 192 -68t70 -192v-244q0 -120 -70.5 -190t-191.5 -70zM369 803q89 0 138.5 49.5t49.5 138.5v244q0 89 -49.5 138.5t-138.5 49.5q-88 0 -138.5 -50t-50.5 -138v-244q0 -89 50 -138.5t139 -49.5z
" />
    <glyph glyph-name="guillemotright" unicode="&#xbb;" horiz-adv-x="987" 
d="M152 199v106l237 236l-237 235v109l342 -344zM575 199v106l236 236l-236 235v109l343 -344z" />
    <glyph glyph-name="onequarter" unicode="&#xbc;" horiz-adv-x="1243" 
d="M807 1591h80l-551 -1693h-84zM274 733h-71v676l-148 -25v58l219 43v-752zM1069 559h72v-559h-72v211h-328v80l166 450h78l-170 -458h254v276z" />
    <glyph glyph-name="onehalf" unicode="&#xbd;" horiz-adv-x="1230" 
d="M807 1591h80l-551 -1693h-84zM274 733h-71v676l-148 -25v58l219 43v-752zM836 72h344v-72h-416v125q0 47 19 87t49 68.5t66.5 54t73 49.5t66.5 48.5t49 57.5t19 71q0 54 -36 87.5t-99 33.5q-19 0 -38.5 -5t-42.5 -17.5t-38.5 -40t-17.5 -66.5h-70q1 32 12.5 64.5t34.5 64
t64.5 51t95.5 19.5q92 0 149.5 -54t57.5 -139q0 -53 -25.5 -98.5t-63.5 -75.5t-82 -60.5t-82 -55t-63.5 -57.5t-25.5 -69v-71z" />
    <glyph glyph-name="threequarters" unicode="&#xbe;" horiz-adv-x="1331" 
d="M895 1591h80l-551 -1693h-84zM463 911q0 -85 -59 -136.5t-148 -51.5q-88 0 -146.5 50t-58.5 134h72q0 -52 37 -83t98 -31q60 0 96.5 32t36.5 84v60q0 61 -35 95t-98 34h-94v69l205 238h-289v70h375v-72l-203 -234h6q97 0 151 -52.5t54 -147.5v-58zM1157 559h72v-559h-72
v211h-328v80l166 450h78l-170 -458h254v276z" />
    <glyph glyph-name="questiondown" unicode="&#xbf;" horiz-adv-x="909" 
d="M573 1475v-144h-141v144h141zM547 1057v-31q0 -54 -9 -96.5t-23 -74.5t-45 -65.5t-61.5 -59t-84.5 -66.5q-97 -73 -139 -144t-42 -174q0 -129 85.5 -208t224.5 -79q136 0 219 77t94 212h84q-3 -48 -16 -96t-43 -98t-73.5 -88t-112 -62t-152.5 -24q-184 0 -289 104
t-105 260q0 128 57 219.5t169 167.5q74 54 107.5 88t52 81.5t18.5 119.5v37h84z" />
    <glyph glyph-name="Agrave" unicode="&#xc0;" horiz-adv-x="1089" 
d="M512 1597l-160 277h97l135 -277h-72zM950 0l-119 434h-573l-119 -434h-80l402 1475h168l401 -1475h-80zM281 514h528l-240 881h-49z" />
    <glyph glyph-name="Aacute" unicode="&#xc1;" horiz-adv-x="1089" 
d="M743 1874l-159 -277h-72l135 277h96zM950 0l-119 434h-573l-119 -434h-80l402 1475h168l401 -1475h-80zM281 514h528l-240 881h-49z" />
    <glyph glyph-name="Acircumflex" unicode="&#xc2;" horiz-adv-x="1089" 
d="M551 1825l-158 -228h-82l191 277h94l190 -277h-79zM629 1475l401 -1475h-80l-119 434h-573l-119 -434h-80l402 1475h168zM281 514h528l-240 881h-49z" />
    <glyph glyph-name="Atilde" unicode="&#xc3;" horiz-adv-x="1089" 
d="M688 1597q-50 0 -148 40t-130 40q-31 0 -57.5 -15t-61.5 -54l-49 41q79 98 170 98q52 0 147.5 -40t134.5 -40q33 0 57 14.5t54 51.5l41 -41q-71 -95 -158 -95zM950 0l-119 434h-573l-119 -434h-80l402 1475h168l401 -1475h-80zM281 514h528l-240 881h-49z" />
    <glyph glyph-name="Adieresis" unicode="&#xc4;" horiz-adv-x="1089" 
d="M268 1597v152h119v-152h-119zM709 1597v152h118v-152h-118zM950 0l-119 434h-573l-119 -434h-80l402 1475h168l401 -1475h-80zM281 514h528l-240 881h-49z" />
    <glyph glyph-name="Aring" unicode="&#xc5;" horiz-adv-x="1089" 
d="M547 1552q-78 0 -135.5 58.5t-57.5 136.5q0 81 57 138t136 57q82 0 139 -56.5t57 -138.5q0 -79 -57.5 -137t-138.5 -58zM547 1618q53 0 91 38.5t38 90.5q0 54 -37.5 91.5t-91.5 37.5q-52 0 -88.5 -37.5t-36.5 -91.5q0 -52 36.5 -90.5t88.5 -38.5zM950 0l-119 434h-573
l-119 -434h-80l402 1475h168l401 -1475h-80zM281 514h528l-240 881h-49z" />
    <glyph glyph-name="AE" unicode="&#xc6;" horiz-adv-x="1601" 
d="M1511 1395h-669v-578h618v-80h-618v-657h669v-80h-753v434h-482l-137 -434h-80l463 1475h989v-80zM301 514h457v881h-180z" />
    <glyph glyph-name="Ccedilla" unicode="&#xc7;" horiz-adv-x="1056" 
d="M543 -20q-170 0 -280.5 106.5t-110.5 284.5v737q0 170 112.5 278.5t284.5 108.5q168 0 279 -100.5t118 -268.5h-84q-6 129 -94 209t-219 80q-138 0 -225.5 -85.5t-87.5 -225.5v-719q0 -150 85.5 -238t219.5 -88q140 0 227.5 80.5t87.5 210.5h84q0 -165 -111.5 -267.5
t-285.5 -102.5zM352 -365l160 277h72l-135 -277h-97z" />
    <glyph glyph-name="Egrave" unicode="&#xc8;" horiz-adv-x="1015" 
d="M520 1597l-160 277h97l135 -277h-72zM926 1395h-670v-578h618v-80h-618v-657h670v-80h-754v1475h754v-80z" />
    <glyph glyph-name="Eacute" unicode="&#xc9;" horiz-adv-x="1015" 
d="M752 1874l-160 -277h-72l135 277h97zM926 1395h-670v-578h618v-80h-618v-657h670v-80h-754v1475h754v-80z" />
    <glyph glyph-name="Ecircumflex" unicode="&#xca;" horiz-adv-x="1015" 
d="M559 1825l-158 -228h-82l191 277h94l191 -277h-80zM926 1395h-670v-578h618v-80h-618v-657h670v-80h-754v1475h754v-80z" />
    <glyph glyph-name="Edieresis" unicode="&#xcb;" horiz-adv-x="1015" 
d="M276 1597v152h119v-152h-119zM717 1597v152h119v-152h-119zM926 1395h-670v-578h618v-80h-618v-657h670v-80h-754v1475h754v-80z" />
    <glyph glyph-name="Igrave" unicode="&#xcc;" horiz-adv-x="428" 
d="M178 1597l-160 277h97l135 -277h-72zM172 0v1475h84v-1475h-84z" />
    <glyph glyph-name="Iacute" unicode="&#xcd;" horiz-adv-x="428" 
d="M178 1597l135 277h97l-160 -277h-72zM172 0v1475h84v-1475h-84z" />
    <glyph glyph-name="Icircumflex" unicode="&#xce;" horiz-adv-x="428" 
d="M262 1874l191 -277h-80l-156 228l-158 -228h-82l191 277h94zM172 0v1475h84v-1475h-84z" />
    <glyph glyph-name="Idieresis" unicode="&#xcf;" horiz-adv-x="428" 
d="M6 1597v152h119v-152h-119zM303 1597v152h119v-152h-119zM172 0v1475h84v-1475h-84z" />
    <glyph glyph-name="Eth" unicode="&#xd0;" horiz-adv-x="1116" 
d="M563 1475q180 0 291 -103.5t111 -263.5v-733q0 -167 -110 -271t-298 -104h-385v743h-119v66h119v666h391zM881 377v725q0 139 -91 216t-243 77h-291v-586h369v-66h-369v-663h291q156 0 245 77t89 220z" />
    <glyph glyph-name="Ntilde" unicode="&#xd1;" horiz-adv-x="1146" 
d="M434 1677q-31 0 -57.5 -15t-61.5 -54l-49 41q79 98 170 98q52 0 148 -40t135 -40q33 0 56.5 14.5t53.5 51.5l41 -41q-71 -95 -157 -95q-50 0 -148.5 40t-130.5 40zM891 1475h84v-1475h-139l-580 1378v-1378h-84v1475h133l586 -1393v1393z" />
    <glyph glyph-name="Ograve" unicode="&#xd2;" 
d="M512 1597l-160 277h97l135 -277h-72zM549 -20q-176 0 -286.5 106t-110.5 287v735q0 170 112.5 278.5t284.5 108.5t284.5 -108.5t112.5 -278.5v-735q0 -181 -110.5 -287t-286.5 -106zM549 59q135 0 224 87.5t89 226.5v731q0 140 -87.5 225.5t-225.5 85.5t-225.5 -85.5
t-87.5 -225.5v-731q0 -139 89 -226.5t224 -87.5z" />
    <glyph glyph-name="Oacute" unicode="&#xd3;" 
d="M512 1597l135 277h96l-159 -277h-72zM549 -20q-176 0 -286.5 106t-110.5 287v735q0 170 112.5 278.5t284.5 108.5t284.5 -108.5t112.5 -278.5v-735q0 -181 -110.5 -287t-286.5 -106zM549 59q135 0 224 87.5t89 226.5v731q0 140 -87.5 225.5t-225.5 85.5t-225.5 -85.5
t-87.5 -225.5v-731q0 -139 89 -226.5t224 -87.5z" />
    <glyph glyph-name="Ocircumflex" unicode="&#xd4;" 
d="M551 1825l-158 -228h-82l191 277h94l190 -277h-79zM549 1495q172 0 284.5 -108.5t112.5 -278.5v-735q0 -181 -110.5 -287t-286.5 -106t-286.5 106t-110.5 287v735q0 170 112.5 278.5t284.5 108.5zM862 373v731q0 140 -87.5 225.5t-225.5 85.5t-225.5 -85.5t-87.5 -225.5
v-731q0 -139 89 -226.5t224 -87.5t224 87.5t89 226.5z" />
    <glyph glyph-name="Otilde" unicode="&#xd5;" 
d="M688 1597q-50 0 -148 40t-130 40q-31 0 -57.5 -15t-61.5 -54l-49 41q79 98 170 98q52 0 147.5 -40t134.5 -40q33 0 57 14.5t54 51.5l41 -41q-71 -95 -158 -95zM549 -20q-176 0 -286.5 106t-110.5 287v735q0 170 112.5 278.5t284.5 108.5t284.5 -108.5t112.5 -278.5v-735
q0 -181 -110.5 -287t-286.5 -106zM549 59q135 0 224 87.5t89 226.5v731q0 140 -87.5 225.5t-225.5 85.5t-225.5 -85.5t-87.5 -225.5v-731q0 -139 89 -226.5t224 -87.5z" />
    <glyph glyph-name="Odieresis" unicode="&#xd6;" 
d="M268 1597v152h119v-152h-119zM709 1597v152h118v-152h-118zM549 -20q-176 0 -286.5 106t-110.5 287v735q0 170 112.5 278.5t284.5 108.5t284.5 -108.5t112.5 -278.5v-735q0 -181 -110.5 -287t-286.5 -106zM549 59q135 0 224 87.5t89 226.5v731q0 140 -87.5 225.5
t-225.5 85.5t-225.5 -85.5t-87.5 -225.5v-731q0 -139 89 -226.5t224 -87.5z" />
    <glyph glyph-name="multiply" unicode="&#xd7;" horiz-adv-x="1150" 
d="M958 266l-57 -59l-330 332l-323 -324l-58 55l324 324l-317 317l57 58l317 -318l322 322l57 -55l-321 -322z" />
    <glyph glyph-name="Oslash" unicode="&#xd8;" 
d="M985 1567l-108 -230q69 -94 69 -229v-735q0 -181 -110.5 -287t-286.5 -106q-167 0 -275 94l-79 -168h-89l111 233q-65 97 -65 234v735q0 170 112.5 278.5t284.5 108.5q160 0 270 -96l80 168h86zM236 373q0 -76 28 -137l518 1085q-88 94 -233 94q-138 0 -225.5 -85.5
t-87.5 -225.5v-731zM862 1104q0 76 -28 143l-521 -1089q90 -99 236 -99q135 0 224 87.5t89 226.5v731z" />
    <glyph glyph-name="Ugrave" unicode="&#xd9;" 
d="M512 1597l-160 277h97l135 -277h-72zM549 -20q-176 0 -286.5 106t-110.5 287v1102h84v-1102q0 -139 89 -226.5t224 -87.5t224 87.5t89 226.5v1102h84v-1102q0 -181 -110.5 -287t-286.5 -106z" />
    <glyph glyph-name="Uacute" unicode="&#xda;" 
d="M512 1597l135 277h96l-159 -277h-72zM549 -20q-176 0 -286.5 106t-110.5 287v1102h84v-1102q0 -139 89 -226.5t224 -87.5t224 87.5t89 226.5v1102h84v-1102q0 -181 -110.5 -287t-286.5 -106z" />
    <glyph glyph-name="Ucircumflex" unicode="&#xdb;" 
d="M551 1825l-158 -228h-82l191 277h94l190 -277h-79zM862 1475h84v-1102q0 -181 -110.5 -287t-286.5 -106t-286.5 106t-110.5 287v1102h84v-1102q0 -139 89 -226.5t224 -87.5t224 87.5t89 226.5v1102z" />
    <glyph glyph-name="Udieresis" unicode="&#xdc;" 
d="M268 1597v152h119v-152h-119zM709 1597v152h118v-152h-118zM549 -20q-176 0 -286.5 106t-110.5 287v1102h84v-1102q0 -139 89 -226.5t224 -87.5t224 87.5t89 226.5v1102h84v-1102q0 -181 -110.5 -287t-286.5 -106z" />
    <glyph glyph-name="Yacute" unicode="&#xdd;" horiz-adv-x="976" 
d="M682 1874l-160 -277h-71l135 277h96zM825 1475h88l-383 -951v-524h-84v524l-383 951h89l337 -846z" />
    <glyph glyph-name="Thorn" unicode="&#xde;" horiz-adv-x="1087" 
d="M569 1167q180 0 289 -100t109 -272v-121q0 -172 -109 -272.5t-289 -100.5h-313v-301h-84v1475h84v-308h313zM883 678v113q0 136 -83 216t-231 80h-313v-706h313q148 0 231 80t83 217z" />
    <glyph glyph-name="germandbls" unicode="&#xdf;" horiz-adv-x="1112" 
d="M745 838q226 -73 226 -373v-47q0 -188 -106.5 -303t-282.5 -115h-74v80h78q137 0 219 94.5t82 249.5v51q0 154 -77 235t-206 81h-20v73h30q85 0 151 80t66 209q0 119 -73.5 190.5t-206.5 71.5q-136 0 -215.5 -85t-79.5 -251v-1079h-84v1104q0 187 106.5 289t280.5 102
q156 0 256 -95t100 -251q0 -216 -170 -311z" />
    <glyph glyph-name="agrave" unicode="&#xe0;" horiz-adv-x="1056" 
d="M530 1249l-159 277h96l135 -277h-72zM526 1085q169 0 268 -89.5t99 -245.5v-750h-84v137q-118 -157 -334 -157q-162 0 -259 86t-97 229q0 149 103 229t284 80h303v141q0 123 -72.5 192t-210.5 69q-131 0 -201.5 -63t-76.5 -171h-86q7 147 107.5 230t256.5 83zM485 59
q144 0 234 87.5t90 224.5v153h-303q-139 0 -221 -58t-82 -165q0 -113 77 -177.5t205 -64.5z" />
    <glyph glyph-name="aacute" unicode="&#xe1;" horiz-adv-x="1056" 
d="M741 1526l-159 -277h-72l135 277h96zM526 1085q169 0 268 -89.5t99 -245.5v-750h-84v137q-118 -157 -334 -157q-162 0 -259 86t-97 229q0 149 103 229t284 80h303v141q0 123 -72.5 192t-210.5 69q-131 0 -201.5 -63t-76.5 -171h-86q7 147 107.5 230t256.5 83zM485 59
q144 0 234 87.5t90 224.5v153h-303q-139 0 -221 -58t-82 -165q0 -113 77 -177.5t205 -64.5z" />
    <glyph glyph-name="acircumflex" unicode="&#xe2;" horiz-adv-x="1056" 
d="M305 1249l191 277h102l190 -277h-79l-162 217l-160 -217h-82zM526 1085q169 0 268 -89.5t99 -245.5v-750h-84v137q-118 -157 -334 -157q-162 0 -259 86t-97 229q0 149 103 229t284 80h303v141q0 123 -72.5 192t-210.5 69q-131 0 -201.5 -63t-76.5 -171h-86
q7 147 107.5 230t256.5 83zM485 59q144 0 234 87.5t90 224.5v153h-303q-139 0 -221 -58t-82 -165q0 -113 77 -177.5t205 -64.5z" />
    <glyph glyph-name="atilde" unicode="&#xe3;" horiz-adv-x="1056" 
d="M690 1251q-53 0 -151.5 44t-132.5 44q-51 0 -117 -69l-47 51q80 96 168 96q53 0 147 -44t135 -44q32 0 54 14t57 52l45 -52q-77 -92 -158 -92zM526 1085q169 0 268 -89.5t99 -245.5v-750h-84v137q-118 -157 -334 -157q-162 0 -259 86t-97 229q0 149 103 229t284 80h303
v141q0 123 -72.5 192t-210.5 69q-131 0 -201.5 -63t-76.5 -171h-86q7 147 107.5 230t256.5 83zM485 59q144 0 234 87.5t90 224.5v153h-303q-139 0 -221 -58t-82 -165q0 -113 77 -177.5t205 -64.5z" />
    <glyph glyph-name="adieresis" unicode="&#xe4;" horiz-adv-x="1056" 
d="M266 1270v151h119v-151h-119zM707 1270v151h118v-151h-118zM526 1085q169 0 268 -89.5t99 -245.5v-750h-84v137q-118 -157 -334 -157q-162 0 -259 86t-97 229q0 149 103 229t284 80h303v141q0 123 -72.5 192t-210.5 69q-131 0 -201.5 -63t-76.5 -171h-86q7 147 107.5 230
t256.5 83zM485 59q144 0 234 87.5t90 224.5v153h-303q-139 0 -221 -58t-82 -165q0 -113 77 -177.5t205 -64.5z" />
    <glyph glyph-name="aring" unicode="&#xe5;" horiz-adv-x="1056" 
d="M545 1204q-78 0 -135.5 58.5t-57.5 136.5q0 81 57 137.5t136 56.5q82 0 139 -56t57 -138q0 -79 -57.5 -137t-138.5 -58zM545 1270q53 0 91 38.5t38 90.5q0 54 -37.5 91.5t-91.5 37.5q-52 0 -88.5 -37.5t-36.5 -91.5q0 -52 36.5 -90.5t88.5 -38.5zM526 1085
q169 0 268 -89.5t99 -245.5v-750h-84v137q-118 -157 -334 -157q-162 0 -259 86t-97 229q0 149 103 229t284 80h303v141q0 123 -72.5 192t-210.5 69q-131 0 -201.5 -63t-76.5 -171h-86q7 147 107.5 230t256.5 83zM485 59q144 0 234 87.5t90 224.5v153h-303q-139 0 -221 -58
t-82 -165q0 -113 77 -177.5t205 -64.5z" />
    <glyph glyph-name="ae" unicode="&#xe6;" horiz-adv-x="1728" 
d="M1577 524h-684v-149q0 -147 79 -231.5t222 -84.5q278 0 299 273h84q-7 -163 -110.5 -257.5t-272.5 -94.5q-122 0 -216.5 51.5t-137.5 152.5q-116 -204 -365 -204q-162 0 -259 86t-97 229q0 151 100.5 230t284.5 79h305v141q0 123 -72.5 192t-214.5 69q-128 0 -198 -63
t-76 -171h-86q7 148 108 230.5t260 82.5q118 0 203 -45.5t125 -130.5q41 82 129.5 128.5t206.5 47.5q177 0 280 -100.5t103 -273.5v-187zM1194 1006q-142 0 -221.5 -81.5t-79.5 -213.5v-107h600v107q0 134 -78.5 214.5t-220.5 80.5zM483 59q144 0 235 87.5t91 224.5v153
h-317q-141 0 -215 -57.5t-74 -165.5q0 -113 76.5 -177.5t203.5 -64.5z" />
    <glyph glyph-name="ccedilla" unicode="&#xe7;" horiz-adv-x="1032" 
d="M537 -20q-177 0 -281 101t-104 273v357q0 172 104 273t281 101q167 0 274.5 -96t110.5 -250h-84q-9 125 -89 196t-212 71q-138 0 -219.5 -79t-81.5 -216v-357q0 -136 84 -215.5t217 -79.5q137 0 213.5 70t87.5 203h84q-5 -158 -110.5 -255t-274.5 -97zM346 -365l160 277
h72l-136 -277h-96z" />
    <glyph glyph-name="egrave" unicode="&#xe8;" horiz-adv-x="1073" 
d="M520 1249l-160 277h97l135 -277h-72zM838 332h84q-7 -163 -111 -257.5t-274 -94.5q-177 0 -281 101t-104 273v357q0 172 104 273t281 101t280 -100.5t103 -273.5v-191h-684v-166q0 -136 83.5 -215.5t217.5 -79.5q136 0 213 70.5t88 202.5zM537 1006q-138 0 -219.5 -79
t-81.5 -216v-111h600v111q0 137 -81 216t-218 79z" />
    <glyph glyph-name="eacute" unicode="&#xe9;" horiz-adv-x="1073" 
d="M731 1526l-160 -277h-71l135 277h96zM838 332h84q-7 -163 -111 -257.5t-274 -94.5q-177 0 -281 101t-104 273v357q0 172 104 273t281 101t280 -100.5t103 -273.5v-191h-684v-166q0 -136 83.5 -215.5t217.5 -79.5q136 0 213 70.5t88 202.5zM537 1006q-138 0 -219.5 -79
t-81.5 -216v-111h600v111q0 137 -81 216t-218 79z" />
    <glyph glyph-name="ecircumflex" unicode="&#xea;" horiz-adv-x="1073" 
d="M295 1249l190 277h103l190 -277h-80l-161 217l-160 -217h-82zM838 332h84q-7 -163 -111 -257.5t-274 -94.5q-177 0 -281 101t-104 273v357q0 172 104 273t281 101t280 -100.5t103 -273.5v-191h-684v-166q0 -136 83.5 -215.5t217.5 -79.5q136 0 213 70.5t88 202.5z
M537 1006q-138 0 -219.5 -79t-81.5 -216v-111h600v111q0 137 -81 216t-218 79z" />
    <glyph glyph-name="edieresis" unicode="&#xeb;" horiz-adv-x="1073" 
d="M256 1270v151h119v-151h-119zM696 1270v151h119v-151h-119zM838 332h84q-7 -163 -111 -257.5t-274 -94.5q-177 0 -281 101t-104 273v357q0 172 104 273t281 101t280 -100.5t103 -273.5v-191h-684v-166q0 -136 83.5 -215.5t217.5 -79.5q136 0 213 70.5t88 202.5zM537 1006
q-138 0 -219.5 -79t-81.5 -216v-111h600v111q0 137 -81 216t-218 79z" />
    <glyph glyph-name="igrave" unicode="&#xec;" horiz-adv-x="425" 
d="M197 1249l-160 277h96l135 -277h-71zM172 0v1065h82v-1065h-82z" />
    <glyph glyph-name="iacute" unicode="&#xed;" horiz-adv-x="425" 
d="M176 1249l135 277h97l-160 -277h-72zM172 0v1065h82v-1065h-82z" />
    <glyph glyph-name="icircumflex" unicode="&#xee;" horiz-adv-x="425" 
d="M-29 1249l191 277h102l191 -277h-80l-162 217l-160 -217h-82zM172 0v1065h82v-1065h-82z" />
    <glyph glyph-name="idieresis" unicode="&#xef;" horiz-adv-x="425" 
d="M4 1270v151h119v-151h-119zM301 1270v151h119v-151h-119zM172 0v1065h82v-1065h-82z" />
    <glyph glyph-name="eth" unicode="&#xf0;" horiz-adv-x="1087" 
d="M782 1350q140 -131 140 -355v-641q0 -171 -104 -272.5t-279 -101.5q-178 0 -282.5 101t-104.5 273v275q0 172 104.5 273.5t282.5 101.5q88 0 168.5 -35t130.5 -105v129q0 189 -109 295l-74 -86h-100l113 133q-102 60 -240 60h-131v80h125q175 0 299 -78l119 139h102z
M838 354v275q0 133 -81.5 214t-217.5 81q-139 0 -221 -79t-82 -216v-275q0 -134 84 -214.5t219 -80.5q137 0 218 79t81 216z" />
    <glyph glyph-name="ntilde" unicode="&#xf1;" horiz-adv-x="1103" 
d="M696 1251q-53 0 -151.5 44t-132.5 44q-51 0 -117 -69l-47 51q80 96 168 96q53 0 147 -44t135 -44q32 0 54 14t57 52l45 -52q-77 -92 -158 -92zM555 1085q178 0 281.5 -100.5t103.5 -273.5v-711h-84v711q0 136 -81.5 215.5t-217.5 79.5t-218.5 -81.5t-82.5 -213.5v-711
h-84v1065h84v-119q50 70 130.5 104.5t168.5 34.5z" />
    <glyph glyph-name="ograve" unicode="&#xf2;" horiz-adv-x="1069" 
d="M518 1249l-160 277h97l135 -277h-72zM535 -20q-175 0 -279 101.5t-104 272.5v357q0 171 104 272.5t279 101.5t279 -101.5t104 -272.5v-357q0 -171 -104 -272.5t-279 -101.5zM535 59q137 0 218 79t81 216v357q0 137 -81 216t-218 79t-218 -79t-81 -216v-357
q0 -137 81 -216t218 -79z" />
    <glyph glyph-name="oacute" unicode="&#xf3;" horiz-adv-x="1069" 
d="M498 1249l135 277h96l-160 -277h-71zM535 -20q-175 0 -279 101.5t-104 272.5v357q0 171 104 272.5t279 101.5t279 -101.5t104 -272.5v-357q0 -171 -104 -272.5t-279 -101.5zM535 59q137 0 218 79t81 216v357q0 137 -81 216t-218 79t-218 -79t-81 -216v-357
q0 -137 81 -216t218 -79z" />
    <glyph glyph-name="ocircumflex" unicode="&#xf4;" horiz-adv-x="1069" 
d="M293 1249l190 277h103l190 -277h-80l-161 217l-160 -217h-82zM535 -20q-175 0 -279 101.5t-104 272.5v357q0 171 104 272.5t279 101.5t279 -101.5t104 -272.5v-357q0 -171 -104 -272.5t-279 -101.5zM535 59q137 0 218 79t81 216v357q0 137 -81 216t-218 79t-218 -79
t-81 -216v-357q0 -137 81 -216t218 -79z" />
    <glyph glyph-name="otilde" unicode="&#xf5;" horiz-adv-x="1069" 
d="M678 1251q-53 0 -152 44t-133 44q-51 0 -117 -69l-47 51q80 96 168 96q53 0 147.5 -44t135.5 -44q32 0 54 14t57 52l45 -52q-77 -92 -158 -92zM535 -20q-175 0 -279 101.5t-104 272.5v357q0 171 104 272.5t279 101.5t279 -101.5t104 -272.5v-357q0 -171 -104 -272.5
t-279 -101.5zM535 59q137 0 218 79t81 216v357q0 137 -81 216t-218 79t-218 -79t-81 -216v-357q0 -137 81 -216t218 -79z" />
    <glyph glyph-name="odieresis" unicode="&#xf6;" horiz-adv-x="1069" 
d="M254 1270v151h119v-151h-119zM694 1270v151h119v-151h-119zM535 -20q-175 0 -279 101.5t-104 272.5v357q0 171 104 272.5t279 101.5t279 -101.5t104 -272.5v-357q0 -171 -104 -272.5t-279 -101.5zM535 59q137 0 218 79t81 216v357q0 137 -81 216t-218 79t-218 -79
t-81 -216v-357q0 -137 81 -216t218 -79z" />
    <glyph glyph-name="divide" unicode="&#xf7;" horiz-adv-x="1150" 
d="M496 887v162h161v-162h-161zM162 578v79h829v-79h-829zM496 186v162h161v-162h-161z" />
    <glyph glyph-name="oslash" unicode="&#xf8;" horiz-adv-x="1069" 
d="M797 999q121 -102 121 -288v-357q0 -171 -104 -272.5t-279 -101.5q-117 0 -203 47l-64 -133h-90l86 180q-112 98 -112 280v357q0 171 104 272.5t279 101.5q110 0 194 -41l66 138h88zM236 354q0 -124 67 -200l391 817q-68 35 -159 35q-137 0 -218 -79t-81 -216v-357z
M834 354v357q0 132 -76 211l-391 -822q71 -41 168 -41q137 0 218 79t81 216z" />
    <glyph glyph-name="ugrave" unicode="&#xf9;" horiz-adv-x="1103" 
d="M535 1249l-160 277h96l135 -277h-71zM848 1065h84v-1065h-84v135q-53 -75 -133 -115t-180 -40q-172 0 -271.5 100t-99.5 295v690h84v-690q0 -153 77.5 -234.5t213.5 -81.5q138 0 223.5 88.5t85.5 233.5v684z" />
    <glyph glyph-name="uacute" unicode="&#xfa;" horiz-adv-x="1103" 
d="M745 1526l-159 -277h-72l135 277h96zM848 1065h84v-1065h-84v135q-53 -75 -133 -115t-180 -40q-172 0 -271.5 100t-99.5 295v690h84v-690q0 -153 77.5 -234.5t213.5 -81.5q138 0 223.5 88.5t85.5 233.5v684z" />
    <glyph glyph-name="ucircumflex" unicode="&#xfb;" horiz-adv-x="1103" 
d="M309 1249l191 277h102l191 -277h-80l-162 217l-160 -217h-82zM848 1065h84v-1065h-84v135q-53 -75 -133 -115t-180 -40q-172 0 -271.5 100t-99.5 295v690h84v-690q0 -153 77.5 -234.5t213.5 -81.5q138 0 223.5 88.5t85.5 233.5v684z" />
    <glyph glyph-name="udieresis" unicode="&#xfc;" horiz-adv-x="1103" 
d="M270 1270v151h119v-151h-119zM711 1270v151h118v-151h-118zM848 1065h84v-1065h-84v135q-53 -75 -133 -115t-180 -40q-172 0 -271.5 100t-99.5 295v690h84v-690q0 -153 77.5 -234.5t213.5 -81.5q138 0 223.5 88.5t85.5 233.5v684z" />
    <glyph glyph-name="yacute" unicode="&#xfd;" horiz-adv-x="905" 
d="M416 1249l135 277h96l-160 -277h-71zM141 -410v80h41q90 0 143.5 45.5t82.5 147.5l38 137h-71l-322 1065h86l297 -993h33l297 993h86l-371 -1231q-72 -244 -295 -244h-45z" />
    <glyph glyph-name="thorn" unicode="&#xfe;" horiz-adv-x="1091" 
d="M555 1085q178 0 281.5 -100.5t103.5 -273.5v-357q0 -172 -104 -273t-281 -101q-88 0 -168.5 34.5t-130.5 104.5v-529h-84v1885h84v-529q50 70 130.5 104.5t168.5 34.5zM856 354v357q0 136 -81.5 215.5t-217.5 79.5t-218.5 -81.5t-82.5 -213.5v-357q0 -132 82.5 -213.5
t218.5 -81.5q137 0 218 79t81 216z" />
    <glyph glyph-name="ydieresis" unicode="&#xff;" horiz-adv-x="905" 
d="M172 1270v151h119v-151h-119zM612 1270v151h119v-151h-119zM141 -410v80h41q90 0 143.5 45.5t82.5 147.5l38 137h-71l-322 1065h86l297 -993h33l297 993h86l-371 -1231q-72 -244 -295 -244h-45z" />
    <glyph glyph-name="Amacron" unicode="&#x100;" horiz-adv-x="1089" 
d="M254 1638v72h590v-72h-590zM950 0l-119 434h-573l-119 -434h-80l402 1475h168l401 -1475h-80zM281 514h528l-240 881h-49z" />
    <glyph glyph-name="amacron" unicode="&#x101;" horiz-adv-x="1056" 
d="M252 1311v71h590v-71h-590zM526 1085q169 0 268 -89.5t99 -245.5v-750h-84v137q-118 -157 -334 -157q-162 0 -259 86t-97 229q0 149 103 229t284 80h303v141q0 123 -72.5 192t-210.5 69q-131 0 -201.5 -63t-76.5 -171h-86q7 147 107.5 230t256.5 83zM485 59
q144 0 234 87.5t90 224.5v153h-303q-139 0 -221 -58t-82 -165q0 -113 77 -177.5t205 -64.5z" />
    <glyph glyph-name="Abreve" unicode="&#x102;" horiz-adv-x="1089" 
d="M549 1597q-215 0 -254 232h80q10 -81 58 -122.5t116 -41.5t116 41.5t58 122.5h80q-39 -232 -254 -232zM950 0l-119 434h-573l-119 -434h-80l402 1475h168l401 -1475h-80zM281 514h528l-240 881h-49z" />
    <glyph glyph-name="abreve" unicode="&#x103;" horiz-adv-x="1056" 
d="M547 1219q-109 0 -181.5 61.5t-95.5 179.5h84q14 -82 66 -123t127 -41t126.5 41t65.5 123h84q-21 -118 -94 -179.5t-182 -61.5zM526 1085q169 0 268 -89.5t99 -245.5v-750h-84v137q-118 -157 -334 -157q-162 0 -259 86t-97 229q0 149 103 229t284 80h303v141
q0 123 -72.5 192t-210.5 69q-131 0 -201.5 -63t-76.5 -171h-86q7 147 107.5 230t256.5 83zM485 59q144 0 234 87.5t90 224.5v153h-303q-139 0 -221 -58t-82 -165q0 -113 77 -177.5t205 -64.5z" />
    <glyph glyph-name="Aogonek" unicode="&#x104;" horiz-adv-x="1089" 
d="M1069 -330h23v-80h-23q-92 0 -152.5 64t-60.5 160v36q0 110 88 170l-113 414h-573l-119 -434h-80l402 1475h168l401 -1475q-92 -38 -92 -127v-59q0 -63 39 -103.5t92 -40.5zM281 514h528l-240 881h-49z" />
    <glyph glyph-name="aogonek" unicode="&#x105;" horiz-adv-x="1056" 
d="M963 -330h22v-80h-22q-101 0 -167.5 64t-66.5 160v36q0 106 80 170v117q-118 -157 -334 -157q-162 0 -259 86t-97 229q0 149 103 229t284 80h303v141q0 123 -72.5 192t-210.5 69q-131 0 -201.5 -63t-76.5 -171h-86q7 147 107.5 230t256.5 83q169 0 268 -89.5t99 -245.5
v-750q-37 -18 -59.5 -51t-22.5 -76v-59q0 -62 45.5 -103t106.5 -41zM485 59q144 0 234 87.5t90 224.5v153h-303q-139 0 -221 -58t-82 -165q0 -113 77 -177.5t205 -64.5z" />
    <glyph glyph-name="Cacute" unicode="&#x106;" horiz-adv-x="1056" 
d="M514 1597l135 277h96l-159 -277h-72zM543 -20q-170 0 -280.5 106.5t-110.5 284.5v737q0 170 112.5 278.5t284.5 108.5q168 0 279 -100.5t118 -268.5h-84q-6 129 -94 209t-219 80q-138 0 -225.5 -85.5t-87.5 -225.5v-719q0 -150 85.5 -238t219.5 -88q140 0 227.5 80.5
t87.5 210.5h84q0 -165 -111.5 -267.5t-285.5 -102.5z" />
    <glyph glyph-name="cacute" unicode="&#x107;" horiz-adv-x="1032" 
d="M500 1249l135 277h96l-160 -277h-71zM537 -20q-177 0 -281 101t-104 273v357q0 172 104 273t281 101q167 0 274.5 -96t110.5 -250h-84q-9 125 -89 196t-212 71q-138 0 -219.5 -79t-81.5 -216v-357q0 -136 84 -215.5t217 -79.5q137 0 213.5 70t87.5 203h84
q-5 -158 -110.5 -255t-274.5 -97z" />
    <glyph glyph-name="Ccircumflex" unicode="&#x108;" horiz-adv-x="1056" 
d="M553 1825l-158 -228h-82l191 277h94l190 -277h-79zM541 59q140 0 227.5 80.5t87.5 210.5h84q0 -165 -111.5 -267.5t-285.5 -102.5q-170 0 -280.5 106.5t-110.5 284.5v737q0 170 112.5 278.5t284.5 108.5q168 0 279 -100.5t118 -268.5h-84q-6 129 -94 209t-219 80
q-138 0 -225.5 -85.5t-87.5 -225.5v-719q0 -150 85.5 -238t219.5 -88z" />
    <glyph glyph-name="ccircumflex" unicode="&#x109;" horiz-adv-x="1032" 
d="M295 1249l190 277h103l190 -277h-80l-161 217l-160 -217h-82zM537 -20q-177 0 -281 101t-104 273v357q0 172 104 273t281 101q167 0 274.5 -96t110.5 -250h-84q-9 125 -89 196t-212 71q-138 0 -219.5 -79t-81.5 -216v-357q0 -136 84 -215.5t217 -79.5q137 0 213.5 70
t87.5 203h84q-5 -158 -110.5 -255t-274.5 -97z" />
    <glyph glyph-name="Cdotaccent" unicode="&#x10a;" horiz-adv-x="1056" 
d="M492 1597v152h118v-152h-118zM543 -20q-170 0 -280.5 106.5t-110.5 284.5v737q0 170 112.5 278.5t284.5 108.5q168 0 279 -100.5t118 -268.5h-84q-6 129 -94 209t-219 80q-138 0 -225.5 -85.5t-87.5 -225.5v-719q0 -150 85.5 -238t219.5 -88q140 0 227.5 80.5t87.5 210.5
h84q0 -165 -111.5 -267.5t-285.5 -102.5z" />
    <glyph glyph-name="cdotaccent" unicode="&#x10b;" horiz-adv-x="1032" 
d="M485 1270v151h103v-151h-103zM537 -20q-177 0 -281 101t-104 273v357q0 172 104 273t281 101q167 0 274.5 -96t110.5 -250h-84q-9 125 -89 196t-212 71q-138 0 -219.5 -79t-81.5 -216v-357q0 -136 84 -215.5t217 -79.5q137 0 213.5 70t87.5 203h84q-5 -158 -110.5 -255
t-274.5 -97z" />
    <glyph glyph-name="Ccaron" unicode="&#x10c;" horiz-adv-x="1056" 
d="M598 1597h-94l-191 277h84l156 -225l156 225h79zM541 59q140 0 227.5 80.5t87.5 210.5h84q0 -165 -111.5 -267.5t-285.5 -102.5q-170 0 -280.5 106.5t-110.5 284.5v737q0 170 112.5 278.5t284.5 108.5q168 0 279 -100.5t118 -268.5h-84q-6 129 -94 209t-219 80
q-138 0 -225.5 -85.5t-87.5 -225.5v-719q0 -150 85.5 -238t219.5 -88z" />
    <glyph glyph-name="ccaron" unicode="&#x10d;" horiz-adv-x="1032" 
d="M485 1229l-190 276h82l160 -217l161 217h80l-190 -276h-103zM537 -20q-177 0 -281 101t-104 273v357q0 172 104 273t281 101q167 0 274.5 -96t110.5 -250h-84q-9 125 -89 196t-212 71q-138 0 -219.5 -79t-81.5 -216v-357q0 -136 84 -215.5t217 -79.5q137 0 213.5 70
t87.5 203h84q-5 -158 -110.5 -255t-274.5 -97z" />
    <glyph glyph-name="Dcaron" unicode="&#x10e;" horiz-adv-x="1116" 
d="M606 1597h-94l-190 277h84l155 -225l156 225h80zM563 1475q180 0 291 -103.5t111 -263.5v-733q0 -167 -110 -271t-298 -104h-385v1475h391zM881 377v725q0 139 -91 216t-243 77h-291v-1315h291q156 0 245 77t89 220z" />
    <glyph glyph-name="dcaron" unicode="&#x10f;" horiz-adv-x="1132" 
d="M836 946v529h84v-1475h-84v119q-50 -70 -130.5 -104.5t-168.5 -34.5q-177 0 -281 101t-104 273v357q0 173 103.5 273.5t281.5 100.5q88 0 168.5 -34.5t130.5 -104.5zM1085 1475h80v-328h-80v328zM535 59q136 0 218.5 81.5t82.5 213.5v357q0 132 -82.5 213.5t-218.5 81.5
t-217.5 -79.5t-81.5 -215.5v-357q0 -137 81 -216t218 -79z" />
    <glyph glyph-name="Dcroat" unicode="&#x110;" horiz-adv-x="1116" 
d="M563 1475q180 0 291 -103.5t111 -263.5v-733q0 -167 -110 -271t-298 -104h-385v743h-119v66h119v666h391zM881 377v725q0 139 -91 216t-243 77h-291v-586h369v-66h-369v-663h291q156 0 245 77t89 220z" />
    <glyph glyph-name="dcroat" unicode="&#x111;" horiz-adv-x="1091" 
d="M1061 1327v-80h-141v-1247h-84v119q-50 -70 -130.5 -104.5t-168.5 -34.5q-177 0 -281 101t-104 273v357q0 173 103.5 273.5t281.5 100.5q88 0 168.5 -34.5t130.5 -104.5v301h-385v80h385v148h84v-148h141zM836 354v357q0 132 -82.5 213.5t-218.5 81.5t-217.5 -79.5
t-81.5 -215.5v-357q0 -137 81 -216t218 -79q136 0 218.5 81.5t82.5 213.5z" />
    <glyph glyph-name="Emacron" unicode="&#x112;" horiz-adv-x="1015" 
d="M262 1638v72h590v-72h-590zM926 1395h-670v-578h618v-80h-618v-657h670v-80h-754v1475h754v-80z" />
    <glyph glyph-name="emacron" unicode="&#x113;" horiz-adv-x="1073" 
d="M242 1311v71h589v-71h-589zM838 332h84q-7 -163 -111 -257.5t-274 -94.5q-177 0 -281 101t-104 273v357q0 172 104 273t281 101t280 -100.5t103 -273.5v-191h-684v-166q0 -136 83.5 -215.5t217.5 -79.5q136 0 213 70.5t88 202.5zM537 1006q-138 0 -219.5 -79t-81.5 -216
v-111h600v111q0 137 -81 216t-218 79z" />
    <glyph glyph-name="Ebreve" unicode="&#x114;" horiz-adv-x="1015" 
d="M557 1597q-215 0 -254 232h80q10 -81 58 -122.5t116 -41.5t116 41.5t58 122.5h80q-39 -232 -254 -232zM926 1395h-670v-578h618v-80h-618v-657h670v-80h-754v1475h754v-80z" />
    <glyph glyph-name="ebreve" unicode="&#x115;" horiz-adv-x="1073" 
d="M537 1219q-109 0 -181.5 61.5t-95.5 179.5h84q14 -82 66 -123t127 -41t126.5 41t65.5 123h84q-21 -118 -94 -179.5t-182 -61.5zM838 332h84q-7 -163 -111 -257.5t-274 -94.5q-177 0 -281 101t-104 273v357q0 172 104 273t281 101t280 -100.5t103 -273.5v-191h-684v-166
q0 -136 83.5 -215.5t217.5 -79.5q136 0 213 70.5t88 202.5zM537 1006q-138 0 -219.5 -79t-81.5 -216v-111h600v111q0 137 -81 216t-218 79z" />
    <glyph glyph-name="Edotaccent" unicode="&#x116;" horiz-adv-x="1015" 
d="M498 1597v152h118v-152h-118zM926 1395h-670v-578h618v-80h-618v-657h670v-80h-754v1475h754v-80z" />
    <glyph glyph-name="edotaccent" unicode="&#x117;" horiz-adv-x="1073" 
d="M485 1270v151h103v-151h-103zM838 332h84q-7 -163 -111 -257.5t-274 -94.5q-177 0 -281 101t-104 273v357q0 172 104 273t281 101t280 -100.5t103 -273.5v-191h-684v-166q0 -136 83.5 -215.5t217.5 -79.5q136 0 213 70.5t88 202.5zM537 1006q-138 0 -219.5 -79
t-81.5 -216v-111h600v111q0 137 -81 216t-218 79z" />
    <glyph glyph-name="Eogonek" unicode="&#x118;" horiz-adv-x="1015" 
d="M926 1395h-670v-578h618v-80h-618v-657h670v-80h-144q-123 0 -123 -139v-68q0 -54 45.5 -88.5t106.5 -34.5h23v-80h-23q-101 0 -167 58t-66 145v57q0 95 49 150h-455v1475h754v-80z" />
    <glyph glyph-name="eogonek" unicode="&#x119;" horiz-adv-x="1073" 
d="M702 8q-59 -23 -59 -114v-80q0 -62 45.5 -103t106.5 -41h22v-80h-22q-101 0 -167.5 64t-66.5 160v57q0 61 29 111q-18 -2 -53 -2q-177 0 -281 101t-104 273v357q0 172 104 273t281 101t280 -100.5t103 -273.5v-191h-684v-166q0 -136 83.5 -215.5t217.5 -79.5
q136 0 213 70.5t88 202.5h84q-6 -119 -63.5 -203t-156.5 -121zM236 711v-111h600v111q0 137 -81 216t-218 79q-138 0 -219.5 -79t-81.5 -216z" />
    <glyph glyph-name="Ecaron" unicode="&#x11a;" horiz-adv-x="1015" 
d="M604 1597h-94l-191 277h84l156 -225l156 225h80zM926 1395h-670v-578h618v-80h-618v-657h670v-80h-754v1475h754v-80z" />
    <glyph glyph-name="ecaron" unicode="&#x11b;" horiz-adv-x="1073" 
d="M485 1229l-190 276h82l160 -217l161 217h80l-190 -276h-103zM838 332h84q-7 -163 -111 -257.5t-274 -94.5q-177 0 -281 101t-104 273v357q0 172 104 273t281 101t280 -100.5t103 -273.5v-191h-684v-166q0 -136 83.5 -215.5t217.5 -79.5q136 0 213 70.5t88 202.5z
M537 1006q-138 0 -219.5 -79t-81.5 -216v-111h600v111q0 137 -81 216t-218 79z" />
    <glyph glyph-name="Gcircumflex" unicode="&#x11c;" horiz-adv-x="1095" 
d="M551 1825l-158 -228h-82l191 277h94l190 -277h-79zM541 686v80h405v-393q0 -175 -112.5 -284t-284.5 -109q-176 0 -286.5 106t-110.5 287v735q0 170 112.5 278.5t284.5 108.5q168 0 279 -100.5t118 -268.5h-84q-6 129 -94 209t-219 80q-138 0 -225.5 -85.5t-87.5 -225.5
v-731q0 -139 89 -226.5t224 -87.5t224 87.5t89 226.5v313h-321z" />
    <glyph glyph-name="gcircumflex" unicode="&#x11d;" horiz-adv-x="1091" 
d="M305 1249l191 277h102l190 -277h-79l-162 217l-160 -217h-82zM836 1065h84v-1122q0 -93 -29 -165t-80.5 -117t-118.5 -68t-147 -23q-166 0 -265 90t-110 236h84q9 -110 85.5 -178t205.5 -68q134 0 212.5 75t78.5 216v198q-50 -70 -130.5 -104.5t-168.5 -34.5
q-177 0 -281 101.5t-104 273.5v336q0 173 103.5 273.5t281.5 100.5q88 0 168.5 -34.5t130.5 -104.5v119zM535 80q136 0 218.5 81.5t82.5 213.5v336q0 132 -82.5 213.5t-218.5 81.5t-217.5 -79.5t-81.5 -215.5v-336q0 -137 81 -216t218 -79z" />
    <glyph glyph-name="Gbreve" unicode="&#x11e;" horiz-adv-x="1095" 
d="M549 1597q-215 0 -254 232h80q10 -81 58 -122.5t116 -41.5t116 41.5t58 122.5h80q-39 -232 -254 -232zM549 -20q-176 0 -286.5 106t-110.5 287v735q0 170 112.5 278.5t284.5 108.5q168 0 279 -100.5t118 -268.5h-84q-6 129 -94 209t-219 80q-138 0 -225.5 -85.5
t-87.5 -225.5v-731q0 -139 89 -226.5t224 -87.5t224 87.5t89 226.5v313h-321v80h405v-393q0 -175 -112.5 -284t-284.5 -109z" />
    <glyph glyph-name="gbreve" unicode="&#x11f;" horiz-adv-x="1091" 
d="M547 1219q-109 0 -181.5 61.5t-95.5 179.5h84q14 -82 66 -123t127 -41t126.5 41t65.5 123h84q-21 -118 -94 -179.5t-182 -61.5zM836 1065h84v-1122q0 -93 -29 -165t-80.5 -117t-118.5 -68t-147 -23q-166 0 -265 90t-110 236h84q9 -110 85.5 -178t205.5 -68
q134 0 212.5 75t78.5 216v198q-50 -70 -130.5 -104.5t-168.5 -34.5q-177 0 -281 101.5t-104 273.5v336q0 173 103.5 273.5t281.5 100.5q88 0 168.5 -34.5t130.5 -104.5v119zM535 80q136 0 218.5 81.5t82.5 213.5v336q0 132 -82.5 213.5t-218.5 81.5t-217.5 -79.5
t-81.5 -215.5v-336q0 -137 81 -216t218 -79z" />
    <glyph glyph-name="Gdotaccent" unicode="&#x120;" horiz-adv-x="1095" 
d="M489 1597v152h119v-152h-119zM549 -20q-176 0 -286.5 106t-110.5 287v735q0 170 112.5 278.5t284.5 108.5q168 0 279 -100.5t118 -268.5h-84q-6 129 -94 209t-219 80q-138 0 -225.5 -85.5t-87.5 -225.5v-731q0 -139 89 -226.5t224 -87.5t224 87.5t89 226.5v313h-321v80
h405v-393q0 -175 -112.5 -284t-284.5 -109z" />
    <glyph glyph-name="gdotaccent" unicode="&#x121;" horiz-adv-x="1091" 
d="M496 1270v151h102v-151h-102zM836 1065h84v-1122q0 -93 -29 -165t-80.5 -117t-118.5 -68t-147 -23q-166 0 -265 90t-110 236h84q9 -110 85.5 -178t205.5 -68q134 0 212.5 75t78.5 216v198q-50 -70 -130.5 -104.5t-168.5 -34.5q-177 0 -281 101.5t-104 273.5v336
q0 173 103.5 273.5t281.5 100.5q88 0 168.5 -34.5t130.5 -104.5v119zM535 80q136 0 218.5 81.5t82.5 213.5v336q0 132 -82.5 213.5t-218.5 81.5t-217.5 -79.5t-81.5 -215.5v-336q0 -137 81 -216t218 -79z" />
    <glyph glyph-name="uni0122" unicode="&#x122;" horiz-adv-x="1095" 
d="M549 -20q-176 0 -286.5 106t-110.5 287v735q0 170 112.5 278.5t284.5 108.5q168 0 279 -100.5t118 -268.5h-84q-6 129 -94 209t-219 80q-138 0 -225.5 -85.5t-87.5 -225.5v-731q0 -139 89 -226.5t224 -87.5t224 87.5t89 226.5v313h-321v80h405v-393q0 -175 -112.5 -284
t-284.5 -109zM352 -365l160 277h72l-135 -277h-97z" />
    <glyph glyph-name="uni0123" unicode="&#x123;" horiz-adv-x="1091" 
d="M498 1249l159 277h72l-135 -277h-96zM836 1065h84v-1122q0 -93 -29 -165t-80.5 -117t-118.5 -68t-147 -23q-166 0 -265 90t-110 236h84q9 -110 85.5 -178t205.5 -68q134 0 212.5 75t78.5 216v198q-50 -70 -130.5 -104.5t-168.5 -34.5q-177 0 -281 101.5t-104 273.5v336
q0 173 103.5 273.5t281.5 100.5q88 0 168.5 -34.5t130.5 -104.5v119zM535 80q136 0 218.5 81.5t82.5 213.5v336q0 132 -82.5 213.5t-218.5 81.5t-217.5 -79.5t-81.5 -215.5v-336q0 -137 81 -216t218 -79z" />
    <glyph glyph-name="Hcircumflex" unicode="&#x124;" horiz-adv-x="1165" 
d="M586 1825l-158 -228h-82l191 277h94l190 -277h-80zM909 1475h84v-1475h-84v729h-653v-729h-84v1475h84v-666h653v666z" />
    <glyph glyph-name="hcircumflex" unicode="&#x125;" horiz-adv-x="1103" 
d="M373 1597l-156 228l-158 -228h-82l191 277h94l191 -277h-80zM555 1085q178 0 281.5 -100.5t103.5 -273.5v-711h-84v711q0 136 -81.5 215.5t-217.5 79.5t-218.5 -81.5t-82.5 -213.5v-711h-84v1475h84v-529q50 70 130.5 104.5t168.5 34.5z" />
    <glyph glyph-name="Hbar" unicode="&#x126;" horiz-adv-x="1165" 
d="M1137 1202v-80h-144v-1122h-84v729h-653v-729h-84v1122h-143v80h143v273h84v-273h653v273h84v-273h144zM909 809v313h-653v-313h653z" />
    <glyph glyph-name="hbar" unicode="&#x127;" horiz-adv-x="1103" 
d="M555 1085q178 0 281.5 -100.5t103.5 -273.5v-711h-84v711q0 136 -81.5 215.5t-217.5 79.5t-218.5 -81.5t-82.5 -213.5v-711h-84v1247h-139v80h139v148h84v-148h387v-80h-387v-301q50 70 130.5 104.5t168.5 34.5z" />
    <glyph glyph-name="Itilde" unicode="&#x128;" horiz-adv-x="428" 
d="M309 1608q-43 0 -100 29.5t-88 29.5q-26 0 -43.5 -10t-42.5 -33l-43 45q63 66 131 66q42 0 102.5 -30t85.5 -30q16 0 32 7.5t24 14.5t28 25l43 -45q-66 -69 -129 -69zM172 0v1475h84v-1475h-84z" />
    <glyph glyph-name="itilde" unicode="&#x129;" horiz-adv-x="425" 
d="M311 1268q-43 0 -100 29.5t-88 29.5q-25 0 -42.5 -9.5t-43.5 -31.5l-43 45q65 68 131 68q42 0 102.5 -30t85.5 -30q16 0 31 6.5t24 14t29 24.5l43 -45q-68 -71 -129 -71zM172 0v1065h82v-1065h-82z" />
    <glyph glyph-name="Imacron" unicode="&#x12a;" horiz-adv-x="428" 
d="M23 1638v72h385v-72h-385zM172 0v1475h84v-1475h-84z" />
    <glyph glyph-name="imacron" unicode="&#x12b;" horiz-adv-x="425" 
d="M20 1315v71h386v-71h-386zM172 0v1065h82v-1065h-82z" />
    <glyph glyph-name="Ibreve" unicode="&#x12c;" horiz-adv-x="428" 
d="M215 1597q-215 0 -254 232h80q10 -81 58 -122.5t116 -41.5t116 41.5t58 122.5h80q-39 -232 -254 -232zM172 0v1475h84v-1475h-84z" />
    <glyph glyph-name="ibreve" unicode="&#x12d;" horiz-adv-x="425" 
d="M213 1219q-109 0 -181 61.5t-95 179.5h83q14 -82 66 -123t127 -41t127 41t66 123h83q-21 -118 -94 -179.5t-182 -61.5zM172 0v1065h82v-1065h-82z" />
    <glyph glyph-name="Iogonek" unicode="&#x12e;" horiz-adv-x="428" 
d="M326 -330h22v-80h-22q-101 0 -167.5 64t-66.5 160v36q0 106 80 170v1455h84v-1475q-37 -18 -59.5 -51t-22.5 -76v-59q0 -62 45.5 -103t106.5 -41z" />
    <glyph glyph-name="iogonek" unicode="&#x12f;" horiz-adv-x="425" 
d="M264 1421v-151h-102v151h102zM324 -330h22v-80h-22q-101 0 -167.5 64t-66.5 160v36q0 111 82 170v1045h82v-1065q-37 -18 -59.5 -51t-22.5 -76v-59q0 -62 45.5 -103t106.5 -41z" />
    <glyph glyph-name="Idotaccent" unicode="&#x130;" horiz-adv-x="428" 
d="M156 1597v152h118v-152h-118zM172 0v1475h84v-1475h-84z" />
    <glyph glyph-name="dotlessi" unicode="&#x131;" horiz-adv-x="425" 
d="M172 0v1065h82v-1065h-82z" />
    <glyph glyph-name="Jcircumflex" unicode="&#x134;" horiz-adv-x="919" 
d="M463 1825l-158 -228h-82l191 277h94l190 -277h-80zM168 1475h590v-1125q0 -172 -95.5 -271t-261.5 -99t-261 99t-95 271h84q9 -291 272 -291q273 0 273 316v1020h-506v80z" />
    <glyph glyph-name="jcircumflex" unicode="&#x135;" horiz-adv-x="471" 
d="M-2 1249l190 277h103l190 -277h-80l-161 217l-160 -217h-82zM-41 -410v80h43q93 0 144 45t51 158v1192h84v-1200q0 -151 -73.5 -213t-205.5 -62h-43z" />
    <glyph glyph-name="uni0136" unicode="&#x136;" horiz-adv-x="1026" 
d="M481 840l475 -840h-94l-434 764l-172 -242v-522h-84v1475h84v-818l586 818h94zM362 -365l160 277h72l-135 -277h-97z" />
    <glyph glyph-name="uni0137" unicode="&#x137;" horiz-adv-x="919" 
d="M489 637l369 -637h-98l-328 565l-176 -215v-350h-84v1475h84v-1004l483 594h99zM326 -365l135 277h96l-160 -277h-71z" />
    <glyph glyph-name="Lacute" unicode="&#x139;" horiz-adv-x="962" 
d="M199 1597l135 277h96l-160 -277h-71zM172 0v1475h84v-1395h668v-80h-752z" />
    <glyph glyph-name="lacute" unicode="&#x13a;" horiz-adv-x="475" 
d="M170 1597l135 277h96l-159 -277h-72zM401 0q-237 0 -237 221v1254h84v-1225q0 -92 39.5 -131t124.5 -39h12v-80h-23z" />
    <glyph glyph-name="uni013B" unicode="&#x13b;" horiz-adv-x="962" 
d="M172 0v1475h84v-1395h668v-80h-752zM408 -365l159 277h72l-135 -277h-96z" />
    <glyph glyph-name="uni013C" unicode="&#x13c;" horiz-adv-x="475" 
d="M401 0q-237 0 -237 221v1254h84v-1225q0 -92 39.5 -131t124.5 -39h12v-80h-23zM184 -365l135 277h97l-160 -277h-72z" />
    <glyph glyph-name="Lcaron" unicode="&#x13d;" horiz-adv-x="962" 
d="M172 0v1475h84v-1395h668v-80h-752zM422 1147v328h80v-328h-80z" />
    <glyph glyph-name="lcaron" unicode="&#x13e;" horiz-adv-x="475" 
d="M401 0q-237 0 -237 221v1254h84v-1225q0 -92 39.5 -131t124.5 -39h12v-80h-23zM414 1147v328h80v-328h-80z" />
    <glyph glyph-name="Ldot" unicode="&#x13f;" horiz-adv-x="1003" 
d="M172 0v1475h84v-1395h668v-80h-752zM639 694v154h154v-154h-154z" />
    <glyph glyph-name="ldot" unicode="&#x140;" horiz-adv-x="593" 
d="M401 0q-237 0 -237 221v1254h84v-1225q0 -92 39.5 -131t124.5 -39h12v-80h-23zM426 694v154h154v-154h-154z" />
    <glyph glyph-name="Lslash" unicode="&#x141;" horiz-adv-x="962" 
d="M256 80h668v-80h-752v686l-217 -72v72l217 72v717h84v-691l453 148v-72l-453 -147v-633z" />
    <glyph glyph-name="lslash" unicode="&#x142;" horiz-adv-x="598" 
d="M524 987l-235 -147v-590q0 -92 39.5 -131t124.5 -39h12v-80h-23q-237 0 -237 221v565l-129 -79v77l129 80v611h84v-557l235 147v-78z" />
    <glyph glyph-name="Nacute" unicode="&#x143;" horiz-adv-x="1146" 
d="M768 1874l-160 -277h-71l135 277h96zM891 1475h84v-1475h-139l-580 1378v-1378h-84v1475h133l586 -1393v1393z" />
    <glyph glyph-name="nacute" unicode="&#x144;" horiz-adv-x="1103" 
d="M748 1526l-160 -277h-72l135 277h97zM555 1085q178 0 281.5 -100.5t103.5 -273.5v-711h-84v711q0 136 -81.5 215.5t-217.5 79.5t-218.5 -81.5t-82.5 -213.5v-711h-84v1065h84v-119q50 70 130.5 104.5t168.5 34.5z" />
    <glyph glyph-name="uni0145" unicode="&#x145;" horiz-adv-x="1146" 
d="M891 1475h84v-1475h-139l-580 1378v-1378h-84v1475h133l586 -1393v1393zM377 -365l160 277h71l-135 -277h-96z" />
    <glyph glyph-name="uni0146" unicode="&#x146;" horiz-adv-x="1103" 
d="M555 1085q178 0 281.5 -100.5t103.5 -273.5v-711h-84v711q0 136 -81.5 215.5t-217.5 79.5t-218.5 -81.5t-82.5 -213.5v-711h-84v1065h84v-119q50 70 130.5 104.5t168.5 34.5zM356 -365l136 277h96l-160 -277h-72z" />
    <glyph glyph-name="Ncaron" unicode="&#x147;" horiz-adv-x="1146" 
d="M621 1597h-95l-190 277h84l155 -225l156 225h80zM891 1475h84v-1475h-139l-580 1378v-1378h-84v1475h133l586 -1393v1393z" />
    <glyph glyph-name="ncaron" unicode="&#x148;" horiz-adv-x="1103" 
d="M604 1229h-102l-191 276h82l160 -217l162 217h80zM555 1085q178 0 281.5 -100.5t103.5 -273.5v-711h-84v711q0 136 -81.5 215.5t-217.5 79.5t-218.5 -81.5t-82.5 -213.5v-711h-84v1065h84v-119q50 70 130.5 104.5t168.5 34.5z" />
    <glyph glyph-name="Eng" unicode="&#x14a;" horiz-adv-x="1146" 
d="M891 1475h84v-1475q0 -192 -96.5 -301t-260.5 -109v82q108 0 175.5 55t87.5 164l-625 1485v-1376h-84v1475h133l586 -1391v1391z" />
    <glyph glyph-name="eng" unicode="&#x14b;" horiz-adv-x="1103" 
d="M555 1085q178 0 281.5 -100.5t103.5 -273.5v-865q0 -256 -270 -256h-82v82h82q85 0 135.5 40t50.5 128v871q0 136 -81.5 215.5t-217.5 79.5t-218.5 -81.5t-82.5 -213.5v-711h-84v1065h84v-119q50 70 130.5 104.5t168.5 34.5z" />
    <glyph glyph-name="Omacron" unicode="&#x14c;" 
d="M254 1638v72h590v-72h-590zM549 -20q-176 0 -286.5 106t-110.5 287v735q0 170 112.5 278.5t284.5 108.5t284.5 -108.5t112.5 -278.5v-735q0 -181 -110.5 -287t-286.5 -106zM549 59q135 0 224 87.5t89 226.5v731q0 140 -87.5 225.5t-225.5 85.5t-225.5 -85.5t-87.5 -225.5
v-731q0 -139 89 -226.5t224 -87.5z" />
    <glyph glyph-name="omacron" unicode="&#x14d;" horiz-adv-x="1069" 
d="M240 1311v71h589v-71h-589zM535 -20q-175 0 -279 101.5t-104 272.5v357q0 171 104 272.5t279 101.5t279 -101.5t104 -272.5v-357q0 -171 -104 -272.5t-279 -101.5zM535 59q137 0 218 79t81 216v357q0 137 -81 216t-218 79t-218 -79t-81 -216v-357q0 -137 81 -216t218 -79
z" />
    <glyph glyph-name="Obreve" unicode="&#x14e;" 
d="M549 1597q-215 0 -254 232h80q10 -81 58 -122.5t116 -41.5t116 41.5t58 122.5h80q-39 -232 -254 -232zM549 -20q-176 0 -286.5 106t-110.5 287v735q0 170 112.5 278.5t284.5 108.5t284.5 -108.5t112.5 -278.5v-735q0 -181 -110.5 -287t-286.5 -106zM549 59
q135 0 224 87.5t89 226.5v731q0 140 -87.5 225.5t-225.5 85.5t-225.5 -85.5t-87.5 -225.5v-731q0 -139 89 -226.5t224 -87.5z" />
    <glyph glyph-name="obreve" unicode="&#x14f;" horiz-adv-x="1069" 
d="M535 1219q-109 0 -181.5 61.5t-95.5 179.5h84q14 -82 66 -123t127 -41t126.5 41t65.5 123h84q-21 -118 -94 -179.5t-182 -61.5zM535 -20q-175 0 -279 101.5t-104 272.5v357q0 171 104 272.5t279 101.5t279 -101.5t104 -272.5v-357q0 -171 -104 -272.5t-279 -101.5z
M535 59q137 0 218 79t81 216v357q0 137 -81 216t-218 79t-218 -79t-81 -216v-357q0 -137 81 -216t218 -79z" />
    <glyph glyph-name="Ohungarumlaut" unicode="&#x150;" 
d="M391 1612l129 262h94l-149 -262h-74zM651 1612l129 262h94l-151 -262h-72zM549 -20q-176 0 -286.5 106t-110.5 287v735q0 170 112.5 278.5t284.5 108.5t284.5 -108.5t112.5 -278.5v-735q0 -181 -110.5 -287t-286.5 -106zM549 59q135 0 224 87.5t89 226.5v731
q0 140 -87.5 225.5t-225.5 85.5t-225.5 -85.5t-87.5 -225.5v-731q0 -139 89 -226.5t224 -87.5z" />
    <glyph glyph-name="ohungarumlaut" unicode="&#x151;" horiz-adv-x="1069" 
d="M377 1249l129 262h94l-149 -262h-74zM637 1249l129 262h94l-151 -262h-72zM535 -20q-175 0 -279 101.5t-104 272.5v357q0 171 104 272.5t279 101.5t279 -101.5t104 -272.5v-357q0 -171 -104 -272.5t-279 -101.5zM535 59q137 0 218 79t81 216v357q0 137 -81 216t-218 79
t-218 -79t-81 -216v-357q0 -137 81 -216t218 -79z" />
    <glyph glyph-name="OE" unicode="&#x152;" horiz-adv-x="1703" 
d="M1614 1395h-670v-578h619v-80h-619v-657h670v-80h-754v119q-45 -65 -126 -102t-185 -37q-176 0 -286.5 106t-110.5 287v735q0 170 112.5 278.5t284.5 108.5q101 0 183 -37.5t128 -103.5v121h754v-80zM547 59q136 0 224.5 87t88.5 227v731q0 140 -86.5 225.5t-224.5 85.5
t-225.5 -85.5t-87.5 -225.5v-731q0 -139 88.5 -226.5t222.5 -87.5z" />
    <glyph glyph-name="oe" unicode="&#x153;" horiz-adv-x="1755" 
d="M1520 332h84q-7 -163 -111 -257.5t-274 -94.5q-120 0 -208.5 48.5t-133.5 137.5q-46 -89 -134.5 -137.5t-207.5 -48.5q-175 0 -279 101.5t-104 272.5v357q0 171 104 272.5t279 101.5q119 0 207.5 -48.5t134.5 -137.5q45 89 133.5 137.5t208.5 48.5q177 0 280 -100.5
t103 -273.5v-191h-684v-166q0 -136 83.5 -215.5t217.5 -79.5q136 0 213 70.5t88 202.5zM535 59q137 0 218 79t81 216v357q0 137 -81 216t-218 79t-218 -79t-81 -216v-357q0 -137 81 -216t218 -79zM1219 1006q-138 0 -219.5 -79t-81.5 -216v-111h600v111q0 137 -81 216
t-218 79z" />
    <glyph glyph-name="Racute" unicode="&#x154;" horiz-adv-x="1081" 
d="M735 1874l-160 -277h-71l135 277h96zM967 1014q0 -139 -80 -230.5t-223 -117.5l299 -666h-99l-286 655h-25h-297v-655h-84v1475h381q191 0 302.5 -97t111.5 -262v-102zM565 735q151 0 234.5 77t83.5 210v86q0 133 -83.5 210t-234.5 77h-309v-660h309z" />
    <glyph glyph-name="racute" unicode="&#x155;" horiz-adv-x="626" 
d="M582 1526l-160 -277h-72l135 277h97zM256 928q90 137 262 137h62v-82h-62q-110 0 -186 -76.5t-76 -216.5v-690h-84v1065h84v-137z" />
    <glyph glyph-name="uni0156" unicode="&#x156;" horiz-adv-x="1081" 
d="M967 1014q0 -139 -80 -230.5t-223 -117.5l299 -666h-99l-286 655h-25h-297v-655h-84v1475h381q191 0 302.5 -97t111.5 -262v-102zM565 735q151 0 234.5 77t83.5 210v86q0 133 -83.5 210t-234.5 77h-309v-660h309zM365 -365l159 277h72l-135 -277h-96z" />
    <glyph glyph-name="uni0157" unicode="&#x157;" horiz-adv-x="626" 
d="M518 1065h62v-82h-62q-110 0 -186 -76.5t-76 -216.5v-690h-84v1065h84v-137q90 137 262 137zM18 -365l136 277h96l-160 -277h-72z" />
    <glyph glyph-name="Rcaron" unicode="&#x158;" horiz-adv-x="1081" 
d="M588 1597h-94l-191 277h84l156 -225l155 225h80zM967 1014q0 -139 -80 -230.5t-223 -117.5l299 -666h-99l-286 655h-25h-297v-655h-84v1475h381q191 0 302.5 -97t111.5 -262v-102zM565 735q151 0 234.5 77t83.5 210v86q0 133 -83.5 210t-234.5 77h-309v-660h309z" />
    <glyph glyph-name="rcaron" unicode="&#x159;" horiz-adv-x="626" 
d="M438 1229h-102l-191 276h82l160 -217l162 217h80zM256 928q90 137 262 137h62v-82h-62q-110 0 -186 -76.5t-76 -216.5v-690h-84v1065h84v-137z" />
    <glyph glyph-name="Sacute" unicode="&#x15a;" horiz-adv-x="1044" 
d="M485 1597l136 277h96l-160 -277h-72zM518 -20q-185 0 -298.5 107t-113.5 300h84q0 -156 88.5 -242t239.5 -86q149 0 242.5 87.5t93.5 226.5q0 111 -65 181t-214 142l-153 74q-139 66 -214 153t-75 216q0 154 108.5 255t278.5 101q184 0 291 -100.5t107 -268.5h-84
q0 133 -85.5 211t-228.5 78q-133 0 -218 -78t-85 -192q0 -104 55.5 -169.5t186.5 -127.5l174 -84q159 -76 232 -164t73 -221q0 -182 -119 -290.5t-301 -108.5z" />
    <glyph glyph-name="sacute" unicode="&#x15b;" horiz-adv-x="993" 
d="M461 1249l135 277h96l-160 -277h-71zM496 -20q-107 0 -194 37.5t-141.5 118t-54.5 192.5h84q0 -125 84 -198t222 -73q137 0 219 63.5t82 158.5q0 80 -55 124t-171 80l-168 54q-65 20 -109.5 41t-83.5 51.5t-58 73.5t-19 100q0 126 101.5 204t263.5 78q179 0 274.5 -84
t101.5 -227h-83q-17 234 -293 234q-128 0 -204.5 -57t-76.5 -144q0 -79 51 -119t166 -76l170 -53q142 -44 209.5 -105.5t67.5 -170.5q0 -137 -108 -220t-277 -83z" />
    <glyph glyph-name="Scircumflex" unicode="&#x15c;" horiz-adv-x="1044" 
d="M524 1825l-157 -228h-82l190 277h94l191 -277h-80zM633 764q159 -76 232 -164t73 -221q0 -182 -119 -290.5t-301 -108.5q-185 0 -298.5 107t-113.5 300h84q0 -156 88.5 -242t239.5 -86q149 0 242.5 87.5t93.5 226.5q0 111 -65 181t-214 142l-153 74q-139 66 -214 153
t-75 216q0 154 108.5 255t278.5 101q184 0 291 -100.5t107 -268.5h-84q0 133 -85.5 211t-228.5 78q-133 0 -218 -78t-85 -192q0 -104 55.5 -169.5t186.5 -127.5z" />
    <glyph glyph-name="scircumflex" unicode="&#x15d;" horiz-adv-x="993" 
d="M256 1249l190 277h103l190 -277h-80l-161 217l-160 -217h-82zM496 -20q-107 0 -194 37.5t-141.5 118t-54.5 192.5h84q0 -125 84 -198t222 -73q137 0 219 63.5t82 158.5q0 80 -55 124t-171 80l-168 54q-65 20 -109.5 41t-83.5 51.5t-58 73.5t-19 100q0 126 101.5 204
t263.5 78q179 0 274.5 -84t101.5 -227h-83q-17 234 -293 234q-128 0 -204.5 -57t-76.5 -144q0 -79 51 -119t166 -76l170 -53q142 -44 209.5 -105.5t67.5 -170.5q0 -137 -108 -220t-277 -83z" />
    <glyph glyph-name="Scedilla" unicode="&#x15e;" horiz-adv-x="1044" 
d="M518 -20q-185 0 -298.5 107t-113.5 300h84q0 -156 88.5 -242t239.5 -86q149 0 242.5 87.5t93.5 226.5q0 111 -65 181t-214 142l-153 74q-139 66 -214 153t-75 216q0 154 108.5 255t278.5 101q184 0 291 -100.5t107 -268.5h-84q0 133 -85.5 211t-228.5 78q-133 0 -218 -78
t-85 -192q0 -104 55.5 -169.5t186.5 -127.5l174 -84q159 -76 232 -164t73 -221q0 -182 -119 -290.5t-301 -108.5zM326 -365l159 277h72l-135 -277h-96z" />
    <glyph glyph-name="scedilla" unicode="&#x15f;" horiz-adv-x="993" 
d="M496 -20q-107 0 -194 37.5t-141.5 118t-54.5 192.5h84q0 -125 84 -198t222 -73q137 0 219 63.5t82 158.5q0 80 -55 124t-171 80l-168 54q-65 20 -109.5 41t-83.5 51.5t-58 73.5t-19 100q0 126 101.5 204t263.5 78q179 0 274.5 -84t101.5 -227h-83q-17 234 -293 234
q-128 0 -204.5 -57t-76.5 -144q0 -79 51 -119t166 -76l170 -53q142 -44 209.5 -105.5t67.5 -170.5q0 -137 -108 -220t-277 -83zM301 -365l160 277h71l-135 -277h-96z" />
    <glyph glyph-name="Scaron" unicode="&#x160;" horiz-adv-x="1044" 
d="M569 1597h-94l-190 277h84l155 -225l156 225h80zM633 764q159 -76 232 -164t73 -221q0 -182 -119 -290.5t-301 -108.5q-185 0 -298.5 107t-113.5 300h84q0 -156 88.5 -242t239.5 -86q149 0 242.5 87.5t93.5 226.5q0 111 -65 181t-214 142l-153 74q-139 66 -214 153
t-75 216q0 154 108.5 255t278.5 101q184 0 291 -100.5t107 -268.5h-84q0 133 -85.5 211t-228.5 78q-133 0 -218 -78t-85 -192q0 -104 55.5 -169.5t186.5 -127.5z" />
    <glyph glyph-name="scaron" unicode="&#x161;" horiz-adv-x="993" 
d="M446 1229l-190 276h82l160 -217l161 217h80l-190 -276h-103zM496 -20q-107 0 -194 37.5t-141.5 118t-54.5 192.5h84q0 -125 84 -198t222 -73q137 0 219 63.5t82 158.5q0 80 -55 124t-171 80l-168 54q-65 20 -109.5 41t-83.5 51.5t-58 73.5t-19 100q0 126 101.5 204
t263.5 78q179 0 274.5 -84t101.5 -227h-83q-17 234 -293 234q-128 0 -204.5 -57t-76.5 -144q0 -79 51 -119t166 -76l170 -53q142 -44 209.5 -105.5t67.5 -170.5q0 -137 -108 -220t-277 -83z" />
    <glyph glyph-name="uni0162" unicode="&#x162;" horiz-adv-x="958" 
d="M897 1475v-80h-375v-1395h-84v1395h-377v80h836zM283 -365l159 277h72l-135 -277h-96z" />
    <glyph glyph-name="uni0163" unicode="&#x163;" horiz-adv-x="710" 
d="M629 985h-275v-735q0 -92 39.5 -131t124.5 -39h90v-80h-100q-238 0 -238 225v760h-198v80h198v410h84v-410h275v-80zM242 -365l159 277h72l-135 -277h-96z" />
    <glyph glyph-name="Tcaron" unicode="&#x164;" horiz-adv-x="958" 
d="M526 1597h-94l-190 277h84l155 -225l156 225h80zM897 1475v-80h-375v-1395h-84v1395h-377v80h836z" />
    <glyph glyph-name="tcaron" unicode="&#x165;" horiz-adv-x="710" 
d="M629 985h-275v-735q0 -92 39.5 -131t124.5 -39h90v-80h-100q-238 0 -238 225v760h-198v80h198v410h84v-410h275v-80zM600 1475v-328h-80v328h80z" />
    <glyph glyph-name="Tbar" unicode="&#x166;" horiz-adv-x="958" 
d="M897 1395h-375v-541h262v-76h-262v-778h-84v778h-264v76h264v541h-377v80h836v-80z" />
    <glyph glyph-name="tbar" unicode="&#x167;" horiz-adv-x="710" 
d="M629 985h-275v-379h267v-82h-267v-274q0 -92 39.5 -131t124.5 -39h90v-80h-100q-238 0 -238 225v299h-207v82h207v379h-198v80h198v410h84v-410h275v-80z" />
    <glyph glyph-name="Utilde" unicode="&#x168;" 
d="M688 1597q-50 0 -148 40t-130 40q-31 0 -57.5 -15t-61.5 -54l-49 41q79 98 170 98q52 0 147.5 -40t134.5 -40q33 0 57 14.5t54 51.5l41 -41q-71 -95 -158 -95zM549 -20q-176 0 -286.5 106t-110.5 287v1102h84v-1102q0 -139 89 -226.5t224 -87.5t224 87.5t89 226.5v1102
h84v-1102q0 -181 -110.5 -287t-286.5 -106z" />
    <glyph glyph-name="utilde" unicode="&#x169;" horiz-adv-x="1103" 
d="M694 1251q-53 0 -151.5 44t-132.5 44q-51 0 -117 -69l-47 51q80 96 168 96q53 0 147 -44t135 -44q32 0 54 14t57 52l45 -52q-77 -92 -158 -92zM848 1065h84v-1065h-84v135q-53 -75 -133 -115t-180 -40q-172 0 -271.5 100t-99.5 295v690h84v-690q0 -153 77.5 -234.5
t213.5 -81.5q138 0 223.5 88.5t85.5 233.5v684z" />
    <glyph glyph-name="Umacron" unicode="&#x16a;" 
d="M254 1638v72h590v-72h-590zM549 -20q-176 0 -286.5 106t-110.5 287v1102h84v-1102q0 -139 89 -226.5t224 -87.5t224 87.5t89 226.5v1102h84v-1102q0 -181 -110.5 -287t-286.5 -106z" />
    <glyph glyph-name="umacron" unicode="&#x16b;" horiz-adv-x="1103" 
d="M256 1311v71h590v-71h-590zM848 1065h84v-1065h-84v135q-53 -75 -133 -115t-180 -40q-172 0 -271.5 100t-99.5 295v690h84v-690q0 -153 77.5 -234.5t213.5 -81.5q138 0 223.5 88.5t85.5 233.5v684z" />
    <glyph glyph-name="Ubreve" unicode="&#x16c;" 
d="M549 1597q-215 0 -254 232h80q10 -81 58 -122.5t116 -41.5t116 41.5t58 122.5h80q-39 -232 -254 -232zM549 -20q-176 0 -286.5 106t-110.5 287v1102h84v-1102q0 -139 89 -226.5t224 -87.5t224 87.5t89 226.5v1102h84v-1102q0 -181 -110.5 -287t-286.5 -106z" />
    <glyph glyph-name="ubreve" unicode="&#x16d;" horiz-adv-x="1103" 
d="M551 1219q-109 0 -181.5 61.5t-95.5 179.5h84q14 -82 66 -123t127 -41t126.5 41t65.5 123h84q-21 -118 -94 -179.5t-182 -61.5zM848 1065h84v-1065h-84v135q-53 -75 -133 -115t-180 -40q-172 0 -271.5 100t-99.5 295v690h84v-690q0 -153 77.5 -234.5t213.5 -81.5
q138 0 223.5 88.5t85.5 233.5v684z" />
    <glyph glyph-name="Uring" unicode="&#x16e;" 
d="M547 1552q-78 0 -135.5 58.5t-57.5 136.5q0 81 57 138t136 57q82 0 139 -56.5t57 -138.5q0 -79 -57.5 -137t-138.5 -58zM547 1618q53 0 91 38.5t38 90.5q0 54 -37.5 91.5t-91.5 37.5q-52 0 -88.5 -37.5t-36.5 -91.5q0 -52 36.5 -90.5t88.5 -38.5zM549 -20
q-176 0 -286.5 106t-110.5 287v1102h84v-1102q0 -139 89 -226.5t224 -87.5t224 87.5t89 226.5v1102h84v-1102q0 -181 -110.5 -287t-286.5 -106z" />
    <glyph glyph-name="uring" unicode="&#x16f;" horiz-adv-x="1103" 
d="M549 1204q-78 0 -135.5 58.5t-57.5 136.5q0 81 57 137.5t136 56.5q82 0 139 -56t57 -138q0 -79 -57.5 -137t-138.5 -58zM549 1270q53 0 91 38.5t38 90.5q0 54 -37.5 91.5t-91.5 37.5q-52 0 -88.5 -37.5t-36.5 -91.5q0 -52 36.5 -90.5t88.5 -38.5zM848 1065h84v-1065h-84
v135q-53 -75 -133 -115t-180 -40q-172 0 -271.5 100t-99.5 295v690h84v-690q0 -153 77.5 -234.5t213.5 -81.5q138 0 223.5 88.5t85.5 233.5v684z" />
    <glyph glyph-name="Uhungarumlaut" unicode="&#x170;" 
d="M391 1612l129 262h94l-149 -262h-74zM651 1612l129 262h94l-151 -262h-72zM549 -20q-176 0 -286.5 106t-110.5 287v1102h84v-1102q0 -139 89 -226.5t224 -87.5t224 87.5t89 226.5v1102h84v-1102q0 -181 -110.5 -287t-286.5 -106z" />
    <glyph glyph-name="uhungarumlaut" unicode="&#x171;" horiz-adv-x="1103" 
d="M393 1249l129 262h94l-149 -262h-74zM653 1249l129 262h95l-152 -262h-72zM848 1065h84v-1065h-84v135q-53 -75 -133 -115t-180 -40q-172 0 -271.5 100t-99.5 295v690h84v-690q0 -153 77.5 -234.5t213.5 -81.5q138 0 223.5 88.5t85.5 233.5v684z" />
    <glyph glyph-name="Uogonek" unicode="&#x172;" 
d="M862 1475h84v-1102q0 -163 -91 -266.5t-241 -122.5h-2q-31 -4 -45 -37.5t-14 -77.5v-55q0 -62 45.5 -103t106.5 -41h22v-80h-22q-101 0 -167.5 64t-66.5 160v32q0 76 37 136q-160 12 -258 116.5t-98 274.5v1102h84v-1102q0 -139 89 -226.5t224 -87.5t224 87.5t89 226.5
v1102z" />
    <glyph glyph-name="uogonek" unicode="&#x173;" horiz-adv-x="1103" 
d="M1001 -330h23v-80h-23q-101 0 -167 64t-66 160v36q0 106 80 170v115q-53 -75 -133 -115t-180 -40q-172 0 -271.5 100t-99.5 295v690h84v-690q0 -153 77.5 -234.5t213.5 -81.5q138 0 223.5 88.5t85.5 233.5v684h84v-1065q-37 -18 -59.5 -51t-22.5 -76v-59q0 -63 45 -103.5
t106 -40.5z" />
    <glyph glyph-name="Wcircumflex" unicode="&#x174;" horiz-adv-x="1607" 
d="M807 1825l-158 -228h-82l191 277h94l190 -277h-79zM1444 1475h90l-303 -1475h-117l-309 1286l-311 -1286h-117l-303 1475h90l272 -1393l326 1393h84l325 -1393z" />
    <glyph glyph-name="wcircumflex" unicode="&#x175;" horiz-adv-x="1357" 
d="M438 1249l191 277h102l191 -277h-80l-162 217l-160 -217h-82zM328 0l-250 1065h86l225 -985h4l238 985h96l238 -985h4l225 985h86l-250 -1065h-125l-225 938h-2l-225 -938h-125z" />
    <glyph glyph-name="Ycircumflex" unicode="&#x176;" horiz-adv-x="976" 
d="M489 1825l-157 -228h-82l190 277h95l190 -277h-80zM825 1475h88l-383 -951v-524h-84v524l-383 951h89l337 -846z" />
    <glyph glyph-name="ycircumflex" unicode="&#x177;" horiz-adv-x="905" 
d="M211 1249l190 277h103l190 -277h-80l-161 217l-160 -217h-82zM141 -410v80h41q90 0 143.5 45.5t82.5 147.5l38 137h-71l-322 1065h86l297 -993h33l297 993h86l-371 -1231q-72 -244 -295 -244h-45z" />
    <glyph glyph-name="Ydieresis" unicode="&#x178;" horiz-adv-x="976" 
d="M326 1749v-152h-119v152h119zM766 1749v-152h-119v152h119zM825 1475h88l-383 -951v-524h-84v524l-383 951h89l337 -846z" />
    <glyph glyph-name="Zacute" unicode="&#x179;" horiz-adv-x="921" 
d="M655 1874l-159 -277h-72l135 277h96zM156 80h696v-80h-782v90l665 1305h-633v80h717v-84z" />
    <glyph glyph-name="zacute" unicode="&#x17a;" horiz-adv-x="917" 
d="M662 1526l-160 -277h-72l135 277h97zM170 72h670v-72h-748v92l615 901h-592v72h673v-86z" />
    <glyph glyph-name="Zdotaccent" unicode="&#x17b;" horiz-adv-x="921" 
d="M520 1749v-152h-119v152h119zM156 80h696v-80h-782v90l665 1305h-633v80h717v-84z" />
    <glyph glyph-name="zdotaccent" unicode="&#x17c;" horiz-adv-x="917" 
d="M518 1421v-151h-102v151h102zM170 72h670v-72h-748v92l615 901h-592v72h673v-86z" />
    <glyph glyph-name="Zcaron" unicode="&#x17d;" horiz-adv-x="921" 
d="M508 1597h-94l-191 277h84l156 -225l155 225h80zM156 80h696v-80h-782v90l665 1305h-633v80h717v-84z" />
    <glyph glyph-name="zcaron" unicode="&#x17e;" horiz-adv-x="917" 
d="M518 1229h-102l-191 276h82l160 -217l162 217h80zM170 72h670v-72h-748v92l615 901h-592v72h673v-86z" />
    <glyph glyph-name="longs" unicode="&#x17f;" horiz-adv-x="659" 
d="M528 1475h54v-80h-54q-100 0 -147 -38.5t-47 -142.5v-1214h-84v983h-176v82h176v147q0 133 67.5 198t210.5 65z" />
    <glyph glyph-name="uni018F" unicode="&#x18f;" horiz-adv-x="1095" 
d="M553 -18q-171 0 -286 106t-115 264v414h708v358q0 125 -89 207t-224 82q-134 0 -221.5 -81.5t-87.5 -205.5h-82q0 158 112.5 263.5t280.5 105.5t281.5 -105.5t113.5 -261.5v-774q0 -161 -110.5 -266.5t-280.5 -105.5zM549 63q133 0 222 83t89 208v330h-624v-330
q0 -125 89 -208t224 -83z" />
    <glyph glyph-name="florin" unicode="&#x192;" horiz-adv-x="659" 
d="M334 1065h274v-80h-274v-1139q0 -256 -271 -256h-81v82h81q85 0 136 40t51 128v1145h-178v80h178v147q0 133 67.5 198t210.5 65h54v-80h-54q-100 0 -147 -38.5t-47 -142.5v-149z" />
    <glyph glyph-name="Ohorn" unicode="&#x1a0;" 
d="M1038 1475h78v-181q0 -82 -40.5 -124t-112.5 -42h-17v-20v-735q0 -181 -110.5 -287t-286.5 -106t-286.5 106t-110.5 287v735q0 170 112.5 278.5t284.5 108.5q146 0 251 -79.5t136 -211.5h20q82 0 82 88v183zM862 373v731q0 140 -87.5 225.5t-225.5 85.5t-225.5 -85.5
t-87.5 -225.5v-731q0 -139 89 -226.5t224 -87.5t224 87.5t89 226.5z" />
    <glyph glyph-name="ohorn" unicode="&#x1a1;" horiz-adv-x="1069" 
d="M946 1147h76v-146q0 -70 -30 -109t-93 -54q19 -62 19 -127v-357q0 -171 -104 -272.5t-279 -101.5t-279 101.5t-104 272.5v357q0 171 104 272.5t279 101.5q116 0 202.5 -46t132.5 -130q41 7 58.5 30.5t17.5 66.5v141zM834 354v357q0 137 -81 216t-218 79t-218 -79
t-81 -216v-357q0 -137 81 -216t218 -79t218 79t81 216z" />
    <glyph glyph-name="Uhorn" unicode="&#x1af;" 
d="M1040 1475h78v-181q0 -82 -40.5 -124t-112.5 -42h-19v-755q0 -181 -110.5 -287t-286.5 -106t-286.5 106t-110.5 287v1102h84v-1102q0 -139 89 -226.5t224 -87.5t224 87.5t89 226.5v1102h84v-271h12q82 0 82 88v183z" />
    <glyph glyph-name="uhorn" unicode="&#x1b0;" horiz-adv-x="1103" 
d="M1042 1147h76v-146q0 -85 -44.5 -125.5t-141.5 -46.5v-829h-84v135q-53 -75 -133 -115t-180 -40q-172 0 -271.5 100t-99.5 295v690h84v-690q0 -153 77.5 -234.5t213.5 -81.5q138 0 223.5 88.5t85.5 233.5v684h84v-160q61 4 85.5 27t24.5 74v141z" />
    <glyph glyph-name="uni01CD" unicode="&#x1cd;" horiz-adv-x="1089" 
d="M596 1597h-94l-191 277h84l156 -225l156 225h79zM629 1475l401 -1475h-80l-119 434h-573l-119 -434h-80l402 1475h168zM281 514h528l-240 881h-49z" />
    <glyph glyph-name="uni01CE" unicode="&#x1ce;" horiz-adv-x="1056" 
d="M496 1229l-191 276h82l160 -217l162 217h79l-190 -276h-102zM526 1085q169 0 268 -89.5t99 -245.5v-750h-84v137q-118 -157 -334 -157q-162 0 -259 86t-97 229q0 149 103 229t284 80h303v141q0 123 -72.5 192t-210.5 69q-131 0 -201.5 -63t-76.5 -171h-86
q7 147 107.5 230t256.5 83zM485 59q144 0 234 87.5t90 224.5v153h-303q-139 0 -221 -58t-82 -165q0 -113 77 -177.5t205 -64.5z" />
    <glyph glyph-name="uni01CF" unicode="&#x1cf;" horiz-adv-x="428" 
d="M373 1874h80l-191 -277h-94l-191 277h84l156 -225zM172 0v1475h84v-1475h-84z" />
    <glyph glyph-name="uni01D0" unicode="&#x1d0;" horiz-adv-x="425" 
d="M162 1229l-191 276h82l160 -217l162 217h80l-191 -276h-102zM172 0v1065h82v-1065h-82z" />
    <glyph glyph-name="uni01D1" unicode="&#x1d1;" 
d="M596 1597h-94l-191 277h84l156 -225l156 225h79zM549 1495q172 0 284.5 -108.5t112.5 -278.5v-735q0 -181 -110.5 -287t-286.5 -106t-286.5 106t-110.5 287v735q0 170 112.5 278.5t284.5 108.5zM862 373v731q0 140 -87.5 225.5t-225.5 85.5t-225.5 -85.5t-87.5 -225.5
v-731q0 -139 89 -226.5t224 -87.5t224 87.5t89 226.5z" />
    <glyph glyph-name="uni01D2" unicode="&#x1d2;" horiz-adv-x="1069" 
d="M483 1229l-190 276h82l160 -217l161 217h80l-190 -276h-103zM535 -20q-175 0 -279 101.5t-104 272.5v357q0 171 104 272.5t279 101.5t279 -101.5t104 -272.5v-357q0 -171 -104 -272.5t-279 -101.5zM535 59q137 0 218 79t81 216v357q0 137 -81 216t-218 79t-218 -79
t-81 -216v-357q0 -137 81 -216t218 -79z" />
    <glyph glyph-name="uni01D3" unicode="&#x1d3;" 
d="M596 1597h-94l-191 277h84l156 -225l156 225h79zM862 1475h84v-1102q0 -181 -110.5 -287t-286.5 -106t-286.5 106t-110.5 287v1102h84v-1102q0 -139 89 -226.5t224 -87.5t224 87.5t89 226.5v1102z" />
    <glyph glyph-name="uni01D4" unicode="&#x1d4;" horiz-adv-x="1103" 
d="M500 1229l-191 276h82l160 -217l162 217h80l-191 -276h-102zM848 1065h84v-1065h-84v135q-53 -75 -133 -115t-180 -40q-172 0 -271.5 100t-99.5 295v690h84v-690q0 -153 77.5 -234.5t213.5 -81.5q138 0 223.5 88.5t85.5 233.5v684z" />
    <glyph glyph-name="uni01D5" unicode="&#x1d5;" 
d="M254 1831v72h590v-72h-590zM268 1597v152h119v-152h-119zM709 1597v152h118v-152h-118zM549 -20q-176 0 -286.5 106t-110.5 287v1102h84v-1102q0 -139 89 -226.5t224 -87.5t224 87.5t89 226.5v1102h84v-1102q0 -181 -110.5 -287t-286.5 -106z" />
    <glyph glyph-name="uni01D6" unicode="&#x1d6;" horiz-adv-x="1103" 
d="M256 1524v71h590v-71h-590zM270 1270v151h119v-151h-119zM711 1270v151h118v-151h-118zM848 1065h84v-1065h-84v135q-53 -75 -133 -115t-180 -40q-172 0 -271.5 100t-99.5 295v690h84v-690q0 -153 77.5 -234.5t213.5 -81.5q138 0 223.5 88.5t85.5 233.5v684z" />
    <glyph glyph-name="uni01D7" unicode="&#x1d7;" 
d="M512 1790l135 276h96l-159 -276h-72zM268 1597v152h119v-152h-119zM709 1597v152h118v-152h-118zM549 -20q-176 0 -286.5 106t-110.5 287v1102h84v-1102q0 -139 89 -226.5t224 -87.5t224 87.5t89 226.5v1102h84v-1102q0 -181 -110.5 -287t-286.5 -106z" />
    <glyph glyph-name="uni01D8" unicode="&#x1d8;" horiz-adv-x="1103" 
d="M514 1462l135 277h96l-159 -277h-72zM270 1270v151h119v-151h-119zM711 1270v151h118v-151h-118zM848 1065h84v-1065h-84v135q-53 -75 -133 -115t-180 -40q-172 0 -271.5 100t-99.5 295v690h84v-690q0 -153 77.5 -234.5t213.5 -81.5q138 0 223.5 88.5t85.5 233.5v684z
" />
    <glyph glyph-name="uni01D9" unicode="&#x1d9;" 
d="M596 1790h-94l-191 276h84l156 -225l156 225h79zM387 1749v-152h-119v152h119zM709 1597v152h118v-152h-118zM862 1475h84v-1102q0 -181 -110.5 -287t-286.5 -106t-286.5 106t-110.5 287v1102h84v-1102q0 -139 89 -226.5t224 -87.5t224 87.5t89 226.5v1102z" />
    <glyph glyph-name="uni01DA" unicode="&#x1da;" horiz-adv-x="1103" 
d="M500 1442l-191 276h82l160 -217l162 217h80l-191 -276h-102zM270 1270v151h119v-151h-119zM711 1270v151h118v-151h-118zM848 1065h84v-1065h-84v135q-53 -75 -133 -115t-180 -40q-172 0 -271.5 100t-99.5 295v690h84v-690q0 -153 77.5 -234.5t213.5 -81.5
q138 0 223.5 88.5t85.5 233.5v684z" />
    <glyph glyph-name="uni01DB" unicode="&#x1db;" 
d="M512 1790l-160 276h97l135 -276h-72zM268 1597v152h119v-152h-119zM709 1597v152h118v-152h-118zM549 -20q-176 0 -286.5 106t-110.5 287v1102h84v-1102q0 -139 89 -226.5t224 -87.5t224 87.5t89 226.5v1102h84v-1102q0 -181 -110.5 -287t-286.5 -106z" />
    <glyph glyph-name="uni01DC" unicode="&#x1dc;" horiz-adv-x="1103" 
d="M535 1462l-160 277h96l135 -277h-71zM270 1270v151h119v-151h-119zM711 1270v151h118v-151h-118zM848 1065h84v-1065h-84v135q-53 -75 -133 -115t-180 -40q-172 0 -271.5 100t-99.5 295v690h84v-690q0 -153 77.5 -234.5t213.5 -81.5q138 0 223.5 88.5t85.5 233.5v684z
" />
    <glyph glyph-name="uni01DD" unicode="&#x1dd;" horiz-adv-x="1073" 
d="M236 733h-84q7 163 111 257.5t274 94.5q177 0 281 -101t104 -273v-357q0 -172 -104 -273t-281 -101t-280 100.5t-103 273.5v191h684v166q0 136 -83.5 215.5t-217.5 79.5q-136 0 -213 -70.5t-88 -202.5zM537 59q138 0 219.5 79t81.5 216v111h-600v-111q0 -137 81 -216
t218 -79z" />
    <glyph glyph-name="AEacute" unicode="&#x1fc;" horiz-adv-x="1601" 
d="M995 1874l-159 -277h-72l135 277h96zM1511 1395h-669v-578h618v-80h-618v-657h669v-80h-753v434h-482l-137 -434h-80l463 1475h989v-80zM301 514h457v881h-180z" />
    <glyph glyph-name="aeacute" unicode="&#x1fd;" horiz-adv-x="1728" 
d="M1057 1526l-160 -277h-72l136 277h96zM1577 524h-684v-149q0 -147 79 -231.5t222 -84.5q278 0 299 273h84q-7 -163 -110.5 -257.5t-272.5 -94.5q-122 0 -216.5 51.5t-137.5 152.5q-116 -204 -365 -204q-162 0 -259 86t-97 229q0 151 100.5 230t284.5 79h305v141
q0 123 -72.5 192t-214.5 69q-128 0 -198 -63t-76 -171h-86q7 148 108 230.5t260 82.5q118 0 203 -45.5t125 -130.5q41 82 129.5 128.5t206.5 47.5q177 0 280 -100.5t103 -273.5v-187zM1194 1006q-142 0 -221.5 -81.5t-79.5 -213.5v-107h600v107q0 134 -78.5 214.5
t-220.5 80.5zM483 59q144 0 235 87.5t91 224.5v153h-317q-141 0 -215 -57.5t-74 -165.5q0 -113 76.5 -177.5t203.5 -64.5z" />
    <glyph glyph-name="Oslashacute" unicode="&#x1fe;" 
d="M743 1874l-159 -277h-72l135 277h96zM985 1567l-108 -230q69 -94 69 -229v-735q0 -181 -110.5 -287t-286.5 -106q-167 0 -275 94l-79 -168h-89l111 233q-65 97 -65 234v735q0 170 112.5 278.5t284.5 108.5q160 0 270 -96l80 168h86zM236 373q0 -76 28 -137l518 1085
q-88 94 -233 94q-138 0 -225.5 -85.5t-87.5 -225.5v-731zM862 1104q0 76 -28 143l-521 -1089q90 -99 236 -99q135 0 224 87.5t89 226.5v731z" />
    <glyph glyph-name="oslashacute" unicode="&#x1ff;" horiz-adv-x="1069" 
d="M729 1526l-160 -277h-71l135 277h96zM797 999q121 -102 121 -288v-357q0 -171 -104 -272.5t-279 -101.5q-117 0 -203 47l-64 -133h-90l86 180q-112 98 -112 280v357q0 171 104 272.5t279 101.5q110 0 194 -41l66 138h88zM236 354q0 -124 67 -200l391 817q-68 35 -159 35
q-137 0 -218 -79t-81 -216v-357zM834 354v357q0 132 -76 211l-391 -822q71 -41 168 -41q137 0 218 79t81 216z" />
    <glyph glyph-name="uni0218" unicode="&#x218;" horiz-adv-x="1044" 
d="M518 -20q-185 0 -298.5 107t-113.5 300h84q0 -156 88.5 -242t239.5 -86q149 0 242.5 87.5t93.5 226.5q0 111 -65 181t-214 142l-153 74q-139 66 -214 153t-75 216q0 154 108.5 255t278.5 101q184 0 291 -100.5t107 -268.5h-84q0 133 -85.5 211t-228.5 78q-133 0 -218 -78
t-85 -192q0 -104 55.5 -169.5t186.5 -127.5l174 -84q159 -76 232 -164t73 -221q0 -182 -119 -290.5t-301 -108.5zM326 -365l159 277h72l-135 -277h-96z" />
    <glyph glyph-name="uni0219" unicode="&#x219;" horiz-adv-x="993" 
d="M496 -20q-107 0 -194 37.5t-141.5 118t-54.5 192.5h84q0 -125 84 -198t222 -73q137 0 219 63.5t82 158.5q0 80 -55 124t-171 80l-168 54q-65 20 -109.5 41t-83.5 51.5t-58 73.5t-19 100q0 126 101.5 204t263.5 78q179 0 274.5 -84t101.5 -227h-83q-17 234 -293 234
q-128 0 -204.5 -57t-76.5 -144q0 -79 51 -119t166 -76l170 -53q142 -44 209.5 -105.5t67.5 -170.5q0 -137 -108 -220t-277 -83zM301 -365l135 277h96l-159 -277h-72z" />
    <glyph glyph-name="uni021A" unicode="&#x21a;" horiz-adv-x="958" 
d="M897 1475v-80h-375v-1395h-84v1395h-377v80h836zM283 -365l159 277h72l-135 -277h-96z" />
    <glyph glyph-name="uni021B" unicode="&#x21b;" horiz-adv-x="710" 
d="M629 985h-275v-735q0 -92 39.5 -131t124.5 -39h90v-80h-100q-238 0 -238 225v760h-198v80h198v410h84v-410h275v-80zM242 -365l135 277h96l-160 -277h-71z" />
    <glyph glyph-name="uni0237" unicode="&#x237;" horiz-adv-x="471" 
d="M-41 -410v80h43q93 0 144 45t51 158v1192h84v-1200q0 -151 -73.5 -213t-205.5 -62h-43z" />
    <glyph glyph-name="circumflex" unicode="&#x2c6;" horiz-adv-x="638" 
d="M82 1247l190 277h95l190 -277h-74l-164 217l-161 -217h-76z" />
    <glyph glyph-name="caron" unicode="&#x2c7;" horiz-adv-x="638" 
d="M272 1247l-190 277h76l161 -217l164 217h74l-190 -277h-95z" />
    <glyph glyph-name="breve" unicode="&#x2d8;" horiz-adv-x="712" 
d="M356 1255q-232 0 -274 232h80q11 -81 64.5 -122.5t129.5 -41.5t130 41.5t65 122.5h80q-42 -232 -275 -232z" />
    <glyph glyph-name="dotaccent" unicode="&#x2d9;" horiz-adv-x="282" 
d="M82 1292v152h119v-152h-119z" />
    <glyph glyph-name="ring" unicode="&#x2da;" horiz-adv-x="552" 
d="M274 1167q-78 0 -135 58.5t-57 136.5q0 81 56.5 137.5t135.5 56.5q82 0 139.5 -56.5t57.5 -137.5q0 -79 -58 -137t-139 -58zM274 1233q53 0 91 38.5t38 90.5q0 54 -37.5 91.5t-91.5 37.5q-52 0 -88 -37.5t-36 -91.5q0 -52 36 -90.5t88 -38.5z" />
    <glyph glyph-name="ogonek" unicode="&#x2db;" horiz-adv-x="419" 
d="M197 41l49 -41q-37 -18 -59.5 -51t-22.5 -76v-59q0 -63 45 -103.5t106 -40.5h23v-80h-23q-101 0 -167 64t-66 160v36q0 134 115 191z" />
    <glyph glyph-name="tilde" unicode="&#x2dc;" horiz-adv-x="776" 
d="M528 1257q-50 0 -148.5 49.5t-125.5 49.5q-28 0 -51.5 -14t-71.5 -56l-49 47q59 56 95.5 74t74.5 18q52 0 147 -49t133 -49q28 0 50 13t63 53l49 -47q-57 -53 -93.5 -71t-72.5 -18z" />
    <glyph glyph-name="hungarumlaut" unicode="&#x2dd;" horiz-adv-x="655" 
d="M82 1249l137 277h94l-157 -277h-74zM342 1249l137 277h94l-159 -277h-72z" />
    <glyph glyph-name="gravecomb" unicode="&#x300;" horiz-adv-x="0" 
d="M-154 1249l-159 277h96l135 -277h-72z" />
    <glyph glyph-name="acutecomb" unicode="&#x301;" horiz-adv-x="0" 
d="M-313 1249l135 277h96l-160 -277h-71z" />
    <glyph glyph-name="uni0302" unicode="&#x302;" horiz-adv-x="0" 
d="M-565 1249l190 277h103l190 -277h-80l-162 217l-159 -217h-82z" />
    <glyph glyph-name="tildecomb" unicode="&#x303;" horiz-adv-x="0" 
d="M-240 1251q-53 0 -151.5 44t-132.5 44q-51 0 -117 -69l-47 51q80 96 168 96q53 0 147 -44t135 -44q32 0 54 14t57 52l45 -52q-77 -92 -158 -92z" />
    <glyph glyph-name="uni0304" unicode="&#x304;" horiz-adv-x="0" 
d="M-672 1311v71h590v-71h-590z" />
    <glyph glyph-name="uni0306" unicode="&#x306;" horiz-adv-x="0" 
d="M-358 1219q-109 0 -181.5 61.5t-95.5 179.5h84q14 -82 66 -123t127 -41t126.5 41t65.5 123h84q-21 -118 -94 -179.5t-182 -61.5z" />
    <glyph glyph-name="uni0307" unicode="&#x307;" horiz-adv-x="0" 
d="M-184 1270v151h102v-151h-102z" />
    <glyph glyph-name="uni0308" unicode="&#x308;" horiz-adv-x="0" 
d="M-641 1270v151h119v-151h-119zM-201 1270v151h119v-151h-119z" />
    <glyph glyph-name="hookabovecomb" unicode="&#x309;" horiz-adv-x="0" 
d="M-258 1196v70q104 8 104 92q0 32 -20.5 49.5t-56.5 17.5q-40 0 -88 -26l-27 57q51 39 119 39q66 0 105.5 -37.5t39.5 -99.5q0 -65 -46 -111.5t-130 -50.5z" />
    <glyph glyph-name="uni030A" unicode="&#x30a;" horiz-adv-x="0" 
d="M-279 1204q-78 0 -135 58.5t-57 136.5q0 81 56.5 137.5t135.5 56.5q82 0 139.5 -56.5t57.5 -137.5q0 -79 -58 -137t-139 -58zM-279 1270q53 0 91 38.5t38 90.5q0 54 -37.5 91.5t-91.5 37.5q-52 0 -88 -37.5t-36 -91.5q0 -52 36 -90.5t88 -38.5z" />
    <glyph glyph-name="uni030B" unicode="&#x30b;" horiz-adv-x="0" 
d="M-565 1249l129 262h94l-150 -262h-73zM-305 1249l129 262h94l-151 -262h-72z" />
    <glyph glyph-name="uni030C" unicode="&#x30c;" horiz-adv-x="0" 
d="M-375 1229l-190 276h82l159 -217l162 217h80l-190 -276h-103z" />
    <glyph glyph-name="uni0312" unicode="&#x312;" horiz-adv-x="0" 
d="M-313 1249l159 277h72l-135 -277h-96z" />
    <glyph glyph-name="uni031B" unicode="&#x31b;" horiz-adv-x="0" 
d="M-272 829l-13 76q70 1 98.5 24t28.5 77v141h76v-146q0 -87 -46 -127t-144 -45z" />
    <glyph glyph-name="dotbelowcomb" unicode="&#x323;" horiz-adv-x="0" 
d="M-201 -311v131h119v-131h-119z" />
    <glyph glyph-name="uni0326" unicode="&#x326;" horiz-adv-x="0" 
d="M-313 -365l135 277h96l-160 -277h-71z" />
    <glyph glyph-name="uni0327" unicode="&#x327;" horiz-adv-x="0" 
d="M-313 -365l159 277h72l-135 -277h-96z" />
    <glyph glyph-name="uni0328" unicode="&#x328;" horiz-adv-x="0" 
d="M-223 41l49 -41q-37 -18 -59.5 -51t-22.5 -76v-59q0 -62 45.5 -103t106.5 -41h22v-80h-22q-101 0 -167.5 64t-66.5 160v36q0 134 115 191z" />
    <glyph glyph-name="uni0335" unicode="&#x335;" horiz-adv-x="0" 
d="M-692 1241v80h610v-80h-610z" />
    <glyph glyph-name="uni0336" unicode="&#x336;" horiz-adv-x="0" 
d="M-877 813v82h795v-82h-795z" />
    <glyph glyph-name="uni0337" unicode="&#x337;" horiz-adv-x="0" 
d="M-530 707v77l448 281v-78z" />
    <glyph glyph-name="tonos" unicode="&#x384;" horiz-adv-x="303" 
d="M82 1231l55 299h84l-78 -299h-61z" />
    <glyph glyph-name="dieresistonos" unicode="&#x385;" horiz-adv-x="739" 
d="M309 1268l58 299h84l-78 -299h-64zM82 1270v160h123v-160h-123zM535 1270v160h122v-160h-122z" />
    <glyph glyph-name="Alphatonos" unicode="&#x386;" horiz-adv-x="1089" 
d="M186 1231l56 299h84l-78 -299h-62zM950 0l-119 434h-573l-119 -434h-80l402 1475h168l401 -1475h-80zM281 514h528l-240 881h-49z" />
    <glyph glyph-name="Epsilontonos" unicode="&#x388;" horiz-adv-x="1026" 
d="M-29 1231l56 299h84l-78 -299h-62zM936 1395h-670v-578h619v-80h-619v-657h670v-80h-754v1475h754v-80z" />
    <glyph glyph-name="Etatonos" unicode="&#x389;" horiz-adv-x="1308" 
d="M72 1231l55 299h84l-78 -299h-61zM1053 1475h84v-1475h-84v729h-654v-729h-84v1475h84v-666h654v666z" />
    <glyph glyph-name="Iotatonos" unicode="&#x38a;" horiz-adv-x="571" 
d="M72 1231l55 299h84l-78 -299h-61zM315 0v1475h84v-1475h-84z" />
    <glyph glyph-name="Omicrontonos" unicode="&#x38c;" horiz-adv-x="1187" 
d="M72 1231l55 299h84l-78 -299h-61zM639 -20q-176 0 -286.5 106t-110.5 287v735q0 170 112.5 278.5t284.5 108.5t284.5 -108.5t112.5 -278.5v-735q0 -181 -110.5 -287t-286.5 -106zM639 59q135 0 224 87.5t89 226.5v731q0 140 -87.5 225.5t-225.5 85.5t-225.5 -85.5
t-87.5 -225.5v-731q0 -139 89 -226.5t224 -87.5z" />
    <glyph glyph-name="Upsilontonos" unicode="&#x38e;" horiz-adv-x="1081" 
d="M-20 1231l55 299h84l-78 -299h-61zM930 1475h88l-383 -951v-524h-84v524l-383 951h88l338 -846z" />
    <glyph glyph-name="Omegatonos" unicode="&#x38f;" horiz-adv-x="1196" 
d="M127 1530h84l-78 -299h-61zM911 80h213v-80h-389v68q114 35 167.5 109.5t53.5 197.5v729q0 140 -87.5 225.5t-225.5 85.5t-225.5 -85.5t-87.5 -225.5v-729q0 -123 53.5 -197.5t167.5 -109.5v-68h-389v80h213q-61 37 -95 108.5t-34 165.5v754q0 170 112.5 278.5
t284.5 108.5t284.5 -108.5t112.5 -278.5v-754q0 -94 -34 -165.5t-95 -108.5z" />
    <glyph glyph-name="iotadieresistonos" unicode="&#x390;" horiz-adv-x="509" 
d="M184 1268l58 299h84l-78 -299h-64zM-43 1270v160h123v-160h-123zM410 1270v160h122v-160h-122zM410 0q-106 0 -172 60t-66 190v815h84v-825q0 -89 43.5 -124.5t118.5 -35.5h20v-80h-28z" />
    <glyph glyph-name="Alpha" unicode="&#x391;" horiz-adv-x="1089" 
d="M950 0l-119 434h-573l-119 -434h-80l402 1475h168l401 -1475h-80zM281 514h528l-240 881h-49z" />
    <glyph glyph-name="Beta" unicode="&#x392;" horiz-adv-x="1122" 
d="M737 772q111 -25 177.5 -121.5t66.5 -236.5q0 -196 -106 -305t-295 -109h-408v1475h371q403 0 403 -359q0 -128 -54.5 -220t-154.5 -124zM545 1395h-289v-588h299q157 0 232 81t75 226q0 147 -76.5 214t-240.5 67zM582 80q158 0 236.5 86t78.5 246q0 158 -87.5 236.5
t-250.5 78.5h-303v-647h326z" />
    <glyph glyph-name="Gamma" unicode="&#x393;" horiz-adv-x="962" 
d="M172 0v1475h750v-80h-666v-1395h-84z" />
    <glyph glyph-name="uni0394" unicode="&#x394;" horiz-adv-x="1093" 
d="M653 1475l381 -1475h-975l381 1475h213zM500 1395l-342 -1315h778l-342 1315h-94z" />
    <glyph glyph-name="Epsilon" unicode="&#x395;" horiz-adv-x="1015" 
d="M926 1395h-670v-578h618v-80h-618v-657h670v-80h-754v1475h754v-80z" />
    <glyph glyph-name="Zeta" unicode="&#x396;" horiz-adv-x="921" 
d="M156 80h696v-80h-782v90l665 1305h-633v80h717v-84z" />
    <glyph glyph-name="Eta" unicode="&#x397;" horiz-adv-x="1165" 
d="M909 1475h84v-1475h-84v729h-653v-729h-84v1475h84v-666h653v666z" />
    <glyph glyph-name="Theta" unicode="&#x398;" 
d="M549 -20q-176 0 -286.5 106t-110.5 287v735q0 170 112.5 278.5t284.5 108.5t284.5 -108.5t112.5 -278.5v-735q0 -181 -110.5 -287t-286.5 -106zM549 59q135 0 224 87.5t89 226.5v731q0 140 -87.5 225.5t-225.5 85.5t-225.5 -85.5t-87.5 -225.5v-731q0 -139 89 -226.5
t224 -87.5zM369 686v80h360v-80h-360z" />
    <glyph glyph-name="Iota" unicode="&#x399;" horiz-adv-x="428" 
d="M172 0v1475h84v-1475h-84z" />
    <glyph glyph-name="Kappa" unicode="&#x39a;" horiz-adv-x="1026" 
d="M862 0l-473 737h-133v-737h-84v1475h84v-664h127l475 664h92l-491 -691l506 -784h-103z" />
    <glyph glyph-name="Lambda" unicode="&#x39b;" horiz-adv-x="1089" 
d="M59 0l402 1475h168l401 -1475h-80l-381 1395h-49l-381 -1395h-80z" />
    <glyph glyph-name="Mu" unicode="&#x39c;" horiz-adv-x="1306" 
d="M1008 1475h127v-1475h-84v1360l-357 -885h-82l-356 885v-1360h-84v1475h127l354 -887z" />
    <glyph glyph-name="Nu" unicode="&#x39d;" horiz-adv-x="1146" 
d="M891 1475h84v-1475h-139l-580 1378v-1378h-84v1475h133l586 -1393v1393z" />
    <glyph glyph-name="Xi" unicode="&#x39e;" horiz-adv-x="1034" 
d="M141 1395v80h752v-80h-752zM162 737v80h710v-80h-710zM141 0v80h752v-80h-752z" />
    <glyph glyph-name="Omicron" unicode="&#x39f;" 
d="M549 -20q-176 0 -286.5 106t-110.5 287v735q0 170 112.5 278.5t284.5 108.5t284.5 -108.5t112.5 -278.5v-735q0 -181 -110.5 -287t-286.5 -106zM549 59q135 0 224 87.5t89 226.5v731q0 140 -87.5 225.5t-225.5 85.5t-225.5 -85.5t-87.5 -225.5v-731q0 -139 89 -226.5
t224 -87.5z" />
    <glyph glyph-name="Pi" unicode="&#x3a0;" horiz-adv-x="1165" 
d="M172 0v1475h821v-1475h-84v1395h-653v-1395h-84z" />
    <glyph glyph-name="Rho" unicode="&#x3a1;" horiz-adv-x="1067" 
d="M569 1475q180 0 289 -100.5t109 -272.5v-121q0 -172 -109 -272.5t-289 -100.5h-313v-608h-84v1475h397zM883 985v113q0 137 -83 217t-231 80h-313v-707h313q148 0 231 80t83 217z" />
    <glyph glyph-name="Sigma" unicode="&#x3a3;" horiz-adv-x="954" 
d="M844 1475v-80h-672l545 -633v-14l-541 -668h668v-80h-766v82l540 670l-540 632v91h766z" />
    <glyph glyph-name="Tau" unicode="&#x3a4;" horiz-adv-x="958" 
d="M897 1475v-80h-375v-1395h-84v1395h-377v80h836z" />
    <glyph glyph-name="Upsilon" unicode="&#x3a5;" horiz-adv-x="976" 
d="M825 1475h88l-383 -951v-524h-84v524l-383 951h89l337 -846z" />
    <glyph glyph-name="Phi" unicode="&#x3a6;" horiz-adv-x="1181" 
d="M633 1370q195 -8 298 -107t103 -280v-438q0 -186 -103.5 -290.5t-297.5 -111.5v-163h-84v163q-195 8 -298.5 107t-103.5 280v439q0 186 103.5 290t298.5 111v125h84v-125zM950 545v438q0 147 -81 224.5t-236 82.5v-1067q151 5 234 88.5t83 233.5zM231 530
q0 -147 81.5 -224.5t236.5 -82.5v1067q-152 -5 -235 -88t-83 -233v-439z" />
    <glyph glyph-name="Chi" unicode="&#x3a7;" horiz-adv-x="995" 
d="M936 0h-90l-348 674l-348 -674h-91l392 756l-373 719h90l330 -637l329 637h91l-373 -719z" />
    <glyph glyph-name="Psi" unicode="&#x3a8;" horiz-adv-x="1161" 
d="M930 1475h84v-723q0 -190 -104.5 -287t-286.5 -103v-362h-84v362q-182 6 -287 103t-105 287v723h84v-723q0 -154 77.5 -229t230.5 -81v1033h84v-1033q152 6 229.5 81t77.5 229v723z" />
    <glyph glyph-name="uni03A9" unicode="&#x3a9;" horiz-adv-x="1105" 
d="M821 80h213v-80h-389v68q114 35 167.5 109.5t53.5 197.5v729q0 140 -87.5 225.5t-225.5 85.5t-225.5 -85.5t-87.5 -225.5v-729q0 -123 53.5 -197.5t167.5 -109.5v-68h-389v80h213q-61 37 -95 108.5t-34 165.5v754q0 170 112.5 278.5t284.5 108.5t284.5 -108.5
t112.5 -278.5v-754q0 -94 -34 -165.5t-95 -108.5z" />
    <glyph glyph-name="Iotadieresis" unicode="&#x3aa;" horiz-adv-x="428" 
d="M-66 1597v152h119v-152h-119zM375 1597v152h119v-152h-119zM172 0v1475h84v-1475h-84z" />
    <glyph glyph-name="Upsilondieresis" unicode="&#x3ab;" horiz-adv-x="976" 
d="M326 1749v-152h-119v152h119zM766 1749v-152h-119v152h119zM825 1475h88l-383 -951v-524h-84v524l-383 951h89l337 -846z" />
    <glyph glyph-name="alphatonos" unicode="&#x3ac;" horiz-adv-x="1138" 
d="M676 1530l-78 -299h-61l55 299h84zM1071 80h8v-80h-16q-163 0 -215 147q-50 -81 -135.5 -124t-175.5 -43q-178 0 -281.5 100.5t-103.5 273.5v357q0 173 103.5 273.5t281.5 100.5q88 0 168.5 -34.5t130.5 -104.5v119h84l2 -821q0 -84 41.5 -124t107.5 -40zM836 354v357
q0 132 -82.5 213.5t-218.5 81.5t-217.5 -79.5t-81.5 -215.5v-357q0 -136 81.5 -215.5t217.5 -79.5q127 0 214 82.5t87 212.5z" />
    <glyph glyph-name="epsilontonos" unicode="&#x3ad;" horiz-adv-x="999" 
d="M618 1530l-77 -299h-62l56 299h83zM805 293h84q-2 -64 -25 -117t-60 -89t-86 -60.5t-101.5 -35.5t-108.5 -11q-73 0 -139.5 20t-120 58t-85.5 100t-32 139q0 95 48 161.5t130 100.5q-157 67 -157 240q0 72 31 128.5t82 90t112.5 50.5t128.5 17q52 0 102 -10.5t98 -34.5
t84 -59.5t58.5 -88t23.5 -116.5h-84q-6 118 -83 175t-199 57q-112 0 -191 -55t-79 -154q0 -91 58.5 -148t172.5 -57h90v-78h-82q-116 0 -188 -55.5t-72 -163.5q0 -116 85 -178t210 -62q124 0 206 58.5t89 177.5z" />
    <glyph glyph-name="etatonos" unicode="&#x3ae;" horiz-adv-x="1103" 
d="M662 1530l-78 -299h-62l56 299h84zM555 1085q178 0 281.5 -100.5t103.5 -273.5v-1121h-84v1121q0 136 -81.5 215.5t-217.5 79.5t-218.5 -81.5t-82.5 -213.5v-711h-84v1065h84v-119q50 70 130.5 104.5t168.5 34.5z" />
    <glyph glyph-name="iotatonos" unicode="&#x3af;" horiz-adv-x="509" 
d="M184 1231l56 299h84l-78 -299h-62zM410 0q-106 0 -172 60t-66 190v815h84v-825q0 -89 43.5 -124.5t118.5 -35.5h20v-80h-28z" />
    <glyph glyph-name="upsilondieresistonos" unicode="&#x3b0;" horiz-adv-x="1103" 
d="M465 1268l57 299h84l-78 -299h-63zM238 1270v160h122v-160h-122zM690 1270v160h123v-160h-123zM555 -20q-178 0 -280.5 101t-102.5 277v707h84v-707q0 -145 78.5 -222t220.5 -77q143 0 222 78.5t79 220.5v478q0 85 -44 130.5t-126 45.5h-27v73h35q118 0 182 -67.5
t64 -192.5v-467q0 -174 -103.5 -276t-281.5 -102z" />
    <glyph glyph-name="alpha" unicode="&#x3b1;" horiz-adv-x="1138" 
d="M1071 80h8v-80h-16q-163 0 -215 147q-50 -81 -135.5 -124t-175.5 -43q-178 0 -281.5 100.5t-103.5 273.5v357q0 173 103.5 273.5t281.5 100.5q88 0 168.5 -34.5t130.5 -104.5v119h84l2 -821q0 -84 41.5 -124t107.5 -40zM836 354v357q0 132 -82.5 213.5t-218.5 81.5
t-217.5 -79.5t-81.5 -215.5v-357q0 -136 81.5 -215.5t217.5 -79.5q127 0 214 82.5t87 212.5z" />
    <glyph glyph-name="beta" unicode="&#x3b2;" horiz-adv-x="1101" 
d="M705 760q114 -35 181.5 -131.5t67.5 -239.5q0 -195 -105.5 -302t-277.5 -107q-87 0 -174.5 32.5t-140.5 106.5v-529h-84v1502q0 189 105 296t290 107q164 0 266.5 -104t102.5 -267q0 -133 -62 -229t-169 -135zM571 59q145 0 222 86.5t77 245.5q0 157 -93.5 243.5
t-246.5 86.5h-45v74h50q148 0 232.5 89t84.5 236q0 140 -79.5 217.5t-215.5 77.5q-139 0 -220 -95t-81 -255v-676q0 -167 86 -248.5t229 -81.5z" />
    <glyph glyph-name="gamma" unicode="&#x3b3;" horiz-adv-x="972" 
d="M819 1065h90l-379 -1112v-363h-84v365l-383 1110h93l336 -981z" />
    <glyph glyph-name="delta" unicode="&#x3b4;" horiz-adv-x="1071" 
d="M258 1198q0 -55 18.5 -95t50.5 -62t74.5 -38.5t90.5 -24.5t98 -20.5t98 -26t90.5 -41t74.5 -64.5t50.5 -98.5t18.5 -141.5v-232q0 -171 -104 -272.5t-279 -101.5q-178 0 -282.5 101t-104.5 273v236q0 271 217 342q-195 66 -195 262q0 135 92.5 218t249.5 83
q165 0 266 -92.5t103 -241.5h-84q-6 126 -82.5 190t-206.5 64q-121 0 -187.5 -55t-66.5 -162zM838 354v252q0 132 -80.5 204.5t-220.5 72.5q-146 0 -223.5 -78t-77.5 -219v-232q0 -134 84 -214.5t219 -80.5q137 0 218 79t81 216z" />
    <glyph glyph-name="epsilon" unicode="&#x3b5;" horiz-adv-x="999" 
d="M805 293h84q-2 -64 -25 -117t-60 -89t-86 -60.5t-101.5 -35.5t-108.5 -11q-73 0 -139.5 20t-120 58t-85.5 100t-32 139q0 95 48 161.5t130 100.5q-157 67 -157 240q0 72 31 128.5t82 90t112.5 50.5t128.5 17q52 0 102 -10.5t98 -34.5t84 -59.5t58.5 -88t23.5 -116.5h-84
q-6 118 -83 175t-199 57q-112 0 -191 -55t-79 -154q0 -91 58.5 -148t172.5 -57h90v-78h-82q-116 0 -188 -55.5t-72 -163.5q0 -116 85 -178t210 -62q124 0 206 58.5t89 177.5z" />
    <glyph glyph-name="zeta" unicode="&#x3b6;" horiz-adv-x="882" 
d="M860 1382q-179 -99 -324.5 -262t-228 -354t-82.5 -369q0 -163 76 -240t242 -77h49q119 0 181.5 -52.5t62.5 -146.5q0 -101 -66 -233h-86q68 133 68 221q0 67 -39.5 99t-130.5 32h-60q-381 0 -381 385q0 144 47.5 295t128.5 282.5t189 244.5t229 188h-497v80h622v-93z" />
    <glyph glyph-name="eta" unicode="&#x3b7;" horiz-adv-x="1103" 
d="M555 1085q178 0 281.5 -100.5t103.5 -273.5v-1121h-84v1121q0 136 -81.5 215.5t-217.5 79.5t-218.5 -81.5t-82.5 -213.5v-711h-84v1065h84v-119q50 70 130.5 104.5t168.5 34.5z" />
    <glyph glyph-name="theta" unicode="&#x3b8;" 
d="M549 1495q172 0 284.5 -108.5t112.5 -278.5v-735q0 -181 -110.5 -287t-286.5 -106t-286.5 106t-110.5 287v735q0 170 112.5 278.5t284.5 108.5zM549 1415q-138 0 -225.5 -85.5t-87.5 -225.5v-336h626v336q0 140 -87.5 225.5t-225.5 85.5zM549 59q135 0 224 87.5t89 226.5
v321h-626v-321q0 -139 89 -226.5t224 -87.5z" />
    <glyph glyph-name="iota" unicode="&#x3b9;" horiz-adv-x="509" 
d="M410 0q-106 0 -172 60t-66 190v815h84v-825q0 -89 43.5 -124.5t118.5 -35.5h20v-80h-28z" />
    <glyph glyph-name="kappa" unicode="&#x3ba;" horiz-adv-x="1015" 
d="M852 0l-381 590l-213 -225v-365h-86v1065h86v-594l563 594h99l-394 -418l428 -647h-102z" />
    <glyph glyph-name="lambda" unicode="&#x3bb;" horiz-adv-x="1040" 
d="M983 80h25v-80h-25q-56 0 -93.5 8.5t-73 34.5t-62 76t-49.5 129l-209 737h-72l-283 -985h-88l309 1065h111l-53 186q-23 81 -67 115.5t-124 34.5h-45v74h17q54 0 88 -3.5t69.5 -17t59.5 -39t46.5 -69.5t41.5 -109l289 -1004q24 -87 66 -120t122 -33z" />
    <glyph glyph-name="uni03BC" unicode="&#x3bc;" horiz-adv-x="1116" 
d="M860 1065h84v-1065h-84v139q-54 -82 -138.5 -120.5t-170.5 -38.5q-186 0 -295 124v-514h-84v1475h84v-705q0 -301 301 -301q129 0 216 83.5t87 217.5v705z" />
    <glyph glyph-name="nu" unicode="&#x3bd;" horiz-adv-x="905" 
d="M375 0l-322 1065h84l299 -993h33l299 993h84l-322 -1065h-155z" />
    <glyph glyph-name="xi" unicode="&#x3be;" horiz-adv-x="954" 
d="M629 80q113 0 174 -53.5t61 -153.5q0 -95 -65 -225h-86q67 125 67 219q0 71 -41.5 102t-136.5 31h-65q-186 0 -285.5 89.5t-99.5 258.5v78q0 119 61.5 207.5t175.5 126.5q-102 42 -160.5 133.5t-58.5 218.5q0 171 101.5 277t269.5 106q164 0 265.5 -101t104.5 -268h-84
q-4 144 -81 216.5t-205 72.5q-133 0 -210 -82.5t-77 -222.5q0 -149 86 -233t238 -84h63v-72h-63q-163 0 -252.5 -75.5t-89.5 -213.5v-74q0 -144 71.5 -211t220.5 -67h101z" />
    <glyph glyph-name="omicron" unicode="&#x3bf;" horiz-adv-x="1069" 
d="M535 -20q-175 0 -279 101.5t-104 272.5v357q0 171 104 272.5t279 101.5t279 -101.5t104 -272.5v-357q0 -171 -104 -272.5t-279 -101.5zM535 59q137 0 218 79t81 216v357q0 137 -81 216t-218 79t-218 -79t-81 -216v-357q0 -137 81 -216t218 -79z" />
    <glyph glyph-name="pi" unicode="&#x3c0;" horiz-adv-x="1300" 
d="M309 0v985h-229v80h1098v-80h-222v-745q0 -89 43.5 -124.5t118.5 -35.5h21v-80h-29q-106 0 -172 60t-66 190v735h-481v-985h-82z" />
    <glyph glyph-name="rho" unicode="&#x3c1;" horiz-adv-x="1093" 
d="M559 1085q175 0 279 -101.5t104 -272.5v-357q0 -166 -109.5 -270t-269.5 -104q-91 0 -173.5 35t-133.5 106v-531h-84v1121q0 172 104.5 273t282.5 101zM858 385v326q0 137 -81 216t-218 79q-139 0 -221 -79t-82 -216v-357q0 -133 84 -214t225 -81q140 0 216.5 85
t76.5 241z" />
    <glyph glyph-name="uni03C2" unicode="&#x3c2;" horiz-adv-x="1026" 
d="M684 -352q68 133 68 221q0 67 -39.5 99t-130.5 32h-50q-172 0 -276 95.5t-104 271.5v331q0 179 104.5 283t280.5 104q172 0 273.5 -94.5t104.5 -251.5h-84q-9 130 -84.5 198.5t-209.5 68.5q-145 0 -223 -83.5t-78 -242.5v-301q0 -150 78 -224.5t221 -74.5h53
q122 0 185 -52.5t63 -146.5q0 -101 -66 -233h-86z" />
    <glyph glyph-name="sigma" unicode="&#x3c3;" horiz-adv-x="1085" 
d="M1020 1065v-80h-227q129 -104 129 -295v-336q0 -171 -104 -272.5t-279 -101.5q-178 0 -282.5 101t-104.5 273v336q0 172 104.5 273.5t282.5 101.5h481zM838 690q0 137 -81 216t-218 79q-139 0 -221 -79t-82 -216v-336q0 -134 84 -214.5t219 -80.5q137 0 218 79t81 216
v336z" />
    <glyph glyph-name="tau" unicode="&#x3c4;" horiz-adv-x="983" 
d="M903 1065v-80h-371v-987h-83v987h-369v80h823z" />
    <glyph glyph-name="upsilon" unicode="&#x3c5;" horiz-adv-x="1103" 
d="M555 -20q-178 0 -280.5 101t-102.5 277v707h84v-707q0 -145 78.5 -222t220.5 -77q143 0 222 78.5t79 220.5v478q0 85 -44 130.5t-126 45.5h-27v73h35q118 0 182 -67.5t64 -192.5v-467q0 -174 -103.5 -276t-281.5 -102z" />
    <glyph glyph-name="phi" unicode="&#x3c6;" horiz-adv-x="1257" 
d="M846 1085q108 0 180 -66t72 -196v-428q0 -101 -32 -179.5t-89.5 -128.5t-133 -77t-167.5 -30v-390h-82v390q-188 6 -305 112t-117 303v670h82v-670q0 -166 89.5 -248t250.5 -88v764q0 130 72.5 196t179.5 66zM1016 395v418q0 193 -170 193t-170 -193v-754q160 5 250 87.5
t90 248.5z" />
    <glyph glyph-name="chi" unicode="&#x3c7;" horiz-adv-x="1126" 
d="M1069 -330h12v-80h-39q-71 0 -118.5 23.5t-75.5 83.5l-270 594l-345 -701h-102l401 797l-245 541q-20 45 -50 61.5t-92 16.5h-20v79h37q73 0 120 -24t76 -86l228 -500l286 590h97l-338 -686l289 -635q13 -28 26 -43.5t35 -22t36.5 -7.5t51.5 -1z" />
    <glyph glyph-name="psi" unicode="&#x3c8;" horiz-adv-x="1187" 
d="M975 1065h84v-670q0 -197 -118 -303t-306 -112v-390h-82v390q-188 6 -306 112t-118 303v670h84v-670q0 -166 90 -249t250 -89v1418h82v-1418q160 6 250 89t90 249v670z" />
    <glyph glyph-name="omega" unicode="&#x3c9;" horiz-adv-x="1382" 
d="M973 1085q118 0 182 -67.5t64 -192.5v-503q0 -151 -70.5 -246.5t-210.5 -95.5q-185 0 -248 167q-60 -167 -246 -167q-140 0 -210 95.5t-70 246.5v503q0 125 64 192.5t182 67.5h34v-79h-26q-82 0 -126 -43t-44 -127v-504q0 -57 10 -104t31.5 -86t61 -61t93.5 -22
q205 0 205 232v481h84v-481q0 -232 203 -232q71 0 117.5 39t64 96.5t17.5 133.5v508q0 84 -44 127t-126 43h-27v79h35z" />
    <glyph glyph-name="iotadieresis" unicode="&#x3ca;" horiz-adv-x="509" 
d="M6 1270v151h119v-151h-119zM303 1270v151h119v-151h-119zM410 0q-106 0 -172 60t-66 190v815h84v-825q0 -89 43.5 -124.5t118.5 -35.5h20v-80h-28z" />
    <glyph glyph-name="upsilondieresis" unicode="&#x3cb;" horiz-adv-x="1103" 
d="M215 1270v151h119v-151h-119zM655 1270v151h119v-151h-119zM555 -20q-178 0 -280.5 101t-102.5 277v707h84v-707q0 -145 78.5 -222t220.5 -77q143 0 222 78.5t79 220.5v478q0 85 -44 130.5t-126 45.5h-27v73h35q118 0 182 -67.5t64 -192.5v-467q0 -174 -103.5 -276
t-281.5 -102z" />
    <glyph glyph-name="omicrontonos" unicode="&#x3cc;" horiz-adv-x="1069" 
d="M504 1231l55 299h84l-78 -299h-61zM535 -20q-175 0 -279 101.5t-104 272.5v357q0 171 104 272.5t279 101.5t279 -101.5t104 -272.5v-357q0 -171 -104 -272.5t-279 -101.5zM535 59q137 0 218 79t81 216v357q0 137 -81 216t-218 79t-218 -79t-81 -216v-357q0 -137 81 -216
t218 -79z" />
    <glyph glyph-name="upsilontonos" unicode="&#x3cd;" horiz-adv-x="1103" 
d="M465 1231l55 299h84l-78 -299h-61zM555 -20q-178 0 -280.5 101t-102.5 277v707h84v-707q0 -145 78.5 -222t220.5 -77q143 0 222 78.5t79 220.5v478q0 85 -44 130.5t-126 45.5h-27v73h35q118 0 182 -67.5t64 -192.5v-467q0 -174 -103.5 -276t-281.5 -102z" />
    <glyph glyph-name="omegatonos" unicode="&#x3ce;" horiz-adv-x="1382" 
d="M801 1530l-78 -299h-61l55 299h84zM973 1085q118 0 182 -67.5t64 -192.5v-503q0 -151 -70.5 -246.5t-210.5 -95.5q-185 0 -248 167q-60 -167 -246 -167q-140 0 -210 95.5t-70 246.5v503q0 125 64 192.5t182 67.5h34v-79h-26q-82 0 -126 -43t-44 -127v-504q0 -57 10 -104
t31.5 -86t61 -61t93.5 -22q205 0 205 232v481h84v-481q0 -232 203 -232q71 0 117.5 39t64 96.5t17.5 133.5v508q0 84 -44 127t-126 43h-27v79h35z" />
    <glyph glyph-name="uni0401" unicode="&#x401;" horiz-adv-x="1015" 
d="M276 1597v152h119v-152h-119zM717 1597v152h119v-152h-119zM926 1395h-670v-578h618v-80h-618v-657h670v-80h-754v1475h754v-80z" />
    <glyph glyph-name="uni0402" unicode="&#x402;" horiz-adv-x="1370" 
d="M844 1085q181 0 271.5 -99.5t90.5 -287.5v-424q0 -274 -258 -274h-94v72h94q174 0 174 211v401q0 163 -73 245.5t-213 82.5q-141 0 -227.5 -89.5t-86.5 -246.5v-676h-84v1395h-377v80h836v-80h-375v-486q43 83 127.5 129.5t194.5 46.5z" />
    <glyph glyph-name="uni0403" unicode="&#x403;" horiz-adv-x="962" 
d="M510 1597l135 277h96l-159 -277h-72zM172 0v1475h750v-80h-666v-1395h-84z" />
    <glyph glyph-name="uni0404" unicode="&#x404;" horiz-adv-x="1056" 
d="M541 59q140 0 227.5 80.5t87.5 210.5h84q0 -165 -111.5 -267.5t-285.5 -102.5q-170 0 -280.5 106.5t-110.5 284.5v737q0 170 112.5 278.5t284.5 108.5q168 0 279 -100.5t118 -268.5h-84q-6 129 -94 209t-219 80q-138 0 -225.5 -85.5t-87.5 -225.5v-307h372v-74h-372v-338
q0 -150 85.5 -238t219.5 -88z" />
    <glyph glyph-name="uni0405" unicode="&#x405;" horiz-adv-x="1044" 
d="M518 -20q-185 0 -298.5 107t-113.5 300h84q0 -156 88.5 -242t239.5 -86q149 0 242.5 87.5t93.5 226.5q0 111 -65 181t-214 142l-153 74q-139 66 -214 153t-75 216q0 154 108.5 255t278.5 101q184 0 291 -100.5t107 -268.5h-84q0 133 -85.5 211t-228.5 78q-133 0 -218 -78
t-85 -192q0 -104 55.5 -169.5t186.5 -127.5l174 -84q159 -76 232 -164t73 -221q0 -182 -119 -290.5t-301 -108.5z" />
    <glyph glyph-name="uni0406" unicode="&#x406;" horiz-adv-x="428" 
d="M172 0v1475h84v-1475h-84z" />
    <glyph glyph-name="uni0407" unicode="&#x407;" horiz-adv-x="428" 
d="M-66 1597v152h119v-152h-119zM375 1597v152h119v-152h-119zM172 0v1475h84v-1475h-84z" />
    <glyph glyph-name="uni0408" unicode="&#x408;" horiz-adv-x="919" 
d="M401 -20q-166 0 -261 99t-95 271h84q9 -291 272 -291q273 0 273 316v1020h-506v80h590v-1125q0 -172 -95.5 -271t-261.5 -99z" />
    <glyph glyph-name="uni0409" unicode="&#x409;" horiz-adv-x="1716" 
d="M1264 866q180 0 288.5 -100t108.5 -272v-121q0 -172 -108.5 -272.5t-288.5 -100.5h-375v1395h-504v-1057q0 -160 -88.5 -251t-249.5 -87v80q41 0 75.5 7t68.5 24.5t57.5 46t38 74.5t14.5 106v1137h672v-609h291zM1577 377v112q0 137 -82.5 217t-230.5 80h-291v-706h291
q148 0 230.5 80t82.5 217z" />
    <glyph glyph-name="uni040A" unicode="&#x40a;" horiz-adv-x="1701" 
d="M1182 829q180 0 288.5 -102t108.5 -274v-45q0 -181 -110 -294.5t-298 -113.5h-323v750h-592v-750h-84v1475h84v-646h592v646h84v-646h250zM1495 410v39q0 147 -81.5 224t-231.5 77h-250v-670h254q146 0 227.5 89.5t81.5 240.5z" />
    <glyph glyph-name="uni040B" unicode="&#x40b;" horiz-adv-x="1368" 
d="M819 1085q178 0 281.5 -100.5t103.5 -273.5v-711h-84v711q0 136 -81.5 215.5t-217.5 79.5t-218.5 -81.5t-82.5 -213.5v-711h-84v1395h-375v80h836v-80h-377v-449q50 70 130.5 104.5t168.5 34.5z" />
    <glyph glyph-name="uni040C" unicode="&#x40c;" horiz-adv-x="1026" 
d="M707 1874l-160 -277h-72l135 277h97zM862 0l-473 737h-133v-737h-84v1475h84v-664h127l475 664h92l-491 -691l506 -784h-103z" />
    <glyph glyph-name="uni040E" unicode="&#x40e;" horiz-adv-x="987" 
d="M496 1597q-215 0 -254 232h80q10 -81 58 -122.5t116 -41.5t116 41.5t58 122.5h80q-39 -232 -254 -232zM834 1475h88l-377 -1217q-25 -79 -58.5 -131t-78 -79t-92.5 -37.5t-113 -10.5h-19v80h45q177 0 234 190l43 142h-105l-335 1063h88l311 -986h65z" />
    <glyph glyph-name="uni040F" unicode="&#x40f;" horiz-adv-x="1163" 
d="M539 -236v236h-367v1475h84v-1395h651v1395h84v-1475h-368v-236h-84z" />
    <glyph glyph-name="uni0410" unicode="&#x410;" horiz-adv-x="1089" 
d="M950 0l-119 434h-573l-119 -434h-80l402 1475h168l401 -1475h-80zM281 514h528l-240 881h-49z" />
    <glyph glyph-name="uni0411" unicode="&#x411;" horiz-adv-x="1067" 
d="M567 866q180 0 289 -100t109 -272v-121q0 -172 -109 -272.5t-289 -100.5h-395v1475h729v-80h-645v-529h311zM881 377v112q0 137 -83 217t-231 80h-311v-706h311q148 0 231 80t83 217z" />
    <glyph glyph-name="uni0412" unicode="&#x412;" horiz-adv-x="1122" 
d="M737 772q111 -25 177.5 -121.5t66.5 -236.5q0 -196 -106 -305t-295 -109h-408v1475h371q403 0 403 -359q0 -128 -54.5 -220t-154.5 -124zM545 1395h-289v-588h299q157 0 232 81t75 226q0 147 -76.5 214t-240.5 67zM582 80q158 0 236.5 86t78.5 246q0 158 -87.5 236.5
t-250.5 78.5h-303v-647h326z" />
    <glyph glyph-name="uni0413" unicode="&#x413;" horiz-adv-x="962" 
d="M172 0v1475h750v-80h-666v-1395h-84z" />
    <glyph glyph-name="uni0414" unicode="&#x414;" horiz-adv-x="1296" 
d="M1069 74h129v-310h-84v236h-967v-236h-84v310h123q144 95 166 334l92 1067h625v-1401zM430 381q-20 -213 -127 -307h682v1321h-463z" />
    <glyph glyph-name="uni0415" unicode="&#x415;" horiz-adv-x="1015" 
d="M926 1395h-670v-578h618v-80h-618v-657h670v-80h-754v1475h754v-80z" />
    <glyph glyph-name="uni0416" unicode="&#x416;" horiz-adv-x="1624" 
d="M1460 0l-473 737h-133v-737h-84v737h-131l-475 -737h-103l506 784l-491 691h94l475 -664h125v664h84v-664h125l475 664h94l-491 -691l506 -784h-103z" />
    <glyph glyph-name="uni0417" unicode="&#x417;" horiz-adv-x="1071" 
d="M682 760q111 -29 183.5 -123.5t72.5 -212.5v-33q0 -182 -112 -296.5t-296 -114.5q-174 0 -291.5 102t-121.5 258h84q4 -128 99 -204.5t235 -76.5q148 0 232.5 89.5t84.5 244.5v25q0 135 -92.5 219t-241.5 84h-72v72h76q142 0 227 90.5t85 240.5q0 140 -78 215.5
t-224 75.5t-228.5 -74.5t-86.5 -214.5h-84q4 168 116 268.5t286 100.5t278.5 -100.5t104.5 -264.5q0 -131 -64.5 -233t-171.5 -137z" />
    <glyph glyph-name="uni0418" unicode="&#x418;" horiz-adv-x="1146" 
d="M836 1475h139v-1475h-84v1393l-576 -1393h-143v1475h84v-1403z" />
    <glyph glyph-name="uni0419" unicode="&#x419;" horiz-adv-x="1146" 
d="M594 1628q-109 0 -181.5 62t-95.5 180h84q14 -82 66 -123t127 -41t126.5 41t65.5 123h84q-21 -118 -94 -180t-182 -62zM836 1475h139v-1475h-84v1393l-576 -1393h-143v1475h84v-1403z" />
    <glyph glyph-name="uni041A" unicode="&#x41a;" horiz-adv-x="1026" 
d="M862 0l-473 737h-133v-737h-84v1475h84v-664h127l475 664h92l-491 -691l506 -784h-103z" />
    <glyph glyph-name="uni041B" unicode="&#x41b;" horiz-adv-x="1226" 
d="M47 0v80q254 0 254 250v1145h754v-1475h-84v1395h-586v-1065q0 -159 -88 -246.5t-250 -83.5z" />
    <glyph glyph-name="uni041C" unicode="&#x41c;" horiz-adv-x="1306" 
d="M1008 1475h127v-1475h-84v1360l-357 -885h-82l-356 885v-1360h-84v1475h127l354 -887z" />
    <glyph glyph-name="uni041D" unicode="&#x41d;" horiz-adv-x="1165" 
d="M909 1475h84v-1475h-84v729h-653v-729h-84v1475h84v-666h653v666z" />
    <glyph glyph-name="uni041E" unicode="&#x41e;" 
d="M549 -20q-176 0 -286.5 106t-110.5 287v735q0 170 112.5 278.5t284.5 108.5t284.5 -108.5t112.5 -278.5v-735q0 -181 -110.5 -287t-286.5 -106zM549 59q135 0 224 87.5t89 226.5v731q0 140 -87.5 225.5t-225.5 85.5t-225.5 -85.5t-87.5 -225.5v-731q0 -139 89 -226.5
t224 -87.5z" />
    <glyph glyph-name="uni041F" unicode="&#x41f;" horiz-adv-x="1165" 
d="M172 0v1475h821v-1475h-84v1395h-653v-1395h-84z" />
    <glyph glyph-name="uni0420" unicode="&#x420;" horiz-adv-x="1067" 
d="M569 1475q180 0 289 -100.5t109 -272.5v-121q0 -172 -109 -272.5t-289 -100.5h-313v-608h-84v1475h397zM883 985v113q0 137 -83 217t-231 80h-313v-707h313q148 0 231 80t83 217z" />
    <glyph glyph-name="uni0421" unicode="&#x421;" horiz-adv-x="1056" 
d="M543 -20q-170 0 -280.5 106.5t-110.5 284.5v737q0 170 112.5 278.5t284.5 108.5q168 0 279 -100.5t118 -268.5h-84q-6 129 -94 209t-219 80q-138 0 -225.5 -85.5t-87.5 -225.5v-719q0 -150 85.5 -238t219.5 -88q140 0 227.5 80.5t87.5 210.5h84q0 -165 -111.5 -267.5
t-285.5 -102.5z" />
    <glyph glyph-name="uni0422" unicode="&#x422;" horiz-adv-x="958" 
d="M897 1475v-80h-375v-1395h-84v1395h-377v80h836z" />
    <glyph glyph-name="uni0423" unicode="&#x423;" horiz-adv-x="987" 
d="M834 1475h88l-377 -1217q-25 -79 -58.5 -131t-78 -79t-92.5 -37.5t-113 -10.5h-19v80h45q177 0 234 190l43 142h-105l-335 1063h88l311 -986h65z" />
    <glyph glyph-name="uni0424" unicode="&#x424;" horiz-adv-x="1181" 
d="M633 1370q195 -8 298 -107t103 -280v-438q0 -186 -103.5 -290.5t-297.5 -111.5v-163h-84v163q-195 8 -298.5 107t-103.5 280v439q0 186 103.5 290t298.5 111v125h84v-125zM950 545v438q0 147 -81 224.5t-236 82.5v-1067q151 5 234 88.5t83 233.5zM231 530
q0 -147 81.5 -224.5t236.5 -82.5v1067q-152 -5 -235 -88t-83 -233v-439z" />
    <glyph glyph-name="uni0425" unicode="&#x425;" horiz-adv-x="995" 
d="M936 0h-90l-348 674l-348 -674h-91l392 756l-373 719h90l330 -637l329 637h91l-373 -719z" />
    <glyph glyph-name="uni0426" unicode="&#x426;" horiz-adv-x="1214" 
d="M1034 -236v236h-862v1475h84v-1395h653v1395h84v-1395h125v-316h-84z" />
    <glyph glyph-name="uni0427" unicode="&#x427;" horiz-adv-x="1050" 
d="M795 1475h84v-1475h-84v608h-340q-161 0 -264 104t-103 267v496h84v-494q0 -132 79.5 -212.5t211.5 -80.5h332v787z" />
    <glyph glyph-name="uni0428" unicode="&#x428;" horiz-adv-x="1351" 
d="M172 0v1475h84v-1395h379v1395h84v-1395h377v1395h84v-1475h-1008z" />
    <glyph glyph-name="uni0429" unicode="&#x429;" horiz-adv-x="1402" 
d="M1223 -236v236h-1051v1475h84v-1395h379v1395h84v-1395h379v1395h84v-1395h125v-316h-84z" />
    <glyph glyph-name="uni042A" unicode="&#x42a;" horiz-adv-x="1157" 
d="M657 866q180 0 289 -100t109 -272v-121q0 -172 -109 -272.5t-289 -100.5h-395v1401h-237v74h321v-609h311zM971 377v112q0 137 -83 217t-231 80h-311v-706h311q148 0 231 80t83 217z" />
    <glyph glyph-name="uni042B" unicode="&#x42b;" horiz-adv-x="1495" 
d="M567 866q180 0 289 -100t109 -272v-121q0 -172 -109 -272.5t-289 -100.5h-395v1475h84v-609h311zM1239 1475h84v-1475h-84v1475zM881 377v112q0 137 -83 217t-231 80h-311v-706h311q148 0 231 80t83 217z" />
    <glyph glyph-name="uni042C" unicode="&#x42c;" horiz-adv-x="1067" 
d="M567 866q180 0 289 -100t109 -272v-121q0 -172 -109 -272.5t-289 -100.5h-395v1475h84v-609h311zM881 377v112q0 137 -83 217t-231 80h-311v-706h311q148 0 231 80t83 217z" />
    <glyph glyph-name="uni042D" unicode="&#x42d;" horiz-adv-x="1044" 
d="M502 -20q-174 0 -282.5 102.5t-108.5 267.5h77q0 -130 88.5 -210.5t231.5 -80.5q138 0 219.5 76.5t81.5 216.5v371h-375v74h375v307q0 137 -87.5 224t-223.5 87q-132 0 -222 -81.5t-90 -207.5h-75q0 158 110.5 263.5t278.5 105.5q170 0 281.5 -110t111.5 -277v-760
q0 -163 -108.5 -265.5t-282.5 -102.5z" />
    <glyph glyph-name="uni042E" unicode="&#x42e;" horiz-adv-x="1591" 
d="M1042 1495q172 0 285 -108.5t113 -278.5v-735q0 -181 -110.5 -287t-287.5 -106q-176 0 -286.5 106t-110.5 287v315h-389v-688h-84v1475h84v-705h389v338q0 170 112.5 278.5t284.5 108.5zM1356 373v731q0 140 -88 225.5t-226 85.5t-225.5 -85.5t-87.5 -225.5v-731
q0 -139 89 -226.5t224 -87.5t224.5 87.5t89.5 226.5z" />
    <glyph glyph-name="uni042F" unicode="&#x42f;" horiz-adv-x="1103" 
d="M524 1475h408v-1475h-84v649h-256q-39 0 -57 2l-318 -651h-96l323 664q-146 31 -226.5 123t-80.5 231v78q0 167 105.5 273t281.5 106zM573 729h275v666h-324q-143 0 -223 -83.5t-80 -221.5v-66q0 -133 91 -214t261 -81z" />
    <glyph glyph-name="uni0430" unicode="&#x430;" horiz-adv-x="1056" 
d="M526 1085q169 0 268 -89.5t99 -245.5v-750h-84v137q-118 -157 -334 -157q-162 0 -259 86t-97 229q0 149 103 229t284 80h303v141q0 123 -72.5 192t-210.5 69q-131 0 -201.5 -63t-76.5 -171h-86q7 147 107.5 230t256.5 83zM485 59q144 0 234 87.5t90 224.5v153h-303
q-139 0 -221 -58t-82 -165q0 -113 77 -177.5t205 -64.5z" />
    <glyph glyph-name="uni0431" unicode="&#x431;" horiz-adv-x="1085" 
d="M551 1085q175 0 279 -101.5t104 -272.5v-357q0 -171 -104 -272.5t-279 -101.5q-177 0 -281 101t-104 273v660q0 167 108 271t281 104h45q76 0 110.5 20t34.5 70v16h82v-20q0 -76 -60.5 -121t-166.5 -45h-45q-139 0 -222 -81t-83 -218v-58q100 133 301 133zM850 354v357
q0 142 -78 218.5t-221 76.5q-144 0 -222.5 -75.5t-78.5 -219.5v-357q0 -141 78 -218t223 -77q143 0 221 76.5t78 218.5z" />
    <glyph glyph-name="uni0432" unicode="&#x432;" horiz-adv-x="1099" 
d="M770 561q85 -25 132.5 -90t47.5 -166q0 -142 -104 -223.5t-291 -81.5h-383v1065h410q169 0 257 -69.5t87 -202.5q-2 -82 -43.5 -144.5t-112.5 -87.5zM256 993v-397h336q121 0 185.5 50t64.5 151q0 196 -267 196h-319zM569 72q147 0 222 60.5t75 178.5q0 108 -67.5 160.5
t-206.5 52.5h-336v-452h313z" />
    <glyph glyph-name="uni0433" unicode="&#x433;" horiz-adv-x="888" 
d="M172 0v1065h643v-80h-559v-985h-84z" />
    <glyph glyph-name="uni0434" unicode="&#x434;" horiz-adv-x="1202" 
d="M971 80h131v-318h-84v238h-854v-238h-84v318h115q75 55 86 211l63 774h627v-985zM887 80v905h-465l-57 -698q-12 -142 -72 -207h594z" />
    <glyph glyph-name="uni0435" unicode="&#x435;" horiz-adv-x="1073" 
d="M838 332h84q-7 -163 -111 -257.5t-274 -94.5q-177 0 -281 101t-104 273v357q0 172 104 273t281 101t280 -100.5t103 -273.5v-191h-684v-166q0 -136 83.5 -215.5t217.5 -79.5q136 0 213 70.5t88 202.5zM537 1006q-138 0 -219.5 -79t-81.5 -216v-111h600v111q0 137 -81 216
t-218 79z" />
    <glyph glyph-name="uni0436" unicode="&#x436;" horiz-adv-x="1492" 
d="M1008 561l422 -561h-107l-395 516h-140v-516h-83v516h-140l-395 -516h-107l422 561l-409 504h104l381 -469h144v469h83v-469h144l381 469h104z" />
    <glyph glyph-name="uni0437" unicode="&#x437;" horiz-adv-x="999" 
d="M690 559q82 -34 130 -100.5t48 -161.5q0 -77 -32 -139t-85 -100t-119.5 -58t-139.5 -20q-56 0 -108.5 11t-101.5 35.5t-86 60.5t-60 89t-25 117h84q7 -119 88.5 -177.5t205.5 -58.5q125 0 210 62t85 178q0 108 -72 163.5t-188 55.5h-82v78h90q114 0 173 57t59 148
q0 99 -79 154t-191 55q-122 0 -199.5 -57t-83.5 -175h-84q1 64 23.5 117t59 88t84 59t98 34.5t102.5 10.5q67 0 128.5 -17t112.5 -50.5t82 -90t31 -128.5q0 -88 -42.5 -148.5t-115.5 -91.5z" />
    <glyph glyph-name="uni0438" unicode="&#x438;" horiz-adv-x="1101" 
d="M801 1065h129v-1065h-84v981l-539 -981h-135v1065h84v-995z" />
    <glyph glyph-name="uni0439" unicode="&#x439;" horiz-adv-x="1101" 
d="M551 1219q-109 0 -181.5 61.5t-95.5 179.5h84q14 -82 66 -123t127 -41t126.5 41t65.5 123h84q-21 -118 -94 -179.5t-182 -61.5zM801 1065h129v-1065h-84v981l-539 -981h-135v1065h84v-995z" />
    <glyph glyph-name="uni043A" unicode="&#x43a;" horiz-adv-x="1009" 
d="M524 561l422 -561h-106l-396 518h-188v-518h-84v1065h84v-475h188l381 475h105z" />
    <glyph glyph-name="uni043B" unicode="&#x43b;" horiz-adv-x="1081" 
d="M39 0v80h27q69 0 108 36.5t39 129.5v819h696v-1065h-84v985h-528v-735q0 -131 -63.5 -190.5t-172.5 -59.5h-22z" />
    <glyph glyph-name="uni043C" unicode="&#x43c;" horiz-adv-x="1230" 
d="M920 1065h139v-1065h-84v985l-313 -749h-93l-313 749v-985h-84v1065h139l305 -731z" />
    <glyph glyph-name="uni043D" unicode="&#x43d;" horiz-adv-x="1103" 
d="M172 0v1065h84v-463h592v463h84v-1065h-84v522h-592v-522h-84z" />
    <glyph glyph-name="uni043E" unicode="&#x43e;" horiz-adv-x="1069" 
d="M535 -20q-175 0 -279 101.5t-104 272.5v357q0 171 104 272.5t279 101.5t279 -101.5t104 -272.5v-357q0 -171 -104 -272.5t-279 -101.5zM535 59q137 0 218 79t81 216v357q0 137 -81 216t-218 79t-218 -79t-81 -216v-357q0 -137 81 -216t218 -79z" />
    <glyph glyph-name="uni043F" unicode="&#x43f;" horiz-adv-x="1103" 
d="M172 0v1065h760v-1065h-84v985h-592v-985h-84z" />
    <glyph glyph-name="uni0440" unicode="&#x440;" horiz-adv-x="1091" 
d="M555 1085q178 0 281.5 -100.5t103.5 -273.5v-357q0 -172 -104 -273t-281 -101q-88 0 -168.5 34.5t-130.5 104.5v-529h-84v1475h84v-119q50 70 130.5 104.5t168.5 34.5zM856 354v357q0 136 -81.5 215.5t-217.5 79.5t-218.5 -81.5t-82.5 -213.5v-357q0 -132 82.5 -213.5
t218.5 -81.5q137 0 218 79t81 216z" />
    <glyph glyph-name="uni0441" unicode="&#x441;" horiz-adv-x="1032" 
d="M537 -20q-177 0 -281 101t-104 273v357q0 172 104 273t281 101q167 0 274.5 -96t110.5 -250h-84q-9 125 -89 196t-212 71q-138 0 -219.5 -79t-81.5 -216v-357q0 -136 84 -215.5t217 -79.5q137 0 213.5 70t87.5 203h84q-5 -158 -110.5 -255t-274.5 -97z" />
    <glyph glyph-name="uni0442" unicode="&#x442;" horiz-adv-x="983" 
d="M903 1065v-80h-371v-987h-83v987h-369v80h823z" />
    <glyph glyph-name="uni0443" unicode="&#x443;" horiz-adv-x="905" 
d="M141 -410v80h41q90 0 143.5 45.5t82.5 147.5l38 137h-71l-322 1065h86l297 -993h33l297 993h86l-371 -1231q-72 -244 -295 -244h-45z" />
    <glyph glyph-name="uni0444" unicode="&#x444;" horiz-adv-x="1134" 
d="M608 1085q172 -3 273.5 -103.5t101.5 -270.5v-357q0 -170 -101.5 -270.5t-273.5 -103.5v-390h-80v390q-173 3 -274.5 103.5t-101.5 270.5v357q0 170 101.5 270.5t274.5 103.5v390h80v-390zM236 354q0 -140 75.5 -217t216.5 -78v947q-141 -1 -216.5 -78t-75.5 -217v-357z
M899 354v357q0 140 -76 217t-215 78v-947q139 1 215 78t76 217z" />
    <glyph glyph-name="uni0445" unicode="&#x445;" horiz-adv-x="878" 
d="M827 0h-92l-297 471l-297 -471h-92l344 543l-334 522h93l290 -457l287 457h92l-334 -528z" />
    <glyph glyph-name="uni0446" unicode="&#x446;" horiz-adv-x="1126" 
d="M942 -238v238h-770v1065h84v-985h551v985h84v-985h135v-318h-84z" />
    <glyph glyph-name="uni0447" unicode="&#x447;" horiz-adv-x="1048" 
d="M801 0v467h-299q-182 0 -281.5 92t-99.5 262v244h84v-244q0 -130 78 -202t219 -72h299v518h84v-1065h-84z" />
    <glyph glyph-name="uni0448" unicode="&#x448;" horiz-adv-x="1208" 
d="M172 0v1065h84v-985h305v985h84v-985h307v985h84v-1065h-864z" />
    <glyph glyph-name="uni0449" unicode="&#x449;" horiz-adv-x="1271" 
d="M1087 -238v238h-915v1065h84v-985h305v985h84v-985h307v985h84v-985h135v-318h-84z" />
    <glyph glyph-name="uni044A" unicode="&#x44a;" horiz-adv-x="1116" 
d="M592 719q192 0 300.5 -98t108.5 -263t-108.5 -261.5t-300.5 -96.5h-359v993h-202v72h286v-346h275zM596 80q155 0 238.5 72t83.5 204q0 135 -83.5 209t-238.5 74h-279v-559h279z" />
    <glyph glyph-name="uni044B" unicode="&#x44b;" horiz-adv-x="1341" 
d="M172 0v1065h84v-346h274q193 0 301.5 -98t108.5 -263t-109 -261.5t-301 -96.5h-358zM1087 0v1065h82v-1065h-82zM256 80h279q155 0 238 72t83 204q0 135 -83 209t-238 74h-279v-559z" />
    <glyph glyph-name="uni044C" unicode="&#x44c;" horiz-adv-x="1054" 
d="M172 0v1065h84v-346h274q193 0 301.5 -98t108.5 -263t-109 -261.5t-301 -96.5h-358zM256 80h279q155 0 238 72t83 204q0 135 -83 209t-238 74h-279v-559z" />
    <glyph glyph-name="uni044D" unicode="&#x44d;" horiz-adv-x="1044" 
d="M504 -20q-171 0 -276.5 95t-116.5 257h84q12 -129 93.5 -201t213.5 -72q143 0 225 77.5t82 221.5v150h-377v82h377v131q0 134 -82.5 209.5t-224.5 75.5q-134 0 -214.5 -69.5t-92.5 -197.5h-84q11 159 114.5 252.5t276.5 93.5q179 0 285 -98.5t106 -265.5v-363
q0 -174 -105.5 -276t-283.5 -102z" />
    <glyph glyph-name="uni044E" unicode="&#x44e;" horiz-adv-x="1443" 
d="M909 1085q175 0 279 -101.5t104 -272.5v-357q0 -171 -104 -272.5t-279 -101.5t-279 101.5t-104 272.5v148h-272v-502h-82v1065h82v-481h272v127q0 171 104 272.5t279 101.5zM1208 354v357q0 137 -81 216t-218 79t-218 -79t-81 -216v-357q0 -137 81 -216t218 -79t218 79
t81 216z" />
    <glyph glyph-name="uni044F" unicode="&#x44f;" horiz-adv-x="1099" 
d="M532 1065h396v-1065h-84v473h-307l-306 -473h-104l311 477q-133 15 -212 92.5t-79 204.5q0 145 104 218t281 73zM844 553v432h-305q-67 0 -119 -9t-96.5 -31.5t-68.5 -65.5t-24 -105q0 -111 74.5 -166t210.5 -55h328z" />
    <glyph glyph-name="uni0451" unicode="&#x451;" horiz-adv-x="1073" 
d="M256 1270v151h119v-151h-119zM696 1270v151h119v-151h-119zM838 332h84q-7 -163 -111 -257.5t-274 -94.5q-177 0 -281 101t-104 273v357q0 172 104 273t281 101t280 -100.5t103 -273.5v-191h-684v-166q0 -136 83.5 -215.5t217.5 -79.5q136 0 213 70.5t88 202.5zM537 1006
q-138 0 -219.5 -79t-81.5 -216v-111h600v111q0 137 -81 216t-218 79z" />
    <glyph glyph-name="uni0452" unicode="&#x452;" horiz-adv-x="1103" 
d="M555 1085q178 0 281.5 -100.5t103.5 -273.5v-865q0 -256 -270 -256h-82v82h82q85 0 135.5 40t50.5 128v871q0 136 -81.5 215.5t-217.5 79.5t-218.5 -81.5t-82.5 -213.5v-711h-84v1247h-139v80h139v148h84v-148h387v-80h-387v-301q50 70 130.5 104.5t168.5 34.5z" />
    <glyph glyph-name="uni0453" unicode="&#x453;" horiz-adv-x="888" 
d="M387 1249l135 277h96l-159 -277h-72zM172 0v1065h643v-80h-559v-985h-84z" />
    <glyph glyph-name="uni0454" unicode="&#x454;" horiz-adv-x="1032" 
d="M537 59q137 0 213.5 70t87.5 203h84q-5 -158 -110.5 -255t-274.5 -97q-177 0 -281 101t-104 273v357q0 172 104 273t281 101q167 0 274.5 -96t110.5 -250h-84q-9 125 -89 196t-212 71q-138 0 -219.5 -79t-81.5 -216v-121h378v-82h-378v-154q0 -136 84 -215.5t217 -79.5z
" />
    <glyph glyph-name="uni0455" unicode="&#x455;" horiz-adv-x="993" 
d="M496 -20q-107 0 -194 37.5t-141.5 118t-54.5 192.5h84q0 -125 84 -198t222 -73q137 0 219 63.5t82 158.5q0 80 -55 124t-171 80l-168 54q-65 20 -109.5 41t-83.5 51.5t-58 73.5t-19 100q0 126 101.5 204t263.5 78q179 0 274.5 -84t101.5 -227h-83q-17 234 -293 234
q-128 0 -204.5 -57t-76.5 -144q0 -79 51 -119t166 -76l170 -53q142 -44 209.5 -105.5t67.5 -170.5q0 -137 -108 -220t-277 -83z" />
    <glyph glyph-name="uni0456" unicode="&#x456;" horiz-adv-x="425" 
d="M162 1270v151h102v-151h-102zM172 0v1065h82v-1065h-82z" />
    <glyph glyph-name="uni0457" unicode="&#x457;" horiz-adv-x="425" 
d="M4 1270v151h119v-151h-119zM301 1270v151h119v-151h-119zM172 0v1065h82v-1065h-82z" />
    <glyph glyph-name="uni0458" unicode="&#x458;" horiz-adv-x="471" 
d="M188 1270v151h103v-151h-103zM-41 -410v80h43q93 0 144 45t51 158v1192h84v-1200q0 -151 -73.5 -213t-205.5 -62h-43z" />
    <glyph glyph-name="uni0459" unicode="&#x459;" horiz-adv-x="1708" 
d="M1184 719q192 0 300.5 -98t108.5 -263t-108.5 -261.5t-300.5 -96.5h-359v985h-528v-735q0 -131 -63.5 -190.5t-172.5 -59.5h-22v80h27q69 0 108 36.5t39 129.5v819h696v-346h275zM1188 80q155 0 238 72t83 204q0 135 -83 209t-238 74h-279v-559h279z" />
    <glyph glyph-name="uni045A" unicode="&#x45a;" horiz-adv-x="1730" 
d="M1247 629q177 0 273 -81.5t96 -219.5q0 -161 -95 -244.5t-274 -83.5h-399v549h-592v-549h-84v1065h84v-436h592v436h84v-436h315zM1251 80q142 0 211.5 59.5t69.5 186.5q0 108 -71.5 165.5t-209.5 57.5h-319v-469h319z" />
    <glyph glyph-name="uni045B" unicode="&#x45b;" horiz-adv-x="1103" 
d="M555 1085q178 0 281.5 -100.5t103.5 -273.5v-711h-84v711q0 136 -81.5 215.5t-217.5 79.5t-218.5 -81.5t-82.5 -213.5v-711h-84v1247h-139v80h139v148h84v-148h387v-80h-387v-301q50 70 130.5 104.5t168.5 34.5z" />
    <glyph glyph-name="uni045C" unicode="&#x45c;" horiz-adv-x="1009" 
d="M700 1526l-159 -277h-72l135 277h96zM524 561l422 -561h-106l-396 518h-188v-518h-84v1065h84v-475h188l381 475h105z" />
    <glyph glyph-name="uni045E" unicode="&#x45e;" horiz-adv-x="905" 
d="M453 1219q-109 0 -181.5 61.5t-95.5 179.5h84q14 -82 66 -123t127 -41t126.5 41t65.5 123h84q-21 -118 -94 -179.5t-182 -61.5zM141 -410v80h41q90 0 143.5 45.5t82.5 147.5l38 137h-71l-322 1065h86l297 -993h33l297 993h86l-371 -1231q-72 -244 -295 -244h-45z" />
    <glyph glyph-name="uni045F" unicode="&#x45f;" horiz-adv-x="1101" 
d="M508 -238v238h-336v1065h84v-985h590v985h84v-1065h-338v-238h-84z" />
    <glyph glyph-name="uni0490" unicode="&#x490;" horiz-adv-x="962" 
d="M172 0v1475h666v180h84v-260h-666v-1395h-84z" />
    <glyph glyph-name="uni0491" unicode="&#x491;" horiz-adv-x="888" 
d="M731 1309h84v-324h-559v-985h-84v1065h559v244z" />
    <glyph glyph-name="uni1E0D" unicode="&#x1e0d;" horiz-adv-x="1091" 
d="M836 1475h84v-1475h-84v119q-50 -70 -130.5 -104.5t-168.5 -34.5q-177 0 -281 101t-104 273v357q0 173 103.5 273.5t281.5 100.5q88 0 168.5 -34.5t130.5 -104.5v529zM535 59q136 0 218.5 81.5t82.5 213.5v357q0 132 -82.5 213.5t-218.5 81.5t-217.5 -79.5t-81.5 -215.5
v-357q0 -137 81 -216t218 -79zM487 -311v131h119v-131h-119z" />
    <glyph glyph-name="uni1E25" unicode="&#x1e25;" horiz-adv-x="1103" 
d="M555 1085q178 0 281.5 -100.5t103.5 -273.5v-711h-84v711q0 136 -81.5 215.5t-217.5 79.5t-218.5 -81.5t-82.5 -213.5v-711h-84v1475h84v-529q50 70 130.5 104.5t168.5 34.5zM494 -311v131h118v-131h-118z" />
    <glyph glyph-name="uni1E63" unicode="&#x1e63;" horiz-adv-x="993" 
d="M496 -20q-107 0 -194 37.5t-141.5 118t-54.5 192.5h84q0 -125 84 -198t222 -73q137 0 219 63.5t82 158.5q0 80 -55 124t-171 80l-168 54q-65 20 -109.5 41t-83.5 51.5t-58 73.5t-19 100q0 126 101.5 204t263.5 78q179 0 274.5 -84t101.5 -227h-83q-17 234 -293 234
q-128 0 -204.5 -57t-76.5 -144q0 -79 51 -119t166 -76l170 -53q142 -44 209.5 -105.5t67.5 -170.5q0 -137 -108 -220t-277 -83zM438 -311v131h119v-131h-119z" />
    <glyph glyph-name="uni1E6D" unicode="&#x1e6d;" horiz-adv-x="710" 
d="M629 985h-275v-735q0 -92 39.5 -131t124.5 -39h90v-80h-100q-238 0 -238 225v760h-198v80h198v410h84v-410h275v-80zM379 -311v131h119v-131h-119z" />
    <glyph glyph-name="Wgrave" unicode="&#x1e80;" horiz-adv-x="1607" 
d="M840 1597h-72l-160 277h97zM1444 1475h90l-303 -1475h-117l-309 1286l-311 -1286h-117l-303 1475h90l272 -1393l326 1393h84l325 -1393z" />
    <glyph glyph-name="wgrave" unicode="&#x1e81;" horiz-adv-x="1357" 
d="M664 1249l-160 277h96l135 -277h-71zM328 0l-250 1065h86l225 -985h4l238 985h96l238 -985h4l225 985h86l-250 -1065h-125l-225 938h-2l-225 -938h-125z" />
    <glyph glyph-name="Wacute" unicode="&#x1e82;" horiz-adv-x="1607" 
d="M999 1874l-159 -277h-72l135 277h96zM1444 1475h90l-303 -1475h-117l-309 1286l-311 -1286h-117l-303 1475h90l272 -1393l326 1393h84l325 -1393z" />
    <glyph glyph-name="wacute" unicode="&#x1e83;" horiz-adv-x="1357" 
d="M643 1249l135 277h96l-159 -277h-72zM328 0l-250 1065h86l225 -985h4l238 985h96l238 -985h4l225 985h86l-250 -1065h-125l-225 938h-2l-225 -938h-125z" />
    <glyph glyph-name="Wdieresis" unicode="&#x1e84;" horiz-adv-x="1607" 
d="M643 1749v-152h-119v152h119zM1083 1749v-152h-118v152h118zM1444 1475h90l-303 -1475h-117l-309 1286l-311 -1286h-117l-303 1475h90l272 -1393l326 1393h84l325 -1393z" />
    <glyph glyph-name="wdieresis" unicode="&#x1e85;" horiz-adv-x="1357" 
d="M399 1270v151h119v-151h-119zM840 1270v151h118v-151h-118zM328 0l-250 1065h86l225 -985h4l238 985h96l238 -985h4l225 985h86l-250 -1065h-125l-225 938h-2l-225 -938h-125z" />
    <glyph glyph-name="uni1E93" unicode="&#x1e93;" horiz-adv-x="917" 
d="M170 72h670v-72h-748v92l615 901h-592v72h673v-86zM401 -311v131h119v-131h-119z" />
    <glyph glyph-name="uni1EA0" unicode="&#x1ea0;" horiz-adv-x="1089" 
d="M950 0l-119 434h-573l-119 -434h-80l402 1475h168l401 -1475h-80zM281 514h528l-240 881h-49zM489 -311v131h119v-131h-119z" />
    <glyph glyph-name="uni1EA1" unicode="&#x1ea1;" horiz-adv-x="1056" 
d="M526 1085q169 0 268 -89.5t99 -245.5v-750h-84v137q-118 -157 -334 -157q-162 0 -259 86t-97 229q0 149 103 229t284 80h303v141q0 123 -72.5 192t-210.5 69q-131 0 -201.5 -63t-76.5 -171h-86q7 147 107.5 230t256.5 83zM485 59q144 0 234 87.5t90 224.5v153h-303
q-139 0 -221 -58t-82 -165q0 -113 77 -177.5t205 -64.5zM467 -311v131h119v-131h-119z" />
    <glyph glyph-name="uni1EA2" unicode="&#x1ea2;" horiz-adv-x="1089" 
d="M543 1563v69q104 8 104 92q0 33 -21 50.5t-57 17.5q-39 0 -88 -27l-26 58q51 39 118 39q66 0 106 -38t40 -100q0 -65 -46 -111t-130 -50zM950 0l-119 434h-573l-119 -434h-80l402 1475h168l401 -1475h-80zM281 514h528l-240 881h-49z" />
    <glyph glyph-name="uni1EA3" unicode="&#x1ea3;" horiz-adv-x="1056" 
d="M522 1196v70q105 9 105 92q0 32 -21 49.5t-57 17.5q-40 0 -88 -26l-27 57q51 39 119 39q66 0 105.5 -37.5t39.5 -99.5q0 -65 -46 -111.5t-130 -50.5zM526 1085q169 0 268 -89.5t99 -245.5v-750h-84v137q-118 -157 -334 -157q-162 0 -259 86t-97 229q0 149 103 229t284 80
h303v141q0 123 -72.5 192t-210.5 69q-131 0 -201.5 -63t-76.5 -171h-86q7 147 107.5 230t256.5 83zM485 59q144 0 234 87.5t90 224.5v153h-303q-139 0 -221 -58t-82 -165q0 -113 77 -177.5t205 -64.5z" />
    <glyph glyph-name="uni1EA4" unicode="&#x1ea4;" horiz-adv-x="1089" 
d="M780 2071l-182 -164h-96l182 164h96zM547 1759l-158 -141h-104l225 209h72l227 -209h-102zM629 1475l401 -1475h-80l-119 434h-573l-119 -434h-80l402 1475h168zM281 514h528l-240 881h-49z" />
    <glyph glyph-name="uni1EA5" unicode="&#x1ea5;" horiz-adv-x="1056" 
d="M778 1661l-182 -164h-96l182 164h96zM545 1350l-158 -142h-104l225 209h72l227 -209h-102zM526 1085q169 0 268 -89.5t99 -245.5v-750h-84v137q-118 -157 -334 -157q-162 0 -259 86t-97 229q0 149 103 229t284 80h303v141q0 123 -72.5 192t-210.5 69q-131 0 -201.5 -63
t-76.5 -171h-86q7 147 107.5 230t256.5 83zM809 371v153h-303q-139 0 -221 -58t-82 -165q0 -113 77 -177.5t205 -64.5q144 0 234 87.5t90 224.5z" />
    <glyph glyph-name="uni1EA6" unicode="&#x1ea6;" horiz-adv-x="1089" 
d="M610 1907h-96l-182 164h96zM547 1759l-158 -141h-104l225 209h72l227 -209h-102zM629 1475l401 -1475h-80l-119 434h-573l-119 -434h-80l402 1475h168zM281 514h528l-240 881h-49z" />
    <glyph glyph-name="uni1EA7" unicode="&#x1ea7;" horiz-adv-x="1056" 
d="M594 1497h-96l-183 164h97zM545 1350l-158 -142h-104l225 209h72l227 -209h-102zM526 1085q169 0 268 -89.5t99 -245.5v-750h-84v137q-118 -157 -334 -157q-162 0 -259 86t-97 229q0 149 103 229t284 80h303v141q0 123 -72.5 192t-210.5 69q-131 0 -201.5 -63t-76.5 -171
h-86q7 147 107.5 230t256.5 83zM809 371v153h-303q-139 0 -221 -58t-82 -165q0 -113 77 -177.5t205 -64.5q144 0 234 87.5t90 224.5z" />
    <glyph glyph-name="uni1EA8" unicode="&#x1ea8;" horiz-adv-x="1089" 
d="M541 2075q-41 0 -68 -27l-43 39q43 49 115 49q55 0 91 -34t36 -89q0 -63 -43.5 -103t-102.5 -40v59q34 2 57 24t23 58q0 31 -18 47.5t-47 16.5zM547 1759l-158 -141h-104l225 209h72l227 -209h-102zM629 1475l401 -1475h-80l-119 434h-573l-119 -434h-80l402 1475h168z
M281 514h528l-240 881h-49z" />
    <glyph glyph-name="uni1EA9" unicode="&#x1ea9;" horiz-adv-x="1056" 
d="M539 1665q-41 0 -68 -27l-43 39q43 49 115 49q55 0 91 -33.5t36 -88.5q0 -63 -43.5 -103.5t-102.5 -40.5v60q34 2 57 24t23 58q0 31 -18 47t-47 16zM545 1350l-158 -142h-104l225 209h72l227 -209h-102zM526 1085q169 0 268 -89.5t99 -245.5v-750h-84v137
q-118 -157 -334 -157q-162 0 -259 86t-97 229q0 149 103 229t284 80h303v141q0 123 -72.5 192t-210.5 69q-131 0 -201.5 -63t-76.5 -171h-86q7 147 107.5 230t256.5 83zM809 371v153h-303q-139 0 -221 -58t-82 -165q0 -113 77 -177.5t205 -64.5q144 0 234 87.5t90 224.5z
" />
    <glyph glyph-name="uni1EAA" unicode="&#x1eaa;" horiz-adv-x="1089" 
d="M430 1999q-48 0 -117 -72l-47 49q42 52 82 74.5t88 22.5q42 0 84 -22t81.5 -44t74.5 -22q32 0 53.5 13.5t56.5 49.5l48 -49q-42 -48 -79.5 -68t-82.5 -20q-42 0 -86.5 22t-85 44t-70.5 22zM510 1827h72l227 -209h-102l-160 141l-158 -141h-104zM629 1475l401 -1475h-80
l-119 434h-573l-119 -434h-80l402 1475h168zM281 514h528l-240 881h-49z" />
    <glyph glyph-name="uni1EAB" unicode="&#x1eab;" horiz-adv-x="1056" 
d="M416 1589q-45 0 -105 -63l-45 47q75 90 154 90q48 0 132.5 -40t121.5 -40q29 0 49 12.5t51 46.5l47 -45q-74 -88 -149 -88q-48 0 -137 40t-119 40zM508 1417h72l227 -209h-102l-160 142l-158 -142h-104zM526 1085q169 0 268 -89.5t99 -245.5v-750h-84v137
q-118 -157 -334 -157q-162 0 -259 86t-97 229q0 149 103 229t284 80h303v141q0 123 -72.5 192t-210.5 69q-131 0 -201.5 -63t-76.5 -171h-86q7 147 107.5 230t256.5 83zM809 371v153h-303q-139 0 -221 -58t-82 -165q0 -113 77 -177.5t205 -64.5q144 0 234 87.5t90 224.5z
" />
    <glyph glyph-name="uni1EAC" unicode="&#x1eac;" horiz-adv-x="1089" 
d="M551 1825l-158 -228h-82l191 277h94l190 -277h-79zM629 1475l401 -1475h-80l-119 434h-573l-119 -434h-80l402 1475h168zM281 514h528l-240 881h-49zM489 -311v131h119v-131h-119z" />
    <glyph glyph-name="uni1EAD" unicode="&#x1ead;" horiz-adv-x="1056" 
d="M305 1249l191 277h102l190 -277h-79l-162 217l-160 -217h-82zM526 1085q169 0 268 -89.5t99 -245.5v-750h-84v137q-118 -157 -334 -157q-162 0 -259 86t-97 229q0 149 103 229t284 80h303v141q0 123 -72.5 192t-210.5 69q-131 0 -201.5 -63t-76.5 -171h-86
q7 147 107.5 230t256.5 83zM485 59q144 0 234 87.5t90 224.5v153h-303q-139 0 -221 -58t-82 -165q0 -113 77 -177.5t205 -64.5zM467 -311v131h119v-131h-119z" />
    <glyph glyph-name="uni1EAE" unicode="&#x1eae;" horiz-adv-x="1089" 
d="M502 1890l182 164h96l-182 -164h-96zM549 1597q-215 0 -254 232h80q10 -81 58 -122.5t116 -41.5t116 41.5t58 122.5h80q-39 -232 -254 -232zM950 0l-119 434h-573l-119 -434h-80l402 1475h168l401 -1475h-80zM281 514h528l-240 881h-49z" />
    <glyph glyph-name="uni1EAF" unicode="&#x1eaf;" horiz-adv-x="1056" 
d="M500 1497l182 164h96l-182 -164h-96zM547 1219q-109 0 -181.5 61.5t-95.5 179.5h84q14 -82 66 -123t127 -41t126.5 41t65.5 123h84q-21 -118 -94 -179.5t-182 -61.5zM526 1085q169 0 268 -89.5t99 -245.5v-750h-84v137q-118 -157 -334 -157q-162 0 -259 86t-97 229
q0 149 103 229t284 80h303v141q0 123 -72.5 192t-210.5 69q-131 0 -201.5 -63t-76.5 -171h-86q7 147 107.5 230t256.5 83zM485 59q144 0 234 87.5t90 224.5v153h-303q-139 0 -221 -58t-82 -165q0 -113 77 -177.5t205 -64.5z" />
    <glyph glyph-name="uni1EB0" unicode="&#x1eb0;" horiz-adv-x="1089" 
d="M514 1890l-182 164h96l182 -164h-96zM549 1597q-215 0 -254 232h80q10 -81 58 -122.5t116 -41.5t116 41.5t58 122.5h80q-39 -232 -254 -232zM950 0l-119 434h-573l-119 -434h-80l402 1475h168l401 -1475h-80zM281 514h528l-240 881h-49z" />
    <glyph glyph-name="uni1EB1" unicode="&#x1eb1;" horiz-adv-x="1056" 
d="M512 1497l-182 164h96l182 -164h-96zM547 1219q-109 0 -181.5 61.5t-95.5 179.5h84q14 -82 66 -123t127 -41t126.5 41t65.5 123h84q-21 -118 -94 -179.5t-182 -61.5zM526 1085q169 0 268 -89.5t99 -245.5v-750h-84v137q-118 -157 -334 -157q-162 0 -259 86t-97 229
q0 149 103 229t284 80h303v141q0 123 -72.5 192t-210.5 69q-131 0 -201.5 -63t-76.5 -171h-86q7 147 107.5 230t256.5 83zM485 59q144 0 234 87.5t90 224.5v153h-303q-139 0 -221 -58t-82 -165q0 -113 77 -177.5t205 -64.5z" />
    <glyph glyph-name="uni1EB2" unicode="&#x1eb2;" horiz-adv-x="1089" 
d="M526 1853v60q34 2 57 24t23 58q0 31 -18 47t-47 16q-42 0 -68 -26l-43 39q43 49 115 49q55 0 91 -34t36 -89q0 -63 -43.5 -103.5t-102.5 -40.5zM549 1597q-215 0 -254 232h80q10 -81 58 -122.5t116 -41.5t116 41.5t58 122.5h80q-39 -232 -254 -232zM950 0l-119 434h-573
l-119 -434h-80l402 1475h168l401 -1475h-80zM281 514h528l-240 881h-49z" />
    <glyph glyph-name="uni1EB3" unicode="&#x1eb3;" horiz-adv-x="1056" 
d="M524 1460v60q34 2 57 24t23 58q0 31 -18 47t-47 16q-41 0 -68 -27l-43 39q43 49 115 49q55 0 91 -33.5t36 -88.5q0 -63 -43.5 -103.5t-102.5 -40.5zM547 1219q-109 0 -181.5 61.5t-95.5 179.5h84q14 -82 66 -123t127 -41t126.5 41t65.5 123h84q-21 -118 -94 -179.5
t-182 -61.5zM526 1085q169 0 268 -89.5t99 -245.5v-750h-84v137q-118 -157 -334 -157q-162 0 -259 86t-97 229q0 149 103 229t284 80h303v141q0 123 -72.5 192t-210.5 69q-131 0 -201.5 -63t-76.5 -171h-86q7 147 107.5 230t256.5 83zM485 59q144 0 234 87.5t90 224.5v153
h-303q-139 0 -221 -58t-82 -165q0 -113 77 -177.5t205 -64.5z" />
    <glyph glyph-name="uni1EB4" unicode="&#x1eb4;" horiz-adv-x="1089" 
d="M672 1907q-42 0 -86.5 22t-85 44t-70.5 22q-48 0 -117 -72l-47 49q42 52 82 74t88 22q42 0 84 -22t81.5 -44t74.5 -22q32 0 53.5 13.5t56.5 50.5l48 -49q-42 -48 -79.5 -68t-82.5 -20zM549 1597q-215 0 -254 232h80q10 -81 58 -122.5t116 -41.5t116 41.5t58 122.5h80
q-39 -232 -254 -232zM950 0l-119 434h-573l-119 -434h-80l402 1475h168l401 -1475h-80zM281 514h528l-240 881h-49z" />
    <glyph glyph-name="uni1EB5" unicode="&#x1eb5;" horiz-adv-x="1056" 
d="M672 1509q-48 0 -137 40t-119 40q-45 0 -105 -63l-45 47q75 90 154 90q48 0 132.5 -40t121.5 -40q29 0 49 12.5t51 46.5l47 -45q-74 -88 -149 -88zM547 1194q-111 0 -182.5 56t-94.5 173h84q27 -153 193 -153q165 0 192 153h84q-21 -116 -93 -172.5t-183 -56.5zM526 1085
q169 0 268 -89.5t99 -245.5v-750h-84v137q-118 -157 -334 -157q-162 0 -259 86t-97 229q0 149 103 229t284 80h303v141q0 123 -72.5 192t-210.5 69q-131 0 -201.5 -63t-76.5 -171h-86q7 147 107.5 230t256.5 83zM485 59q144 0 234 87.5t90 224.5v153h-303q-139 0 -221 -58
t-82 -165q0 -113 77 -177.5t205 -64.5z" />
    <glyph glyph-name="uni1EB6" unicode="&#x1eb6;" horiz-adv-x="1089" 
d="M549 1597q-215 0 -254 232h80q10 -81 58 -122.5t116 -41.5t116 41.5t58 122.5h80q-39 -232 -254 -232zM950 0l-119 434h-573l-119 -434h-80l402 1475h168l401 -1475h-80zM281 514h528l-240 881h-49zM489 -311v131h119v-131h-119z" />
    <glyph glyph-name="uni1EB7" unicode="&#x1eb7;" horiz-adv-x="1056" 
d="M547 1219q-109 0 -181.5 61.5t-95.5 179.5h84q14 -82 66 -123t127 -41t126.5 41t65.5 123h84q-21 -118 -94 -179.5t-182 -61.5zM526 1085q169 0 268 -89.5t99 -245.5v-750h-84v137q-118 -157 -334 -157q-162 0 -259 86t-97 229q0 149 103 229t284 80h303v141
q0 123 -72.5 192t-210.5 69q-131 0 -201.5 -63t-76.5 -171h-86q7 147 107.5 230t256.5 83zM485 59q144 0 234 87.5t90 224.5v153h-303q-139 0 -221 -58t-82 -165q0 -113 77 -177.5t205 -64.5zM467 -311v131h119v-131h-119z" />
    <glyph glyph-name="uni1EB8" unicode="&#x1eb8;" horiz-adv-x="1015" 
d="M926 1395h-670v-578h618v-80h-618v-657h670v-80h-754v1475h754v-80zM489 -311v131h119v-131h-119z" />
    <glyph glyph-name="uni1EB9" unicode="&#x1eb9;" horiz-adv-x="1073" 
d="M838 332h84q-7 -163 -111 -257.5t-274 -94.5q-177 0 -281 101t-104 273v357q0 172 104 273t281 101t280 -100.5t103 -273.5v-191h-684v-166q0 -136 83.5 -215.5t217.5 -79.5q136 0 213 70.5t88 202.5zM537 1006q-138 0 -219.5 -79t-81.5 -216v-111h600v111q0 137 -81 216
t-218 79zM477 -311v131h119v-131h-119z" />
    <glyph glyph-name="uni1EBA" unicode="&#x1eba;" horiz-adv-x="1015" 
d="M551 1563v69q104 8 104 92q0 33 -20.5 50.5t-56.5 17.5q-40 0 -89 -27l-26 58q51 39 119 39q66 0 105.5 -38t39.5 -100q0 -65 -46 -111t-130 -50zM926 1395h-670v-578h618v-80h-618v-657h670v-80h-754v1475h754v-80z" />
    <glyph glyph-name="uni1EBB" unicode="&#x1ebb;" horiz-adv-x="1073" 
d="M512 1196v70q104 8 104 92q0 32 -20.5 49.5t-56.5 17.5q-40 0 -88 -26l-27 57q51 39 119 39q66 0 105.5 -37.5t39.5 -99.5q0 -65 -46 -111.5t-130 -50.5zM838 332h84q-7 -163 -111 -257.5t-274 -94.5q-177 0 -281 101t-104 273v357q0 172 104 273t281 101t280 -100.5
t103 -273.5v-191h-684v-166q0 -136 83.5 -215.5t217.5 -79.5q136 0 213 70.5t88 202.5zM537 1006q-138 0 -219.5 -79t-81.5 -216v-111h600v111q0 137 -81 216t-218 79z" />
    <glyph glyph-name="uni1EBC" unicode="&#x1ebc;" horiz-adv-x="1015" 
d="M696 1597q-50 0 -148 40t-130 40q-31 0 -57.5 -15t-61.5 -54l-49 41q79 98 170 98q52 0 147.5 -40t134.5 -40q33 0 57 14.5t54 51.5l41 -41q-71 -95 -158 -95zM926 1395h-670v-578h618v-80h-618v-657h670v-80h-754v1475h754v-80z" />
    <glyph glyph-name="uni1EBD" unicode="&#x1ebd;" horiz-adv-x="1073" 
d="M680 1251q-53 0 -152 44t-133 44q-50 0 -116 -69l-48 51q80 96 168 96q53 0 147.5 -44t135.5 -44q32 0 54 14t57 52l45 -52q-77 -92 -158 -92zM838 332h84q-7 -163 -111 -257.5t-274 -94.5q-177 0 -281 101t-104 273v357q0 172 104 273t281 101t280 -100.5t103 -273.5
v-191h-684v-166q0 -136 83.5 -215.5t217.5 -79.5q136 0 213 70.5t88 202.5zM537 1006q-138 0 -219.5 -79t-81.5 -216v-111h600v111q0 137 -81 216t-218 79z" />
    <glyph glyph-name="uni1EBE" unicode="&#x1ebe;" horiz-adv-x="1015" 
d="M788 2071l-182 -164h-96l182 164h96zM555 1759l-158 -141h-104l225 209h72l227 -209h-102zM926 1395h-670v-578h618v-80h-618v-657h670v-80h-754v1475h754v-80z" />
    <glyph glyph-name="uni1EBF" unicode="&#x1ebf;" horiz-adv-x="1073" 
d="M768 1661l-182 -164h-97l183 164h96zM535 1350l-158 -142h-105l226 209h71l228 -209h-103zM838 332h84q-7 -163 -111 -257.5t-274 -94.5q-177 0 -281 101t-104 273v357q0 172 104 273t281 101t280 -100.5t103 -273.5v-191h-684v-166q0 -136 83.5 -215.5t217.5 -79.5
q136 0 213 70.5t88 202.5zM236 711v-111h600v111q0 137 -81 216t-218 79q-138 0 -219.5 -79t-81.5 -216z" />
    <glyph glyph-name="uni1EC0" unicode="&#x1ec0;" horiz-adv-x="1015" 
d="M618 1907h-96l-182 164h96zM555 1759l-158 -141h-104l225 209h72l227 -209h-102zM926 1395h-670v-578h618v-80h-618v-657h670v-80h-754v1475h754v-80z" />
    <glyph glyph-name="uni1EC1" unicode="&#x1ec1;" horiz-adv-x="1073" 
d="M584 1497h-97l-182 164h96zM535 1350l-158 -142h-105l226 209h71l228 -209h-103zM838 332h84q-7 -163 -111 -257.5t-274 -94.5q-177 0 -281 101t-104 273v357q0 172 104 273t281 101t280 -100.5t103 -273.5v-191h-684v-166q0 -136 83.5 -215.5t217.5 -79.5
q136 0 213 70.5t88 202.5zM236 711v-111h600v111q0 137 -81 216t-218 79q-138 0 -219.5 -79t-81.5 -216z" />
    <glyph glyph-name="uni1EC2" unicode="&#x1ec2;" horiz-adv-x="1015" 
d="M549 2075q-41 0 -68 -27l-43 39q43 49 115 49q55 0 91 -34t36 -89q0 -63 -43 -103t-102 -40v59q33 2 56 24t23 58q0 31 -18 47.5t-47 16.5zM555 1759l-158 -141h-104l225 209h72l227 -209h-102zM926 1395h-670v-578h618v-80h-618v-657h670v-80h-754v1475h754v-80z" />
    <glyph glyph-name="uni1EC3" unicode="&#x1ec3;" horiz-adv-x="1073" 
d="M528 1665q-40 0 -67 -27l-43 39q43 49 114 49q55 0 91 -33.5t36 -88.5q0 -63 -43 -103.5t-102 -40.5v60q34 2 57 24t23 58q0 31 -18.5 47t-47.5 16zM535 1350l-158 -142h-105l226 209h71l228 -209h-103zM838 332h84q-7 -163 -111 -257.5t-274 -94.5q-177 0 -281 101
t-104 273v357q0 172 104 273t281 101t280 -100.5t103 -273.5v-191h-684v-166q0 -136 83.5 -215.5t217.5 -79.5q136 0 213 70.5t88 202.5zM236 711v-111h600v111q0 137 -81 216t-218 79q-138 0 -219.5 -79t-81.5 -216z" />
    <glyph glyph-name="uni1EC4" unicode="&#x1ec4;" horiz-adv-x="1015" 
d="M438 1999q-26 0 -52 -16t-64 -56l-48 49q42 52 82 74.5t88 22.5q42 0 84 -22t81.5 -44t74.5 -22q32 0 54 13.5t57 49.5l47 -49q-42 -48 -79.5 -68t-82.5 -20q-42 0 -86.5 22t-85 44t-70.5 22zM518 1827h72l227 -209h-102l-160 141l-158 -141h-104zM926 1395h-670v-578
h618v-80h-618v-657h670v-80h-754v1475h754v-80z" />
    <glyph glyph-name="uni1EC5" unicode="&#x1ec5;" horiz-adv-x="1073" 
d="M406 1589q-45 0 -105 -63l-45 47q75 90 154 90q48 0 132.5 -40t121.5 -40q29 0 49 12.5t51 46.5l47 -45q-74 -88 -149 -88q-48 0 -137 40t-119 40zM498 1417h71l228 -209h-103l-159 142l-158 -142h-105zM838 332h84q-7 -163 -111 -257.5t-274 -94.5q-177 0 -281 101
t-104 273v357q0 172 104 273t281 101t280 -100.5t103 -273.5v-191h-684v-166q0 -136 83.5 -215.5t217.5 -79.5q136 0 213 70.5t88 202.5zM236 711v-111h600v111q0 137 -81 216t-218 79q-138 0 -219.5 -79t-81.5 -216z" />
    <glyph glyph-name="uni1EC6" unicode="&#x1ec6;" horiz-adv-x="1015" 
d="M559 1825l-158 -228h-82l191 277h94l191 -277h-80zM926 1395h-670v-578h618v-80h-618v-657h670v-80h-754v1475h754v-80zM489 -311v131h119v-131h-119z" />
    <glyph glyph-name="uni1EC7" unicode="&#x1ec7;" horiz-adv-x="1073" 
d="M295 1249l190 277h103l190 -277h-80l-161 217l-160 -217h-82zM838 332h84q-7 -163 -111 -257.5t-274 -94.5q-177 0 -281 101t-104 273v357q0 172 104 273t281 101t280 -100.5t103 -273.5v-191h-684v-166q0 -136 83.5 -215.5t217.5 -79.5q136 0 213 70.5t88 202.5z
M537 1006q-138 0 -219.5 -79t-81.5 -216v-111h600v111q0 137 -81 216t-218 79zM477 -311v131h119v-131h-119z" />
    <glyph glyph-name="uni1EC8" unicode="&#x1ec8;" horiz-adv-x="428" 
d="M209 1563v69q104 8 104 92q0 33 -20.5 50.5t-56.5 17.5q-40 0 -89 -27l-26 58q51 39 119 39q66 0 105.5 -38t39.5 -100q0 -65 -46 -111t-130 -50zM172 0v1475h84v-1475h-84z" />
    <glyph glyph-name="uni1EC9" unicode="&#x1ec9;" horiz-adv-x="425" 
d="M188 1196v70q105 9 105 92q0 32 -21 49.5t-57 17.5q-40 0 -88 -26l-27 57q51 39 119 39q66 0 106 -37.5t40 -99.5q0 -65 -46.5 -111.5t-130.5 -50.5zM172 0v1065h82v-1065h-82z" />
    <glyph glyph-name="uni1ECA" unicode="&#x1eca;" horiz-adv-x="428" 
d="M172 0v1475h84v-1475h-84zM156 -311v131h118v-131h-118z" />
    <glyph glyph-name="uni1ECB" unicode="&#x1ecb;" horiz-adv-x="425" 
d="M162 1270v151h102v-151h-102zM172 0v1065h82v-1065h-82zM154 -311v131h118v-131h-118z" />
    <glyph glyph-name="uni1ECC" unicode="&#x1ecc;" 
d="M549 -20q-176 0 -286.5 106t-110.5 287v735q0 170 112.5 278.5t284.5 108.5t284.5 -108.5t112.5 -278.5v-735q0 -181 -110.5 -287t-286.5 -106zM549 59q135 0 224 87.5t89 226.5v731q0 140 -87.5 225.5t-225.5 85.5t-225.5 -85.5t-87.5 -225.5v-731q0 -139 89 -226.5
t224 -87.5zM489 -311v131h119v-131h-119z" />
    <glyph glyph-name="uni1ECD" unicode="&#x1ecd;" horiz-adv-x="1069" 
d="M535 -20q-175 0 -279 101.5t-104 272.5v357q0 171 104 272.5t279 101.5t279 -101.5t104 -272.5v-357q0 -171 -104 -272.5t-279 -101.5zM535 59q137 0 218 79t81 216v357q0 137 -81 216t-218 79t-218 -79t-81 -216v-357q0 -137 81 -216t218 -79zM475 -311v131h119v-131
h-119z" />
    <glyph glyph-name="uni1ECE" unicode="&#x1ece;" 
d="M543 1563v69q104 8 104 92q0 33 -21 50.5t-57 17.5q-39 0 -88 -27l-26 58q51 39 118 39q66 0 106 -38t40 -100q0 -65 -46 -111t-130 -50zM549 -20q-176 0 -286.5 106t-110.5 287v735q0 170 112.5 278.5t284.5 108.5t284.5 -108.5t112.5 -278.5v-735q0 -181 -110.5 -287
t-286.5 -106zM549 59q135 0 224 87.5t89 226.5v731q0 140 -87.5 225.5t-225.5 85.5t-225.5 -85.5t-87.5 -225.5v-731q0 -139 89 -226.5t224 -87.5z" />
    <glyph glyph-name="uni1ECF" unicode="&#x1ecf;" horiz-adv-x="1069" 
d="M510 1196v70q104 8 104 92q0 32 -20.5 49.5t-56.5 17.5q-40 0 -88 -26l-27 57q51 39 119 39q66 0 105.5 -37.5t39.5 -99.5q0 -65 -46 -111.5t-130 -50.5zM535 -20q-175 0 -279 101.5t-104 272.5v357q0 171 104 272.5t279 101.5t279 -101.5t104 -272.5v-357
q0 -171 -104 -272.5t-279 -101.5zM535 59q137 0 218 79t81 216v357q0 137 -81 216t-218 79t-218 -79t-81 -216v-357q0 -137 81 -216t218 -79z" />
    <glyph glyph-name="uni1ED0" unicode="&#x1ed0;" 
d="M780 2071l-182 -164h-96l182 164h96zM547 1759l-158 -141h-104l225 209h72l227 -209h-102zM549 1495q172 0 284.5 -108.5t112.5 -278.5v-735q0 -181 -110.5 -287t-286.5 -106t-286.5 106t-110.5 287v735q0 170 112.5 278.5t284.5 108.5zM862 373v731q0 140 -87.5 225.5
t-225.5 85.5t-225.5 -85.5t-87.5 -225.5v-731q0 -139 89 -226.5t224 -87.5t224 87.5t89 226.5z" />
    <glyph glyph-name="uni1ED1" unicode="&#x1ed1;" horiz-adv-x="1069" 
d="M766 1661l-182 -164h-97l183 164h96zM532 1350l-157 -142h-105l226 209h71l228 -209h-103zM535 1085q175 0 279 -101.5t104 -272.5v-357q0 -171 -104 -272.5t-279 -101.5t-279 101.5t-104 272.5v357q0 171 104 272.5t279 101.5zM834 354v357q0 137 -81 216t-218 79
t-218 -79t-81 -216v-357q0 -137 81 -216t218 -79t218 79t81 216z" />
    <glyph glyph-name="uni1ED2" unicode="&#x1ed2;" 
d="M610 1907h-96l-182 164h96zM547 1759l-158 -141h-104l225 209h72l227 -209h-102zM549 1495q172 0 284.5 -108.5t112.5 -278.5v-735q0 -181 -110.5 -287t-286.5 -106t-286.5 106t-110.5 287v735q0 170 112.5 278.5t284.5 108.5zM862 373v731q0 140 -87.5 225.5
t-225.5 85.5t-225.5 -85.5t-87.5 -225.5v-731q0 -139 89 -226.5t224 -87.5t224 87.5t89 226.5z" />
    <glyph glyph-name="uni1ED3" unicode="&#x1ed3;" horiz-adv-x="1069" 
d="M582 1497h-97l-182 164h96zM532 1350l-157 -142h-105l226 209h71l228 -209h-103zM535 1085q175 0 279 -101.5t104 -272.5v-357q0 -171 -104 -272.5t-279 -101.5t-279 101.5t-104 272.5v357q0 171 104 272.5t279 101.5zM834 354v357q0 137 -81 216t-218 79t-218 -79
t-81 -216v-357q0 -137 81 -216t218 -79t218 79t81 216z" />
    <glyph glyph-name="uni1ED4" unicode="&#x1ed4;" 
d="M541 2075q-41 0 -68 -27l-43 39q43 49 115 49q55 0 91 -34t36 -89q0 -63 -43.5 -103t-102.5 -40v59q34 2 57 24t23 58q0 31 -18 47.5t-47 16.5zM547 1759l-158 -141h-104l225 209h72l227 -209h-102zM549 1495q172 0 284.5 -108.5t112.5 -278.5v-735q0 -181 -110.5 -287
t-286.5 -106t-286.5 106t-110.5 287v735q0 170 112.5 278.5t284.5 108.5zM862 373v731q0 140 -87.5 225.5t-225.5 85.5t-225.5 -85.5t-87.5 -225.5v-731q0 -139 89 -226.5t224 -87.5t224 87.5t89 226.5z" />
    <glyph glyph-name="uni1ED5" unicode="&#x1ed5;" horiz-adv-x="1069" 
d="M526 1665q-40 0 -67 -27l-43 39q43 49 114 49q55 0 91 -33.5t36 -88.5q0 -63 -43 -103.5t-102 -40.5v60q34 2 57 24t23 58q0 31 -18.5 47t-47.5 16zM532 1350l-157 -142h-105l226 209h71l228 -209h-103zM535 1085q175 0 279 -101.5t104 -272.5v-357q0 -171 -104 -272.5
t-279 -101.5t-279 101.5t-104 272.5v357q0 171 104 272.5t279 101.5zM834 354v357q0 137 -81 216t-218 79t-218 -79t-81 -216v-357q0 -137 81 -216t218 -79t218 79t81 216z" />
    <glyph glyph-name="uni1ED6" unicode="&#x1ed6;" 
d="M430 1999q-48 0 -117 -72l-47 49q42 52 82 74.5t88 22.5q42 0 84 -22t81.5 -44t74.5 -22q32 0 53.5 13.5t56.5 49.5l48 -49q-42 -48 -79.5 -68t-82.5 -20q-42 0 -86.5 22t-85 44t-70.5 22zM510 1827h72l227 -209h-102l-160 141l-158 -141h-104zM549 1495
q172 0 284.5 -108.5t112.5 -278.5v-735q0 -181 -110.5 -287t-286.5 -106t-286.5 106t-110.5 287v735q0 170 112.5 278.5t284.5 108.5zM862 373v731q0 140 -87.5 225.5t-225.5 85.5t-225.5 -85.5t-87.5 -225.5v-731q0 -139 89 -226.5t224 -87.5t224 87.5t89 226.5z" />
    <glyph glyph-name="uni1ED7" unicode="&#x1ed7;" horiz-adv-x="1069" 
d="M403 1589q-44 0 -104 -63l-45 47q75 90 154 90q48 0 132.5 -40t121.5 -40q29 0 49 12.5t51 46.5l47 -45q-74 -88 -150 -88q-48 0 -137 40t-119 40zM496 1417h71l228 -209h-103l-160 142l-157 -142h-105zM535 1085q175 0 279 -101.5t104 -272.5v-357q0 -171 -104 -272.5
t-279 -101.5t-279 101.5t-104 272.5v357q0 171 104 272.5t279 101.5zM834 354v357q0 137 -81 216t-218 79t-218 -79t-81 -216v-357q0 -137 81 -216t218 -79t218 79t81 216z" />
    <glyph glyph-name="uni1ED8" unicode="&#x1ed8;" 
d="M551 1825l-158 -228h-82l191 277h94l190 -277h-79zM549 1495q172 0 284.5 -108.5t112.5 -278.5v-735q0 -181 -110.5 -287t-286.5 -106t-286.5 106t-110.5 287v735q0 170 112.5 278.5t284.5 108.5zM862 373v731q0 140 -87.5 225.5t-225.5 85.5t-225.5 -85.5t-87.5 -225.5
v-731q0 -139 89 -226.5t224 -87.5t224 87.5t89 226.5zM489 -311v131h119v-131h-119z" />
    <glyph glyph-name="uni1ED9" unicode="&#x1ed9;" horiz-adv-x="1069" 
d="M293 1249l190 277h103l190 -277h-80l-161 217l-160 -217h-82zM535 -20q-175 0 -279 101.5t-104 272.5v357q0 171 104 272.5t279 101.5t279 -101.5t104 -272.5v-357q0 -171 -104 -272.5t-279 -101.5zM535 59q137 0 218 79t81 216v357q0 137 -81 216t-218 79t-218 -79
t-81 -216v-357q0 -137 81 -216t218 -79zM475 -311v131h119v-131h-119z" />
    <glyph glyph-name="uni1EDA" unicode="&#x1eda;" 
d="M743 1874l-159 -277h-72l135 277h96zM1038 1475h78v-181q0 -82 -40.5 -124t-112.5 -42h-17v-20v-735q0 -181 -110.5 -287t-286.5 -106t-286.5 106t-110.5 287v735q0 170 112.5 278.5t284.5 108.5q146 0 251 -79.5t136 -211.5h20q82 0 82 88v183zM862 373v731
q0 140 -87.5 225.5t-225.5 85.5t-225.5 -85.5t-87.5 -225.5v-731q0 -139 89 -226.5t224 -87.5t224 87.5t89 226.5z" />
    <glyph glyph-name="uni1EDB" unicode="&#x1edb;" horiz-adv-x="1069" 
d="M729 1526l-160 -277h-71l135 277h96zM946 1147h76v-146q0 -70 -30 -109t-93 -54q19 -62 19 -127v-357q0 -171 -104 -272.5t-279 -101.5t-279 101.5t-104 272.5v357q0 171 104 272.5t279 101.5q116 0 202.5 -46t132.5 -130q41 7 58.5 30.5t17.5 66.5v141zM834 354v357
q0 137 -81 216t-218 79t-218 -79t-81 -216v-357q0 -137 81 -216t218 -79t218 79t81 216z" />
    <glyph glyph-name="uni1EDC" unicode="&#x1edc;" 
d="M584 1597h-72l-160 277h97zM1038 1475h78v-181q0 -82 -40.5 -124t-112.5 -42h-17v-20v-735q0 -181 -110.5 -287t-286.5 -106t-286.5 106t-110.5 287v735q0 170 112.5 278.5t284.5 108.5q146 0 251 -79.5t136 -211.5h20q82 0 82 88v183zM862 373v731q0 140 -87.5 225.5
t-225.5 85.5t-225.5 -85.5t-87.5 -225.5v-731q0 -139 89 -226.5t224 -87.5t224 87.5t89 226.5z" />
    <glyph glyph-name="uni1EDD" unicode="&#x1edd;" horiz-adv-x="1069" 
d="M590 1249h-72l-160 277h97zM946 1147h76v-146q0 -70 -30 -109t-93 -54q19 -62 19 -127v-357q0 -171 -104 -272.5t-279 -101.5t-279 101.5t-104 272.5v357q0 171 104 272.5t279 101.5q116 0 202.5 -46t132.5 -130q41 7 58.5 30.5t17.5 66.5v141zM834 354v357
q0 137 -81 216t-218 79t-218 -79t-81 -216v-357q0 -137 81 -216t218 -79t218 79t81 216z" />
    <glyph glyph-name="uni1EDE" unicode="&#x1ede;" 
d="M569 1792q-39 0 -88 -27l-26 58q51 39 118 39q66 0 106 -38t40 -100q0 -65 -46 -111t-130 -50v69q104 8 104 92q0 33 -21 50.5t-57 17.5zM1038 1475h78v-181q0 -82 -40.5 -124t-112.5 -42h-17v-20v-735q0 -181 -110.5 -287t-286.5 -106t-286.5 106t-110.5 287v735
q0 170 112.5 278.5t284.5 108.5q146 0 251 -79.5t136 -211.5h20q82 0 82 88v183zM862 373v731q0 140 -87.5 225.5t-225.5 85.5t-225.5 -85.5t-87.5 -225.5v-731q0 -139 89 -226.5t224 -87.5t224 87.5t89 226.5z" />
    <glyph glyph-name="uni1EDF" unicode="&#x1edf;" horiz-adv-x="1069" 
d="M537 1425q-40 0 -88 -26l-27 57q51 39 119 39q66 0 105.5 -37.5t39.5 -99.5q0 -65 -46 -111.5t-130 -50.5v70q104 8 104 92q0 32 -20.5 49.5t-56.5 17.5zM946 1147h76v-146q0 -70 -30 -109t-93 -54q19 -62 19 -127v-357q0 -171 -104 -272.5t-279 -101.5t-279 101.5
t-104 272.5v357q0 171 104 272.5t279 101.5q116 0 202.5 -46t132.5 -130q41 7 58.5 30.5t17.5 66.5v141zM834 354v357q0 137 -81 216t-218 79t-218 -79t-81 -216v-357q0 -137 81 -216t218 -79t218 79t81 216z" />
    <glyph glyph-name="uni1EE0" unicode="&#x1ee0;" 
d="M410 1677q-31 0 -57.5 -15t-61.5 -54l-49 41q79 98 170 98q52 0 147.5 -40t134.5 -40q33 0 57 14.5t54 51.5l41 -41q-71 -95 -158 -95q-50 0 -148 40t-130 40zM1038 1475h78v-181q0 -82 -40.5 -124t-112.5 -42h-17v-20v-735q0 -181 -110.5 -287t-286.5 -106t-286.5 106
t-110.5 287v735q0 170 112.5 278.5t284.5 108.5q146 0 251 -79.5t136 -211.5h20q82 0 82 88v183zM862 373v731q0 140 -87.5 225.5t-225.5 85.5t-225.5 -85.5t-87.5 -225.5v-731q0 -139 89 -226.5t224 -87.5t224 87.5t89 226.5z" />
    <glyph glyph-name="uni1EE1" unicode="&#x1ee1;" horiz-adv-x="1069" 
d="M393 1339q-51 0 -117 -69l-47 51q80 96 168 96q53 0 147.5 -44t135.5 -44q32 0 54 14t57 52l45 -52q-77 -92 -158 -92q-53 0 -152 44t-133 44zM946 1147h76v-146q0 -70 -30 -109t-93 -54q19 -62 19 -127v-357q0 -171 -104 -272.5t-279 -101.5t-279 101.5t-104 272.5v357
q0 171 104 272.5t279 101.5q116 0 202.5 -46t132.5 -130q41 7 58.5 30.5t17.5 66.5v141zM834 354v357q0 137 -81 216t-218 79t-218 -79t-81 -216v-357q0 -137 81 -216t218 -79t218 79t81 216z" />
    <glyph glyph-name="uni1EE2" unicode="&#x1ee2;" 
d="M1038 1475h78v-181q0 -82 -40.5 -124t-112.5 -42h-17v-20v-735q0 -181 -110.5 -287t-286.5 -106t-286.5 106t-110.5 287v735q0 170 112.5 278.5t284.5 108.5q146 0 251 -79.5t136 -211.5h20q82 0 82 88v183zM862 373v731q0 140 -87.5 225.5t-225.5 85.5t-225.5 -85.5
t-87.5 -225.5v-731q0 -139 89 -226.5t224 -87.5t224 87.5t89 226.5zM489 -311v131h119v-131h-119z" />
    <glyph glyph-name="uni1EE3" unicode="&#x1ee3;" horiz-adv-x="1069" 
d="M946 1147h76v-146q0 -70 -30 -109t-93 -54q19 -62 19 -127v-357q0 -171 -104 -272.5t-279 -101.5t-279 101.5t-104 272.5v357q0 171 104 272.5t279 101.5q116 0 202.5 -46t132.5 -130q41 7 58.5 30.5t17.5 66.5v141zM834 354v357q0 137 -81 216t-218 79t-218 -79
t-81 -216v-357q0 -137 81 -216t218 -79t218 79t81 216zM475 -311v131h119v-131h-119z" />
    <glyph glyph-name="uni1EE4" unicode="&#x1ee4;" 
d="M549 -20q-176 0 -286.5 106t-110.5 287v1102h84v-1102q0 -139 89 -226.5t224 -87.5t224 87.5t89 226.5v1102h84v-1102q0 -181 -110.5 -287t-286.5 -106zM489 -311v131h119v-131h-119z" />
    <glyph glyph-name="uni1EE5" unicode="&#x1ee5;" horiz-adv-x="1103" 
d="M848 1065h84v-1065h-84v135q-53 -75 -133 -115t-180 -40q-172 0 -271.5 100t-99.5 295v690h84v-690q0 -153 77.5 -234.5t213.5 -81.5q138 0 223.5 88.5t85.5 233.5v684zM489 -311v131h119v-131h-119z" />
    <glyph glyph-name="uni1EE6" unicode="&#x1ee6;" 
d="M543 1563v69q104 8 104 92q0 33 -21 50.5t-57 17.5q-39 0 -88 -27l-26 58q51 39 118 39q66 0 106 -38t40 -100q0 -65 -46 -111t-130 -50zM549 -20q-176 0 -286.5 106t-110.5 287v1102h84v-1102q0 -139 89 -226.5t224 -87.5t224 87.5t89 226.5v1102h84v-1102
q0 -181 -110.5 -287t-286.5 -106z" />
    <glyph glyph-name="uni1EE7" unicode="&#x1ee7;" horiz-adv-x="1103" 
d="M526 1196v70q105 9 105 92q0 32 -21 49.5t-57 17.5q-40 0 -88 -26l-27 57q51 39 119 39q66 0 105.5 -37.5t39.5 -99.5q0 -65 -46 -111.5t-130 -50.5zM848 1065h84v-1065h-84v135q-53 -75 -133 -115t-180 -40q-172 0 -271.5 100t-99.5 295v690h84v-690q0 -153 77.5 -234.5
t213.5 -81.5q138 0 223.5 88.5t85.5 233.5v684z" />
    <glyph glyph-name="uni1EE8" unicode="&#x1ee8;" 
d="M743 1874l-159 -277h-72l135 277h96zM1040 1475h78v-181q0 -82 -40.5 -124t-112.5 -42h-19v-755q0 -181 -110.5 -287t-286.5 -106t-286.5 106t-110.5 287v1102h84v-1102q0 -139 89 -226.5t224 -87.5t224 87.5t89 226.5v1102h84v-271h12q82 0 82 88v183z" />
    <glyph glyph-name="uni1EE9" unicode="&#x1ee9;" horiz-adv-x="1103" 
d="M745 1526l-159 -277h-72l135 277h96zM1042 1147h76v-146q0 -85 -44.5 -125.5t-141.5 -46.5v-829h-84v135q-53 -75 -133 -115t-180 -40q-172 0 -271.5 100t-99.5 295v690h84v-690q0 -153 77.5 -234.5t213.5 -81.5q138 0 223.5 88.5t85.5 233.5v684h84v-160q61 4 85.5 27
t24.5 74v141z" />
    <glyph glyph-name="uni1EEA" unicode="&#x1eea;" 
d="M584 1597h-72l-160 277h97zM1040 1475h78v-181q0 -82 -40.5 -124t-112.5 -42h-19v-755q0 -181 -110.5 -287t-286.5 -106t-286.5 106t-110.5 287v1102h84v-1102q0 -139 89 -226.5t224 -87.5t224 87.5t89 226.5v1102h84v-271h12q82 0 82 88v183z" />
    <glyph glyph-name="uni1EEB" unicode="&#x1eeb;" horiz-adv-x="1103" 
d="M606 1249h-71l-160 277h96zM1042 1147h76v-146q0 -85 -44.5 -125.5t-141.5 -46.5v-829h-84v135q-53 -75 -133 -115t-180 -40q-172 0 -271.5 100t-99.5 295v690h84v-690q0 -153 77.5 -234.5t213.5 -81.5q138 0 223.5 88.5t85.5 233.5v684h84v-160q61 4 85.5 27t24.5 74
v141z" />
    <glyph glyph-name="uni1EEC" unicode="&#x1eec;" 
d="M569 1792q-39 0 -88 -27l-26 58q51 39 118 39q66 0 106 -38t40 -100q0 -65 -46 -111t-130 -50v69q104 8 104 92q0 33 -21 50.5t-57 17.5zM1040 1475h78v-181q0 -82 -40.5 -124t-112.5 -42h-19v-755q0 -181 -110.5 -287t-286.5 -106t-286.5 106t-110.5 287v1102h84v-1102
q0 -139 89 -226.5t224 -87.5t224 87.5t89 226.5v1102h84v-271h12q82 0 82 88v183z" />
    <glyph glyph-name="uni1EED" unicode="&#x1eed;" horiz-adv-x="1103" 
d="M553 1425q-40 0 -88 -26l-27 57q51 39 119 39q66 0 105.5 -37.5t39.5 -99.5q0 -65 -46 -111.5t-130 -50.5v70q105 9 105 92q0 32 -21 49.5t-57 17.5zM1042 1147h76v-146q0 -85 -44.5 -125.5t-141.5 -46.5v-829h-84v135q-53 -75 -133 -115t-180 -40q-172 0 -271.5 100
t-99.5 295v690h84v-690q0 -153 77.5 -234.5t213.5 -81.5q138 0 223.5 88.5t85.5 233.5v684h84v-160q61 4 85.5 27t24.5 74v141z" />
    <glyph glyph-name="uni1EEE" unicode="&#x1eee;" 
d="M410 1677q-31 0 -57.5 -15t-61.5 -54l-49 41q79 98 170 98q52 0 147.5 -40t134.5 -40q33 0 57 14.5t54 51.5l41 -41q-71 -95 -158 -95q-50 0 -148 40t-130 40zM1040 1475h78v-181q0 -82 -40.5 -124t-112.5 -42h-19v-755q0 -181 -110.5 -287t-286.5 -106t-286.5 106
t-110.5 287v1102h84v-1102q0 -139 89 -226.5t224 -87.5t224 87.5t89 226.5v1102h84v-271h12q82 0 82 88v183z" />
    <glyph glyph-name="uni1EEF" unicode="&#x1eef;" horiz-adv-x="1103" 
d="M410 1339q-51 0 -117 -69l-47 51q80 96 168 96q53 0 147 -44t135 -44q32 0 54 14t57 52l45 -52q-77 -92 -158 -92q-53 0 -151.5 44t-132.5 44zM1042 1147h76v-146q0 -85 -44.5 -125.5t-141.5 -46.5v-829h-84v135q-53 -75 -133 -115t-180 -40q-172 0 -271.5 100t-99.5 295
v690h84v-690q0 -153 77.5 -234.5t213.5 -81.5q138 0 223.5 88.5t85.5 233.5v684h84v-160q61 4 85.5 27t24.5 74v141z" />
    <glyph glyph-name="uni1EF0" unicode="&#x1ef0;" 
d="M1040 1475h78v-181q0 -82 -40.5 -124t-112.5 -42h-19v-755q0 -181 -110.5 -287t-286.5 -106t-286.5 106t-110.5 287v1102h84v-1102q0 -139 89 -226.5t224 -87.5t224 87.5t89 226.5v1102h84v-271h12q82 0 82 88v183zM489 -311v131h119v-131h-119z" />
    <glyph glyph-name="uni1EF1" unicode="&#x1ef1;" horiz-adv-x="1103" 
d="M1042 1147h76v-146q0 -85 -44.5 -125.5t-141.5 -46.5v-829h-84v135q-53 -75 -133 -115t-180 -40q-172 0 -271.5 100t-99.5 295v690h84v-690q0 -153 77.5 -234.5t213.5 -81.5q138 0 223.5 88.5t85.5 233.5v684h84v-160q61 4 85.5 27t24.5 74v141zM489 -311v131h119v-131
h-119z" />
    <glyph glyph-name="Ygrave" unicode="&#x1ef2;" horiz-adv-x="976" 
d="M522 1597h-71l-160 277h96zM825 1475h88l-383 -951v-524h-84v524l-383 951h89l337 -846z" />
    <glyph glyph-name="ygrave" unicode="&#x1ef3;" horiz-adv-x="905" 
d="M436 1249l-160 277h97l135 -277h-72zM141 -410v80h41q90 0 143.5 45.5t82.5 147.5l38 137h-71l-322 1065h86l297 -993h33l297 993h86l-371 -1231q-72 -244 -295 -244h-45z" />
    <glyph glyph-name="uni1EF4" unicode="&#x1ef4;" horiz-adv-x="976" 
d="M446 0v524l-383 951h89l337 -846l336 846h88l-383 -951v-524h-84zM428 -311v131h119v-131h-119z" />
    <glyph glyph-name="uni1EF5" unicode="&#x1ef5;" horiz-adv-x="905" 
d="M141 -410v80h41q90 0 143.5 45.5t82.5 147.5l38 137h-71l-322 1065h86l297 -993h33l297 993h86l-371 -1231q-72 -244 -295 -244h-45zM618 -311v131h119v-131h-119z" />
    <glyph glyph-name="uni1EF6" unicode="&#x1ef6;" horiz-adv-x="976" 
d="M508 1792q-38 0 -88 -27l-27 58q51 39 119 39q66 0 105.5 -38t39.5 -100q0 -65 -46 -111t-130 -50v69q105 9 105 92q0 33 -21 50.5t-57 17.5zM825 1475h88l-383 -951v-524h-84v524l-383 951h89l337 -846z" />
    <glyph glyph-name="uni1EF7" unicode="&#x1ef7;" horiz-adv-x="905" 
d="M428 1196v70q104 8 104 92q0 32 -20.5 49.5t-56.5 17.5q-40 0 -88 -26l-27 57q51 39 119 39q66 0 105.5 -37.5t39.5 -99.5q0 -65 -46 -111.5t-130 -50.5zM141 -410v80h41q90 0 143.5 45.5t82.5 147.5l38 137h-71l-322 1065h86l297 -993h33l297 993h86l-371 -1231
q-72 -244 -295 -244h-45z" />
    <glyph glyph-name="uni1EF8" unicode="&#x1ef8;" horiz-adv-x="976" 
d="M348 1677q-31 0 -57.5 -15t-61.5 -54l-49 41q79 98 170 98q52 0 148 -40t135 -40q33 0 56.5 14.5t53.5 51.5l41 -41q-71 -95 -157 -95q-50 0 -148.5 40t-130.5 40zM825 1475h88l-383 -951v-524h-84v524l-383 951h89l337 -846z" />
    <glyph glyph-name="uni1EF9" unicode="&#x1ef9;" horiz-adv-x="905" 
d="M596 1251q-53 0 -152 44t-133 44q-50 0 -116 -69l-48 51q80 96 168 96q53 0 147.5 -44t135.5 -44q32 0 54 14t57 52l45 -52q-77 -92 -158 -92zM141 -410v80h41q90 0 143.5 45.5t82.5 147.5l38 137h-71l-322 1065h86l297 -993h33l297 993h86l-371 -1231
q-72 -244 -295 -244h-45z" />
    <glyph glyph-name="endash" unicode="&#x2013;" horiz-adv-x="1087" 
d="M172 522v76h743v-76h-743z" />
    <glyph glyph-name="emdash" unicode="&#x2014;" horiz-adv-x="1734" 
d="M172 522v76h1391v-76h-1391z" />
    <glyph glyph-name="uni2015" unicode="&#x2015;" horiz-adv-x="1236" 
d="M-78 545v76h1393v-76h-1393z" />
    <glyph glyph-name="quoteleft" unicode="&#x2018;" horiz-adv-x="450" 
d="M143 1139l103 381h82l-78 -381h-107z" />
    <glyph glyph-name="quoteright" unicode="&#x2019;" horiz-adv-x="448" 
d="M123 1139l74 381h108l-102 -381h-80z" />
    <glyph glyph-name="quotesinglbase" unicode="&#x201a;" horiz-adv-x="448" 
d="M123 -229l74 381h108l-102 -381h-80z" />
    <glyph glyph-name="quotedblleft" unicode="&#x201c;" horiz-adv-x="733" 
d="M143 1139l103 381h82l-78 -381h-107zM426 1139l104 381h80l-75 -381h-109z" />
    <glyph glyph-name="quotedblright" unicode="&#x201d;" horiz-adv-x="731" 
d="M123 1139l74 381h108l-102 -381h-80zM406 1139l75 381h107l-101 -381h-81z" />
    <glyph glyph-name="quotedblbase" unicode="&#x201e;" horiz-adv-x="731" 
d="M123 -229l74 381h108l-102 -381h-80zM406 -229l75 381h107l-101 -381h-81z" />
    <glyph glyph-name="dagger" unicode="&#x2020;" horiz-adv-x="899" 
d="M735 1065v-80h-241l-2 -1126h-84l2 1126h-246v80h246v410h84v-410h241z" />
    <glyph glyph-name="daggerdbl" unicode="&#x2021;" horiz-adv-x="899" 
d="M735 985h-241l-2 -637h243v-80h-243v-409h-84v409h-244v80h244l2 637h-246v80h246v410h84v-410h241v-80z" />
    <glyph glyph-name="bullet" unicode="&#x2022;" horiz-adv-x="747" 
d="M373 522q-83 0 -142 60t-59 143t59 143t142 60t142.5 -60t59.5 -143t-59.5 -143t-142.5 -60z" />
    <glyph glyph-name="ellipsis" unicode="&#x2026;" horiz-adv-x="1376" 
d="M164 0v152h129v-152h-129zM625 0v152h127v-152h-127zM1083 0v152h129v-152h-129z" />
    <glyph glyph-name="perthousand" unicode="&#x2030;" horiz-adv-x="2189" 
d="M457 -113l555 1694h80l-551 -1694h-84zM350 782q-115 0 -181.5 65.5t-66.5 180.5v223q0 110 68 177t180 67q117 0 183.5 -65.5t66.5 -178.5v-223q0 -113 -67.5 -179.5t-182.5 -66.5zM350 856q83 0 128.5 45t45.5 127v223q0 81 -46 125.5t-128 44.5t-127 -44t-45 -126
v-223q0 -82 45 -127t127 -45zM1196 -10q-115 0 -181.5 65.5t-66.5 180.5v223q0 110 67.5 176.5t180.5 66.5q117 0 183.5 -65t66.5 -178v-223q0 -113 -67.5 -179.5t-182.5 -66.5zM1837 -10q-115 0 -181.5 65.5t-66.5 180.5v223q0 110 67.5 176.5t180.5 66.5q117 0 183.5 -65
t66.5 -178v-223q0 -113 -67.5 -179.5t-182.5 -66.5zM1196 63q83 0 128.5 45.5t45.5 127.5v223q0 81 -46 125.5t-128 44.5t-127 -44t-45 -126v-223q0 -82 45 -127.5t127 -45.5zM1837 63q83 0 128.5 45.5t45.5 127.5v223q0 81 -46 125.5t-128 44.5t-127 -44t-45 -126v-223
q0 -82 45 -127.5t127 -45.5z" />
    <glyph glyph-name="guilsinglleft" unicode="&#x2039;" horiz-adv-x="565" 
d="M414 197l-344 342l344 344v-109l-236 -235l236 -236v-106z" />
    <glyph glyph-name="guilsinglright" unicode="&#x203a;" horiz-adv-x="563" 
d="M152 197v106l237 236l-237 235v109l342 -344z" />
    <glyph glyph-name="fraction" unicode="&#x2044;" horiz-adv-x="266" 
d="M-184 -102l555 1693h80l-551 -1693h-84z" />
    <glyph glyph-name="dong" unicode="&#x20ab;" horiz-adv-x="1091" 
d="M1061 1327v-80h-141v-1247h-84v119q-50 -70 -130.5 -104.5t-168.5 -34.5q-177 0 -281 101t-104 273v357q0 173 103.5 273.5t281.5 100.5q88 0 168.5 -34.5t130.5 -104.5v301h-385v80h385v148h84v-148h141zM836 354v357q0 132 -82.5 213.5t-218.5 81.5t-217.5 -79.5
t-81.5 -215.5v-357q0 -137 81 -216t218 -79q136 0 218.5 81.5t82.5 213.5zM272 -231v71h590v-71h-590z" />
    <glyph glyph-name="Euro" unicode="&#x20ac;" horiz-adv-x="1179" 
d="M664 59q140 0 227.5 80.5t87.5 210.5h84q0 -165 -111.5 -267.5t-285.5 -102.5q-170 0 -281 106.5t-111 284.5v172h-254v75h254v232h-254v76h254v182q0 170 113 278.5t285 108.5q168 0 279 -100.5t118 -268.5h-84q-6 129 -94 209t-219 80q-138 0 -226 -85.5t-88 -225.5
v-178h336v-76h-336v-232h336v-75h-336v-158q0 -150 86 -238t220 -88z" />
    <glyph glyph-name="uni2116" unicode="&#x2116;" horiz-adv-x="1884" 
d="M1516 1495q122 0 192 -68t70 -192v-244q0 -120 -70.5 -190t-191.5 -70q-123 0 -193 68.5t-70 191.5v244q0 121 71 190.5t192 69.5zM891 82v1393h84v-1475h-139l-580 1378v-1378h-84v1475h133zM1704 991v244q0 89 -49.5 138.5t-138.5 49.5q-88 0 -138.5 -50t-50.5 -138
v-244q0 -89 50 -138.5t139 -49.5t138.5 49.5t49.5 138.5z" />
    <glyph glyph-name="uni2117" unicode="&#x2117;" horiz-adv-x="1800" 
d="M899 1464q199 0 367 -99.5t265 -269.5t97 -370t-97 -369t-264.5 -267.5t-367.5 -98.5q-199 0 -366.5 98.5t-264 267.5t-96.5 369q0 150 57 286.5t154 235.5t232 158t284 59zM899 59q135 0 257 52.5t210.5 141.5t140.5 212.5t52 259.5t-52 260t-140.5 214t-211 143
t-256.5 53q-179 0 -330.5 -90t-239 -244t-87.5 -336t87.5 -335t238.5 -242t331 -89zM952 1122q95 0 153 -57t58 -152v-51q0 -96 -57.5 -152.5t-151.5 -56.5h-170v-338h-69v807h237zM1094 862v47q0 70 -38 109t-104 39h-168v-340h170q67 0 103.5 37.5t36.5 107.5z" />
    <glyph glyph-name="trademark" unicode="&#x2122;" horiz-adv-x="1476" 
d="M102 1409v66h480v-66h-203v-670h-74v670h-203zM1126 1475h125v-736h-73v678l-170 -512h-90l-170 512v-678h-74v736h127l164 -492z" />
    <glyph glyph-name="partialdiff" unicode="&#x2202;" horiz-adv-x="1087" 
d="M422 1475q236 0 368 -134t132 -346v-641q0 -171 -104 -272.5t-279 -101.5q-178 0 -282.5 101t-104.5 273v275q0 172 104.5 273.5t282.5 101.5q88 0 168.5 -35t130.5 -105v129q0 192 -111 297t-299 105h-131v80h125zM838 354v275q0 133 -81.5 214t-217.5 81
q-139 0 -221 -79t-82 -216v-275q0 -134 84 -214.5t219 -80.5q137 0 218 79t81 216z" />
    <glyph glyph-name="emptyset" unicode="&#x2205;" horiz-adv-x="1259" 
d="M893 1014q127 -72 204 -202t77 -284q0 -148 -74 -274.5t-199.5 -200t-271.5 -73.5q-108 0 -201 38l-100 -215h-86l116 250q-124 72 -198 198.5t-74 274.5q0 152 73 280.5t198 202.5t272 74q106 0 194 -36l107 229h86zM170 530q0 -129 60 -236.5t161 -168.5l400 852
q-79 29 -162 29q-195 0 -327 -136t-132 -340zM629 59q196 0 328.5 136t132.5 335q0 133 -62 242t-168 172l-399 -854q82 -31 168 -31z" />
    <glyph glyph-name="product" unicode="&#x220f;" horiz-adv-x="1165" 
d="M172 0v1475h821v-1475h-84v1395h-653v-1395h-84z" />
    <glyph glyph-name="summation" unicode="&#x2211;" horiz-adv-x="1159" 
d="M1008 1475v-80h-744l680 -654l-682 -661h746v-80h-856v86l669 653l-669 650v86h856z" />
    <glyph glyph-name="minus" unicode="&#x2212;" horiz-adv-x="1150" 
d="M182 582v80h787v-80h-787z" />
    <glyph glyph-name="radical" unicode="&#x221a;" horiz-adv-x="1228" 
d="M463 -410l-299 1076h84l276 -1002h76l504 1811h84l-524 -1885h-201z" />
    <glyph glyph-name="infinity" unicode="&#x221e;" horiz-adv-x="1775" 
d="M1325 956q155 0 251.5 -107t96.5 -276t-96.5 -276t-251.5 -107q-78 0 -143.5 24t-119.5 71.5t-91.5 94t-83.5 116.5q-109 -172 -208.5 -239t-227.5 -67q-155 0 -252 107t-97 276t97 276t252 107q62 0 118 -17t98.5 -43.5t84 -68.5t71 -81t64.5 -93q110 169 211 236
t227 67zM457 270q103 0 186 63t195 238q-31 49 -51 78.5t-51 70t-58.5 64.5t-62.5 48t-74.5 34.5t-83.5 10.5q-125 0 -198 -86.5t-73 -217.5q0 -130 73 -216.5t198 -86.5zM1319 270q125 0 197.5 86t72.5 217t-72.5 217.5t-197.5 86.5q-102 0 -184.5 -63.5t-196.5 -238.5
q30 -48 51 -78.5t51.5 -70t58.5 -64t62.5 -47.5t74 -34t83.5 -11z" />
    <glyph glyph-name="integral" unicode="&#x222b;" horiz-adv-x="659" 
d="M528 1475h54v-80h-54q-100 0 -147 -38.5t-47 -142.5v-1368q0 -256 -271 -256h-81v82h81q85 0 136 40t51 128v1372q0 133 67.5 198t210.5 65z" />
    <glyph glyph-name="approxequal" unicode="&#x2248;" horiz-adv-x="1026" 
d="M225 711l-45 51q99 84 189 84q57 0 155.5 -51.5t141.5 -51.5q32 0 61.5 14t79.5 52l45 -51q-99 -84 -188 -84q-44 0 -104 25.5t-113 51t-80 25.5q-33 0 -63 -13.5t-79 -51.5zM227 422l-45 51q99 84 189 84q57 0 155.5 -51t141.5 -51q33 0 62.5 13.5t78.5 51.5l45 -51
q-99 -84 -188 -84q-44 0 -104 25.5t-113 51t-80 25.5q-33 0 -63 -13.5t-79 -51.5z" />
    <glyph glyph-name="notequal" unicode="&#x2260;" horiz-adv-x="1099" 
d="M963 1329l-248 -530h221v-76h-256l-111 -236h367v-75h-401l-261 -555h-86l261 555h-234v75h268l111 236h-379v76h414l248 530h86z" />
    <glyph glyph-name="lessequal" unicode="&#x2264;" horiz-adv-x="997" 
d="M821 246h-108l-535 532l535 533h108l-534 -533zM881 0h-746v80h746v-80z" />
    <glyph glyph-name="greaterequal" unicode="&#x2265;" horiz-adv-x="997" 
d="M176 246l535 532l-535 533h109l534 -533l-534 -532h-109zM117 0v80h745v-80h-745z" />
    <glyph glyph-name="lozenge" unicode="&#x25ca;" horiz-adv-x="1105" 
d="M502 0l-350 735l350 740h102l350 -740l-350 -735h-102zM553 72l309 663l-309 668l-309 -668z" />
    <glyph glyph-name="uni00A40301" horiz-adv-x="919" 
d="M424 1597l135 277h96l-159 -277h-72zM401 -20q-166 0 -261 99t-95 271h84q9 -291 272 -291q273 0 273 316v1020h-506v80h590v-1125q0 -172 -95.5 -271t-261.5 -99z" />
    <glyph glyph-name="uni006A0301" horiz-adv-x="471" 
d="M203 1249l135 277h96l-160 -277h-71zM-41 -410v80h43q93 0 144 45t51 158v1192h84v-1200q0 -151 -73.5 -213t-205.5 -62h-43z" />
    <glyph glyph-name="zero.lf" 
d="M541 -20q-179 0 -287.5 112t-108.5 293v709q0 179 112 290t296 111q181 0 290 -111t109 -292v-709q0 -180 -112.5 -291.5t-298.5 -111.5zM547 59q137 0 229 83t92 243v707q0 158 -91.5 240.5t-227.5 82.5q-64 0 -121 -20t-102 -58.5t-71 -101.5t-26 -143v-707
q0 -161 91 -243.5t227 -82.5z" />
    <glyph glyph-name="one.lf" horiz-adv-x="694" 
d="M350 0v1397l-297 -49v75l381 62v-1485h-84z" />
    <glyph glyph-name="two.lf" horiz-adv-x="1024" 
d="M125 0v205q0 72 19.5 133.5t47.5 105.5t80 90t96 76.5t117 75.5q78 49 126 83t95.5 76.5t72.5 83.5t40 92.5t15 113.5q0 129 -84 204.5t-222 75.5q-144 0 -229 -71.5t-92 -221.5h-82q5 172 111 272.5t292 100.5q175 0 282.5 -98.5t107.5 -266.5q0 -70 -18 -131
t-47.5 -108t-79.5 -94t-100.5 -83t-125.5 -83q-66 -41 -106 -68t-83.5 -61.5t-67 -65t-44.5 -70t-29 -85t-8 -101.5v-100h711v-80h-795z" />
    <glyph glyph-name="three.lf" horiz-adv-x="1011" 
d="M469 836q184 0 288.5 -100.5t104.5 -274.5v-105q0 -168 -112.5 -272t-280.5 -104t-281.5 101.5t-113.5 268.5h84q0 -131 86.5 -211t224.5 -80q139 0 224 81.5t85 213.5v107q0 136 -83 215.5t-226 79.5h-113v73l389 566h-610v80h703v-84l-385 -555h16z" />
    <glyph glyph-name="four.lf" horiz-adv-x="1005" 
d="M739 1065h84v-1065h-84v434h-673v121l415 920h84l-428 -961h602v551z" />
    <glyph glyph-name="five.lf" horiz-adv-x="1001" 
d="M496 860q172 0 282.5 -103.5t110.5 -271.5v-131q0 -169 -111.5 -271.5t-281.5 -102.5q-167 0 -281.5 101.5t-114.5 268.5h84q0 -131 87 -211t225 -80q141 0 225 81t84 214v131q0 132 -84 213.5t-225 81.5h-336v80l65 615h625v-80h-549l-57 -535h252z" />
    <glyph glyph-name="six.lf" horiz-adv-x="1069" 
d="M553 909q180 0 285.5 -107.5t105.5 -283.5v-141q0 -177 -108.5 -287t-292.5 -110q-185 0 -291.5 109.5t-106.5 287.5v618q0 212 132 346t368 134h146v-80h-152q-188 0 -299 -105t-111 -297v-245q43 76 127 118.5t197 42.5zM860 379v139q0 140 -85.5 225.5t-231.5 85.5
q-141 0 -227.5 -83.5t-86.5 -229.5v-137q0 -143 84 -231.5t230 -88.5q152 0 234.5 85t82.5 235z" />
    <glyph glyph-name="seven.lf" horiz-adv-x="952" 
d="M47 1475h836v-89l-588 -1386h-84l592 1395h-756v80z" />
    <glyph glyph-name="eight.lf" horiz-adv-x="1114" 
d="M743 760q104 -46 165 -146t61 -229q0 -182 -112 -292.5t-300 -110.5t-300 110.5t-112 292.5q0 129 61 229t165 146q-94 45 -150.5 138t-56.5 210q0 171 111 279t282 108t282 -108t111 -279q0 -117 -56.5 -210t-150.5 -138zM248 1106q0 -141 84.5 -225t224.5 -84t224.5 84
t84.5 225q0 142 -84.5 225.5t-224.5 83.5t-224.5 -83.5t-84.5 -225.5zM557 59q150 0 239 87.5t89 238.5q0 153 -89.5 245.5t-238.5 92.5t-238.5 -92.5t-89.5 -245.5q0 -151 89 -238.5t239 -87.5z" />
    <glyph glyph-name="nine.lf" horiz-adv-x="1069" 
d="M526 1495q185 0 291.5 -109.5t106.5 -287.5v-619q0 -212 -132 -345.5t-368 -133.5h-145v80h151q188 0 299 104.5t111 296.5v246q-43 -76 -127.5 -119t-196.5 -43q-180 0 -285.5 107.5t-105.5 283.5v142q0 177 108.5 287t292.5 110zM526 645q141 0 227.5 83.5t86.5 229.5
v138q0 143 -84 231t-230 88q-152 0 -234.5 -85t-82.5 -234v-140q0 -140 85.5 -225.5t231.5 -85.5z" />
    <glyph glyph-name="zero.subs" horiz-adv-x="548" 
d="M272 -195q-102 0 -156.5 55.5t-54.5 151.5v357q0 92 56.5 145t158.5 53q103 0 157 -53t54 -147v-355q0 -95 -57 -151t-158 -56zM274 -125q64 0 103 33.5t39 103.5v355q0 67 -38.5 99t-101.5 32q-65 0 -104 -33t-39 -98v-355q0 -70 38.5 -103.5t102.5 -33.5z" />
    <glyph glyph-name="one.subs" horiz-adv-x="415" 
d="M203 -184v676l-148 -25v57l219 43v-751h-71z" />
    <glyph glyph-name="two.subs" horiz-adv-x="528" 
d="M133 -113h344v-71h-416v125q0 47 19 87t49 68.5t66.5 54t73 49.5t66.5 48.5t49 57.5t19 71q0 54 -36 87.5t-99 33.5q-19 0 -38.5 -5t-42.5 -17.5t-38.5 -40t-17.5 -66.5h-70q1 32 12.5 64.5t34.5 63.5t64.5 50.5t95.5 19.5q92 0 149.5 -53.5t57.5 -138.5
q0 -53 -25.5 -98.5t-63.5 -75.5t-82 -60.5t-82 -55t-63.5 -57.5t-25.5 -69v-72z" />
    <glyph glyph-name="three.subs" horiz-adv-x="524" 
d="M258 252q97 0 151 -53t54 -148v-57q0 -85 -59 -137t-148 -52q-87 0 -146 50.5t-59 134.5h72q0 -52 37.5 -83.5t97.5 -31.5t96.5 32t36.5 85v59q0 61 -35 95t-98 34h-94v70l205 237h-289v70h375v-72l-203 -233h6z" />
    <glyph glyph-name="four.subs" horiz-adv-x="561" 
d="M387 375h72v-559h-72v211h-328v79l166 451h78l-170 -459h254v277z" />
    <glyph glyph-name="five.subs" horiz-adv-x="542" 
d="M272 250q92 0 150.5 -49.5t58.5 -132.5v-72q0 -86 -59 -138.5t-150 -52.5q-89 0 -150 50.5t-61 134.5h72q0 -52 38.5 -83.5t100.5 -31.5q63 0 100.5 33.5t37.5 87.5v72q0 51 -37.5 81.5t-100.5 30.5h-180v70l35 307h334v-70h-275l-26 -237h112z" />
    <glyph glyph-name="six.subs" horiz-adv-x="514" 
d="M264 272q93 0 146 -53t53 -143v-70q0 -90 -54 -145.5t-147 -55.5q-94 0 -147.5 55t-53.5 146v311q0 105 66 172.5t184 67.5h76v-68h-78q-80 0 -128.5 -46.5t-47.5 -127.5l2 -88q54 45 129 45zM391 6v70q0 59 -34.5 93t-94.5 34q-57 0 -93 -34t-36 -95v-68q0 -59 35 -96
t94 -37q61 0 95 36t34 97z" />
    <glyph glyph-name="seven.subs" horiz-adv-x="528" 
d="M41 557h446v-76l-307 -665h-76l310 669h-373v72z" />
    <glyph glyph-name="eight.subs" horiz-adv-x="536" 
d="M369 197q54 -20 85 -70t31 -117q0 -90 -59 -147.5t-158 -57.5t-158 57.5t-59 147.5q0 67 31.5 117t85.5 70q-48 21 -77.5 68t-29.5 106q0 85 58.5 140.5t148.5 55.5t148.5 -55.5t58.5 -140.5q0 -59 -29 -106.5t-77 -67.5zM268 498q-61 0 -98 -35t-37 -94q0 -61 36.5 -97
t98.5 -36t98.5 36t36.5 97q0 59 -37 94t-98 35zM268 -125q67 0 106.5 36.5t39.5 100.5q0 66 -40 106t-106 40t-105.5 -40t-39.5 -106q0 -64 39 -100.5t106 -36.5z" />
    <glyph glyph-name="nine.subs" horiz-adv-x="514" 
d="M252 567q94 0 147.5 -54.5t53.5 -145.5v-312q0 -105 -66 -172t-184 -67h-76v67h78q80 0 128.5 46.5t47.5 127.5l-2 88q-54 -45 -129 -45q-93 0 -146 53.5t-53 143.5v70q0 90 54 145t147 55zM252 170q57 0 93 34t36 95v68q0 59 -35 96t-94 37q-61 0 -95 -36t-34 -97v-70
q0 -59 34.5 -93t94.5 -34z" />
    <glyph glyph-name="zero.dnom" horiz-adv-x="548" 
d="M272 -10q-102 0 -156.5 55.5t-54.5 151.5v356q0 92 56.5 145.5t158.5 53.5t156.5 -53.5t54.5 -147.5v-354q0 -95 -57 -151t-158 -56zM274 59q64 0 103 34t39 104v354q0 67 -38.5 99t-101.5 32q-65 0 -104 -33t-39 -98v-354q0 -70 38.5 -104t102.5 -34z" />
    <glyph glyph-name="one.dnom" horiz-adv-x="415" 
d="M203 0v676l-148 -25v58l219 43v-752h-71z" />
    <glyph glyph-name="two.dnom" horiz-adv-x="528" 
d="M133 72h344v-72h-416v125q0 47 19 87t49 68.5t66.5 54t73 49.5t66.5 48.5t49 57.5t19 71q0 54 -36 87.5t-99 33.5q-19 0 -38.5 -5t-42.5 -17.5t-38.5 -40t-17.5 -66.5h-70q1 32 12.5 64.5t34.5 64t64.5 51t95.5 19.5q92 0 149.5 -54t57.5 -139q0 -53 -25.5 -98.5
t-63.5 -75.5t-82 -60.5t-82 -55t-63.5 -57.5t-25.5 -69v-71z" />
    <glyph glyph-name="three.dnom" horiz-adv-x="524" 
d="M258 436q97 0 151 -52.5t54 -147.5v-58q0 -85 -59 -136.5t-148 -51.5q-88 0 -146.5 50t-58.5 134h72q0 -52 37.5 -83.5t97.5 -31.5t96.5 32t36.5 85v60q0 61 -35 95t-98 34h-94v69l205 238h-289v69h375v-71l-203 -234h6z" />
    <glyph glyph-name="four.dnom" horiz-adv-x="561" 
d="M387 559h72v-559h-72v211h-328v80l166 450h78l-170 -458h254v276z" />
    <glyph glyph-name="five.dnom" horiz-adv-x="542" 
d="M272 434q92 0 150.5 -49.5t58.5 -132.5v-72q0 -86 -59 -138t-150 -52q-89 0 -150 50t-61 134h72q0 -52 38.5 -83.5t100.5 -31.5q63 0 100.5 33.5t37.5 87.5v72q0 51 -37.5 82t-100.5 31h-180v69l35 307h334v-69h-275l-26 -238h112z" />
    <glyph glyph-name="six.dnom" horiz-adv-x="514" 
d="M264 457q93 0 146 -53.5t53 -143.5v-70q0 -90 -54 -145t-147 -55q-94 0 -147.5 54.5t-53.5 145.5v312q0 105 66 172t184 67h76v-67h-78q-80 0 -128.5 -46.5t-47.5 -127.5l2 -88q54 45 129 45zM391 190v70q0 59 -34.5 93t-94.5 34q-57 0 -93 -34t-36 -95v-68q0 -59 35 -96
t94 -37q61 0 95 36t34 97z" />
    <glyph glyph-name="seven.dnom" horiz-adv-x="528" 
d="M41 741h446v-75l-307 -666h-76l310 670h-373v71z" />
    <glyph glyph-name="eight.dnom" horiz-adv-x="536" 
d="M369 381q54 -20 85 -69.5t31 -116.5q0 -90 -59 -147.5t-158 -57.5t-158 57.5t-59 147.5q0 67 31.5 116.5t85.5 69.5q-48 21 -77.5 68t-29.5 106q0 85 58.5 141t148.5 56t148.5 -56t58.5 -141q0 -59 -29 -106.5t-77 -67.5zM268 682q-61 0 -98 -35t-37 -94q0 -61 36.5 -97
t98.5 -36t98.5 36t36.5 97q0 59 -37 94t-98 35zM268 59q67 0 106.5 37t39.5 101q0 66 -40 105.5t-106 39.5t-105.5 -39.5t-39.5 -105.5q0 -64 39.5 -101t105.5 -37z" />
    <glyph glyph-name="nine.dnom" horiz-adv-x="514" 
d="M252 752q94 0 147.5 -55t53.5 -146v-311q0 -105 -66 -172.5t-184 -67.5h-76v68h78q80 0 128.5 46.5t47.5 127.5l-2 88q-54 -45 -129 -45q-93 0 -146 53t-53 143v70q0 90 54 145.5t147 55.5zM252 354q57 0 93 34t36 95v68q0 59 -35 96t-94 37q-61 0 -95 -36t-34 -97v-70
q0 -59 34.5 -93t94.5 -34z" />
    <glyph glyph-name="zero.numr" horiz-adv-x="548" 
d="M272 723q-102 0 -156.5 55.5t-54.5 151.5v356q0 92 56.5 145.5t158.5 53.5t156.5 -53.5t54.5 -147.5v-354q0 -95 -57 -151t-158 -56zM274 793q64 0 103 33.5t39 103.5v354q0 67 -38.5 99t-101.5 32q-65 0 -104 -33t-39 -98v-354q0 -70 38.5 -103.5t102.5 -33.5z" />
    <glyph glyph-name="one.numr" horiz-adv-x="415" 
d="M203 733v676l-148 -25v58l219 43v-752h-71z" />
    <glyph glyph-name="two.numr" horiz-adv-x="528" 
d="M133 805h344v-72h-416v125q0 47 19 87t49 68.5t66.5 54t73 49.5t66.5 48.5t49 57.5t19 71q0 54 -36 87.5t-99 33.5q-19 0 -38.5 -5t-42.5 -17.5t-38.5 -40t-17.5 -66.5h-70q1 32 12.5 64.5t34.5 64t64.5 51t95.5 19.5q92 0 149.5 -54t57.5 -139q0 -53 -25.5 -98.5
t-63.5 -75.5t-82 -60t-82 -54.5t-63.5 -57.5t-25.5 -69v-72z" />
    <glyph glyph-name="three.numr" horiz-adv-x="524" 
d="M258 1169q97 0 151 -52.5t54 -147.5v-58q0 -85 -59 -136.5t-148 -51.5q-88 0 -146.5 50t-58.5 134h72q0 -52 37 -83t98 -31q60 0 96.5 32t36.5 84v60q0 61 -35 95t-98 34h-94v69l205 238h-289v70h375v-72l-203 -234h6z" />
    <glyph glyph-name="four.numr" horiz-adv-x="561" 
d="M387 1292h72v-559h-72v211h-328v80l166 451h78l-170 -459h254v276z" />
    <glyph glyph-name="five.numr" horiz-adv-x="542" 
d="M272 1167q92 0 150.5 -49.5t58.5 -132.5v-72q0 -86 -59 -138t-150 -52q-89 0 -150 50t-61 134h72q0 -52 38.5 -83t100.5 -31q63 0 100.5 33t37.5 87v72q0 51 -37.5 82t-100.5 31h-180v69l35 308h334v-70h-275l-26 -238h112z" />
    <glyph glyph-name="six.numr" horiz-adv-x="514" 
d="M264 1190q93 0 146 -53.5t53 -143.5v-69q0 -90 -54 -145.5t-147 -55.5q-94 0 -147.5 55t-53.5 146v311q0 105 66 172.5t184 67.5h76v-68h-78q-80 0 -128.5 -46.5t-47.5 -127.5l2 -88q54 45 129 45zM391 924v69q0 59 -34.5 93t-94.5 34q-57 0 -93 -34t-36 -95v-67
q0 -59 35 -96t94 -37q61 0 95 36t34 97z" />
    <glyph glyph-name="seven.numr" horiz-adv-x="528" 
d="M41 1475h446v-76l-307 -666h-76l310 670h-373v72z" />
    <glyph glyph-name="eight.numr" horiz-adv-x="536" 
d="M369 1114q54 -20 85 -69.5t31 -116.5q0 -90 -59 -147.5t-158 -57.5t-158 57.5t-59 147.5q0 67 31.5 116.5t85.5 69.5q-48 21 -77.5 68t-29.5 106q0 85 58.5 141t148.5 56t148.5 -56t58.5 -141q0 -59 -29 -106.5t-77 -67.5zM268 1415q-61 0 -98 -35t-37 -94
q0 -61 36.5 -97t98.5 -36t98.5 36t36.5 97q0 59 -37 94t-98 35zM268 793q67 0 106.5 36.5t39.5 100.5q0 66 -40 105.5t-106 39.5t-105.5 -39.5t-39.5 -105.5q0 -64 39 -100.5t106 -36.5z" />
    <glyph glyph-name="nine.numr" horiz-adv-x="514" 
d="M252 1485q94 0 147.5 -55t53.5 -146v-311q0 -105 -66 -172.5t-184 -67.5h-76v68h78q80 0 128.5 46.5t47.5 127.5l-2 88q-54 -45 -129 -45q-93 0 -146 53t-53 143v70q0 90 54 145.5t147 55.5zM252 1087q57 0 93 34.5t36 95.5v67q0 59 -35 96t-94 37q-61 0 -95 -36t-34 -97
v-70q0 -59 34.5 -93t94.5 -34z" />
    <glyph glyph-name="zero.sups" horiz-adv-x="548" 
d="M272 723q-102 0 -156.5 55.5t-54.5 151.5v356q0 92 56.5 145.5t158.5 53.5t156.5 -53.5t54.5 -147.5v-354q0 -95 -57 -151t-158 -56zM274 793q64 0 103 33.5t39 103.5v354q0 67 -38.5 99t-101.5 32q-65 0 -104 -33t-39 -98v-354q0 -70 38.5 -103.5t102.5 -33.5z" />
    <glyph glyph-name="four.sups" horiz-adv-x="561" 
d="M387 1292h72v-559h-72v211h-328v80l166 451h78l-170 -459h254v276z" />
    <glyph glyph-name="five.sups" horiz-adv-x="542" 
d="M272 1167q92 0 150.5 -49.5t58.5 -132.5v-72q0 -86 -59 -138t-150 -52q-89 0 -150 50t-61 134h72q0 -52 38.5 -83t100.5 -31q63 0 100.5 33t37.5 87v72q0 51 -37.5 82t-100.5 31h-180v69l35 308h334v-70h-275l-26 -238h112z" />
    <glyph glyph-name="six.sups" horiz-adv-x="514" 
d="M264 1190q93 0 146 -53.5t53 -143.5v-69q0 -90 -54 -145.5t-147 -55.5q-94 0 -147.5 55t-53.5 146v311q0 105 66 172.5t184 67.5h76v-68h-78q-80 0 -128.5 -46.5t-47.5 -127.5l2 -88q54 45 129 45zM391 924v69q0 59 -34.5 93t-94.5 34q-57 0 -93 -34t-36 -95v-67
q0 -59 35 -96t94 -37q61 0 95 36t34 97z" />
    <glyph glyph-name="seven.sups" horiz-adv-x="528" 
d="M41 1475h446v-76l-307 -666h-76l310 670h-373v72z" />
    </font>
</defs>
</svg>
