<?xml version="1.0" standalone="no"?>
<!DOCTYPE svg PUBLIC "-//W3C//DTD SVG 1.1//EN" "http://www.w3.org/Graphics/SVG/1.1/DTD/svg11.dtd" >
<svg xmlns="http://www.w3.org/2000/svg" xmlns:xlink="http://www.w3.org/1999/xlink" version="1.1">
<metadata>
Created by FontForge 20170731 at Sun Sep 20 17:55:03 2020
 By Aleksey,,,
Copyright (c) 2015 by Mika Mischler. All rights reserved.
</metadata>
<defs>
<font id="T-StarPro-Regular" horiz-adv-x="1097" >
  <font-face 
    font-family="T-Star Pro"
    font-weight="300"
    font-stretch="normal"
    units-per-em="2048"
    panose-1="0 0 4 0 0 0 0 0 0 0"
    ascent="1638"
    descent="-410"
    x-height="1065"
    cap-height="1475"
    bbox="-887 -430 2116 2159"
    underline-thickness="102"
    underline-position="-409"
    unicode-range="U+0020-FB02"
  />
<missing-glyph horiz-adv-x="1222" 
d="M0 -410v1885h1223v-1885h-1223zM520 233h84v37q0 72 18.5 119.5t52 81.5t107.5 88q226 154 226 383q0 172 -108 270.5t-286 98.5q-86 0 -155 -24.5t-112.5 -62t-73 -88t-42 -98.5t-14.5 -96h84q11 135 94 212t219 77q139 0 224.5 -80t85.5 -209q0 -102 -42 -172
t-139 -143q-54 -41 -84.5 -67t-61 -59t-45 -65.5t-23.5 -75t-9 -96.5v-31zM494 -184h141v143h-141v-143z" />
    <glyph glyph-name="fi" unicode="fi" 
d="M612 1061v-105h-260v-956h-112v956h-174v105h174v141q0 137 69 205t215 68h66v-105h-66q-90 0 -131 -35t-41 -129v-145h260zM813 1262v170h127v-170h-127zM821 0v1065h111v-1065h-111z" />
    <glyph glyph-name="fl" unicode="fl" horiz-adv-x="1144" 
d="M612 1061v-105h-260v-956h-112v956h-174v105h174v141q0 137 69 205t215 68h66v-105h-66q-90 0 -131 -35t-41 -129v-145h260zM1061 0q-246 0 -246 236v1239h113v-1217q0 -83 35 -118.5t112 -35.5h23v-104h-37z" />
    <glyph glyph-name=".notdef" horiz-adv-x="1222" 
d="M0 -410v1885h1223v-1885h-1223zM520 233h84v37q0 72 18.5 119.5t52 81.5t107.5 88q226 154 226 383q0 172 -108 270.5t-286 98.5q-86 0 -155 -24.5t-112.5 -62t-73 -88t-42 -98.5t-14.5 -96h84q11 135 94 212t219 77q139 0 224.5 -80t85.5 -209q0 -102 -42 -172
t-139 -143q-54 -41 -84.5 -67t-61 -59t-45 -65.5t-23.5 -75t-9 -96.5v-31zM494 -184h141v143h-141v-143z" />
    <glyph glyph-name=".null" horiz-adv-x="0" 
 />
    <glyph glyph-name="nonmarkingreturn" horiz-adv-x="682" 
 />
    <glyph glyph-name="space" unicode=" " horiz-adv-x="512" 
 />
    <glyph glyph-name="exclam" unicode="!" horiz-adv-x="503" 
d="M197 434v1041h110v-1041h-110zM166 0v168h170v-168h-170z" />
    <glyph glyph-name="quotedbl" unicode="&#x22;" horiz-adv-x="692" 
d="M164 1135v389h100v-389h-100zM430 1135v389h100v-389h-100z" />
    <glyph glyph-name="numbersign" unicode="#" horiz-adv-x="1361" 
d="M1196 977h-211l-76 -481h215v-90h-229l-66 -406h-98l66 406h-346l-66 -406h-98l65 406h-198v90h213l75 481h-217v88h232l65 410h99l-66 -410h346l66 410h98l-66 -410h197v-88zM811 496l76 481h-346l-76 -481h346z" />
    <glyph glyph-name="dollar" unicode="$" horiz-adv-x="1044" 
d="M946 385q0 -165 -103.5 -274.5t-267.5 -128.5v-121h-110v121q-168 15 -267 124.5t-98 290.5h113q-1 -147 81 -228t224 -81q139 0 225 80.5t86 208.5q0 102 -59 167t-195 132l-161 80q-138 65 -213.5 154.5t-75.5 217.5q0 146 94 247t246 118v121h110v-121
q163 -15 257 -117t94 -262h-113q0 127 -79.5 199.5t-213.5 72.5q-125 0 -202.5 -72t-77.5 -177q0 -97 52 -158.5t173 -118.5l182 -88q154 -74 226.5 -164.5t72.5 -222.5z" />
    <glyph glyph-name="percent" unicode="%" horiz-adv-x="1572" 
d="M461 -111l553 1684h96l-549 -1684h-100zM356 774q-116 0 -185 67t-69 185v217q0 115 69 183.5t185 68.5q120 0 189 -67.5t69 -184.5v-217q0 -116 -70 -184t-188 -68zM356 870q75 0 116.5 41t41.5 115v219q0 73 -41 113.5t-117 40.5q-74 0 -114.5 -40.5t-40.5 -113.5v-219
q0 -73 40.5 -114.5t114.5 -41.5zM1212 -12q-116 0 -185 68t-69 184v219q0 114 69 182t185 68q120 0 189 -67t69 -183v-219q0 -116 -70 -184t-188 -68zM1212 86q75 0 116.5 41t41.5 113v219q0 73 -41 113t-117 40q-74 0 -114.5 -40t-40.5 -113v-219q0 -71 40.5 -112.5
t114.5 -41.5z" />
    <glyph glyph-name="ampersand" unicode="&#x26;" horiz-adv-x="1308" 
d="M1176 311l-72 -86l-105 90q-22 -150 -133.5 -242.5t-279.5 -92.5q-186 0 -305 106.5t-119 278.5q0 253 231 395l53 31l-14 12q-115 100 -161 177.5t-46 166.5q0 153 107 250.5t272 97.5q173 0 287.5 -108.5t114.5 -274.5h-107q-3 126 -84.5 201.5t-212.5 75.5
q-121 0 -193.5 -64t-72.5 -172q0 -71 39.5 -132t140.5 -147zM588 88q139 0 227 81.5t92 223.5l-385 332l-61 -39q-187 -117 -187 -313q0 -130 86 -207.5t228 -77.5z" />
    <glyph glyph-name="quotesingle" unicode="'" horiz-adv-x="436" 
d="M168 1135v389h100v-389h-100z" />
    <glyph glyph-name="parenleft" unicode="(" horiz-adv-x="565" 
d="M371 -430q-96 91 -129 155t-33 179v1257q0 112 34 179t126 155l71 -76q-68 -64 -96.5 -123.5t-28.5 -150.5v-1225q0 -89 29.5 -152t95.5 -120z" />
    <glyph glyph-name="parenright" unicode=")" horiz-adv-x="565" 
d="M195 -430l-70 78q66 57 95.5 120t29.5 152v1225q0 91 -28.5 150.5t-96.5 123.5l72 76q91 -88 125 -155t34 -179v-1257q0 -115 -32.5 -179t-128.5 -155z" />
    <glyph glyph-name="asterisk" unicode="*" horiz-adv-x="915" 
d="M416 829l2 254l-217 -129l-43 72l219 127l-219 125l43 72l217 -129l-2 254h84l-4 -254l219 129l43 -72l-219 -125l219 -127l-43 -72l-219 129l4 -254h-84z" />
    <glyph glyph-name="plus" unicode="+" horiz-adv-x="1142" 
d="M989 674v-109h-360v-372h-113v372h-362v109h362v356h113v-356h360z" />
    <glyph glyph-name="comma" unicode="," horiz-adv-x="552" 
d="M66 -229l161 399h144l-197 -399h-108z" />
    <glyph glyph-name="hyphen" unicode="-" horiz-adv-x="913" 
d="M166 514v98h582v-98h-582z" />
    <glyph glyph-name="period" unicode="." horiz-adv-x="495" 
d="M158 0v178h180v-178h-180z" />
    <glyph glyph-name="slash" unicode="/" horiz-adv-x="923" 
d="M98 -410l617 1885h110l-616 -1885h-111z" />
    <glyph glyph-name="zero" unicode="0" horiz-adv-x="1044" 
d="M514 -20q-177 0 -276 108t-99 291v721q0 181 102.5 288t284.5 107q179 0 279 -107.5t100 -289.5v-721q0 -181 -103 -289t-288 -108zM520 88q123 0 197 72t74 219v719q0 145 -74 216.5t-195 71.5t-194.5 -72t-73.5 -216v-719q0 -148 72.5 -219.5t193.5 -71.5z" />
    <glyph glyph-name="one" unicode="1" horiz-adv-x="1044" 
d="M590 109h311v-109h-735v109h311v1265l-287 -24v104l400 33v-1378z" />
    <glyph glyph-name="two" unicode="2" horiz-adv-x="1044" 
d="M119 0v213q0 72 19 134t46.5 106.5t79.5 92t96.5 78.5t118.5 78q72 45 117.5 77t90 72.5t68 78.5t38 87t14.5 107q0 122 -77 192t-204 70q-135 0 -213 -67t-84 -209h-112q5 177 113.5 281t295.5 104q177 0 286.5 -101t109.5 -272q0 -71 -18 -131.5t-46.5 -107t-78.5 -94
t-100 -84t-126 -84.5q-77 -48 -120 -78t-87.5 -70t-66 -77.5t-35 -87t-13.5 -111.5v-88h693v-109h-805z" />
    <glyph glyph-name="three" unicode="3" horiz-adv-x="1044" 
d="M541 846q179 -3 282 -104.5t103 -274.5v-100q0 -174 -114 -280.5t-286 -106.5q-173 0 -288 105t-115 280h115q0 -126 78.5 -201.5t209.5 -75.5q130 0 208.5 76t78.5 201v100q0 129 -77.5 203.5t-211.5 74.5h-114v93l366 530h-596v109h721v-111z" />
    <glyph glyph-name="four" unicode="4" horiz-adv-x="1044" 
d="M799 1065h114v-1065h-114v424h-662v135l410 916h117l-416 -943h551v533z" />
    <glyph glyph-name="five" unicode="5" horiz-adv-x="1044" 
d="M539 874q175 0 286 -104t111 -276v-129q0 -174 -113 -279.5t-286 -105.5q-172 0 -288 105t-116 280h113q0 -127 80 -202t211 -75q132 0 209 75.5t77 201.5v124q0 124 -78 200.5t-210 76.5h-342v100l63 609h637v-109h-535l-51 -492h232z" />
    <glyph glyph-name="six" unicode="6" horiz-adv-x="1044" 
d="M530 909q182 0 288 -104.5t106 -280.5v-153q0 -176 -109 -283.5t-293 -107.5q-185 0 -291 107t-106 284v737q0 178 107 282.5t290 104.5q182 0 291 -100t109 -265h-111q-2 119 -78.5 187.5t-208.5 68.5q-137 0 -211.5 -73.5t-74.5 -210.5v-326q50 66 129 99.5t163 33.5z
M809 373v151q0 127 -77 202t-210 75q-129 0 -206.5 -73.5t-77.5 -205.5v-149q0 -130 76 -207.5t208 -77.5q137 0 212 75.5t75 209.5z" />
    <glyph glyph-name="seven" unicode="7" horiz-adv-x="1044" 
d="M102 1475h846v-109l-577 -1366h-115l575 1366h-729v109z" />
    <glyph glyph-name="eight" unicode="8" horiz-adv-x="1044" 
d="M725 760q100 -47 158.5 -144.5t58.5 -226.5q0 -181 -115.5 -294t-304.5 -113t-303.5 113t-114.5 294q0 129 57.5 227t157.5 144q-91 52 -144.5 142t-53.5 202q0 170 113.5 280.5t287.5 110.5t288 -110.5t114 -280.5q0 -111 -53.5 -201.5t-145.5 -142.5zM236 1100
q0 -131 78 -210t208 -79t209.5 79.5t79.5 209.5q0 131 -79 208.5t-210 77.5t-208.5 -77t-77.5 -209zM522 88q140 0 222.5 81.5t82.5 221.5q0 143 -83.5 229.5t-221.5 86.5t-221.5 -86.5t-83.5 -229.5q0 -140 83 -221.5t222 -81.5z" />
    <glyph glyph-name="nine" unicode="9" horiz-adv-x="1044" 
d="M522 1495q185 0 291.5 -107t106.5 -284v-737q0 -178 -107.5 -282.5t-290.5 -104.5q-182 0 -290.5 99.5t-108.5 264.5h110q2 -119 78.5 -187.5t208.5 -68.5q137 0 212 74t75 211v325q-50 -66 -129 -99.5t-164 -33.5q-182 0 -287.5 104.5t-105.5 280.5v154
q0 176 108.5 283.5t292.5 107.5zM522 674q129 0 207 73t78 205v150q0 130 -76 207t-209 77q-137 0 -211.5 -75t-74.5 -209v-152q0 -127 76.5 -201.5t209.5 -74.5z" />
    <glyph glyph-name="colon" unicode=":" horiz-adv-x="495" 
d="M158 686v180h180v-180h-180zM158 0v178h180v-178h-180z" />
    <glyph glyph-name="semicolon" unicode=";" horiz-adv-x="493" 
d="M154 686v180h180v-180h-180zM10 -229l162 399h143l-196 -399h-109z" />
    <glyph glyph-name="less" unicode="&#x3c;" horiz-adv-x="1011" 
d="M848 1475l-535 -533l535 -532h-148l-534 532l534 533h148z" />
    <glyph glyph-name="equal" unicode="=" horiz-adv-x="1099" 
d="M207 717v98h729v-98h-729zM207 399v99h729v-99h-729z" />
    <glyph glyph-name="greater" unicode="&#x3e;" horiz-adv-x="1011" 
d="M164 0l534 532l-534 533h147l535 -533l-535 -532h-147z" />
    <glyph glyph-name="question" unicode="?" horiz-adv-x="907" 
d="M348 422v33q0 67 11 114.5t41 90t67 76t104 83.5q91 70 130.5 137.5t39.5 163.5q0 120 -77.5 193t-206.5 73t-205.5 -72t-85.5 -202h-113q2 54 16 106t45.5 103t76 89t113.5 61.5t153 23.5q185 0 292 -106t107 -265q0 -127 -57 -220t-168 -171q-52 -38 -79 -61t-50.5 -55
t-32 -68t-8.5 -88v-39h-113zM324 0v168h165v-168h-165z" />
    <glyph glyph-name="at" unicode="@" horiz-adv-x="2215" 
d="M1067 -430q-202 0 -372.5 65t-288.5 181t-184 281t-66 360q0 173 46.5 331t134 286t207 223t273.5 146.5t326 51.5q270 0 479 -106.5t323.5 -299.5t114.5 -442q0 -284 -135.5 -465.5t-333.5 -181.5q-108 0 -187.5 55t-98.5 142q-118 -174 -338 -174q-158 0 -245 100
t-56 270l59 318q30 168 136.5 268t262.5 100q96 0 173.5 -38.5t103.5 -90.5l22 109h109l-129 -656q-29 -145 24.5 -223t171.5 -78q147 0 250 149.5t103 385.5q0 351 -219.5 553.5t-593.5 202.5q-259 0 -460 -124.5t-308 -336t-107 -473.5q0 -357 220.5 -572t588.5 -215
q166 0 309 47l31 -94q-173 -55 -346 -55zM983 121q120 0 202.5 72t108.5 206l62 320q24 123 -44.5 194.5t-189.5 71.5q-113 0 -190 -75.5t-101 -200.5l-55 -303q-26 -134 29.5 -209.5t177.5 -75.5z" />
    <glyph glyph-name="A" unicode="A" 
d="M934 0l-113 418h-545l-112 -418h-111l398 1475h196l397 -1475h-110zM305 526h488l-228 840h-35z" />
    <glyph glyph-name="B" unicode="B" horiz-adv-x="1120" 
d="M756 772q107 -30 169 -122t62 -232q0 -196 -109.5 -307t-306.5 -111h-405v1475h383q405 0 405 -365q0 -125 -52 -215.5t-146 -122.5zM543 1366h-264v-545h276q146 0 216.5 75t70.5 210q0 137 -72 198.5t-227 61.5zM578 109q148 0 222 80t74 229q0 148 -81.5 221.5
t-233.5 73.5h-280v-604h299z" />
    <glyph glyph-name="C" unicode="C" horiz-adv-x="1056" 
d="M543 -20q-174 0 -287 108.5t-113 288.5v727q0 172 115 281.5t291 109.5q173 0 285 -103.5t118 -279.5h-112q-4 123 -86 198.5t-205 75.5q-130 0 -210.5 -79t-80.5 -211v-705q0 -142 78.5 -222.5t204.5 -80.5q133 0 213 76t80 201h114q0 -172 -113 -278.5t-292 -106.5z
" />
    <glyph glyph-name="D" unicode="D" horiz-adv-x="1116" 
d="M166 0v1475h401q180 0 292 -105.5t112 -269.5v-719q0 -169 -110.5 -275t-297.5 -106h-397zM279 109h272q143 0 225 71t82 201v715q0 128 -83 199t-224 71h-272v-1257z" />
    <glyph glyph-name="E" unicode="E" horiz-adv-x="1019" 
d="M934 1366h-655v-537h604v-108h-604v-612h655v-109h-768v1475h768v-109z" />
    <glyph glyph-name="F" unicode="F" horiz-adv-x="999" 
d="M934 1366h-655v-537h604v-108h-604v-721h-113v1475h768v-109z" />
    <glyph glyph-name="G" unicode="G" horiz-adv-x="1095" 
d="M549 -20q-180 0 -293 107.5t-113 289.5v727q0 172 115 281.5t291 109.5q173 0 285 -103t118 -276h-112q-4 120 -86 195t-205 75q-130 0 -210.5 -79t-80.5 -211v-715q0 -132 81.5 -212.5t209.5 -80.5t209.5 80.5t81.5 212.5v293h-305v106h417v-403q0 -177 -114 -287
t-289 -110z" />
    <glyph glyph-name="H" unicode="H" horiz-adv-x="1165" 
d="M887 1475h112v-1475h-112v715h-608v-715h-113v1475h113v-654h608v654z" />
    <glyph glyph-name="I" unicode="I" horiz-adv-x="444" 
d="M166 0v1475h113v-1475h-113z" />
    <glyph glyph-name="J" unicode="J" horiz-adv-x="919" 
d="M403 -20q-169 0 -266.5 102.5t-97.5 282.5h115q6 -277 249 -277q250 0 250 295v983h-489v109h602v-1110q0 -180 -97 -282.5t-266 -102.5z" />
    <glyph glyph-name="K" unicode="K" horiz-adv-x="1040" 
d="M852 0l-416 739l-157 -221v-518h-113v1475h113v-775l555 775h127l-453 -637l473 -838h-129z" />
    <glyph glyph-name="L" unicode="L" horiz-adv-x="962" 
d="M166 0v1475h113v-1366h653v-109h-766z" />
    <glyph glyph-name="M" unicode="M" horiz-adv-x="1327" 
d="M1008 1475h155v-1475h-112v1294l-338 -833h-97l-337 833v-1294h-113v1475h153l345 -861z" />
    <glyph glyph-name="N" unicode="N" horiz-adv-x="1146" 
d="M870 1475h111v-1475h-162l-543 1315v-1315h-110v1475h162l542 -1317v1317z" />
    <glyph glyph-name="O" unicode="O" 
d="M549 -20q-180 0 -293 107.5t-113 289.5v727q0 172 115 281.5t291 109.5t289.5 -109.5t113.5 -281.5v-727q0 -182 -112 -289.5t-291 -107.5zM549 88q128 0 209.5 80.5t81.5 212.5v715q0 132 -81 211t-210 79q-130 0 -210.5 -79t-80.5 -211v-715q0 -132 81.5 -212.5
t209.5 -80.5z" />
    <glyph glyph-name="P" unicode="P" horiz-adv-x="1064" 
d="M567 1475q186 0 296 -103t110 -282v-109q0 -179 -110 -282t-296 -103h-288v-596h-113v1475h401zM860 985v102q0 130 -78 204.5t-219 74.5h-284v-661h284q142 0 219.5 74.5t77.5 205.5z" />
    <glyph glyph-name="Q" unicode="Q" 
d="M549 1495q176 0 289.5 -109.5t113.5 -281.5v-727q0 -169 -98.5 -275t-259.5 -120v-205h-94v205q-160 15 -258.5 121.5t-98.5 273.5v727q0 172 115 281.5t291 109.5zM840 381v715q0 132 -81 211t-210 79q-130 0 -210.5 -79t-80.5 -211v-715q0 -118 67 -196t175 -93v295h94
v-297q111 15 178.5 93t67.5 198z" />
    <glyph glyph-name="R" unicode="R" horiz-adv-x="1085" 
d="M981 0h-129l-283 641h-10h-280v-641h-113v1475h393q190 0 302 -100.5t112 -268.5v-96q0 -137 -77.5 -231.5t-211.5 -125.5zM279 748h284q141 0 219 72t78 198v80q0 126 -78 197t-219 71h-284v-618z" />
    <glyph glyph-name="S" unicode="S" horiz-adv-x="1044" 
d="M518 -20q-189 0 -304 111t-114 306h113q-1 -147 81 -228t224 -81q139 0 225 80.5t86 208.5q0 102 -59 167t-195 132l-161 80q-138 65 -213.5 154.5t-75.5 217.5q0 159 110.5 263t284.5 104q187 0 296.5 -103.5t109.5 -277.5h-113q0 127 -79.5 199.5t-213.5 72.5
q-125 0 -202.5 -72t-77.5 -177q0 -97 52 -158.5t173 -118.5l182 -88q154 -74 226.5 -164.5t72.5 -222.5q0 -181 -121.5 -293t-306.5 -112z" />
    <glyph glyph-name="T" unicode="T" horiz-adv-x="958" 
d="M903 1475v-109h-366v-1366h-113v1366h-369v109h848z" />
    <glyph glyph-name="U" unicode="U" 
d="M549 -20q-180 0 -293 107.5t-113 289.5v1098h115v-1094q0 -132 81.5 -212.5t209.5 -80.5t209.5 80.5t81.5 212.5v1094h112v-1098q0 -182 -112 -289.5t-291 -107.5z" />
    <glyph glyph-name="V" unicode="V" horiz-adv-x="1062" 
d="M436 0l-381 1475h121l346 -1383h19l346 1383h121l-381 -1475h-191z" />
    <glyph glyph-name="W" unicode="W" horiz-adv-x="1636" 
d="M1446 1475h119l-301 -1475h-150l-297 1249l-295 -1249h-149l-301 1475h118l261 -1342l309 1342h114l310 -1346z" />
    <glyph glyph-name="X" unicode="X" horiz-adv-x="1028" 
d="M969 0h-123l-332 645l-332 -645h-123l392 754l-373 721h121l317 -613l315 613h121l-374 -721z" />
    <glyph glyph-name="Y" unicode="Y" horiz-adv-x="991" 
d="M815 1475h121l-383 -951v-524h-115v524l-383 951h121l320 -807z" />
    <glyph glyph-name="Z" unicode="Z" horiz-adv-x="921" 
d="M186 109h672v-109h-795v109l642 1257h-611v109h733v-103z" />
    <glyph glyph-name="bracketleft" unicode="[" horiz-adv-x="608" 
d="M182 -410v1885h279v-99h-174v-1687h174v-99h-279z" />
    <glyph glyph-name="backslash" unicode="\" horiz-adv-x="923" 
d="M98 1884h111l616 -1884h-110z" />
    <glyph glyph-name="bracketright" unicode="]" horiz-adv-x="608" 
d="M426 1884v-1884h-279v98h175v1688h-175v98h279z" />
    <glyph glyph-name="asciicircum" unicode="^" horiz-adv-x="985" 
d="M158 961l278 514h119l270 -514h-112l-219 411l-222 -411h-114z" />
    <glyph glyph-name="underscore" unicode="_" horiz-adv-x="1079" 
d="M0 -352v92h1079v-92h-1079z" />
    <glyph glyph-name="grave" unicode="`" horiz-adv-x="425" 
d="M252 1241l-170 289h123l139 -289h-92z" />
    <glyph glyph-name="a" unicode="a" horiz-adv-x="1052" 
d="M524 1085q171 0 272 -91t101 -249v-745h-111v125q-115 -145 -319 -145q-162 0 -258 88t-96 231q0 151 103 232t286 81h282v129q0 114 -66.5 177t-193.5 63q-121 0 -186.5 -57.5t-71.5 -157.5h-114q7 149 110 234t262 85zM483 84q133 0 217 80.5t84 206.5v141h-280
q-130 0 -205.5 -54t-75.5 -153q0 -103 71 -162t189 -59z" />
    <glyph glyph-name="b" unicode="b" horiz-adv-x="1085" 
d="M561 1085q174 0 277.5 -101t103.5 -273v-357q0 -171 -104 -272.5t-277 -101.5q-83 0 -159 31t-126 95v-106h-112v1475h112v-517q50 64 126.5 95.5t158.5 31.5zM829 360v345q0 127 -74.5 200.5t-199.5 73.5q-127 0 -203 -75t-76 -199v-345q0 -124 76 -199t203 -75
t200.5 73t73.5 201z" />
    <glyph glyph-name="c" unicode="c" horiz-adv-x="1030" 
d="M535 -20q-179 0 -285.5 102.5t-106.5 275.5v349q0 173 106.5 275.5t285.5 102.5q170 0 279 -98.5t110 -255.5h-111q-9 116 -82.5 182t-195.5 66q-127 0 -203 -73t-76 -199v-349q0 -125 77.5 -198.5t201.5 -73.5q127 0 197 65t81 189h111q-4 -162 -111 -261t-278 -99z" />
    <glyph glyph-name="d" unicode="d" horiz-adv-x="1085" 
d="M809 1475h113v-1475h-111v106q-50 -64 -126 -95t-159 -31q-174 0 -278.5 101.5t-104.5 272.5v357q0 172 104.5 273t278.5 101q82 0 157.5 -30.5t125.5 -93.5v514zM809 360v345q0 123 -75.5 198.5t-201.5 75.5q-127 0 -201.5 -73.5t-74.5 -200.5v-345q0 -128 74 -201
t202 -73q126 0 201.5 75.5t75.5 198.5z" />
    <glyph glyph-name="e" unicode="e" horiz-adv-x="1071" 
d="M924 510h-668v-154q0 -127 77 -199.5t202 -72.5q127 0 198 65t80 187h111q-7 -165 -112.5 -260.5t-276.5 -95.5q-179 0 -285.5 102.5t-106.5 275.5v353q0 170 107 272t285 102q180 0 284.5 -101t104.5 -273v-201zM535 981q-128 0 -203.5 -72t-75.5 -200v-101h555v101
q0 128 -74 200t-202 72z" />
    <glyph glyph-name="f" unicode="f" horiz-adv-x="657" 
d="M612 1061v-105h-260v-956h-112v956h-174v105h174v141q0 137 69 205t215 68h66v-105h-66q-90 0 -131 -35t-41 -129v-145h260z" />
    <glyph glyph-name="g" unicode="g" horiz-adv-x="1085" 
d="M809 1065h113v-1116q0 -183 -105 -281t-276 -98q-169 0 -269.5 90.5t-109.5 239.5h112q8 -103 78.5 -165.5t190.5 -62.5q123 0 194.5 70t71.5 199v184q-50 -63 -125.5 -94t-157.5 -31q-174 0 -278.5 102t-104.5 273v336q0 172 104.5 273t278.5 101q82 0 157.5 -30.5
t125.5 -93.5v104zM532 106q126 0 201.5 76t75.5 199v324q0 123 -75.5 198.5t-201.5 75.5q-127 0 -201.5 -73.5t-74.5 -200.5v-324q0 -129 74 -202t202 -73z" />
    <glyph glyph-name="h" unicode="h" horiz-adv-x="1099" 
d="M561 1085q174 0 277.5 -101t103.5 -273v-711h-113v705q0 127 -74.5 200.5t-199.5 73.5q-127 0 -203 -75t-76 -199v-705h-112v1475h112v-517q49 63 125 95t160 32z" />
    <glyph glyph-name="i" unicode="i" horiz-adv-x="440" 
d="M156 1262v170h127v-170h-127zM164 0v1065h110v-1065h-110z" />
    <glyph glyph-name="j" unicode="j" horiz-adv-x="477" 
d="M178 1262v170h127v-170h-127zM-39 -410v105h51q82 0 127 40.5t45 139.5v1190h113v-1196q0 -151 -75 -215t-206 -64h-55z" />
    <glyph glyph-name="k" unicode="k" horiz-adv-x="944" 
d="M758 0l-320 545l-162 -195v-350h-112v1475h112v-967l463 557h133l-358 -428l377 -637h-133z" />
    <glyph glyph-name="l" unicode="l" horiz-adv-x="487" 
d="M403 0q-245 0 -245 236v1239h112v-1217q0 -83 35.5 -118.5t112.5 -35.5h22v-104h-37z" />
    <glyph glyph-name="m" unicode="m" horiz-adv-x="1533" 
d="M1051 1085q65 0 122.5 -20t104 -58.5t73.5 -102t27 -144.5v-760h-112v727q0 124 -63.5 188t-155.5 64t-156 -63.5t-64 -186.5v-729h-112v727q0 124 -63.5 188t-155.5 64t-156 -63.5t-64 -186.5v-729h-112v1065h112v-86q85 106 232 106q82 0 155 -34.5t117 -112.5
q94 147 271 147z" />
    <glyph glyph-name="n" unicode="n" horiz-adv-x="1099" 
d="M561 1085q174 0 277.5 -101t103.5 -273v-711h-113v705q0 127 -74.5 200.5t-199.5 73.5q-127 0 -203 -75t-76 -199v-705h-112v1065h112v-107q49 63 125 95t160 32z" />
    <glyph glyph-name="o" unicode="o" horiz-adv-x="1067" 
d="M535 -20q-179 0 -285.5 102.5t-106.5 275.5v349q0 173 106.5 275.5t285.5 102.5q177 0 283 -102.5t106 -275.5v-349q0 -173 -106 -275.5t-283 -102.5zM535 86q127 0 201.5 72.5t74.5 199.5v349q0 127 -74.5 199.5t-201.5 72.5q-128 0 -203.5 -72.5t-75.5 -199.5v-349
q0 -127 75.5 -199.5t203.5 -72.5z" />
    <glyph glyph-name="p" unicode="p" horiz-adv-x="1085" 
d="M561 1085q174 0 277.5 -101t103.5 -273v-357q0 -171 -104 -272.5t-277 -101.5q-83 0 -159 31t-126 95v-516h-112v1475h112v-107q50 64 126.5 95.5t158.5 31.5zM829 360v345q0 127 -74.5 200.5t-199.5 73.5q-127 0 -203 -75t-76 -199v-345q0 -124 76 -199t203 -75
t200.5 73t73.5 201z" />
    <glyph glyph-name="q" unicode="q" horiz-adv-x="1085" 
d="M809 1065h113v-1475h-113v514q-50 -63 -125.5 -93.5t-157.5 -30.5q-174 0 -278.5 101.5t-104.5 272.5v357q0 172 104.5 273t278.5 101q82 0 157.5 -30.5t125.5 -93.5v104zM532 86q126 0 201.5 75.5t75.5 198.5v345q0 123 -75.5 198.5t-201.5 75.5q-127 0 -201.5 -73.5
t-74.5 -200.5v-345q0 -128 74 -201t202 -73z" />
    <glyph glyph-name="r" unicode="r" horiz-adv-x="636" 
d="M530 1065h66v-111h-74q-105 0 -175.5 -72.5t-70.5 -205.5v-676h-112v1065h112v-129q44 64 111 96.5t143 32.5z" />
    <glyph glyph-name="s" unicode="s" horiz-adv-x="989" 
d="M494 -20q-110 0 -197 38t-142 119.5t-55 196.5h113q0 -117 77 -184.5t204 -67.5q128 0 202 57.5t74 143.5q0 72 -50 112t-157 74l-168 53q-132 41 -200 102.5t-68 172.5q0 129 103 208.5t266 79.5q179 0 277 -84.5t104 -232.5h-111q-16 215 -270 215q-117 0 -186.5 -52.5
t-69.5 -129.5q0 -71 47 -108t153 -70l168 -54q140 -44 208.5 -105.5t68.5 -174.5q0 -140 -109.5 -224.5t-281.5 -84.5z" />
    <glyph glyph-name="t" unicode="t" horiz-adv-x="710" 
d="M637 961h-266v-703q0 -83 35 -118.5t112 -35.5h96v-104h-110q-116 0 -181 57.5t-65 180.5v723h-197v104h197v410h113v-410h266v-104z" />
    <glyph glyph-name="u" unicode="u" horiz-adv-x="1099" 
d="M821 1065h113v-1065h-111v125q-50 -69 -127 -107t-172 -38q-169 0 -267.5 100.5t-98.5 292.5v692h112v-686q0 -142 71 -217.5t196 -75.5q128 0 206 82t78 215v682z" />
    <glyph glyph-name="v" unicode="v" horiz-adv-x="915" 
d="M367 0l-318 1065h113l282 -959h29l281 959h114l-317 -1065h-184z" />
    <glyph glyph-name="w" unicode="w" horiz-adv-x="1370" 
d="M324 0l-250 1065h114l209 -936h4l224 936h120l224 -936h4l209 936h114l-249 -1065h-148l-213 891h-2l-213 -891h-147z" />
    <glyph glyph-name="x" unicode="x" horiz-adv-x="899" 
d="M854 0h-125l-283 446l-278 -446h-127l346 541l-334 524h123l275 -434l272 434h125l-336 -528z" />
    <glyph glyph-name="y" unicode="y" horiz-adv-x="917" 
d="M139 -410v105h54q87 0 135.5 41t74.5 135l35 129h-71l-318 1065h117l283 -973h18l285 973h116l-366 -1225q-39 -135 -114.5 -192.5t-186.5 -57.5h-62z" />
    <glyph glyph-name="z" unicode="z" horiz-adv-x="911" 
d="M203 98h637v-98h-754v109l586 858h-566v98h685v-104z" />
    <glyph glyph-name="braceleft" unicode="{" horiz-adv-x="604" 
d="M395 -410q-129 0 -179 52t-50 178v1425q0 126 50.5 178t178.5 52h45v-101h-34q-92 0 -117 -32t-25 -125v-1379q0 -91 25.5 -119t116.5 -28h34v-101h-45z" />
    <glyph glyph-name="bar" unicode="|" horiz-adv-x="428" 
d="M166 -141v1616h98v-1616h-98z" />
    <glyph glyph-name="braceright" unicode="}" horiz-adv-x="604" 
d="M209 1884q129 0 179 -51.5t50 -177.5v-1426q0 -126 -50.5 -177.5t-178.5 -51.5h-45v100h35q48 0 76.5 7.5t42.5 29t18 47.5t4 74v1378q0 91 -25 119.5t-116 28.5h-35v100h45z" />
    <glyph glyph-name="asciitilde" unicode="~" horiz-adv-x="1038" 
d="M236 487l-64 64q108 98 203 98q45 0 99.5 -24.5t105.5 -49t86 -24.5q36 0 65 14t76 53l63 -63q-106 -98 -202 -98q-44 0 -102.5 24.5t-110 49t-78.5 24.5q-33 0 -63 -14.5t-78 -53.5z" />
    <glyph glyph-name="exclamdown" unicode="&#xa1;" horiz-adv-x="503" 
d="M338 1475v-168h-170v168h170zM307 1040v-1040h-110v1040h110z" />
    <glyph glyph-name="cent" unicode="&#xa2;" horiz-adv-x="1030" 
d="M535 86q127 0 197 65t81 189h111q-4 -150 -96.5 -246.5t-243.5 -111.5v-306h-99v306q-157 14 -249.5 114.5t-92.5 261.5v349q0 161 92.5 261.5t249.5 114.5v303h99v-303q151 -15 245 -111t95 -241h-111q-9 116 -82.5 182t-195.5 66q-127 0 -203 -73t-76 -199v-349
q0 -125 77.5 -198.5t201.5 -73.5z" />
    <glyph glyph-name="sterling" unicode="&#xa3;" horiz-adv-x="1046" 
d="M299 723v-614h662v-109h-775v723h-141v102h141v260q0 187 109 298.5t289 111.5q161 0 274 -109t113 -274h-107q-3 123 -83.5 198.5t-198.5 75.5q-131 0 -207 -78t-76 -221v-262h428v-102h-428z" />
    <glyph glyph-name="currency" unicode="&#xa4;" horiz-adv-x="1331" 
d="M1096 643q0 -147 -88 -262l217 -217l-78 -78l-215 215q-118 -94 -266 -94q-150 0 -265 94l-215 -215l-77 78l215 215q-86 120 -86 262q0 150 90 264l-219 219l77 78l217 -217q121 90 263 90q143 0 264 -90l217 217l78 -78l-219 -219q90 -114 90 -262zM344 643
q0 -138 93.5 -235t228.5 -97q136 0 229.5 96.5t93.5 235.5q0 136 -93.5 232t-229.5 96q-135 0 -228.5 -95.5t-93.5 -232.5z" />
    <glyph glyph-name="yen" unicode="&#xa5;" horiz-adv-x="991" 
d="M936 1475l-348 -863h254v-98h-289v-209h289v-98h-289v-207h-115v207h-286v98h286v209h-286v98h251l-348 863h121l320 -807l319 807h121z" />
    <glyph glyph-name="brokenbar" unicode="&#xa6;" horiz-adv-x="428" 
d="M166 850v625h98v-625h-98zM166 -141v626h98v-626h-98z" />
    <glyph glyph-name="section" unicode="&#xa7;" horiz-adv-x="1107" 
d="M809 469q94 -72 94 -199q0 -139 -102 -214.5t-254 -75.5q-181 0 -290.5 85.5t-115.5 231.5h109q6 -93 81 -153t218 -60q116 0 180 45t64 133q0 68 -44 108t-133 66l-174 51q-72 20 -121 41.5t-91 54.5t-62.5 80.5t-20.5 110.5q0 159 136 232q-95 72 -95 200
q0 139 103.5 214t255.5 75q169 0 275 -86t112 -231h-109q-7 93 -78.5 153t-209.5 60q-106 0 -171 -48.5t-65 -130.5q0 -67 43.5 -107.5t132.5 -66.5l172 -51q72 -20 121 -41.5t91 -54.5t62.5 -80.5t20.5 -110.5q0 -161 -135 -231zM492 586l172 -49q11 -3 49 -17
q121 48 121 172q0 81 -55.5 121.5t-176.5 75.5l-172 49q-19 5 -49 16q-121 -47 -121 -172q0 -42 15 -72.5t48.5 -53t70.5 -37.5t98 -33z" />
    <glyph glyph-name="dieresis" unicode="&#xa8;" horiz-adv-x="741" 
d="M82 1282v172h139v-172h-139zM520 1282v172h139v-172h-139z" />
    <glyph glyph-name="copyright" unicode="&#xa9;" horiz-adv-x="1781" 
d="M891 -12q-150 0 -285 57.5t-231 155.5t-152.5 233.5t-56.5 286.5t56.5 287.5t152.5 235t231 156.5t285 58t285 -58t231 -156.5t152.5 -235t56.5 -287.5t-56.5 -286.5t-152.5 -233.5t-231 -155.5t-285 -57.5zM889 76q176 0 323 85.5t231.5 234t84.5 325.5q0 134 -50 254
t-135 206.5t-203.5 137.5t-250.5 51q-175 0 -321 -86t-230 -235.5t-84 -327.5q0 -177 84 -325.5t230 -234t321 -85.5zM872 299q-99 0 -158 60t-59 159v402q0 98 61 157.5t161 59.5q98 0 158.5 -61t60.5 -161h-88q0 67 -34 102.5t-97 35.5t-99.5 -36.5t-36.5 -101.5v-395
q0 -67 36 -103t100 -36q63 0 97 36t34 103h88q0 -102 -61.5 -161.5t-162.5 -59.5z" />
    <glyph glyph-name="ordfeminine" unicode="&#xaa;" horiz-adv-x="825" 
d="M420 1495q115 0 182.5 -64t67.5 -176v-516h-88v76q-70 -88 -201 -88q-110 0 -180 62.5t-70 166.5q0 105 69.5 162.5t192.5 57.5h189v71q0 85 -40.5 123.5t-121.5 38.5q-158 0 -170 -141h-88q5 103 74.5 165t183.5 62zM387 813q87 0 141 51t54 129v105h-181
q-180 0 -180 -133q0 -72 45 -112t121 -40z" />
    <glyph glyph-name="guillemotleft" unicode="&#xab;" horiz-adv-x="993" 
d="M428 176l-365 363l365 364v-139l-227 -225l227 -226v-137zM848 176l-365 363l365 364v-139l-227 -225l227 -226v-137z" />
    <glyph glyph-name="logicalnot" unicode="&#xac;" horiz-adv-x="1142" 
d="M852 360v347h-717v108h830v-455h-113z" />
    <glyph glyph-name="uni00AD" unicode="&#xad;" horiz-adv-x="913" 
d="M166 514v98h582v-98h-582z" />
    <glyph glyph-name="registered" unicode="&#xae;" horiz-adv-x="1011" 
d="M506 1495q164 0 277.5 -115t113.5 -280q0 -162 -113.5 -276.5t-277.5 -114.5q-162 0 -275.5 114.5t-113.5 276.5q0 166 113 280.5t276 114.5zM506 770q137 0 232.5 96.5t95.5 233.5q0 139 -95.5 237.5t-232.5 98.5q-136 0 -232 -99t-96 -237q0 -137 96 -233.5t232 -96.5z
M526 1319q58 0 91.5 -31.5t33.5 -85.5v-20q0 -45 -24.5 -75.5t-67.5 -39.5l88 -176h-59l-84 172h-53v-172h-54v428h129zM598 1184v14q0 72 -74 72h-73v-158h73q74 0 74 72z" />
    <glyph glyph-name="macron" unicode="&#xaf;" horiz-adv-x="763" 
d="M82 1303v90h600v-90h-600z" />
    <glyph glyph-name="degree" unicode="&#xb0;" horiz-adv-x="686" 
d="M342 997q-102 0 -174 73.5t-72 176.5q0 102 72 175t174 73q103 0 176.5 -72.5t73.5 -175.5t-73.5 -176.5t-176.5 -73.5zM342 1083q68 0 115 47.5t47 114.5q0 69 -46.5 116.5t-115.5 47.5q-66 0 -112 -47.5t-46 -116.5q0 -66 46 -114t112 -48z" />
    <glyph glyph-name="plusminus" unicode="&#xb1;" horiz-adv-x="1142" 
d="M518 236v337h-364v109h364v350h111v-350h360v-109h-360v-337h-111zM156 158h835v-109h-835v109z" />
    <glyph glyph-name="uni00B2" unicode="&#xb2;" horiz-adv-x="540" 
d="M150 821h337v-88h-426v129q0 55 25 100.5t62 74.5t81 59.5t81 55t62 60t25 76.5q0 51 -33 82t-90 31q-25 0 -50.5 -9t-49.5 -39t-27 -77h-86q2 80 56 144.5t157 64.5q94 0 152.5 -55.5t58.5 -143.5q0 -62 -34.5 -112.5t-83.5 -84t-98.5 -64t-84 -67t-34.5 -77.5v-60z" />
    <glyph glyph-name="uni00B3" unicode="&#xb3;" horiz-adv-x="538" 
d="M279 1174q94 -1 146 -54t52 -145v-53q0 -89 -60.5 -144t-152.5 -55q-93 0 -153 54t-60 143h88q0 -51 34 -81t91 -30q56 0 90.5 31t34.5 80v55q0 57 -33 88t-92 31h-94v75l192 220h-282v86h387v-86z" />
    <glyph glyph-name="acute" unicode="&#xb4;" horiz-adv-x="425" 
d="M82 1239l141 291h121l-168 -291h-94z" />
    <glyph glyph-name="paragraph" unicode="&#xb6;" horiz-adv-x="1024" 
d="M410 0v827q-166 3 -267.5 92.5t-101.5 221.5q0 167 95 250.5t270 83.5h454v-1475h-102v1370h-246v-1370h-102z" />
    <glyph glyph-name="periodcentered" unicode="&#xb7;" horiz-adv-x="503" 
d="M166 457v174h174v-174h-174z" />
    <glyph glyph-name="cedilla" unicode="&#xb8;" horiz-adv-x="428" 
d="M82 -379l170 291h94l-143 -291h-121z" />
    <glyph glyph-name="uni00B9" unicode="&#xb9;" horiz-adv-x="425" 
d="M203 733v658l-144 -21v74l232 41v-752h-88z" />
    <glyph glyph-name="ordmasculine" unicode="&#xba;" horiz-adv-x="729" 
d="M365 727q-126 0 -197.5 70t-71.5 194v240q0 122 72.5 193t196.5 71q125 0 196.5 -69.5t71.5 -194.5v-240q0 -122 -72 -193t-196 -71zM365 815q83 0 129.5 46.5t46.5 129.5v240q0 84 -46 130t-130 46q-82 0 -128.5 -46.5t-46.5 -129.5v-240q0 -83 46 -129.5t129 -46.5z
" />
    <glyph glyph-name="guillemotright" unicode="&#xbb;" horiz-adv-x="991" 
d="M145 178v137l228 226l-228 225v139l363 -364zM565 178v137l226 226l-226 225v139l363 -364z" />
    <glyph glyph-name="onequarter" unicode="&#xbc;" horiz-adv-x="1247" 
d="M803 1581h96l-547 -1683h-100zM291 733h-88v658l-144 -21v74l232 41v-752zM1065 553h86v-553h-86v203h-324v92l168 446h92l-167 -450h231v262z" />
    <glyph glyph-name="onehalf" unicode="&#xbd;" horiz-adv-x="1249" 
d="M803 1581h96l-547 -1683h-100zM291 733h-88v658l-144 -21v74l232 41v-752zM858 88h338v-88h-426v129q0 55 25 100.5t62 74.5t81 59.5t81 55t62 60t25 76.5q0 51 -33 82t-90 31q-25 0 -50.5 -9t-49.5 -39t-27 -77h-86q2 80 56 144.5t157 64.5q94 0 152.5 -55.5
t58.5 -143.5q0 -62 -34.5 -112.5t-84 -84.5t-99 -64.5t-84 -67t-34.5 -77.5v-59z" />
    <glyph glyph-name="threequarters" unicode="&#xbe;" horiz-adv-x="1343" 
d="M899 1581h96l-546 -1683h-101zM477 922q0 -89 -60.5 -144t-152.5 -55q-93 0 -153 54t-60 143h88q0 -51 34 -81t91 -30q56 0 90.5 31t34.5 80v55q0 57 -33 88t-92 31h-94v75l192 220h-282v86h387v-86l-188 -215q94 -1 146 -54t52 -145v-53zM1161 553h86v-553h-86v203h-323
v92l168 446h92l-168 -450h231v262z" />
    <glyph glyph-name="questiondown" unicode="&#xbf;" horiz-adv-x="905" 
d="M586 1475v-168h-166v168h166zM561 1053v-33q0 -88 -24 -149t-67 -105.5t-132 -110.5q-91 -70 -130.5 -137.5t-39.5 -163.5q0 -120 78 -193t207 -73t205 72t85 202h113q-2 -69 -25 -133t-68.5 -121.5t-125.5 -92.5t-184 -35q-185 0 -292.5 105.5t-107.5 264.5
q0 127 57.5 220t168.5 171q68 50 100 81t51 77.5t19 114.5v39h112z" />
    <glyph glyph-name="Agrave" unicode="&#xc0;" 
d="M508 1599l-166 283h121l137 -283h-92zM934 0l-113 418h-545l-112 -418h-111l398 1475h196l397 -1475h-110zM305 526h488l-228 840h-35z" />
    <glyph glyph-name="Aacute" unicode="&#xc1;" 
d="M766 1882l-166 -283h-94l137 283h123zM934 0l-113 418h-545l-112 -418h-111l398 1475h196l397 -1475h-110zM305 526h488l-228 840h-35z" />
    <glyph glyph-name="Acircumflex" unicode="&#xc2;" 
d="M555 1810l-152 -213h-102l199 289h106l201 -289h-102zM647 1475l397 -1475h-110l-113 418h-545l-112 -418h-111l398 1475h196zM305 526h488l-228 840h-35z" />
    <glyph glyph-name="Atilde" unicode="&#xc3;" 
d="M690 1599q-51 0 -146 39t-128 39q-30 0 -55.5 -14t-61.5 -53l-61 53q84 106 178 106q52 0 146 -39.5t132 -39.5q32 0 56 14t53 51l55 -55q-74 -101 -168 -101zM934 0l-113 418h-545l-112 -418h-111l398 1475h196l397 -1475h-110zM305 526h488l-228 840h-35z" />
    <glyph glyph-name="Adieresis" unicode="&#xc4;" 
d="M262 1599v170h139v-170h-139zM700 1599v170h140v-170h-140zM934 0l-113 418h-545l-112 -418h-111l398 1475h196l397 -1475h-110zM305 526h488l-228 840h-35z" />
    <glyph glyph-name="Aring" unicode="&#xc5;" 
d="M551 1552q-82 0 -141.5 60.5t-59.5 142.5q0 84 59.5 142.5t141.5 58.5q85 0 145 -58.5t60 -142.5q0 -82 -60.5 -142.5t-144.5 -60.5zM551 1632q50 0 85.5 36.5t35.5 86.5q0 51 -35 86t-86 35q-50 0 -84.5 -35t-34.5 -86q0 -50 35 -86.5t84 -36.5zM934 0l-113 418h-545
l-112 -418h-111l398 1475h196l397 -1475h-110zM305 526h488l-228 840h-35z" />
    <glyph glyph-name="AE" unicode="&#xc6;" horiz-adv-x="1599" 
d="M1511 1366h-653v-537h604v-108h-604v-612h653v-109h-768v414h-452l-129 -414h-109l459 1475h999v-109zM324 520h419v846h-155z" />
    <glyph glyph-name="Ccedilla" unicode="&#xc7;" horiz-adv-x="1056" 
d="M543 -20q-174 0 -287 108.5t-113 288.5v727q0 172 115 281.5t291 109.5q173 0 285 -103.5t118 -279.5h-112q-4 123 -86 198.5t-205 75.5q-130 0 -210.5 -79t-80.5 -211v-705q0 -142 78.5 -222.5t204.5 -80.5q133 0 213 76t80 201h114q0 -172 -113 -278.5t-292 -106.5z
M334 -375l168 287h94l-141 -287h-121z" />
    <glyph glyph-name="Egrave" unicode="&#xc8;" horiz-adv-x="1019" 
d="M512 1599l-166 283h121l137 -283h-92zM934 1366h-655v-537h604v-108h-604v-612h655v-109h-768v1475h768v-109z" />
    <glyph glyph-name="Eacute" unicode="&#xc9;" horiz-adv-x="1019" 
d="M770 1882l-166 -283h-94l137 283h123zM934 1366h-655v-537h604v-108h-604v-612h655v-109h-768v1475h768v-109z" />
    <glyph glyph-name="Ecircumflex" unicode="&#xca;" horiz-adv-x="1019" 
d="M559 1810l-151 -213h-103l199 289h106l201 -289h-102zM934 1366h-655v-537h604v-108h-604v-612h655v-109h-768v1475h768v-109z" />
    <glyph glyph-name="Edieresis" unicode="&#xcb;" horiz-adv-x="1019" 
d="M266 1599v170h140v-170h-140zM705 1599v170h139v-170h-139zM934 1366h-655v-537h604v-108h-604v-612h655v-109h-768v1475h768v-109z" />
    <glyph glyph-name="Igrave" unicode="&#xcc;" horiz-adv-x="444" 
d="M178 1599l-166 283h121l137 -283h-92zM166 0v1475h113v-1475h-113z" />
    <glyph glyph-name="Iacute" unicode="&#xcd;" horiz-adv-x="444" 
d="M176 1599l137 283h123l-166 -283h-94zM166 0v1475h113v-1475h-113z" />
    <glyph glyph-name="Icircumflex" unicode="&#xce;" horiz-adv-x="444" 
d="M276 1886l201 -289h-102l-150 213l-151 -213h-103l199 289h106zM166 0v1475h113v-1475h-113z" />
    <glyph glyph-name="Idieresis" unicode="&#xcf;" horiz-adv-x="444" 
d="M-4 1599v170h139v-170h-139zM307 1599v170h139v-170h-139zM166 0v1475h113v-1475h-113z" />
    <glyph glyph-name="Eth" unicode="&#xd0;" horiz-adv-x="1126" 
d="M578 1475q180 0 291.5 -105.5t111.5 -269.5v-719q0 -169 -110.5 -275t-297.5 -106h-397v725h-125v92h125v658h402zM868 381v715q0 128 -83 199t-224 71h-272v-549h340v-92h-340v-616h272q143 0 225 71t82 201z" />
    <glyph glyph-name="Ntilde" unicode="&#xd1;" horiz-adv-x="1146" 
d="M436 1677q-30 0 -55.5 -14t-61.5 -53l-61 53q84 106 178 106q52 0 147 -39.5t132 -39.5q32 0 55.5 14t52.5 51l56 -55q-74 -101 -168 -101q-51 0 -146.5 39t-128.5 39zM870 1475h111v-1475h-162l-543 1315v-1315h-110v1475h162l542 -1317v1317z" />
    <glyph glyph-name="Ograve" unicode="&#xd2;" 
d="M504 1599l-166 283h121l137 -283h-92zM549 -20q-180 0 -293 107.5t-113 289.5v727q0 172 115 281.5t291 109.5t289.5 -109.5t113.5 -281.5v-727q0 -182 -112 -289.5t-291 -107.5zM549 88q128 0 209.5 80.5t81.5 212.5v715q0 132 -81 211t-210 79q-130 0 -210.5 -79
t-80.5 -211v-715q0 -132 81.5 -212.5t209.5 -80.5z" />
    <glyph glyph-name="Oacute" unicode="&#xd3;" 
d="M502 1599l137 283h123l-166 -283h-94zM549 -20q-180 0 -293 107.5t-113 289.5v727q0 172 115 281.5t291 109.5t289.5 -109.5t113.5 -281.5v-727q0 -182 -112 -289.5t-291 -107.5zM549 88q128 0 209.5 80.5t81.5 212.5v715q0 132 -81 211t-210 79q-130 0 -210.5 -79
t-80.5 -211v-715q0 -132 81.5 -212.5t209.5 -80.5z" />
    <glyph glyph-name="Ocircumflex" unicode="&#xd4;" 
d="M551 1810l-152 -213h-102l199 289h106l201 -289h-103zM549 1495q176 0 289.5 -109.5t113.5 -281.5v-727q0 -182 -112 -289.5t-291 -107.5q-180 0 -293 107.5t-113 289.5v727q0 172 115 281.5t291 109.5zM840 381v715q0 132 -81 211t-210 79q-130 0 -210.5 -79t-80.5 -211
v-715q0 -132 81.5 -212.5t209.5 -80.5t209.5 80.5t81.5 212.5z" />
    <glyph glyph-name="Otilde" unicode="&#xd5;" 
d="M686 1599q-51 0 -146 39t-128 39q-30 0 -55.5 -14t-61.5 -53l-62 53q84 106 179 106q52 0 146 -39.5t132 -39.5q32 0 56 14t53 51l55 -55q-74 -101 -168 -101zM549 -20q-180 0 -293 107.5t-113 289.5v727q0 172 115 281.5t291 109.5t289.5 -109.5t113.5 -281.5v-727
q0 -182 -112 -289.5t-291 -107.5zM549 88q128 0 209.5 80.5t81.5 212.5v715q0 132 -81 211t-210 79q-130 0 -210.5 -79t-80.5 -211v-715q0 -132 81.5 -212.5t209.5 -80.5z" />
    <glyph glyph-name="Odieresis" unicode="&#xd6;" 
d="M258 1599v170h139v-170h-139zM696 1599v170h140v-170h-140zM549 -20q-180 0 -293 107.5t-113 289.5v727q0 172 115 281.5t291 109.5t289.5 -109.5t113.5 -281.5v-727q0 -182 -112 -289.5t-291 -107.5zM549 88q128 0 209.5 80.5t81.5 212.5v715q0 132 -81 211t-210 79
q-130 0 -210.5 -79t-80.5 -211v-715q0 -132 81.5 -212.5t209.5 -80.5z" />
    <glyph glyph-name="multiply" unicode="&#xd7;" horiz-adv-x="1142" 
d="M965 281l-78 -80l-320 319l-313 -311l-76 74l314 313l-310 309l78 78l309 -309l310 311l77 -76l-311 -311z" />
    <glyph glyph-name="Oslash" unicode="&#xd8;" 
d="M971 1569l-101 -219q82 -102 82 -246v-727q0 -182 -112 -289.5t-291 -107.5q-158 0 -262 81l-72 -155h-94l100 221q-78 105 -78 250v727q0 172 115 281.5t291 109.5q149 0 258 -82l72 156h92zM258 381q0 -65 23 -123l479 1049q-79 79 -211 79q-130 0 -210.5 -79
t-80.5 -211v-715zM840 1096q0 71 -25 129l-479 -1053q81 -84 213 -84q128 0 209.5 80.5t81.5 212.5v715z" />
    <glyph glyph-name="Ugrave" unicode="&#xd9;" 
d="M504 1599l-166 283h121l137 -283h-92zM549 -20q-180 0 -293 107.5t-113 289.5v1098h115v-1094q0 -132 81.5 -212.5t209.5 -80.5t209.5 80.5t81.5 212.5v1094h112v-1098q0 -182 -112 -289.5t-291 -107.5z" />
    <glyph glyph-name="Uacute" unicode="&#xda;" 
d="M502 1599l137 283h123l-166 -283h-94zM549 -20q-180 0 -293 107.5t-113 289.5v1098h115v-1094q0 -132 81.5 -212.5t209.5 -80.5t209.5 80.5t81.5 212.5v1094h112v-1098q0 -182 -112 -289.5t-291 -107.5z" />
    <glyph glyph-name="Ucircumflex" unicode="&#xdb;" 
d="M551 1810l-152 -213h-102l199 289h106l201 -289h-103zM840 1475h112v-1098q0 -182 -112 -289.5t-291 -107.5q-180 0 -293 107.5t-113 289.5v1098h115v-1094q0 -132 81.5 -212.5t209.5 -80.5t209.5 80.5t81.5 212.5v1094z" />
    <glyph glyph-name="Udieresis" unicode="&#xdc;" 
d="M258 1599v170h139v-170h-139zM696 1599v170h140v-170h-140zM549 -20q-180 0 -293 107.5t-113 289.5v1098h115v-1094q0 -132 81.5 -212.5t209.5 -80.5t209.5 80.5t81.5 212.5v1094h112v-1098q0 -182 -112 -289.5t-291 -107.5z" />
    <glyph glyph-name="Yacute" unicode="&#xdd;" horiz-adv-x="991" 
d="M709 1882l-166 -283h-94l137 283h123zM815 1475h121l-383 -951v-524h-115v524l-383 951h121l320 -807z" />
    <glyph glyph-name="Thorn" unicode="&#xde;" horiz-adv-x="1085" 
d="M567 1180q186 0 296 -103t110 -282v-109q0 -179 -110 -282t-296 -103h-288v-301h-113v1475h113v-295h288zM860 688v103q0 131 -77.5 205.5t-219.5 74.5h-284v-661h284q141 0 219 74t78 204z" />
    <glyph glyph-name="germandbls" unicode="&#xdf;" horiz-adv-x="1110" 
d="M758 840q106 -37 162.5 -131t56.5 -240v-43q0 -193 -107.5 -309.5t-287.5 -116.5h-74v109h72q130 0 207 88.5t77 236.5v45q0 146 -73.5 222.5t-198.5 76.5h-23v101h31q86 0 148.5 72.5t62.5 193.5q0 110 -68.5 177t-191.5 67q-128 0 -201.5 -79t-73.5 -235v-1075h-110
v1090q0 195 107.5 300t285.5 105q160 0 262.5 -96.5t102.5 -253.5q0 -114 -47 -189.5t-119 -115.5z" />
    <glyph glyph-name="agrave" unicode="&#xe0;" horiz-adv-x="1052" 
d="M512 1245l-170 289h123l139 -289h-92zM524 1085q171 0 272 -91t101 -249v-745h-111v125q-115 -145 -319 -145q-162 0 -258 88t-96 231q0 151 103 232t286 81h282v129q0 114 -66.5 177t-193.5 63q-121 0 -186.5 -57.5t-71.5 -157.5h-114q7 149 110 234t262 85zM483 84
q133 0 217 80.5t84 206.5v141h-280q-130 0 -205.5 -54t-75.5 -153q0 -103 71 -162t189 -59z" />
    <glyph glyph-name="aacute" unicode="&#xe1;" horiz-adv-x="1052" 
d="M758 1534l-168 -289h-94l141 289h121zM524 1085q171 0 272 -91t101 -249v-745h-111v125q-115 -145 -319 -145q-162 0 -258 88t-96 231q0 151 103 232t286 81h282v129q0 114 -66.5 177t-193.5 63q-121 0 -186.5 -57.5t-71.5 -157.5h-114q7 149 110 234t262 85zM483 84
q133 0 217 80.5t84 206.5v141h-280q-130 0 -205.5 -54t-75.5 -153q0 -103 71 -162t189 -59z" />
    <glyph glyph-name="acircumflex" unicode="&#xe2;" horiz-adv-x="1052" 
d="M287 1243l198 289h113l201 -289h-103l-153 205l-154 -205h-102zM524 1085q171 0 272 -91t101 -249v-745h-111v125q-115 -145 -319 -145q-162 0 -258 88t-96 231q0 151 103 232t286 81h282v129q0 114 -66.5 177t-193.5 63q-121 0 -186.5 -57.5t-71.5 -157.5h-114
q7 149 110 234t262 85zM483 84q133 0 217 80.5t84 206.5v141h-280q-130 0 -205.5 -54t-75.5 -153q0 -103 71 -162t189 -59z" />
    <glyph glyph-name="atilde" unicode="&#xe3;" horiz-adv-x="1052" 
d="M684 1245q-52 0 -148 43t-128 43q-27 0 -52.5 -15t-64.5 -54l-62 65q84 103 179 103q52 0 143.5 -43.5t130.5 -43.5q32 0 54 14t57 52l61 -66q-80 -98 -170 -98zM524 1085q171 0 272 -91t101 -249v-745h-111v125q-115 -145 -319 -145q-162 0 -258 88t-96 231
q0 151 103 232t286 81h282v129q0 114 -66.5 177t-193.5 63q-121 0 -186.5 -57.5t-71.5 -157.5h-114q7 149 110 234t262 85zM483 84q133 0 217 80.5t84 206.5v141h-280q-130 0 -205.5 -54t-75.5 -153q0 -103 71 -162t189 -59z" />
    <glyph glyph-name="adieresis" unicode="&#xe4;" horiz-adv-x="1052" 
d="M252 1262v170h139v-170h-139zM690 1262v170h139v-170h-139zM524 1085q171 0 272 -91t101 -249v-745h-111v125q-115 -145 -319 -145q-162 0 -258 88t-96 231q0 151 103 232t286 81h282v129q0 114 -66.5 177t-193.5 63q-121 0 -186.5 -57.5t-71.5 -157.5h-114
q7 149 110 234t262 85zM483 84q133 0 217 80.5t84 206.5v141h-280q-130 0 -205.5 -54t-75.5 -153q0 -103 71 -162t189 -59z" />
    <glyph glyph-name="aring" unicode="&#xe5;" horiz-adv-x="1052" 
d="M541 1198q-82 0 -141.5 59.5t-59.5 141.5q0 84 59.5 143.5t141.5 59.5q85 0 144.5 -58.5t59.5 -144.5q0 -82 -60 -141.5t-144 -59.5zM541 1278q50 0 85.5 36.5t35.5 84.5q0 51 -35 87t-86 36q-49 0 -84 -36t-35 -87q0 -48 35 -84.5t84 -36.5zM524 1085q171 0 272 -91
t101 -249v-745h-111v125q-115 -145 -319 -145q-162 0 -258 88t-96 231q0 151 103 232t286 81h282v129q0 114 -66.5 177t-193.5 63q-121 0 -186.5 -57.5t-71.5 -157.5h-114q7 149 110 234t262 85zM483 84q133 0 217 80.5t84 206.5v141h-280q-130 0 -205.5 -54t-75.5 -153
q0 -103 71 -162t189 -59z" />
    <glyph glyph-name="ae" unicode="&#xe6;" horiz-adv-x="1710" 
d="M1565 512h-668v-135q0 -134 72.5 -213.5t206.5 -79.5q127 0 197 63.5t79 188.5h113q-9 -165 -113.5 -260.5t-275.5 -95.5q-120 0 -212 49.5t-135 146.5q-116 -196 -362 -196q-158 0 -256 87.5t-98 233.5q0 152 102 231.5t285 79.5h284v129q0 114 -67.5 177t-196.5 63
q-118 0 -183 -57.5t-71 -157.5h-114q10 152 113.5 235.5t260.5 83.5q111 0 195.5 -42t128.5 -121q44 77 128.5 119.5t197.5 43.5q179 0 284 -102t105 -276v-195zM1176 981q-131 0 -205 -75t-74 -199v-95h557v95q0 122 -72.5 198t-205.5 76zM481 82q134 0 218.5 82.5
t84.5 212.5v135h-295q-129 0 -197.5 -53.5t-68.5 -151.5q0 -105 70.5 -165t187.5 -60z" />
    <glyph glyph-name="ccedilla" unicode="&#xe7;" horiz-adv-x="1030" 
d="M535 -20q-179 0 -285.5 102.5t-106.5 275.5v349q0 173 106.5 275.5t285.5 102.5q170 0 279 -98.5t110 -255.5h-111q-9 116 -82.5 182t-195.5 66q-127 0 -203 -73t-76 -199v-349q0 -125 77.5 -198.5t201.5 -73.5q127 0 197 65t81 189h111q-4 -162 -111 -261t-278 -99z
M326 -375l168 287h94l-142 -287h-120z" />
    <glyph glyph-name="egrave" unicode="&#xe8;" horiz-adv-x="1071" 
d="M504 1245l-170 289h123l139 -289h-92zM924 510h-668v-154q0 -127 77 -199.5t202 -72.5q127 0 198 65t80 187h111q-7 -165 -112.5 -260.5t-276.5 -95.5q-179 0 -285.5 102.5t-106.5 275.5v353q0 170 107 272t285 102q180 0 284.5 -101t104.5 -273v-201zM535 981
q-128 0 -203.5 -72t-75.5 -200v-101h555v101q0 128 -74 200t-202 72z" />
    <glyph glyph-name="eacute" unicode="&#xe9;" horiz-adv-x="1071" 
d="M750 1534l-168 -289h-95l142 289h121zM924 510h-668v-154q0 -127 77 -199.5t202 -72.5q127 0 198 65t80 187h111q-7 -165 -112.5 -260.5t-276.5 -95.5q-179 0 -285.5 102.5t-106.5 275.5v353q0 170 107 272t285 102q180 0 284.5 -101t104.5 -273v-201zM535 981
q-128 0 -203.5 -72t-75.5 -200v-101h555v101q0 128 -74 200t-202 72z" />
    <glyph glyph-name="ecircumflex" unicode="&#xea;" horiz-adv-x="1071" 
d="M279 1243l198 289h113l201 -289h-103l-153 205l-154 -205h-102zM924 510h-668v-154q0 -127 77 -199.5t202 -72.5q127 0 198 65t80 187h111q-7 -165 -112.5 -260.5t-276.5 -95.5q-179 0 -285.5 102.5t-106.5 275.5v353q0 170 107 272t285 102q180 0 284.5 -101t104.5 -273
v-201zM535 981q-128 0 -203.5 -72t-75.5 -200v-101h555v101q0 128 -74 200t-202 72z" />
    <glyph glyph-name="edieresis" unicode="&#xeb;" horiz-adv-x="1071" 
d="M244 1262v170h139v-170h-139zM682 1262v170h139v-170h-139zM924 510h-668v-154q0 -127 77 -199.5t202 -72.5q127 0 198 65t80 187h111q-7 -165 -112.5 -260.5t-276.5 -95.5q-179 0 -285.5 102.5t-106.5 275.5v353q0 170 107 272t285 102q180 0 284.5 -101t104.5 -273
v-201zM535 981q-128 0 -203.5 -72t-75.5 -200v-101h555v101q0 128 -74 200t-202 72z" />
    <glyph glyph-name="igrave" unicode="&#xec;" horiz-adv-x="440" 
d="M188 1245l-170 289h123l140 -289h-93zM164 0v1065h110v-1065h-110z" />
    <glyph glyph-name="iacute" unicode="&#xed;" horiz-adv-x="440" 
d="M172 1245l141 289h121l-168 -289h-94zM164 0v1065h110v-1065h-110z" />
    <glyph glyph-name="icircumflex" unicode="&#xee;" horiz-adv-x="440" 
d="M-37 1243l199 289h112l201 -289h-102l-154 205l-153 -205h-103zM164 0v1065h110v-1065h-110z" />
    <glyph glyph-name="idieresis" unicode="&#xef;" horiz-adv-x="440" 
d="M-8 1262v170h139v-170h-139zM303 1262v170h139v-170h-139zM164 0v1065h110v-1065h-110z" />
    <glyph glyph-name="eth" unicode="&#xf0;" horiz-adv-x="1091" 
d="M791 1350q143 -131 143 -355v-633q0 -175 -106.5 -278.5t-286.5 -103.5q-182 0 -290 103.5t-108 278.5v261q0 175 105.5 278t283.5 103q84 0 161 -31.5t126 -91.5v112q0 175 -100 275l-70 -82h-123l117 135q-86 47 -207 47h-147v107h141q167 0 285 -70l116 135h123z
M819 362v261q0 123 -75.5 197.5t-202.5 74.5q-130 0 -206.5 -72.5t-76.5 -199.5v-261q0 -126 78 -200t205 -74q128 0 203 73t75 201z" />
    <glyph glyph-name="ntilde" unicode="&#xf1;" horiz-adv-x="1099" 
d="M692 1245q-52 0 -148 43t-128 43q-27 0 -52.5 -15t-64.5 -54l-61 65q84 103 178 103q52 0 143.5 -43.5t130.5 -43.5q32 0 54 14t57 52l61 -66q-80 -98 -170 -98zM561 1085q174 0 277.5 -101t103.5 -273v-711h-113v705q0 127 -74.5 200.5t-199.5 73.5q-127 0 -203 -75
t-76 -199v-705h-112v1065h112v-107q49 63 125 95t160 32z" />
    <glyph glyph-name="ograve" unicode="&#xf2;" horiz-adv-x="1067" 
d="M504 1245l-170 289h123l139 -289h-92zM535 -20q-179 0 -285.5 102.5t-106.5 275.5v349q0 173 106.5 275.5t285.5 102.5q177 0 283 -102.5t106 -275.5v-349q0 -173 -106 -275.5t-283 -102.5zM535 86q127 0 201.5 72.5t74.5 199.5v349q0 127 -74.5 199.5t-201.5 72.5
q-128 0 -203.5 -72.5t-75.5 -199.5v-349q0 -127 75.5 -199.5t203.5 -72.5z" />
    <glyph glyph-name="oacute" unicode="&#xf3;" horiz-adv-x="1067" 
d="M487 1245l142 289h121l-168 -289h-95zM535 -20q-179 0 -285.5 102.5t-106.5 275.5v349q0 173 106.5 275.5t285.5 102.5q177 0 283 -102.5t106 -275.5v-349q0 -173 -106 -275.5t-283 -102.5zM535 86q127 0 201.5 72.5t74.5 199.5v349q0 127 -74.5 199.5t-201.5 72.5
q-128 0 -203.5 -72.5t-75.5 -199.5v-349q0 -127 75.5 -199.5t203.5 -72.5z" />
    <glyph glyph-name="ocircumflex" unicode="&#xf4;" horiz-adv-x="1067" 
d="M279 1243l198 289h113l201 -289h-103l-153 205l-154 -205h-102zM535 -20q-179 0 -285.5 102.5t-106.5 275.5v349q0 173 106.5 275.5t285.5 102.5q177 0 283 -102.5t106 -275.5v-349q0 -173 -106 -275.5t-283 -102.5zM535 86q127 0 201.5 72.5t74.5 199.5v349
q0 127 -74.5 199.5t-201.5 72.5q-128 0 -203.5 -72.5t-75.5 -199.5v-349q0 -127 75.5 -199.5t203.5 -72.5z" />
    <glyph glyph-name="otilde" unicode="&#xf5;" horiz-adv-x="1067" 
d="M676 1245q-52 0 -149 43t-128 43q-27 0 -52 -15t-64 -54l-62 65q84 103 178 103q52 0 144 -43.5t131 -43.5q32 0 53.5 14t56.5 52l62 -66q-80 -98 -170 -98zM535 -20q-179 0 -285.5 102.5t-106.5 275.5v349q0 173 106.5 275.5t285.5 102.5q177 0 283 -102.5t106 -275.5
v-349q0 -173 -106 -275.5t-283 -102.5zM535 86q127 0 201.5 72.5t74.5 199.5v349q0 127 -74.5 199.5t-201.5 72.5q-128 0 -203.5 -72.5t-75.5 -199.5v-349q0 -127 75.5 -199.5t203.5 -72.5z" />
    <glyph glyph-name="odieresis" unicode="&#xf6;" horiz-adv-x="1067" 
d="M244 1262v170h139v-170h-139zM682 1262v170h139v-170h-139zM535 -20q-179 0 -285.5 102.5t-106.5 275.5v349q0 173 106.5 275.5t285.5 102.5q177 0 283 -102.5t106 -275.5v-349q0 -173 -106 -275.5t-283 -102.5zM535 86q127 0 201.5 72.5t74.5 199.5v349
q0 127 -74.5 199.5t-201.5 72.5q-128 0 -203.5 -72.5t-75.5 -199.5v-349q0 -127 75.5 -199.5t203.5 -72.5z" />
    <glyph glyph-name="divide" unicode="&#xf7;" horiz-adv-x="1142" 
d="M481 885v182h183v-182h-183zM154 567v107h835v-107h-835zM481 172v182h183v-182h-183z" />
    <glyph glyph-name="oslash" unicode="&#xf8;" horiz-adv-x="1067" 
d="M799 999q125 -106 125 -292v-349q0 -173 -106 -275.5t-283 -102.5q-116 0 -201 43l-62 -129h-98l86 180q-117 104 -117 284v349q0 173 106.5 275.5t285.5 102.5q109 0 190 -38l66 135h96zM256 358q0 -107 55 -178l367 768q-64 31 -143 31q-128 0 -203.5 -72.5
t-75.5 -199.5v-349zM811 358v349q0 112 -61 186l-369 -772q65 -35 154 -35q127 0 201.5 72.5t74.5 199.5z" />
    <glyph glyph-name="ugrave" unicode="&#xf9;" horiz-adv-x="1099" 
d="M518 1245l-170 289h123l139 -289h-92zM821 1065h113v-1065h-111v125q-50 -69 -127 -107t-172 -38q-169 0 -267.5 100.5t-98.5 292.5v692h112v-686q0 -142 71 -217.5t196 -75.5q128 0 206 82t78 215v682z" />
    <glyph glyph-name="uacute" unicode="&#xfa;" horiz-adv-x="1099" 
d="M764 1534l-168 -289h-94l141 289h121zM821 1065h113v-1065h-111v125q-50 -69 -127 -107t-172 -38q-169 0 -267.5 100.5t-98.5 292.5v692h112v-686q0 -142 71 -217.5t196 -75.5q128 0 206 82t78 215v682z" />
    <glyph glyph-name="ucircumflex" unicode="&#xfb;" horiz-adv-x="1099" 
d="M293 1243l199 289h112l201 -289h-103l-153 205l-154 -205h-102zM821 1065h113v-1065h-111v125q-50 -69 -127 -107t-172 -38q-169 0 -267.5 100.5t-98.5 292.5v692h112v-686q0 -142 71 -217.5t196 -75.5q128 0 206 82t78 215v682z" />
    <glyph glyph-name="udieresis" unicode="&#xfc;" horiz-adv-x="1099" 
d="M258 1262v170h139v-170h-139zM696 1262v170h140v-170h-140zM821 1065h113v-1065h-111v125q-50 -69 -127 -107t-172 -38q-169 0 -267.5 100.5t-98.5 292.5v692h112v-686q0 -142 71 -217.5t196 -75.5q128 0 206 82t78 215v682z" />
    <glyph glyph-name="yacute" unicode="&#xfd;" horiz-adv-x="917" 
d="M412 1245l141 289h121l-168 -289h-94zM139 -410v105h54q87 0 135.5 41t74.5 135l35 129h-71l-318 1065h117l283 -973h18l285 973h116l-366 -1225q-39 -135 -114.5 -192.5t-186.5 -57.5h-62z" />
    <glyph glyph-name="thorn" unicode="&#xfe;" horiz-adv-x="1085" 
d="M561 1085q174 0 277.5 -101t103.5 -273v-357q0 -171 -104 -272.5t-277 -101.5q-83 0 -159 31t-126 95v-516h-112v1880h112v-512q50 64 126.5 95.5t158.5 31.5zM829 360v345q0 127 -74.5 200.5t-199.5 73.5q-127 0 -203 -75t-76 -199v-345q0 -124 76 -199t203 -75
t200.5 73t73.5 201z" />
    <glyph glyph-name="ydieresis" unicode="&#xff;" horiz-adv-x="917" 
d="M168 1262v170h139v-170h-139zM606 1262v170h139v-170h-139zM139 -410v105h54q87 0 135.5 41t74.5 135l35 129h-71l-318 1065h117l283 -973h18l285 973h116l-366 -1225q-39 -135 -114.5 -192.5t-186.5 -57.5h-62z" />
    <glyph glyph-name="Amacron" unicode="&#x100;" 
d="M250 1634v90h604v-90h-604zM934 0l-113 418h-545l-112 -418h-111l398 1475h196l397 -1475h-110zM305 526h488l-228 840h-35z" />
    <glyph glyph-name="amacron" unicode="&#x101;" horiz-adv-x="1052" 
d="M242 1296v93h600v-93h-600zM524 1085q171 0 272 -91t101 -249v-745h-111v125q-115 -145 -319 -145q-162 0 -258 88t-96 231q0 151 103 232t286 81h282v129q0 114 -66.5 177t-193.5 63q-121 0 -186.5 -57.5t-71.5 -157.5h-114q7 149 110 234t262 85zM483 84
q133 0 217 80.5t84 206.5v141h-280q-130 0 -205.5 -54t-75.5 -153q0 -103 71 -162t189 -59z" />
    <glyph glyph-name="Abreve" unicode="&#x102;" 
d="M553 1593q-110 0 -180 62t-88 188h100q9 -79 54.5 -120.5t113.5 -41.5q67 0 112 41.5t54 120.5h102q-18 -126 -88 -188t-180 -62zM934 0l-113 418h-545l-112 -418h-111l398 1475h196l397 -1475h-110zM305 526h488l-228 840h-35z" />
    <glyph glyph-name="abreve" unicode="&#x103;" horiz-adv-x="1052" 
d="M543 1214q-115 0 -190.5 65t-96.5 191h104q13 -80 61 -120.5t122 -40.5t121.5 40.5t60.5 120.5h104q-20 -126 -95.5 -191t-190.5 -65zM524 1085q171 0 272 -91t101 -249v-745h-111v125q-115 -145 -319 -145q-162 0 -258 88t-96 231q0 151 103 232t286 81h282v129
q0 114 -66.5 177t-193.5 63q-121 0 -186.5 -57.5t-71.5 -157.5h-114q7 149 110 234t262 85zM483 84q133 0 217 80.5t84 206.5v141h-280q-130 0 -205.5 -54t-75.5 -153q0 -103 71 -162t189 -59z" />
    <glyph glyph-name="Aogonek" unicode="&#x104;" 
d="M1069 -309h25v-101h-27q-98 0 -162.5 64.5t-64.5 161.5v41q0 110 88 170l-107 391h-545l-112 -418h-111l398 1475h196l397 -1475q-100 -29 -100 -119v-57q0 -59 36.5 -96t88.5 -37zM305 526h488l-228 840h-35z" />
    <glyph glyph-name="aogonek" unicode="&#x105;" horiz-adv-x="1052" 
d="M956 -309h25v-101h-27q-105 0 -174 64.5t-69 161.5v41q0 104 75 163v105q-115 -145 -319 -145q-162 0 -258 88t-96 231q0 151 103 232t286 81h282v129q0 114 -66.5 177t-193.5 63q-121 0 -186.5 -57.5t-71.5 -157.5h-114q7 149 110 234t262 85q171 0 272 -91t101 -249
v-745q-37 -14 -59.5 -45.5t-22.5 -73.5v-57q0 -58 42 -95.5t99 -37.5zM784 371v141h-280q-130 0 -205.5 -54t-75.5 -153q0 -103 71 -162t189 -59q133 0 217 80.5t84 206.5z" />
    <glyph glyph-name="Cacute" unicode="&#x106;" horiz-adv-x="1056" 
d="M500 1599l137 283h123l-166 -283h-94zM543 -20q-174 0 -287 108.5t-113 288.5v727q0 172 115 281.5t291 109.5q173 0 285 -103.5t118 -279.5h-112q-4 123 -86 198.5t-205 75.5q-130 0 -210.5 -79t-80.5 -211v-705q0 -142 78.5 -222.5t204.5 -80.5q133 0 213 76t80 201
h114q0 -172 -113 -278.5t-292 -106.5z" />
    <glyph glyph-name="cacute" unicode="&#x107;" horiz-adv-x="1030" 
d="M487 1245l142 289h121l-168 -289h-95zM535 -20q-179 0 -285.5 102.5t-106.5 275.5v349q0 173 106.5 275.5t285.5 102.5q170 0 279 -98.5t110 -255.5h-111q-9 116 -82.5 182t-195.5 66q-127 0 -203 -73t-76 -199v-349q0 -125 77.5 -198.5t201.5 -73.5q127 0 197 65t81 189
h111q-4 -162 -111 -261t-278 -99z" />
    <glyph glyph-name="Ccircumflex" unicode="&#x108;" horiz-adv-x="1056" 
d="M549 1810l-152 -213h-102l199 289h106l201 -289h-103zM541 88q133 0 213 76t80 201h114q0 -172 -113 -278.5t-292 -106.5q-174 0 -287 108.5t-113 288.5v727q0 172 115 281.5t291 109.5q173 0 285 -103.5t118 -279.5h-112q-4 123 -86 198.5t-205 75.5q-130 0 -210.5 -79
t-80.5 -211v-705q0 -142 78.5 -222.5t204.5 -80.5z" />
    <glyph glyph-name="ccircumflex" unicode="&#x109;" horiz-adv-x="1030" 
d="M279 1243l198 289h113l201 -289h-103l-153 205l-154 -205h-102zM535 -20q-179 0 -285.5 102.5t-106.5 275.5v349q0 173 106.5 275.5t285.5 102.5q170 0 279 -98.5t110 -255.5h-111q-9 116 -82.5 182t-195.5 66q-127 0 -203 -73t-76 -199v-349q0 -125 77.5 -198.5
t201.5 -73.5q127 0 197 65t81 189h111q-4 -162 -111 -261t-278 -99z" />
    <glyph glyph-name="Cdotaccent" unicode="&#x10a;" horiz-adv-x="1056" 
d="M477 1593v174h141v-174h-141zM543 -20q-174 0 -287 108.5t-113 288.5v727q0 172 115 281.5t291 109.5q173 0 285 -103.5t118 -279.5h-112q-4 123 -86 198.5t-205 75.5q-130 0 -210.5 -79t-80.5 -211v-705q0 -142 78.5 -222.5t204.5 -80.5q133 0 213 76t80 201h114
q0 -172 -113 -278.5t-292 -106.5z" />
    <glyph glyph-name="cdotaccent" unicode="&#x10b;" horiz-adv-x="1030" 
d="M471 1262v170h127v-170h-127zM535 -20q-179 0 -285.5 102.5t-106.5 275.5v349q0 173 106.5 275.5t285.5 102.5q170 0 279 -98.5t110 -255.5h-111q-9 116 -82.5 182t-195.5 66q-127 0 -203 -73t-76 -199v-349q0 -125 77.5 -198.5t201.5 -73.5q127 0 197 65t81 189h111
q-4 -162 -111 -261t-278 -99z" />
    <glyph glyph-name="Ccaron" unicode="&#x10c;" horiz-adv-x="1056" 
d="M598 1597h-106l-199 289h104l150 -211l149 211h103zM541 88q133 0 213 76t80 201h114q0 -172 -113 -278.5t-292 -106.5q-174 0 -287 108.5t-113 288.5v727q0 172 115 281.5t291 109.5q173 0 285 -103.5t118 -279.5h-112q-4 123 -86 198.5t-205 75.5q-130 0 -210.5 -79
t-80.5 -211v-705q0 -142 78.5 -222.5t204.5 -80.5z" />
    <glyph glyph-name="ccaron" unicode="&#x10d;" horiz-adv-x="1030" 
d="M479 1229l-200 287h104l152 -205l153 205h103l-199 -287h-113zM535 -20q-179 0 -285.5 102.5t-106.5 275.5v349q0 173 106.5 275.5t285.5 102.5q170 0 279 -98.5t110 -255.5h-111q-9 116 -82.5 182t-195.5 66q-127 0 -203 -73t-76 -199v-349q0 -125 77.5 -198.5
t201.5 -73.5q127 0 197 65t81 189h111q-4 -162 -111 -261t-278 -99z" />
    <glyph glyph-name="Dcaron" unicode="&#x10e;" horiz-adv-x="1116" 
d="M610 1597h-106l-199 289h105l149 -211l150 211h102zM567 1475q180 0 292 -105.5t112 -269.5v-719q0 -169 -110.5 -275t-297.5 -106h-397v1475h401zM858 381v715q0 128 -83 199t-224 71h-272v-1257h272q143 0 225 71t82 201z" />
    <glyph glyph-name="dcaron" unicode="&#x10f;" horiz-adv-x="1140" 
d="M809 961v514h113v-1475h-111v106q-50 -64 -126 -95t-159 -31q-174 0 -278.5 101.5t-104.5 272.5v357q0 172 104.5 273t278.5 101q82 0 157.5 -30.5t125.5 -93.5zM1079 1475h101v-328h-101v328zM809 360v345q0 123 -75.5 198.5t-201.5 75.5q-127 0 -201.5 -73.5
t-74.5 -200.5v-345q0 -128 74 -201t202 -73q126 0 201.5 75.5t75.5 198.5z" />
    <glyph glyph-name="Dcroat" unicode="&#x110;" horiz-adv-x="1126" 
d="M578 1475q180 0 291.5 -105.5t111.5 -269.5v-719q0 -169 -110.5 -275t-297.5 -106h-397v725h-125v92h125v658h402zM868 381v715q0 128 -83 199t-224 71h-272v-549h340v-92h-340v-616h272q143 0 225 71t82 201z" />
    <glyph glyph-name="dcroat" unicode="&#x111;" horiz-adv-x="1085" 
d="M1059 1333v-102h-137v-1231h-111v106q-50 -64 -126 -95t-159 -31q-174 0 -278.5 101.5t-104.5 272.5v357q0 172 104.5 273t278.5 101q82 0 157.5 -30.5t125.5 -93.5v270h-371v102h371v142h113v-142h137zM809 360v345q0 123 -75.5 198.5t-201.5 75.5q-127 0 -201.5 -73.5
t-74.5 -200.5v-345q0 -128 74 -201t202 -73q126 0 201.5 75.5t75.5 198.5z" />
    <glyph glyph-name="Emacron" unicode="&#x112;" horiz-adv-x="1019" 
d="M254 1634v90h604v-90h-604zM934 1366h-655v-537h604v-108h-604v-612h655v-109h-768v1475h768v-109z" />
    <glyph glyph-name="emacron" unicode="&#x113;" horiz-adv-x="1071" 
d="M233 1296v93h601v-93h-601zM924 510h-668v-154q0 -127 77 -199.5t202 -72.5q127 0 198 65t80 187h111q-7 -165 -112.5 -260.5t-276.5 -95.5q-179 0 -285.5 102.5t-106.5 275.5v353q0 170 107 272t285 102q180 0 284.5 -101t104.5 -273v-201zM535 981q-128 0 -203.5 -72
t-75.5 -200v-101h555v101q0 128 -74 200t-202 72z" />
    <glyph glyph-name="Ebreve" unicode="&#x114;" horiz-adv-x="1019" 
d="M557 1593q-110 0 -180 62t-88 188h100q9 -79 54.5 -120.5t113.5 -41.5q67 0 112 41.5t54 120.5h102q-18 -126 -88 -188t-180 -62zM934 1366h-655v-537h604v-108h-604v-612h655v-109h-768v1475h768v-109z" />
    <glyph glyph-name="ebreve" unicode="&#x115;" horiz-adv-x="1071" 
d="M535 1214q-115 0 -190.5 65t-96.5 191h104q13 -80 61 -120.5t122 -40.5t121.5 40.5t60.5 120.5h104q-20 -126 -95.5 -191t-190.5 -65zM924 510h-668v-154q0 -127 77 -199.5t202 -72.5q127 0 198 65t80 187h111q-7 -165 -112.5 -260.5t-276.5 -95.5q-179 0 -285.5 102.5
t-106.5 275.5v353q0 170 107 272t285 102q180 0 284.5 -101t104.5 -273v-201zM535 981q-128 0 -203.5 -72t-75.5 -200v-101h555v101q0 128 -74 200t-202 72z" />
    <glyph glyph-name="Edotaccent" unicode="&#x116;" horiz-adv-x="1019" 
d="M487 1593v174h142v-174h-142zM934 1366h-655v-537h604v-108h-604v-612h655v-109h-768v1475h768v-109z" />
    <glyph glyph-name="edotaccent" unicode="&#x117;" horiz-adv-x="1071" 
d="M471 1262v170h127v-170h-127zM924 510h-668v-154q0 -127 77 -199.5t202 -72.5q127 0 198 65t80 187h111q-7 -165 -112.5 -260.5t-276.5 -95.5q-179 0 -285.5 102.5t-106.5 275.5v353q0 170 107 272t285 102q180 0 284.5 -101t104.5 -273v-201zM535 981q-128 0 -203.5 -72
t-75.5 -200v-101h555v101q0 128 -74 200t-202 72z" />
    <glyph glyph-name="Eogonek" unicode="&#x118;" horiz-adv-x="1019" 
d="M934 1366h-655v-537h604v-108h-604v-612h655v-109h-139q-113 0 -113 -129v-64q0 -51 42 -83.5t101 -32.5h27v-101h-29q-106 0 -175.5 59t-69.5 148v58q0 94 45 145h-457v1475h768v-109z" />
    <glyph glyph-name="eogonek" unicode="&#x119;" horiz-adv-x="1071" 
d="M924 510h-668v-154q0 -127 77 -199.5t202 -72.5q127 0 198 65t80 187h111q-6 -122 -66 -207.5t-164 -122.5q-49 -22 -49 -104v-78q0 -58 42 -95.5t99 -37.5h25v-101h-27q-105 0 -174 64.5t-69 161.5v55q0 62 26 109h-32q-179 0 -285.5 102.5t-106.5 275.5v353
q0 170 107 272t285 102q180 0 284.5 -101t104.5 -273v-201zM256 709v-101h555v101q0 128 -74 200t-202 72t-203.5 -72t-75.5 -200z" />
    <glyph glyph-name="Ecaron" unicode="&#x11a;" horiz-adv-x="1019" 
d="M608 1597h-106l-199 289h105l149 -211l150 211h102zM934 1366h-655v-537h604v-108h-604v-612h655v-109h-768v1475h768v-109z" />
    <glyph glyph-name="ecaron" unicode="&#x11b;" horiz-adv-x="1071" 
d="M479 1229l-200 287h104l152 -205l153 205h103l-199 -287h-113zM924 510h-668v-154q0 -127 77 -199.5t202 -72.5q127 0 198 65t80 187h111q-7 -165 -112.5 -260.5t-276.5 -95.5q-179 0 -285.5 102.5t-106.5 275.5v353q0 170 107 272t285 102q180 0 284.5 -101t104.5 -273
v-201zM535 981q-128 0 -203.5 -72t-75.5 -200v-101h555v101q0 128 -74 200t-202 72z" />
    <glyph glyph-name="Gcircumflex" unicode="&#x11c;" horiz-adv-x="1095" 
d="M551 1810l-152 -213h-102l199 289h106l201 -289h-103zM535 674v106h417v-403q0 -177 -114 -287t-289 -110q-180 0 -293 107.5t-113 289.5v727q0 172 115 281.5t291 109.5q173 0 285 -103t118 -276h-112q-4 120 -86 195t-205 75q-130 0 -210.5 -79t-80.5 -211v-715
q0 -132 81.5 -212.5t209.5 -80.5t209.5 80.5t81.5 212.5v293h-305z" />
    <glyph glyph-name="gcircumflex" unicode="&#x11d;" horiz-adv-x="1085" 
d="M287 1243l198 289h113l201 -289h-103l-153 205l-154 -205h-102zM809 1065h113v-1116q0 -183 -105 -281t-276 -98q-169 0 -269.5 90.5t-109.5 239.5h112q8 -103 78.5 -165.5t190.5 -62.5q123 0 194.5 70t71.5 199v184q-50 -63 -125.5 -94t-157.5 -31q-174 0 -278.5 102
t-104.5 273v336q0 172 104.5 273t278.5 101q82 0 157.5 -30.5t125.5 -93.5v104zM532 106q126 0 201.5 76t75.5 199v324q0 123 -75.5 198.5t-201.5 75.5q-127 0 -201.5 -73.5t-74.5 -200.5v-324q0 -129 74 -202t202 -73z" />
    <glyph glyph-name="Gbreve" unicode="&#x11e;" horiz-adv-x="1095" 
d="M549 1593q-110 0 -180 62t-88 188h100q9 -79 54.5 -120.5t113.5 -41.5q67 0 112 41.5t54 120.5h102q-18 -126 -88 -188t-180 -62zM549 -20q-180 0 -293 107.5t-113 289.5v727q0 172 115 281.5t291 109.5q173 0 285 -103t118 -276h-112q-4 120 -86 195t-205 75
q-130 0 -210.5 -79t-80.5 -211v-715q0 -132 81.5 -212.5t209.5 -80.5t209.5 80.5t81.5 212.5v293h-305v106h417v-403q0 -177 -114 -287t-289 -110z" />
    <glyph glyph-name="gbreve" unicode="&#x11f;" horiz-adv-x="1085" 
d="M543 1214q-115 0 -190.5 65t-96.5 191h104q13 -80 61 -120.5t122 -40.5t121.5 40.5t60.5 120.5h104q-20 -126 -95.5 -191t-190.5 -65zM809 1065h113v-1116q0 -183 -105 -281t-276 -98q-169 0 -269.5 90.5t-109.5 239.5h112q8 -103 78.5 -165.5t190.5 -62.5
q123 0 194.5 70t71.5 199v184q-50 -63 -125.5 -94t-157.5 -31q-174 0 -278.5 102t-104.5 273v336q0 172 104.5 273t278.5 101q82 0 157.5 -30.5t125.5 -93.5v104zM532 106q126 0 201.5 76t75.5 199v324q0 123 -75.5 198.5t-201.5 75.5q-127 0 -201.5 -73.5t-74.5 -200.5
v-324q0 -129 74 -202t202 -73z" />
    <glyph glyph-name="Gdotaccent" unicode="&#x120;" horiz-adv-x="1095" 
d="M479 1593v174h142v-174h-142zM549 -20q-180 0 -293 107.5t-113 289.5v727q0 172 115 281.5t291 109.5q173 0 285 -103t118 -276h-112q-4 120 -86 195t-205 75q-130 0 -210.5 -79t-80.5 -211v-715q0 -132 81.5 -212.5t209.5 -80.5t209.5 80.5t81.5 212.5v293h-305v106h417
v-403q0 -177 -114 -287t-289 -110z" />
    <glyph glyph-name="gdotaccent" unicode="&#x121;" horiz-adv-x="1085" 
d="M479 1262v170h127v-170h-127zM809 1065h113v-1116q0 -183 -105 -281t-276 -98q-169 0 -269.5 90.5t-109.5 239.5h112q8 -103 78.5 -165.5t190.5 -62.5q123 0 194.5 70t71.5 199v184q-50 -63 -125.5 -94t-157.5 -31q-174 0 -278.5 102t-104.5 273v336q0 172 104.5 273
t278.5 101q82 0 157.5 -30.5t125.5 -93.5v104zM532 106q126 0 201.5 76t75.5 199v324q0 123 -75.5 198.5t-201.5 75.5q-127 0 -201.5 -73.5t-74.5 -200.5v-324q0 -129 74 -202t202 -73z" />
    <glyph glyph-name="uni0122" unicode="&#x122;" horiz-adv-x="1095" 
d="M549 -20q-180 0 -293 107.5t-113 289.5v727q0 172 115 281.5t291 109.5q173 0 285 -103t118 -276h-112q-4 120 -86 195t-205 75q-130 0 -210.5 -79t-80.5 -211v-715q0 -132 81.5 -212.5t209.5 -80.5t209.5 80.5t81.5 212.5v293h-305v106h417v-403q0 -177 -114 -287
t-289 -110zM334 -375l168 287h94l-141 -287h-121z" />
    <glyph glyph-name="uni0123" unicode="&#x123;" horiz-adv-x="1085" 
d="M481 1245l170 289h92l-139 -289h-123zM809 1065h113v-1116q0 -183 -105 -281t-276 -98q-169 0 -269.5 90.5t-109.5 239.5h112q8 -103 78.5 -165.5t190.5 -62.5q123 0 194.5 70t71.5 199v184q-50 -63 -125.5 -94t-157.5 -31q-174 0 -278.5 102t-104.5 273v336
q0 172 104.5 273t278.5 101q82 0 157.5 -30.5t125.5 -93.5v104zM532 106q126 0 201.5 76t75.5 199v324q0 123 -75.5 198.5t-201.5 75.5q-127 0 -201.5 -73.5t-74.5 -200.5v-324q0 -129 74 -202t202 -73z" />
    <glyph glyph-name="Hcircumflex" unicode="&#x124;" horiz-adv-x="1165" 
d="M586 1810l-152 -213h-102l198 289h107l201 -289h-103zM887 1475h112v-1475h-112v715h-608v-715h-113v1475h113v-654h608v654z" />
    <glyph glyph-name="hcircumflex" unicode="&#x125;" horiz-adv-x="1099" 
d="M373 1597l-150 213l-151 -213h-103l199 289h106l201 -289h-102zM561 1085q174 0 277.5 -101t103.5 -273v-711h-113v705q0 127 -74.5 200.5t-199.5 73.5q-127 0 -203 -75t-76 -199v-705h-112v1475h112v-517q49 63 125 95t160 32z" />
    <glyph glyph-name="Hbar" unicode="&#x126;" horiz-adv-x="1165" 
d="M1139 1223v-107h-140v-1116h-112v715h-608v-715h-113v1116h-141v107h141v252h113v-252h608v252h112v-252h140zM887 821v295h-608v-295h608z" />
    <glyph glyph-name="hbar" unicode="&#x127;" horiz-adv-x="1099" 
d="M561 1085q174 0 277.5 -101t103.5 -273v-711h-113v705q0 127 -74.5 200.5t-199.5 73.5q-127 0 -203 -75t-76 -199v-705h-112v1231h-137v102h137v142h112v-142h371v-102h-371v-273q49 63 125 95t160 32z" />
    <glyph glyph-name="Itilde" unicode="&#x128;" horiz-adv-x="444" 
d="M322 1608q-45 0 -104 30.5t-91 30.5q-25 0 -43.5 -10.5t-46.5 -34.5l-55 57q64 76 141 76q44 0 106.5 -29.5t89.5 -29.5q24 0 43 12t44 37l57 -59q-70 -80 -141 -80zM166 0v1475h113v-1475h-113z" />
    <glyph glyph-name="itilde" unicode="&#x129;" horiz-adv-x="440" 
d="M322 1260q-45 0 -103 28.5t-90 28.5q-40 0 -90 -41l-55 59q68 74 141 74q44 0 106.5 -28.5t87.5 -28.5q38 0 89 45l55 -60q-68 -77 -141 -77zM164 0v1065h110v-1065h-110z" />
    <glyph glyph-name="Imacron" unicode="&#x12a;" horiz-adv-x="444" 
d="M18 1634v92h408v-92h-408zM166 0v1475h113v-1475h-113z" />
    <glyph glyph-name="imacron" unicode="&#x12b;" horiz-adv-x="440" 
d="M20 1300v91h400v-91h-400zM164 0v1065h110v-1065h-110z" />
    <glyph glyph-name="Ibreve" unicode="&#x12c;" horiz-adv-x="444" 
d="M223 1593q-110 0 -180 62t-88 188h100q9 -79 54.5 -120.5t113.5 -41.5q67 0 112 41.5t54 120.5h103q-18 -126 -88 -188t-181 -62zM166 0v1475h113v-1475h-113z" />
    <glyph glyph-name="ibreve" unicode="&#x12d;" horiz-adv-x="440" 
d="M219 1214q-115 0 -190.5 65t-96.5 191h105q13 -80 60.5 -120.5t121.5 -40.5t121.5 40.5t60.5 120.5h105q-20 -126 -96 -191t-191 -65zM164 0v1065h110v-1065h-110z" />
    <glyph glyph-name="Iogonek" unicode="&#x12e;" horiz-adv-x="444" 
d="M338 -309h24v-101h-26q-105 0 -174.5 64.5t-69.5 161.5v41q0 103 74 161v1457h113v-1475q-37 -14 -59.5 -45.5t-22.5 -73.5v-57q0 -58 42 -95.5t99 -37.5z" />
    <glyph glyph-name="iogonek" unicode="&#x12f;" horiz-adv-x="440" 
d="M283 1432v-170h-127v170h127zM334 -309h24v-101h-26q-105 0 -174.5 64.5t-69.5 161.5v41q0 103 76 163v1045h110v-1065q-37 -14 -59 -45.5t-22 -73.5v-57q0 -58 42 -95.5t99 -37.5z" />
    <glyph glyph-name="Idotaccent" unicode="&#x130;" horiz-adv-x="444" 
d="M154 1593v174h141v-174h-141zM166 0v1475h113v-1475h-113z" />
    <glyph glyph-name="dotlessi" unicode="&#x131;" horiz-adv-x="440" 
d="M164 0v1065h110v-1065h-110z" />
    <glyph glyph-name="Jcircumflex" unicode="&#x134;" horiz-adv-x="919" 
d="M463 1810l-152 -213h-102l199 289h106l201 -289h-103zM164 1475h602v-1110q0 -180 -97 -282.5t-266 -102.5t-266.5 102.5t-97.5 282.5h115q6 -277 249 -277q250 0 250 295v983h-489v109z" />
    <glyph glyph-name="jcircumflex" unicode="&#x135;" horiz-adv-x="477" 
d="M-14 1243l198 289h113l201 -289h-103l-153 205l-154 -205h-102zM-39 -410v105h51q82 0 127 40.5t45 139.5v1190h113v-1196q0 -151 -75 -215t-206 -64h-55z" />
    <glyph glyph-name="uni0136" unicode="&#x136;" horiz-adv-x="1040" 
d="M508 838l473 -838h-129l-416 739l-157 -221v-518h-113v1475h113v-775l555 775h127zM348 -375l168 287h94l-141 -287h-121z" />
    <glyph glyph-name="uni0137" unicode="&#x137;" horiz-adv-x="944" 
d="M514 637l377 -637h-133l-320 545l-162 -195v-350h-112v1475h112v-967l463 557h133zM317 -375l140 287h121l-162 -287h-99z" />
    <glyph glyph-name="Lacute" unicode="&#x139;" horiz-adv-x="962" 
d="M193 1599l137 283h123l-166 -283h-94zM166 0v1475h113v-1366h653v-109h-766z" />
    <glyph glyph-name="lacute" unicode="&#x13a;" horiz-adv-x="487" 
d="M168 1599l137 283h123l-166 -283h-94zM403 0q-245 0 -245 236v1239h112v-1217q0 -83 35.5 -118.5t112.5 -35.5h22v-104h-37z" />
    <glyph glyph-name="uni013B" unicode="&#x13b;" horiz-adv-x="962" 
d="M166 0v1475h113v-1366h653v-109h-766zM387 -375l168 287h94l-141 -287h-121z" />
    <glyph glyph-name="uni013C" unicode="&#x13c;" horiz-adv-x="487" 
d="M403 0q-245 0 -245 236v1239h112v-1217q0 -83 35.5 -118.5t112.5 -35.5h22v-104h-37zM176 -375l139 287h121l-162 -287h-98z" />
    <glyph glyph-name="Lcaron" unicode="&#x13d;" horiz-adv-x="962" 
d="M166 0v1475h113v-1366h653v-109h-766zM436 1147v328h101v-328h-101z" />
    <glyph glyph-name="lcaron" unicode="&#x13e;" horiz-adv-x="501" 
d="M403 0q-245 0 -245 236v1239h112v-1217q0 -83 35.5 -118.5t112.5 -35.5h22v-104h-37zM428 1147v328h100v-328h-100z" />
    <glyph glyph-name="Ldot" unicode="&#x13f;" horiz-adv-x="1003" 
d="M166 0v1475h113v-1366h653v-109h-766zM637 690v174h174v-174h-174z" />
    <glyph glyph-name="ldot" unicode="&#x140;" horiz-adv-x="624" 
d="M403 0q-245 0 -245 236v1239h112v-1217q0 -83 35.5 -118.5t112.5 -35.5h22v-104h-37zM438 684v174h174v-174h-174z" />
    <glyph glyph-name="Lslash" unicode="&#x141;" horiz-adv-x="962" 
d="M279 109h653v-109h-766v678l-211 -70v97l211 69v701h113v-664l440 145v-98l-440 -143v-606z" />
    <glyph glyph-name="lslash" unicode="&#x142;" horiz-adv-x="610" 
d="M545 969l-234 -142v-569q0 -83 35.5 -118.5t112.5 -35.5h22v-104h-37q-245 0 -245 236v524l-127 -76v104l127 76v611h112v-543l234 141v-104z" />
    <glyph glyph-name="Nacute" unicode="&#x143;" horiz-adv-x="1146" 
d="M786 1882l-165 -283h-95l138 283h122zM870 1475h111v-1475h-162l-543 1315v-1315h-110v1475h162l542 -1317v1317z" />
    <glyph glyph-name="nacute" unicode="&#x144;" horiz-adv-x="1099" 
d="M766 1534l-168 -289h-94l141 289h121zM561 1085q174 0 277.5 -101t103.5 -273v-711h-113v705q0 127 -74.5 200.5t-199.5 73.5q-127 0 -203 -75t-76 -199v-705h-112v1065h112v-107q49 63 125 95t160 32z" />
    <glyph glyph-name="uni0145" unicode="&#x145;" horiz-adv-x="1146" 
d="M870 1475h111v-1475h-162l-543 1315v-1315h-110v1475h162l542 -1317v1317zM358 -375l168 287h95l-142 -287h-121z" />
    <glyph glyph-name="uni0146" unicode="&#x146;" horiz-adv-x="1099" 
d="M561 1085q174 0 277.5 -101t103.5 -273v-711h-113v705q0 127 -74.5 200.5t-199.5 73.5q-127 0 -203 -75t-76 -199v-705h-112v1065h112v-107q49 63 125 95t160 32zM340 -375l139 287h121l-162 -287h-98z" />
    <glyph glyph-name="Ncaron" unicode="&#x147;" horiz-adv-x="1146" 
d="M625 1597h-107l-199 289h105l149 -211l150 211h102zM870 1475h111v-1475h-162l-543 1315v-1315h-110v1475h162l542 -1317v1317z" />
    <glyph glyph-name="ncaron" unicode="&#x148;" horiz-adv-x="1099" 
d="M608 1229h-112l-201 287h104l152 -205l154 205h102zM561 1085q174 0 277.5 -101t103.5 -273v-711h-113v705q0 127 -74.5 200.5t-199.5 73.5q-127 0 -203 -75t-76 -199v-705h-112v1065h112v-107q49 63 125 95t160 32z" />
    <glyph glyph-name="Eng" unicode="&#x14a;" horiz-adv-x="1146" 
d="M870 1475h111v-1475q0 -191 -99.5 -300.5t-271.5 -109.5v111q211 0 248 205l-582 1407v-1313h-110v1475h162l542 -1311v1311z" />
    <glyph glyph-name="eng" unicode="&#x14b;" horiz-adv-x="1099" 
d="M561 1085q174 0 277.5 -101t103.5 -273v-856q0 -265 -272 -265h-88v109h84q163 0 163 149v857q0 127 -74.5 200.5t-199.5 73.5q-127 0 -203 -75t-76 -199v-705h-112v1065h112v-107q49 63 125 95t160 32z" />
    <glyph glyph-name="Omacron" unicode="&#x14c;" 
d="M246 1634v90h604v-90h-604zM549 -20q-180 0 -293 107.5t-113 289.5v727q0 172 115 281.5t291 109.5t289.5 -109.5t113.5 -281.5v-727q0 -182 -112 -289.5t-291 -107.5zM549 88q128 0 209.5 80.5t81.5 212.5v715q0 132 -81 211t-210 79q-130 0 -210.5 -79t-80.5 -211v-715
q0 -132 81.5 -212.5t209.5 -80.5z" />
    <glyph glyph-name="omacron" unicode="&#x14d;" horiz-adv-x="1067" 
d="M233 1296v93h601v-93h-601zM535 -20q-179 0 -285.5 102.5t-106.5 275.5v349q0 173 106.5 275.5t285.5 102.5q177 0 283 -102.5t106 -275.5v-349q0 -173 -106 -275.5t-283 -102.5zM535 86q127 0 201.5 72.5t74.5 199.5v349q0 127 -74.5 199.5t-201.5 72.5
q-128 0 -203.5 -72.5t-75.5 -199.5v-349q0 -127 75.5 -199.5t203.5 -72.5z" />
    <glyph glyph-name="Obreve" unicode="&#x14e;" 
d="M549 1593q-110 0 -180 62t-88 188h100q9 -79 54.5 -120.5t113.5 -41.5q67 0 112 41.5t54 120.5h102q-18 -126 -88 -188t-180 -62zM549 -20q-180 0 -293 107.5t-113 289.5v727q0 172 115 281.5t291 109.5t289.5 -109.5t113.5 -281.5v-727q0 -182 -112 -289.5t-291 -107.5z
M549 88q128 0 209.5 80.5t81.5 212.5v715q0 132 -81 211t-210 79q-130 0 -210.5 -79t-80.5 -211v-715q0 -132 81.5 -212.5t209.5 -80.5z" />
    <glyph glyph-name="obreve" unicode="&#x14f;" horiz-adv-x="1067" 
d="M535 1214q-115 0 -190.5 65t-96.5 191h104q13 -80 61 -120.5t122 -40.5t121.5 40.5t60.5 120.5h104q-20 -126 -95.5 -191t-190.5 -65zM535 -20q-179 0 -285.5 102.5t-106.5 275.5v349q0 173 106.5 275.5t285.5 102.5q177 0 283 -102.5t106 -275.5v-349
q0 -173 -106 -275.5t-283 -102.5zM535 86q127 0 201.5 72.5t74.5 199.5v349q0 127 -74.5 199.5t-201.5 72.5q-128 0 -203.5 -72.5t-75.5 -199.5v-349q0 -127 75.5 -199.5t203.5 -72.5z" />
    <glyph glyph-name="Ohungarumlaut" unicode="&#x150;" 
d="M373 1612l133 272h119l-158 -272h-94zM645 1612l133 272h119l-158 -272h-94zM549 -20q-180 0 -293 107.5t-113 289.5v727q0 172 115 281.5t291 109.5t289.5 -109.5t113.5 -281.5v-727q0 -182 -112 -289.5t-291 -107.5zM549 88q128 0 209.5 80.5t81.5 212.5v715
q0 132 -81 211t-210 79q-130 0 -210.5 -79t-80.5 -211v-715q0 -132 81.5 -212.5t209.5 -80.5z" />
    <glyph glyph-name="ohungarumlaut" unicode="&#x151;" horiz-adv-x="1067" 
d="M358 1245l134 271h118l-157 -271h-95zM631 1245l133 271h119l-158 -271h-94zM535 -20q-179 0 -285.5 102.5t-106.5 275.5v349q0 173 106.5 275.5t285.5 102.5q177 0 283 -102.5t106 -275.5v-349q0 -173 -106 -275.5t-283 -102.5zM535 86q127 0 201.5 72.5t74.5 199.5v349
q0 127 -74.5 199.5t-201.5 72.5q-128 0 -203.5 -72.5t-75.5 -199.5v-349q0 -127 75.5 -199.5t203.5 -72.5z" />
    <glyph glyph-name="OE" unicode="&#x152;" horiz-adv-x="1691" 
d="M1606 1366h-656v-537h604v-108h-604v-612h656v-109h-768v98q-46 -56 -121 -87t-168 -31q-180 0 -293 107.5t-113 289.5v727q0 172 115 281.5t291 109.5q90 0 166.5 -33t122.5 -90v103h768v-109zM547 86q129 0 210 81t81 214v715q0 132 -80 211t-209 79q-130 0 -210.5 -79
t-80.5 -211v-715q0 -132 81.5 -213.5t207.5 -81.5z" />
    <glyph glyph-name="oe" unicode="&#x153;" horiz-adv-x="1738" 
d="M924 510v-154q0 -127 76.5 -199.5t201.5 -72.5q127 0 198.5 65t80.5 187h110q-7 -165 -112.5 -260.5t-276.5 -95.5q-113 0 -199.5 43t-134.5 120q-50 -78 -135.5 -120.5t-197.5 -42.5q-179 0 -285.5 102.5t-106.5 275.5v349q0 173 106.5 275.5t285.5 102.5
q113 0 198 -42.5t133 -120.5q50 78 136.5 120.5t199.5 42.5q180 0 284.5 -101t104.5 -273v-201h-667zM924 709v-101h555v101q0 128 -74.5 200t-202.5 72q-127 0 -202.5 -72t-75.5 -200zM535 86q127 0 201.5 72.5t74.5 199.5v349q0 127 -74.5 199.5t-201.5 72.5
q-128 0 -203.5 -72.5t-75.5 -199.5v-349q0 -127 75.5 -199.5t203.5 -72.5z" />
    <glyph glyph-name="Racute" unicode="&#x154;" horiz-adv-x="1085" 
d="M752 1882l-166 -283h-94l137 283h123zM981 0h-129l-283 641h-10h-280v-641h-113v1475h393q190 0 302 -100.5t112 -268.5v-96q0 -137 -77.5 -231.5t-211.5 -125.5zM279 748h284q141 0 219 72t78 198v80q0 126 -78 197t-219 71h-284v-618z" />
    <glyph glyph-name="racute" unicode="&#x155;" horiz-adv-x="636" 
d="M606 1534l-168 -289h-94l141 289h121zM276 936q44 64 111 96.5t143 32.5h66v-111h-74q-105 0 -175.5 -72.5t-70.5 -205.5v-676h-112v1065h112v-129z" />
    <glyph glyph-name="uni0156" unicode="&#x156;" horiz-adv-x="1085" 
d="M684 653l297 -653h-129l-283 641h-10h-280v-641h-113v1475h393q190 0 302 -100.5t112 -268.5v-96q0 -137 -77.5 -231.5t-211.5 -125.5zM279 748h284q141 0 219 72t78 198v80q0 126 -78 197t-219 71h-284v-618zM352 -375l168 287h94l-141 -287h-121z" />
    <glyph glyph-name="uni0157" unicode="&#x157;" horiz-adv-x="636" 
d="M530 1065h66v-111h-74q-105 0 -175.5 -72.5t-70.5 -205.5v-676h-112v1065h112v-129q44 64 111 96.5t143 32.5zM10 -375l140 287h120l-161 -287h-99z" />
    <glyph glyph-name="Rcaron" unicode="&#x158;" horiz-adv-x="1085" 
d="M590 1597h-107l-198 289h104l150 -211l149 211h103zM981 0h-129l-283 641h-10h-280v-641h-113v1475h393q190 0 302 -100.5t112 -268.5v-96q0 -137 -77.5 -231.5t-211.5 -125.5zM279 748h284q141 0 219 72t78 198v80q0 126 -78 197t-219 71h-284v-618z" />
    <glyph glyph-name="rcaron" unicode="&#x159;" horiz-adv-x="636" 
d="M449 1229h-113l-201 287h105l151 -205l154 205h102zM276 936q44 64 111 96.5t143 32.5h66v-111h-74q-105 0 -175.5 -72.5t-70.5 -205.5v-676h-112v1065h112v-129z" />
    <glyph glyph-name="Sacute" unicode="&#x15a;" horiz-adv-x="1044" 
d="M475 1599l137 283h123l-166 -283h-94zM518 -20q-189 0 -304 111t-114 306h113q-1 -147 81 -228t224 -81q139 0 225 80.5t86 208.5q0 102 -59 167t-195 132l-161 80q-138 65 -213.5 154.5t-75.5 217.5q0 159 110.5 263t284.5 104q187 0 296.5 -103.5t109.5 -277.5h-113
q0 127 -79.5 199.5t-213.5 72.5q-125 0 -202.5 -72t-77.5 -177q0 -97 52 -158.5t173 -118.5l182 -88q154 -74 226.5 -164.5t72.5 -222.5q0 -181 -121.5 -293t-306.5 -112z" />
    <glyph glyph-name="sacute" unicode="&#x15b;" horiz-adv-x="989" 
d="M449 1245l141 289h121l-168 -289h-94zM494 -20q-110 0 -197 38t-142 119.5t-55 196.5h113q0 -117 77 -184.5t204 -67.5q128 0 202 57.5t74 143.5q0 72 -50 112t-157 74l-168 53q-132 41 -200 102.5t-68 172.5q0 129 103 208.5t266 79.5q179 0 277 -84.5t104 -232.5h-111
q-16 215 -270 215q-117 0 -186.5 -52.5t-69.5 -129.5q0 -71 47 -108t153 -70l168 -54q140 -44 208.5 -105.5t68.5 -174.5q0 -140 -109.5 -224.5t-281.5 -84.5z" />
    <glyph glyph-name="Scircumflex" unicode="&#x15c;" horiz-adv-x="1044" 
d="M524 1810l-151 -213h-103l199 289h106l201 -289h-102zM647 772q154 -74 226.5 -164.5t72.5 -222.5q0 -181 -121.5 -293t-306.5 -112q-189 0 -304 111t-114 306h113q-1 -147 81 -228t224 -81q139 0 225 80.5t86 208.5q0 102 -59 167t-195 132l-161 80
q-138 65 -213.5 154.5t-75.5 217.5q0 159 110.5 263t284.5 104q187 0 296.5 -103.5t109.5 -277.5h-113q0 127 -79.5 199.5t-213.5 72.5q-125 0 -202.5 -72t-77.5 -177q0 -97 52 -158.5t173 -118.5z" />
    <glyph glyph-name="scircumflex" unicode="&#x15d;" horiz-adv-x="989" 
d="M240 1243l198 289h113l201 -289h-103l-153 205l-154 -205h-102zM494 -20q-110 0 -197 38t-142 119.5t-55 196.5h113q0 -117 77 -184.5t204 -67.5q128 0 202 57.5t74 143.5q0 72 -50 112t-157 74l-168 53q-132 41 -200 102.5t-68 172.5q0 129 103 208.5t266 79.5
q179 0 277 -84.5t104 -232.5h-111q-16 215 -270 215q-117 0 -186.5 -52.5t-69.5 -129.5q0 -71 47 -108t153 -70l168 -54q140 -44 208.5 -105.5t68.5 -174.5q0 -140 -109.5 -224.5t-281.5 -84.5z" />
    <glyph glyph-name="Scedilla" unicode="&#x15e;" horiz-adv-x="1044" 
d="M518 -20q-189 0 -304 111t-114 306h113q-1 -147 81 -228t224 -81q139 0 225 80.5t86 208.5q0 102 -59 167t-195 132l-161 80q-138 65 -213.5 154.5t-75.5 217.5q0 159 110.5 263t284.5 104q187 0 296.5 -103.5t109.5 -277.5h-113q0 127 -79.5 199.5t-213.5 72.5
q-125 0 -202.5 -72t-77.5 -177q0 -97 52 -158.5t173 -118.5l182 -88q154 -74 226.5 -164.5t72.5 -222.5q0 -181 -121.5 -293t-306.5 -112zM307 -375l168 287h94l-141 -287h-121z" />
    <glyph glyph-name="scedilla" unicode="&#x15f;" horiz-adv-x="989" 
d="M494 -20q-110 0 -197 38t-142 119.5t-55 196.5h113q0 -117 77 -184.5t204 -67.5q128 0 202 57.5t74 143.5q0 72 -50 112t-157 74l-168 53q-132 41 -200 102.5t-68 172.5q0 129 103 208.5t266 79.5q179 0 277 -84.5t104 -232.5h-111q-16 215 -270 215q-117 0 -186.5 -52.5
t-69.5 -129.5q0 -71 47 -108t153 -70l168 -54q140 -44 208.5 -105.5t68.5 -174.5q0 -140 -109.5 -224.5t-281.5 -84.5zM281 -375l168 287h94l-142 -287h-120z" />
    <glyph glyph-name="Scaron" unicode="&#x160;" horiz-adv-x="1044" 
d="M573 1597h-106l-199 289h105l149 -211l150 211h102zM647 772q154 -74 226.5 -164.5t72.5 -222.5q0 -181 -121.5 -293t-306.5 -112q-189 0 -304 111t-114 306h113q-1 -147 81 -228t224 -81q139 0 225 80.5t86 208.5q0 102 -59 167t-195 132l-161 80q-138 65 -213.5 154.5
t-75.5 217.5q0 159 110.5 263t284.5 104q187 0 296.5 -103.5t109.5 -277.5h-113q0 127 -79.5 199.5t-213.5 72.5q-125 0 -202.5 -72t-77.5 -177q0 -97 52 -158.5t173 -118.5z" />
    <glyph glyph-name="scaron" unicode="&#x161;" horiz-adv-x="989" 
d="M440 1229l-200 287h104l152 -205l153 205h103l-199 -287h-113zM494 -20q-110 0 -197 38t-142 119.5t-55 196.5h113q0 -117 77 -184.5t204 -67.5q128 0 202 57.5t74 143.5q0 72 -50 112t-157 74l-168 53q-132 41 -200 102.5t-68 172.5q0 129 103 208.5t266 79.5
q179 0 277 -84.5t104 -232.5h-111q-16 215 -270 215q-117 0 -186.5 -52.5t-69.5 -129.5q0 -71 47 -108t153 -70l168 -54q140 -44 208.5 -105.5t68.5 -174.5q0 -140 -109.5 -224.5t-281.5 -84.5z" />
    <glyph glyph-name="uni0162" unicode="&#x162;" horiz-adv-x="958" 
d="M903 1475v-109h-366v-1366h-113v1366h-369v109h848zM264 -375l168 287h94l-141 -287h-121z" />
    <glyph glyph-name="uni0163" unicode="&#x163;" horiz-adv-x="710" 
d="M637 961h-266v-703q0 -83 35 -118.5t112 -35.5h96v-104h-110q-116 0 -181 57.5t-65 180.5v723h-197v104h197v410h113v-410h266v-104zM229 -375l168 287h95l-142 -287h-121z" />
    <glyph glyph-name="Tcaron" unicode="&#x164;" horiz-adv-x="958" 
d="M530 1597h-106l-199 289h105l149 -211l150 211h102zM903 1475v-109h-366v-1366h-113v1366h-369v109h848z" />
    <glyph glyph-name="tcaron" unicode="&#x165;" horiz-adv-x="710" 
d="M637 961h-266v-703q0 -83 35 -118.5t112 -35.5h96v-104h-110q-116 0 -181 57.5t-65 180.5v723h-197v104h197v410h113v-410h266v-104zM629 1475v-328h-101v328h101z" />
    <glyph glyph-name="Tbar" unicode="&#x166;" horiz-adv-x="958" 
d="M903 1366h-366v-514h260v-100h-260v-752h-113v752h-264v100h264v514h-369v109h848v-109z" />
    <glyph glyph-name="tbar" unicode="&#x167;" horiz-adv-x="710" 
d="M637 961h-266v-334h256v-107h-256v-262q0 -83 35 -118.5t112 -35.5h96v-104h-110q-116 0 -181 57.5t-65 180.5v282h-203v107h203v334h-197v104h197v410h113v-410h266v-104z" />
    <glyph glyph-name="Utilde" unicode="&#x168;" 
d="M686 1599q-51 0 -146 39t-128 39q-30 0 -55.5 -14t-61.5 -53l-62 53q84 106 179 106q52 0 146 -39.5t132 -39.5q32 0 56 14t53 51l55 -55q-74 -101 -168 -101zM549 -20q-180 0 -293 107.5t-113 289.5v1098h115v-1094q0 -132 81.5 -212.5t209.5 -80.5t209.5 80.5
t81.5 212.5v1094h112v-1098q0 -182 -112 -289.5t-291 -107.5z" />
    <glyph glyph-name="utilde" unicode="&#x169;" horiz-adv-x="1099" 
d="M690 1245q-52 0 -148 43t-128 43q-27 0 -52.5 -15t-64.5 -54l-61 65q84 103 178 103q52 0 143.5 -43.5t130.5 -43.5q32 0 54 14t57 52l61 -66q-80 -98 -170 -98zM821 1065h113v-1065h-111v125q-50 -69 -127 -107t-172 -38q-169 0 -267.5 100.5t-98.5 292.5v692h112v-686
q0 -142 71 -217.5t196 -75.5q128 0 206 82t78 215v682z" />
    <glyph glyph-name="Umacron" unicode="&#x16a;" 
d="M246 1634v90h604v-90h-604zM549 -20q-180 0 -293 107.5t-113 289.5v1098h115v-1094q0 -132 81.5 -212.5t209.5 -80.5t209.5 80.5t81.5 212.5v1094h112v-1098q0 -182 -112 -289.5t-291 -107.5z" />
    <glyph glyph-name="umacron" unicode="&#x16b;" horiz-adv-x="1099" 
d="M248 1296v93h600v-93h-600zM821 1065h113v-1065h-111v125q-50 -69 -127 -107t-172 -38q-169 0 -267.5 100.5t-98.5 292.5v692h112v-686q0 -142 71 -217.5t196 -75.5q128 0 206 82t78 215v682z" />
    <glyph glyph-name="Ubreve" unicode="&#x16c;" 
d="M549 1593q-110 0 -180 62t-88 188h100q9 -79 54.5 -120.5t113.5 -41.5q67 0 112 41.5t54 120.5h102q-18 -126 -88 -188t-180 -62zM549 -20q-180 0 -293 107.5t-113 289.5v1098h115v-1094q0 -132 81.5 -212.5t209.5 -80.5t209.5 80.5t81.5 212.5v1094h112v-1098
q0 -182 -112 -289.5t-291 -107.5z" />
    <glyph glyph-name="ubreve" unicode="&#x16d;" horiz-adv-x="1099" 
d="M549 1214q-115 0 -190.5 65t-96.5 191h105q13 -80 60.5 -120.5t121.5 -40.5t121.5 40.5t60.5 120.5h105q-20 -126 -96 -191t-191 -65zM821 1065h113v-1065h-111v125q-50 -69 -127 -107t-172 -38q-169 0 -267.5 100.5t-98.5 292.5v692h112v-686q0 -142 71 -217.5
t196 -75.5q128 0 206 82t78 215v682z" />
    <glyph glyph-name="Uring" unicode="&#x16e;" 
d="M547 1552q-82 0 -141.5 60.5t-59.5 142.5q0 84 59.5 142.5t141.5 58.5q85 0 145 -58.5t60 -142.5q0 -82 -60.5 -142.5t-144.5 -60.5zM547 1632q50 0 85.5 36.5t35.5 86.5q0 51 -35 86t-86 35q-50 0 -84.5 -35t-34.5 -86q0 -50 35 -86.5t84 -36.5zM549 -20
q-180 0 -293 107.5t-113 289.5v1098h115v-1094q0 -132 81.5 -212.5t209.5 -80.5t209.5 80.5t81.5 212.5v1094h112v-1098q0 -182 -112 -289.5t-291 -107.5z" />
    <glyph glyph-name="uring" unicode="&#x16f;" horiz-adv-x="1099" 
d="M547 1198q-82 0 -141.5 59.5t-59.5 141.5q0 84 59.5 143.5t141.5 59.5q85 0 145 -58.5t60 -144.5q0 -82 -60.5 -141.5t-144.5 -59.5zM547 1278q50 0 85.5 36.5t35.5 84.5q0 51 -35 87t-86 36q-49 0 -84 -36t-35 -87q0 -48 35 -84.5t84 -36.5zM821 1065h113v-1065h-111
v125q-50 -69 -127 -107t-172 -38q-169 0 -267.5 100.5t-98.5 292.5v692h112v-686q0 -142 71 -217.5t196 -75.5q128 0 206 82t78 215v682z" />
    <glyph glyph-name="Uhungarumlaut" unicode="&#x170;" 
d="M373 1612l133 272h119l-158 -272h-94zM645 1612l133 272h119l-158 -272h-94zM549 -20q-180 0 -293 107.5t-113 289.5v1098h115v-1094q0 -132 81.5 -212.5t209.5 -80.5t209.5 80.5t81.5 212.5v1094h112v-1098q0 -182 -112 -289.5t-291 -107.5z" />
    <glyph glyph-name="uhungarumlaut" unicode="&#x171;" horiz-adv-x="1099" 
d="M373 1245l133 271h119l-158 -271h-94zM645 1245l133 271h119l-158 -271h-94zM821 1065h113v-1065h-111v125q-50 -69 -127 -107t-172 -38q-169 0 -267.5 100.5t-98.5 292.5v692h112v-686q0 -142 71 -217.5t196 -75.5q128 0 206 82t78 215v682z" />
    <glyph glyph-name="Uogonek" unicode="&#x172;" 
d="M840 1475h112v-1098q0 -162 -89.5 -266.5t-239.5 -126.5q-58 -5 -58 -107v-53q0 -58 42.5 -95.5t101.5 -37.5h24v-101h-26q-107 0 -176.5 64.5t-69.5 161.5v34q0 79 35 132q-158 15 -255.5 121t-97.5 274v1098h115v-1094q0 -132 81.5 -212.5t209.5 -80.5t209.5 80.5
t81.5 212.5v1094z" />
    <glyph glyph-name="uogonek" unicode="&#x173;" horiz-adv-x="1099" 
d="M993 -309h25v-101h-27q-105 0 -174 64.5t-69 161.5v41q0 104 75 163v105q-50 -69 -127 -107t-172 -38q-169 0 -267.5 100.5t-98.5 292.5v692h112v-686q0 -142 71 -217.5t196 -75.5q128 0 206 82t78 215v682h113v-1065q-37 -14 -59.5 -45.5t-22.5 -73.5v-57
q0 -58 42 -95.5t99 -37.5z" />
    <glyph glyph-name="Wcircumflex" unicode="&#x174;" horiz-adv-x="1636" 
d="M819 1810l-151 -213h-103l199 289h106l201 -289h-102zM1446 1475h119l-301 -1475h-150l-297 1249l-295 -1249h-149l-301 1475h118l261 -1342l309 1342h114l310 -1346z" />
    <glyph glyph-name="wcircumflex" unicode="&#x175;" horiz-adv-x="1370" 
d="M430 1243l199 289h112l201 -289h-102l-154 205l-154 -205h-102zM324 0l-250 1065h114l209 -936h4l224 936h120l224 -936h4l209 936h114l-249 -1065h-148l-213 891h-2l-213 -891h-147z" />
    <glyph glyph-name="Ycircumflex" unicode="&#x176;" horiz-adv-x="991" 
d="M498 1810l-152 -213h-102l198 289h107l201 -289h-103zM815 1475h121l-383 -951v-524h-115v524l-383 951h121l320 -807z" />
    <glyph glyph-name="ycircumflex" unicode="&#x177;" horiz-adv-x="917" 
d="M203 1243l198 289h113l201 -289h-103l-153 205l-154 -205h-102zM139 -410v105h54q87 0 135.5 41t74.5 135l35 129h-71l-318 1065h117l283 -973h18l285 973h116l-366 -1225q-39 -135 -114.5 -192.5t-186.5 -57.5h-62z" />
    <glyph glyph-name="Ydieresis" unicode="&#x178;" horiz-adv-x="991" 
d="M344 1769v-170h-139v170h139zM782 1769v-170h-139v170h139zM815 1475h121l-383 -951v-524h-115v524l-383 951h121l320 -807z" />
    <glyph glyph-name="Zacute" unicode="&#x179;" horiz-adv-x="921" 
d="M674 1882l-166 -283h-94l137 283h123zM186 109h672v-109h-795v109l642 1257h-611v109h733v-103z" />
    <glyph glyph-name="zacute" unicode="&#x17a;" horiz-adv-x="911" 
d="M678 1534l-168 -289h-94l141 289h121zM203 98h637v-98h-754v109l586 858h-566v98h685v-104z" />
    <glyph glyph-name="Zdotaccent" unicode="&#x17b;" horiz-adv-x="921" 
d="M532 1767v-174h-141v174h141zM186 109h672v-109h-795v109l642 1257h-611v109h733v-103z" />
    <glyph glyph-name="zdotaccent" unicode="&#x17c;" horiz-adv-x="911" 
d="M526 1432v-170h-127v170h127zM203 98h637v-98h-754v109l586 858h-566v98h685v-104z" />
    <glyph glyph-name="Zcaron" unicode="&#x17d;" horiz-adv-x="921" 
d="M512 1597h-106l-199 289h104l150 -211l149 211h103zM186 109h672v-109h-795v109l642 1257h-611v109h733v-103z" />
    <glyph glyph-name="zcaron" unicode="&#x17e;" horiz-adv-x="911" 
d="M520 1229h-112l-201 287h104l152 -205l153 205h103zM203 98h637v-98h-754v109l586 858h-566v98h685v-104z" />
    <glyph glyph-name="longs" unicode="&#x17f;" horiz-adv-x="657" 
d="M524 1475h66v-105h-66q-90 0 -131 -35t-41 -129v-1206h-112v954h-172v107h172v141q0 137 69 205t215 68z" />
    <glyph glyph-name="uni018F" unicode="&#x18f;" horiz-adv-x="1095" 
d="M553 -18q-173 0 -290.5 108.5t-117.5 269.5v420h693v336q0 117 -82.5 192.5t-208.5 75.5q-125 0 -206 -77t-81 -195h-113q0 164 115.5 273.5t286.5 109.5q170 0 285.5 -107.5t115.5 -267.5v-758q0 -164 -112.5 -272t-284.5 -108zM549 92q125 0 207 76.5t82 193.5v308
h-580v-308q0 -117 82.5 -193.5t208.5 -76.5z" />
    <glyph glyph-name="florin" unicode="&#x192;" horiz-adv-x="657" 
d="M352 1061h260v-105h-260v-1101q0 -265 -272 -265h-88v109h84q164 0 164 149v1108h-174v105h174v141q0 137 69 205t215 68h66v-105h-66q-90 0 -131 -35t-41 -129v-145z" />
    <glyph glyph-name="Ohorn" unicode="&#x1a0;" 
d="M1030 1475h92v-187q0 -83 -41 -126.5t-116 -43.5h-13v-14v-727q0 -182 -112 -289.5t-291 -107.5q-180 0 -293 107.5t-113 289.5v727q0 172 115 281.5t291 109.5q147 0 253 -78t138 -209h10q80 0 80 86v181zM840 381v715q0 132 -81 211t-210 79q-130 0 -210.5 -79
t-80.5 -211v-715q0 -132 81.5 -212.5t209.5 -80.5t209.5 80.5t81.5 212.5z" />
    <glyph glyph-name="ohorn" unicode="&#x1a1;" horiz-adv-x="1069" 
d="M936 1157h100v-153q0 -146 -129 -175q17 -63 17 -122v-349q0 -173 -106 -275.5t-283 -102.5q-179 0 -285.5 102.5t-106.5 275.5v349q0 173 106.5 275.5t285.5 102.5q112 0 197.5 -42.5t135.5 -120.5q37 7 52.5 28.5t15.5 63.5v143zM811 358v349q0 127 -74.5 199.5
t-201.5 72.5q-128 0 -203.5 -72.5t-75.5 -199.5v-349q0 -127 75.5 -199.5t203.5 -72.5q127 0 201.5 72.5t74.5 199.5z" />
    <glyph glyph-name="Uhorn" unicode="&#x1af;" horiz-adv-x="1116" 
d="M1042 1475h93v-187q0 -83 -41.5 -126.5t-116.5 -43.5h-25v-741q0 -182 -112 -289.5t-291 -107.5q-180 0 -293 107.5t-113 289.5v1098h115v-1094q0 -132 81.5 -212.5t209.5 -80.5t209.5 80.5t81.5 212.5v1094h112v-267h11q41 0 60 21t19 65v181z" />
    <glyph glyph-name="uhorn" unicode="&#x1b0;" horiz-adv-x="1118" 
d="M1038 1157h101v-153q0 -92 -50 -136t-155 -49v-819h-111v125q-50 -69 -127 -107t-172 -38q-169 0 -267.5 100.5t-98.5 292.5v692h112v-686q0 -142 71 -217.5t196 -75.5q128 0 206 82t78 215v682h113v-150q58 4 81 26t23 73v143z" />
    <glyph glyph-name="uni01CD" unicode="&#x1cd;" 
d="M604 1597h-106l-199 289h104l150 -211l149 211h103zM647 1475l397 -1475h-110l-113 418h-545l-112 -418h-111l398 1475h196zM305 526h488l-228 840h-35z" />
    <glyph glyph-name="uni01CE" unicode="&#x1ce;" horiz-adv-x="1052" 
d="M487 1229l-200 287h104l152 -205l153 205h103l-199 -287h-113zM524 1085q171 0 272 -91t101 -249v-745h-111v125q-115 -145 -319 -145q-162 0 -258 88t-96 231q0 151 103 232t286 81h282v129q0 114 -66.5 177t-193.5 63q-121 0 -186.5 -57.5t-71.5 -157.5h-114
q7 149 110 234t262 85zM483 84q133 0 217 80.5t84 206.5v141h-280q-130 0 -205.5 -54t-75.5 -153q0 -103 71 -162t189 -59z" />
    <glyph glyph-name="uni01CF" unicode="&#x1cf;" horiz-adv-x="444" 
d="M274 1597h-106l-199 289h105l149 -211l150 211h102zM166 0v1475h113v-1475h-113z" />
    <glyph glyph-name="uni01D0" unicode="&#x1d0;" horiz-adv-x="440" 
d="M164 1229l-201 287h105l151 -205l154 205h102l-199 -287h-112zM164 0v1065h110v-1065h-110z" />
    <glyph glyph-name="uni01D1" unicode="&#x1d1;" 
d="M600 1597h-106l-199 289h104l150 -211l149 211h103zM549 1495q176 0 289.5 -109.5t113.5 -281.5v-727q0 -182 -112 -289.5t-291 -107.5q-180 0 -293 107.5t-113 289.5v727q0 172 115 281.5t291 109.5zM840 381v715q0 132 -81 211t-210 79q-130 0 -210.5 -79t-80.5 -211
v-715q0 -132 81.5 -212.5t209.5 -80.5t209.5 80.5t81.5 212.5z" />
    <glyph glyph-name="uni01D2" unicode="&#x1d2;" horiz-adv-x="1067" 
d="M479 1229l-200 287h104l152 -205l153 205h103l-199 -287h-113zM535 -20q-179 0 -285.5 102.5t-106.5 275.5v349q0 173 106.5 275.5t285.5 102.5q177 0 283 -102.5t106 -275.5v-349q0 -173 -106 -275.5t-283 -102.5zM535 86q127 0 201.5 72.5t74.5 199.5v349
q0 127 -74.5 199.5t-201.5 72.5q-128 0 -203.5 -72.5t-75.5 -199.5v-349q0 -127 75.5 -199.5t203.5 -72.5z" />
    <glyph glyph-name="uni01D3" unicode="&#x1d3;" 
d="M600 1597h-106l-199 289h104l150 -211l149 211h103zM840 1475h112v-1098q0 -182 -112 -289.5t-291 -107.5q-180 0 -293 107.5t-113 289.5v1098h115v-1094q0 -132 81.5 -212.5t209.5 -80.5t209.5 80.5t81.5 212.5v1094z" />
    <glyph glyph-name="uni01D4" unicode="&#x1d4;" horiz-adv-x="1099" 
d="M494 1229l-201 287h104l152 -205l153 205h103l-199 -287h-112zM821 1065h113v-1065h-111v125q-50 -69 -127 -107t-172 -38q-169 0 -267.5 100.5t-98.5 292.5v692h112v-686q0 -142 71 -217.5t196 -75.5q128 0 206 82t78 215v682z" />
    <glyph glyph-name="uni01D5" unicode="&#x1d5;" 
d="M246 1851v91h604v-91h-604zM258 1599v170h139v-170h-139zM696 1599v170h140v-170h-140zM549 -20q-180 0 -293 107.5t-113 289.5v1098h115v-1094q0 -132 81.5 -212.5t209.5 -80.5t209.5 80.5t81.5 212.5v1094h112v-1098q0 -182 -112 -289.5t-291 -107.5z" />
    <glyph glyph-name="uni01D6" unicode="&#x1d6;" horiz-adv-x="1099" 
d="M248 1532v92h600v-92h-600zM258 1262v170h139v-170h-139zM696 1262v170h140v-170h-140zM821 1065h113v-1065h-111v125q-50 -69 -127 -107t-172 -38q-169 0 -267.5 100.5t-98.5 292.5v692h112v-686q0 -142 71 -217.5t196 -75.5q128 0 206 82t78 215v682z" />
    <glyph glyph-name="uni01D7" unicode="&#x1d7;" 
d="M502 1817l137 282h123l-166 -282h-94zM258 1599v170h139v-170h-139zM696 1599v170h140v-170h-140zM549 -20q-180 0 -293 107.5t-113 289.5v1098h115v-1094q0 -132 81.5 -212.5t209.5 -80.5t209.5 80.5t81.5 212.5v1094h112v-1098q0 -182 -112 -289.5t-291 -107.5z" />
    <glyph glyph-name="uni01D8" unicode="&#x1d8;" horiz-adv-x="1099" 
d="M502 1481l141 288h121l-168 -288h-94zM258 1262v170h139v-170h-139zM696 1262v170h140v-170h-140zM821 1065h113v-1065h-111v125q-50 -69 -127 -107t-172 -38q-169 0 -267.5 100.5t-98.5 292.5v692h112v-686q0 -142 71 -217.5t196 -75.5q128 0 206 82t78 215v682z" />
    <glyph glyph-name="uni01D9" unicode="&#x1d9;" 
d="M600 1815h-106l-199 288h104l150 -211l149 211h103zM397 1769v-170h-139v170h139zM696 1599v170h140v-170h-140zM840 1475h112v-1098q0 -182 -112 -289.5t-291 -107.5q-180 0 -293 107.5t-113 289.5v1098h115v-1094q0 -132 81.5 -212.5t209.5 -80.5t209.5 80.5
t81.5 212.5v1094z" />
    <glyph glyph-name="uni01DA" unicode="&#x1da;" horiz-adv-x="1099" 
d="M494 1464l-201 287h104l152 -205l153 205h103l-199 -287h-112zM258 1262v170h139v-170h-139zM696 1262v170h140v-170h-140zM821 1065h113v-1065h-111v125q-50 -69 -127 -107t-172 -38q-169 0 -267.5 100.5t-98.5 292.5v692h112v-686q0 -142 71 -217.5t196 -75.5
q128 0 206 82t78 215v682z" />
    <glyph glyph-name="uni01DB" unicode="&#x1db;" 
d="M504 1817l-166 282h121l137 -282h-92zM258 1599v170h139v-170h-139zM696 1599v170h140v-170h-140zM549 -20q-180 0 -293 107.5t-113 289.5v1098h115v-1094q0 -132 81.5 -212.5t209.5 -80.5t209.5 80.5t81.5 212.5v1094h112v-1098q0 -182 -112 -289.5t-291 -107.5z" />
    <glyph glyph-name="uni01DC" unicode="&#x1dc;" horiz-adv-x="1099" 
d="M518 1481l-170 288h123l139 -288h-92zM258 1262v170h139v-170h-139zM696 1262v170h140v-170h-140zM821 1065h113v-1065h-111v125q-50 -69 -127 -107t-172 -38q-169 0 -267.5 100.5t-98.5 292.5v692h112v-686q0 -142 71 -217.5t196 -75.5q128 0 206 82t78 215v682z" />
    <glyph glyph-name="uni01DD" unicode="&#x1dd;" horiz-adv-x="1071" 
d="M147 555h668v154q0 127 -76.5 199.5t-201.5 72.5q-127 0 -198.5 -65t-80.5 -187h-111q7 165 113 260.5t277 95.5q179 0 285 -102.5t106 -275.5v-353q0 -170 -106.5 -272t-284.5 -102q-180 0 -285 101t-105 273v201zM537 84q127 0 202.5 72t75.5 200v101h-555v-101
q0 -128 74.5 -200t202.5 -72z" />
    <glyph glyph-name="AEacute" unicode="&#x1fc;" horiz-adv-x="1599" 
d="M1014 1882l-166 -283h-94l137 283h123zM1511 1366h-653v-537h604v-108h-604v-612h653v-109h-768v414h-452l-129 -414h-109l459 1475h999v-109zM324 520h419v846h-155z" />
    <glyph glyph-name="aeacute" unicode="&#x1fd;" horiz-adv-x="1710" 
d="M1065 1534l-168 -289h-94l141 289h121zM1565 512h-668v-135q0 -134 72.5 -213.5t206.5 -79.5q127 0 197 63.5t79 188.5h113q-9 -165 -113.5 -260.5t-275.5 -95.5q-120 0 -212 49.5t-135 146.5q-116 -196 -362 -196q-158 0 -256 87.5t-98 233.5q0 152 102 231.5t285 79.5
h284v129q0 114 -67.5 177t-196.5 63q-118 0 -183 -57.5t-71 -157.5h-114q10 152 113.5 235.5t260.5 83.5q111 0 195.5 -42t128.5 -121q44 77 128.5 119.5t197.5 43.5q179 0 284 -102t105 -276v-195zM1176 981q-131 0 -205 -75t-74 -199v-95h557v95q0 122 -72.5 198
t-205.5 76zM481 82q134 0 218.5 82.5t84.5 212.5v135h-295q-129 0 -197.5 -53.5t-68.5 -151.5q0 -105 70.5 -165t187.5 -60z" />
    <glyph glyph-name="Oslashacute" unicode="&#x1fe;" 
d="M762 1882l-166 -283h-94l137 283h123zM971 1569l-101 -219q82 -102 82 -246v-727q0 -182 -112 -289.5t-291 -107.5q-158 0 -262 81l-72 -155h-94l100 221q-78 105 -78 250v727q0 172 115 281.5t291 109.5q149 0 258 -82l72 156h92zM258 381q0 -65 23 -123l479 1049
q-79 79 -211 79q-130 0 -210.5 -79t-80.5 -211v-715zM840 1096q0 71 -25 129l-479 -1053q81 -84 213 -84q128 0 209.5 80.5t81.5 212.5v715z" />
    <glyph glyph-name="oslashacute" unicode="&#x1ff;" horiz-adv-x="1067" 
d="M750 1534l-168 -289h-95l142 289h121zM799 999q125 -106 125 -292v-349q0 -173 -106 -275.5t-283 -102.5q-116 0 -201 43l-62 -129h-98l86 180q-117 104 -117 284v349q0 173 106.5 275.5t285.5 102.5q109 0 190 -38l66 135h96zM256 358q0 -107 55 -178l367 768
q-64 31 -143 31q-128 0 -203.5 -72.5t-75.5 -199.5v-349zM811 358v349q0 112 -61 186l-369 -772q65 -35 154 -35q127 0 201.5 72.5t74.5 199.5z" />
    <glyph glyph-name="uni0218" unicode="&#x218;" horiz-adv-x="1044" 
d="M518 -20q-189 0 -304 111t-114 306h113q-1 -147 81 -228t224 -81q139 0 225 80.5t86 208.5q0 102 -59 167t-195 132l-161 80q-138 65 -213.5 154.5t-75.5 217.5q0 159 110.5 263t284.5 104q187 0 296.5 -103.5t109.5 -277.5h-113q0 127 -79.5 199.5t-213.5 72.5
q-125 0 -202.5 -72t-77.5 -177q0 -97 52 -158.5t173 -118.5l182 -88q154 -74 226.5 -164.5t72.5 -222.5q0 -181 -121.5 -293t-306.5 -112zM307 -375l168 287h94l-141 -287h-121z" />
    <glyph glyph-name="uni0219" unicode="&#x219;" horiz-adv-x="989" 
d="M494 -20q-110 0 -197 38t-142 119.5t-55 196.5h113q0 -117 77 -184.5t204 -67.5q128 0 202 57.5t74 143.5q0 72 -50 112t-157 74l-168 53q-132 41 -200 102.5t-68 172.5q0 129 103 208.5t266 79.5q179 0 277 -84.5t104 -232.5h-111q-16 215 -270 215q-117 0 -186.5 -52.5
t-69.5 -129.5q0 -71 47 -108t153 -70l168 -54q140 -44 208.5 -105.5t68.5 -174.5q0 -140 -109.5 -224.5t-281.5 -84.5zM285 -375l139 287h121l-162 -287h-98z" />
    <glyph glyph-name="uni021A" unicode="&#x21a;" horiz-adv-x="958" 
d="M903 1475v-109h-366v-1366h-113v1366h-369v109h848zM264 -375l168 287h94l-141 -287h-121z" />
    <glyph glyph-name="uni021B" unicode="&#x21b;" horiz-adv-x="710" 
d="M637 961h-266v-703q0 -83 35 -118.5t112 -35.5h96v-104h-110q-116 0 -181 57.5t-65 180.5v723h-197v104h197v410h113v-410h266v-104zM233 -375l140 287h121l-162 -287h-99z" />
    <glyph glyph-name="uni0237" unicode="&#x237;" horiz-adv-x="477" 
d="M-39 -410v105h51q82 0 127 40.5t45 139.5v1190h113v-1196q0 -151 -75 -215t-206 -64h-55z" />
    <glyph glyph-name="circumflex" unicode="&#x2c6;" horiz-adv-x="669" 
d="M82 1241l199 289h106l201 -289h-99l-155 205l-154 -205h-98z" />
    <glyph glyph-name="caron" unicode="&#x2c7;" horiz-adv-x="669" 
d="M283 1241l-201 289h98l154 -207l158 207h96l-199 -289h-106z" />
    <glyph glyph-name="breve" unicode="&#x2d8;" horiz-adv-x="733" 
d="M367 1243q-118 0 -191.5 61t-93.5 187h100q10 -79 60 -120.5t125 -41.5t124.5 41.5t59.5 120.5h100q-18 -126 -91.5 -187t-192.5 -61z" />
    <glyph glyph-name="dotaccent" unicode="&#x2d9;" horiz-adv-x="305" 
d="M82 1278v174h141v-174h-141z" />
    <glyph glyph-name="ring" unicode="&#x2da;" horiz-adv-x="569" 
d="M283 1159q-82 0 -141.5 60.5t-59.5 142.5q0 84 59.5 143.5t141.5 59.5q85 0 144.5 -59t59.5 -144q0 -82 -60 -142.5t-144 -60.5zM283 1241q50 0 85 36.5t35 84.5q0 51 -34.5 87t-85.5 36q-49 0 -84 -36t-35 -87q0 -48 35 -84.5t84 -36.5z" />
    <glyph glyph-name="ogonek" unicode="&#x2db;" horiz-adv-x="434" 
d="M199 47l69 -47q-37 -14 -59.5 -45.5t-22.5 -73.5v-57q0 -58 42 -95.5t100 -37.5h24v-101h-26q-105 0 -174.5 64.5t-69.5 161.5v41q0 130 117 190z" />
    <glyph glyph-name="tilde" unicode="&#x2dc;" horiz-adv-x="792" 
d="M532 1249q-39 0 -93 23.5t-101.5 47t-71.5 23.5q-27 0 -50 -14t-71 -55l-63 61q63 60 102.5 79.5t79.5 19.5q41 0 92.5 -24t99.5 -47.5t79 -23.5q27 0 48 13.5t64 52.5l64 -59q-61 -58 -100.5 -77.5t-78.5 -19.5z" />
    <glyph glyph-name="hungarumlaut" unicode="&#x2dd;" horiz-adv-x="698" 
d="M82 1239l143 291h119l-168 -291h-94zM354 1239l144 291h118l-167 -291h-95z" />
    <glyph glyph-name="gravecomb" unicode="&#x300;" horiz-adv-x="0" 
d="M-174 1245l-170 289h123l139 -289h-92z" />
    <glyph glyph-name="acutecomb" unicode="&#x301;" horiz-adv-x="0" 
d="M-344 1245l141 289h121l-168 -289h-94z" />
    <glyph glyph-name="uni0302" unicode="&#x302;" horiz-adv-x="0" 
d="M-594 1243l199 289h112l201 -289h-102l-154 205l-154 -205h-102z" />
    <glyph glyph-name="tildecomb" unicode="&#x303;" horiz-adv-x="0" 
d="M-252 1245q-52 0 -148 43t-128 43q-27 0 -52.5 -15t-64.5 -54l-62 65q84 103 179 103q52 0 143.5 -43.5t130.5 -43.5q32 0 54 14t57 52l61 -66q-80 -98 -170 -98z" />
    <glyph glyph-name="uni0304" unicode="&#x304;" horiz-adv-x="0" 
d="M-682 1296v93h600v-93h-600z" />
    <glyph glyph-name="uni0306" unicode="&#x306;" horiz-adv-x="0" 
d="M-369 1214q-115 0 -190 65t-96 191h104q13 -80 60.5 -120.5t121.5 -40.5t122 40.5t61 120.5h104q-20 -126 -96 -191t-191 -65z" />
    <glyph glyph-name="uni0307" unicode="&#x307;" horiz-adv-x="0" 
d="M-209 1262v170h127v-170h-127z" />
    <glyph glyph-name="uni0308" unicode="&#x308;" horiz-adv-x="0" 
d="M-659 1262v170h139v-170h-139zM-221 1262v170h139v-170h-139z" />
    <glyph glyph-name="hookabovecomb" unicode="&#x309;" horiz-adv-x="0" 
d="M-268 1196v82q96 8 96 86q0 29 -19.5 45t-52.5 16q-38 0 -84 -24l-37 65q54 45 129 45q69 0 111.5 -39.5t42.5 -105.5q0 -69 -48.5 -117.5t-137.5 -52.5z" />
    <glyph glyph-name="uni030A" unicode="&#x30a;" horiz-adv-x="0" 
d="M-287 1198q-82 0 -141 59.5t-59 141.5q0 84 59 143.5t141 59.5q85 0 145 -58.5t60 -144.5q0 -82 -60.5 -141.5t-144.5 -59.5zM-287 1278q50 0 85.5 36.5t35.5 84.5q0 51 -35 87t-86 36q-49 0 -84 -36t-35 -87q0 -48 35 -84.5t84 -36.5z" />
    <glyph glyph-name="uni030B" unicode="&#x30b;" horiz-adv-x="0" 
d="M-606 1245l133 271h119l-158 -271h-94zM-334 1245l133 271h119l-158 -271h-94z" />
    <glyph glyph-name="uni030C" unicode="&#x30c;" horiz-adv-x="0" 
d="M-393 1229l-201 287h105l151 -205l154 205h102l-199 -287h-112z" />
    <glyph glyph-name="uni0312" unicode="&#x312;" horiz-adv-x="0" 
d="M-344 1245l170 289h92l-139 -289h-123z" />
    <glyph glyph-name="uni031B" unicode="&#x31b;" horiz-adv-x="0" 
d="M-293 819l-10 96q68 2 94.5 23.5t26.5 75.5v143h100v-153q0 -93 -51.5 -137.5t-159.5 -47.5z" />
    <glyph glyph-name="dotbelowcomb" unicode="&#x323;" horiz-adv-x="0" 
d="M-223 -328v154h141v-154h-141z" />
    <glyph glyph-name="uni0326" unicode="&#x326;" horiz-adv-x="0" 
d="M-342 -375l139 287h121l-162 -287h-98z" />
    <glyph glyph-name="uni0327" unicode="&#x327;" horiz-adv-x="0" 
d="M-344 -375l168 287h94l-141 -287h-121z" />
    <glyph glyph-name="uni0328" unicode="&#x328;" horiz-adv-x="0" 
d="M-236 47l70 -47q-37 -14 -59.5 -45.5t-22.5 -73.5v-57q0 -58 42 -95.5t100 -37.5h24v-101h-27q-105 0 -174 64.5t-69 161.5v41q0 130 116 190z" />
    <glyph glyph-name="uni0335" unicode="&#x335;" horiz-adv-x="0" 
d="M-702 1227v102h620v-102h-620z" />
    <glyph glyph-name="uni0336" unicode="&#x336;" horiz-adv-x="0" 
d="M-887 791v108h805v-108h-805z" />
    <glyph glyph-name="uni0337" unicode="&#x337;" horiz-adv-x="0" 
d="M-555 680v104l473 285v-104z" />
    <glyph glyph-name="tonos" unicode="&#x384;" horiz-adv-x="331" 
d="M82 1219l59 321h109l-82 -321h-86z" />
    <glyph glyph-name="dieresistonos" unicode="&#x385;" horiz-adv-x="800" 
d="M328 1260l61 319h109l-82 -319h-88zM82 1262v180h143v-180h-143zM575 1262v180h144v-180h-144z" />
    <glyph glyph-name="Alphatonos" unicode="&#x386;" 
d="M156 1219l59 321h109l-82 -321h-86zM934 0l-113 418h-545l-112 -418h-111l398 1475h196l397 -1475h-110zM305 526h488l-228 840h-35z" />
    <glyph glyph-name="Epsilontonos" unicode="&#x388;" horiz-adv-x="1069" 
d="M-23 1219l60 321h108l-82 -321h-86zM983 1366h-655v-537h604v-108h-604v-612h655v-109h-768v1475h768v-109z" />
    <glyph glyph-name="Etatonos" unicode="&#x389;" horiz-adv-x="1325" 
d="M63 1219l60 321h108l-81 -321h-87zM1047 1475h112v-1475h-112v715h-609v-715h-112v1475h112v-654h609v654z" />
    <glyph glyph-name="Iotatonos" unicode="&#x38a;" horiz-adv-x="604" 
d="M63 1219l60 321h108l-81 -321h-87zM326 0v1475h112v-1475h-112z" />
    <glyph glyph-name="Omicrontonos" unicode="&#x38c;" horiz-adv-x="1210" 
d="M63 1219l60 321h108l-81 -321h-87zM662 -20q-180 0 -293 107.5t-113 289.5v727q0 172 115 281.5t291 109.5t289.5 -109.5t113.5 -281.5v-727q0 -182 -112 -289.5t-291 -107.5zM662 88q127 0 208.5 80.5t81.5 212.5v715q0 132 -80.5 211t-209.5 79q-130 0 -210.5 -79
t-80.5 -211v-715q0 -132 81.5 -212.5t209.5 -80.5z" />
    <glyph glyph-name="Upsilontonos" unicode="&#x38e;" horiz-adv-x="1136" 
d="M-12 1219l59 321h109l-82 -321h-86zM961 1475h120l-383 -951v-524h-114v524l-383 951h121l319 -807z" />
    <glyph glyph-name="Omegatonos" unicode="&#x38f;" horiz-adv-x="1218" 
d="M121 1540h108l-82 -321h-86zM950 109h197v-109h-397v96q104 32 154 103.5t50 189.5v709q0 131 -80.5 209.5t-209.5 78.5q-130 0 -210.5 -78.5t-80.5 -209.5v-709q0 -119 49 -190t153 -103v-96h-397v109h197q-56 38 -86.5 108t-30.5 160v725q0 173 115 283t291 110
q175 0 289 -110t114 -283v-725q0 -90 -30.5 -160t-86.5 -108z" />
    <glyph glyph-name="iotadieresistonos" unicode="&#x390;" horiz-adv-x="522" 
d="M174 1260l62 319h108l-82 -319h-88zM-72 1262v180h144v-180h-144zM422 1262v180h143v-180h-143zM412 0q-115 0 -181.5 61.5t-66.5 196.5v807h112v-815q0 -81 39 -113.5t107 -32.5h33v-104h-43z" />
    <glyph glyph-name="Alpha" unicode="&#x391;" 
d="M934 0l-113 418h-545l-112 -418h-111l398 1475h196l397 -1475h-110zM305 526h488l-228 840h-35z" />
    <glyph glyph-name="Beta" unicode="&#x392;" horiz-adv-x="1120" 
d="M756 772q107 -30 169 -122t62 -232q0 -196 -109.5 -307t-306.5 -111h-405v1475h383q405 0 405 -365q0 -125 -52 -215.5t-146 -122.5zM543 1366h-264v-545h276q146 0 216.5 75t70.5 210q0 137 -72 198.5t-227 61.5zM578 109q148 0 222 80t74 229q0 148 -81.5 221.5
t-233.5 73.5h-280v-604h299z" />
    <glyph glyph-name="Gamma" unicode="&#x393;" horiz-adv-x="964" 
d="M166 0v1475h764v-109h-651v-1366h-113z" />
    <glyph glyph-name="uni0394" unicode="&#x394;" horiz-adv-x="1099" 
d="M668 1475l379 -1475h-994l379 1475h236zM510 1366l-322 -1257h723l-321 1257h-80z" />
    <glyph glyph-name="Epsilon" unicode="&#x395;" horiz-adv-x="1019" 
d="M934 1366h-655v-537h604v-108h-604v-612h655v-109h-768v1475h768v-109z" />
    <glyph glyph-name="Zeta" unicode="&#x396;" horiz-adv-x="921" 
d="M186 109h672v-109h-795v109l642 1257h-611v109h733v-103z" />
    <glyph glyph-name="Eta" unicode="&#x397;" horiz-adv-x="1165" 
d="M887 1475h112v-1475h-112v715h-608v-715h-113v1475h113v-654h608v654z" />
    <glyph glyph-name="Theta" unicode="&#x398;" 
d="M549 -20q-180 0 -293 107.5t-113 289.5v727q0 172 115 281.5t291 109.5t289.5 -109.5t113.5 -281.5v-727q0 -182 -112 -289.5t-291 -107.5zM549 88q128 0 209.5 80.5t81.5 212.5v715q0 132 -81 211t-210 79q-130 0 -210.5 -79t-80.5 -211v-715q0 -132 81.5 -212.5
t209.5 -80.5zM381 676v106h336v-106h-336z" />
    <glyph glyph-name="Iota" unicode="&#x399;" horiz-adv-x="444" 
d="M166 0v1475h113v-1475h-113z" />
    <glyph glyph-name="Kappa" unicode="&#x39a;" horiz-adv-x="1046" 
d="M854 0l-457 719h-118v-719h-113v1475h113v-654h112l463 654h125l-490 -695l504 -780h-139z" />
    <glyph glyph-name="Lambda" unicode="&#x39b;" 
d="M53 0l396 1475h200l395 -1475h-110l-365 1366h-43l-364 -1366h-109z" />
    <glyph glyph-name="Mu" unicode="&#x39c;" horiz-adv-x="1327" 
d="M1008 1475h155v-1475h-112v1294l-338 -833h-97l-337 833v-1294h-113v1475h153l345 -861z" />
    <glyph glyph-name="Nu" unicode="&#x39d;" horiz-adv-x="1146" 
d="M870 1475h111v-1475h-162l-543 1315v-1315h-110v1475h162l542 -1317v1317z" />
    <glyph glyph-name="Xi" unicode="&#x39e;" horiz-adv-x="1034" 
d="M137 1366v109h760v-109h-760zM158 721v108h719v-108h-719zM137 0v109h760v-109h-760z" />
    <glyph glyph-name="Omicron" unicode="&#x39f;" 
d="M549 -20q-180 0 -293 107.5t-113 289.5v727q0 172 115 281.5t291 109.5t289.5 -109.5t113.5 -281.5v-727q0 -182 -112 -289.5t-291 -107.5zM549 88q128 0 209.5 80.5t81.5 212.5v715q0 132 -81 211t-210 79q-130 0 -210.5 -79t-80.5 -211v-715q0 -132 81.5 -212.5
t209.5 -80.5z" />
    <glyph glyph-name="Pi" unicode="&#x3a0;" horiz-adv-x="1165" 
d="M166 0v1475h833v-1475h-112v1366h-608v-1366h-113z" />
    <glyph glyph-name="Rho" unicode="&#x3a1;" horiz-adv-x="1064" 
d="M567 1475q186 0 296 -103t110 -282v-109q0 -179 -110 -282t-296 -103h-288v-596h-113v1475h401zM860 985v102q0 130 -78 204.5t-219 74.5h-284v-661h284q142 0 219.5 74.5t77.5 205.5z" />
    <glyph glyph-name="Sigma" unicode="&#x3a3;" horiz-adv-x="954" 
d="M854 1475v-109h-643l520 -606v-12l-518 -639h641v-109h-782v102l524 648l-522 612v113h780z" />
    <glyph glyph-name="Tau" unicode="&#x3a4;" horiz-adv-x="958" 
d="M903 1475v-109h-366v-1366h-113v1366h-369v109h848z" />
    <glyph glyph-name="Upsilon" unicode="&#x3a5;" horiz-adv-x="991" 
d="M815 1475h121l-383 -951v-524h-115v524l-383 951h121l320 -807z" />
    <glyph glyph-name="Phi" unicode="&#x3a6;" horiz-adv-x="1210" 
d="M662 1370q196 -7 302.5 -113t106.5 -292v-408q0 -189 -107 -299t-302 -119v-164h-113v164q-196 7 -303 113.5t-107 292.5v407q0 190 107.5 299.5t302.5 118.5v129h113v-129zM958 557v408q0 142 -76.5 218t-222.5 81v-1018q143 6 221 86t78 225zM254 545q0 -290 297 -299
v1018q-143 -6 -220 -86t-77 -226v-407z" />
    <glyph glyph-name="Chi" unicode="&#x3a7;" horiz-adv-x="1028" 
d="M969 0h-123l-332 645l-332 -645h-123l392 754l-373 721h121l317 -613l315 613h121l-374 -721z" />
    <glyph glyph-name="Psi" unicode="&#x3a8;" horiz-adv-x="1181" 
d="M930 1475h112v-701q0 -189 -104.5 -288.5t-290.5 -108.5v-377h-112v377q-186 9 -291 108.5t-105 288.5v701h115v-701q0 -277 281 -289v990h112v-990q283 12 283 289v701z" />
    <glyph glyph-name="uni03A9" unicode="&#x3a9;" horiz-adv-x="1112" 
d="M844 109h196v-109h-397v96q105 32 155 103.5t50 189.5v709q0 131 -81 209.5t-210 78.5q-130 0 -210.5 -78.5t-80.5 -209.5v-709q0 -118 49.5 -189.5t153.5 -103.5v-96h-397v109h196q-56 38 -86 107.5t-30 160.5v725q0 174 114.5 283.5t290.5 109.5q175 0 289.5 -110
t114.5 -283v-725q0 -90 -30.5 -160t-86.5 -108z" />
    <glyph glyph-name="Iotadieresis" unicode="&#x3aa;" horiz-adv-x="444" 
d="M-68 1599v170h140v-170h-140zM371 1599v170h139v-170h-139zM166 0v1475h113v-1475h-113z" />
    <glyph glyph-name="Upsilondieresis" unicode="&#x3ab;" horiz-adv-x="991" 
d="M344 1769v-170h-139v170h139zM782 1769v-170h-139v170h139zM815 1475h121l-383 -951v-524h-115v524l-383 951h121l320 -807z" />
    <glyph glyph-name="alphatonos" unicode="&#x3ac;" horiz-adv-x="1132" 
d="M686 1540l-82 -321h-86l60 321h108zM1061 109h16v-109h-30q-169 0 -220 141q-49 -79 -130.5 -120t-170.5 -41q-178 0 -280.5 101.5t-102.5 276.5v349q0 175 102.5 276.5t280.5 101.5q83 0 158.5 -33t124.5 -98v111h113l2 -809q0 -77 37.5 -112t99.5 -35zM809 360v347
q0 123 -76 197.5t-201 74.5t-200.5 -73.5t-75.5 -198.5v-347q0 -127 75.5 -200.5t200.5 -73.5q118 0 197.5 76t79.5 198z" />
    <glyph glyph-name="epsilontonos" unicode="&#x3ad;" horiz-adv-x="1001" 
d="M633 1540l-82 -321h-86l59 321h109zM782 303h113q-2 -65 -24.5 -119.5t-60 -91.5t-87 -63t-103.5 -37.5t-112 -11.5q-102 0 -188 35t-141.5 110t-55.5 176q0 90 44.5 155.5t121.5 100.5q-146 70 -146 234q0 95 54 163.5t134.5 99.5t174.5 31q69 0 133 -19t118.5 -56
t88 -100t35.5 -144h-113q-6 111 -77.5 164t-184.5 53q-104 0 -177 -51.5t-73 -143.5q0 -82 54.5 -134t160.5 -52h90v-100h-84q-109 0 -175 -51t-66 -150q0 -105 78.5 -162t195.5 -57q116 0 191 54.5t81 166.5z" />
    <glyph glyph-name="etatonos" unicode="&#x3ae;" horiz-adv-x="1099" 
d="M676 1540l-82 -321h-86l59 321h109zM561 1085q174 0 277.5 -101t103.5 -273v-1121h-113v1115q0 127 -74.5 200.5t-199.5 73.5q-127 0 -203 -75t-76 -199v-705h-112v1065h112v-107q49 63 125 95t160 32z" />
    <glyph glyph-name="iotatonos" unicode="&#x3af;" horiz-adv-x="522" 
d="M178 1219l60 321h108l-82 -321h-86zM412 0q-115 0 -181.5 61.5t-66.5 196.5v807h112v-815q0 -81 39 -113.5t107 -32.5h33v-104h-43z" />
    <glyph glyph-name="upsilondieresistonos" unicode="&#x3b0;" horiz-adv-x="1099" 
d="M455 1260l61 319h109l-82 -319h-88zM209 1262v180h143v-180h-143zM702 1262v180h144v-180h-144zM553 -20q-179 0 -284 102t-105 280v703h112v-703q0 -134 72.5 -205t204.5 -71t205 72t73 204v461q0 77 -39 118.5t-114 41.5h-37v98h51q121 0 186.5 -69t65.5 -197v-453
q0 -175 -105 -278.5t-286 -103.5z" />
    <glyph glyph-name="alpha" unicode="&#x3b1;" horiz-adv-x="1132" 
d="M1061 109h16v-109h-30q-169 0 -220 141q-49 -79 -130.5 -120t-170.5 -41q-178 0 -280.5 101.5t-102.5 276.5v349q0 175 102.5 276.5t280.5 101.5q83 0 158.5 -33t124.5 -98v111h113l2 -809q0 -77 37.5 -112t99.5 -35zM809 360v347q0 123 -76 197.5t-201 74.5
t-200.5 -73.5t-75.5 -198.5v-347q0 -127 75.5 -200.5t200.5 -73.5q118 0 197.5 76t79.5 198z" />
    <glyph glyph-name="beta" unicode="&#x3b2;" horiz-adv-x="1093" 
d="M713 766q109 -36 175 -133t66 -238q0 -196 -105.5 -305.5t-277.5 -109.5q-83 0 -164 28t-133 94v-512h-112v1493q0 191 106 301.5t291 110.5q168 0 272.5 -105t104.5 -270q0 -129 -60.5 -223.5t-162.5 -130.5zM565 86q135 0 206 81t71 232t-87 231.5t-231 80.5h-41v100
h45q137 0 216 83.5t79 219.5q0 129 -72 200.5t-198 71.5q-130 0 -204.5 -87t-74.5 -238v-664q0 -157 79 -234t212 -77z" />
    <glyph glyph-name="gamma" unicode="&#x3b3;" horiz-adv-x="980" 
d="M803 1065h121l-375 -1102v-373h-113v373l-379 1102h123l314 -938z" />
    <glyph glyph-name="delta" unicode="&#x3b4;" horiz-adv-x="1069" 
d="M279 1190q0 -57 22 -96t59.5 -60.5t86 -36t102 -25.5t107.5 -25t102.5 -40t86 -64t59.5 -103.5t22 -153.5v-228q0 -173 -105.5 -275.5t-283.5 -102.5q-180 0 -287 102.5t-107 275.5v234q0 256 207 336q-90 32 -137 98.5t-47 161.5q0 137 95 222t255 85q168 0 270.5 -95.5
t104.5 -248.5h-113q-6 117 -76 176t-190 59q-111 0 -172 -49.5t-61 -146.5zM813 360v244q0 123 -74.5 191.5t-203.5 68.5q-134 0 -206.5 -72.5t-72.5 -203.5v-228q0 -125 77.5 -199.5t203.5 -74.5q128 0 202 73t74 201z" />
    <glyph glyph-name="epsilon" unicode="&#x3b5;" horiz-adv-x="1001" 
d="M782 303h113q-2 -65 -24.5 -119.5t-60 -91.5t-87 -63t-103.5 -37.5t-112 -11.5q-102 0 -188 35t-141.5 110t-55.5 176q0 90 44.5 155.5t121.5 100.5q-146 70 -146 234q0 95 54 163.5t134.5 99.5t174.5 31q69 0 133 -19t118.5 -56t88 -100t35.5 -144h-113
q-6 111 -77.5 164t-184.5 53q-104 0 -177 -51.5t-73 -143.5q0 -82 54.5 -134t160.5 -52h90v-100h-84q-109 0 -175 -51t-66 -150q0 -105 78.5 -162t195.5 -57q116 0 191 54.5t81 166.5z" />
    <glyph glyph-name="zeta" unicode="&#x3b6;" horiz-adv-x="886" 
d="M866 1362q-173 -98 -314.5 -257t-222.5 -344.5t-81 -357.5q0 -157 71 -228t228 -71h47q122 0 185 -53.5t63 -150.5q0 -106 -68 -242h-112q67 134 67 221q0 60 -36 88.5t-118 28.5h-55q-385 0 -385 387q0 140 45 286.5t122 274.5t179.5 237.5t216.5 184.5h-471v109h639
v-113z" />
    <glyph glyph-name="eta" unicode="&#x3b7;" horiz-adv-x="1099" 
d="M561 1085q174 0 277.5 -101t103.5 -273v-1121h-113v1115q0 127 -74.5 200.5t-199.5 73.5q-127 0 -203 -75t-76 -199v-705h-112v1065h112v-107q49 63 125 95t160 32z" />
    <glyph glyph-name="theta" unicode="&#x3b8;" 
d="M549 1495q176 0 289.5 -109.5t113.5 -281.5v-727q0 -182 -112 -289.5t-291 -107.5q-180 0 -293 107.5t-113 289.5v727q0 172 115 281.5t291 109.5zM549 1386q-130 0 -210.5 -79t-80.5 -211v-316h582v316q0 132 -81 211t-210 79zM549 88q128 0 209.5 80.5t81.5 212.5v301
h-582v-301q0 -132 81.5 -212.5t209.5 -80.5z" />
    <glyph glyph-name="iota" unicode="&#x3b9;" horiz-adv-x="522" 
d="M412 0q-115 0 -181.5 61.5t-66.5 196.5v807h112v-815q0 -81 39 -113.5t107 -32.5h33v-104h-43z" />
    <glyph glyph-name="kappa" unicode="&#x3ba;" horiz-adv-x="1024" 
d="M834 0l-365 561l-188 -199v-362h-117v1065h117v-555l526 555h135l-397 -422l424 -643h-135z" />
    <glyph glyph-name="lambda" unicode="&#x3bb;" horiz-adv-x="1050" 
d="M985 106h37v-106h-37q-59 0 -99 9t-77.5 35.5t-64.5 77t-50 130.5l-200 709h-52l-276 -961h-117l309 1065h107l-49 174q-22 73 -62 104t-112 31h-58v101h33q54 0 89 -4t71.5 -18t61 -40.5t47.5 -71t42 -110.5l285 -985q22 -79 60 -109.5t112 -30.5z" />
    <glyph glyph-name="uni03BC" unicode="&#x3bc;" horiz-adv-x="1110" 
d="M834 1065h112v-1065h-106l-2 127q-50 -76 -129 -111.5t-160 -35.5q-177 0 -273 116v-506h-112v1475h112v-698q0 -133 67.5 -207t209.5 -74q120 0 200.5 78t80.5 203v698z" />
    <glyph glyph-name="nu" unicode="&#x3bd;" horiz-adv-x="915" 
d="M367 0l-318 1065h113l282 -959h29l281 959h114l-317 -1065h-184z" />
    <glyph glyph-name="xi" unicode="&#x3be;" horiz-adv-x="956" 
d="M629 104q115 0 178 -55t63 -155q0 -102 -67 -236h-115q68 130 68 219q0 63 -37 91t-123 28h-59q-189 0 -291.5 92t-102.5 266v78q0 118 61.5 206.5t168.5 125.5q-98 42 -154.5 132t-56.5 216q0 169 104 276t275 107q170 0 273 -104.5t106 -278.5h-113q-4 138 -75.5 207.5
t-190.5 69.5q-124 0 -195.5 -76.5t-71.5 -206.5q0 -138 81 -217.5t223 -79.5h67v-98h-67q-152 0 -237 -70t-85 -201v-73q0 -136 69 -199.5t212 -63.5h92z" />
    <glyph glyph-name="omicron" unicode="&#x3bf;" horiz-adv-x="1067" 
d="M535 -20q-179 0 -285.5 102.5t-106.5 275.5v349q0 173 106.5 275.5t285.5 102.5q177 0 283 -102.5t106 -275.5v-349q0 -173 -106 -275.5t-283 -102.5zM535 86q127 0 201.5 72.5t74.5 199.5v349q0 127 -74.5 199.5t-201.5 72.5q-128 0 -203.5 -72.5t-75.5 -199.5v-349
q0 -127 75.5 -199.5t203.5 -72.5z" />
    <glyph glyph-name="pi" unicode="&#x3c0;" horiz-adv-x="1290" 
d="M295 0v961h-219v104h1100v-104h-213v-711q0 -144 143 -144h33v-106h-41q-112 0 -180 63t-68 195v703h-444v-961h-111z" />
    <glyph glyph-name="rho" unicode="&#x3c1;" horiz-adv-x="1087" 
d="M555 1085q177 0 282 -102.5t105 -275.5v-351q0 -165 -108 -270.5t-267 -105.5q-86 0 -164.5 31t-126.5 95v-516h-112v1117q0 173 105.5 275.5t285.5 102.5zM829 387v318q0 128 -73.5 201t-200.5 73q-128 0 -203.5 -73t-75.5 -201v-345q0 -124 76.5 -199t206.5 -75
q129 0 199.5 78t70.5 223z" />
    <glyph glyph-name="uni03C2" unicode="&#x3c2;" horiz-adv-x="1024" 
d="M664 -342q67 134 67 221q0 60 -35.5 88.5t-117.5 28.5h-46q-176 0 -282.5 98.5t-106.5 276.5v325q0 179 106.5 284t285.5 105q173 0 277.5 -97t107.5 -257h-113q-7 121 -77 184.5t-195 63.5q-133 0 -206 -77t-73 -222v-299q0 -138 73 -207.5t208 -69.5h59
q123 0 186.5 -53.5t63.5 -150.5q0 -100 -68 -242h-114z" />
    <glyph glyph-name="sigma" unicode="&#x3c3;" horiz-adv-x="1085" 
d="M1024 1065v-104h-201q103 -103 103 -271v-332q0 -173 -105.5 -275.5t-283.5 -102.5q-180 0 -287 102.5t-107 275.5v332q0 173 107 274t287 101h487zM813 358v328q0 127 -74 199.5t-202 72.5q-129 0 -205 -72.5t-76 -199.5v-328q0 -125 77.5 -198.5t203.5 -73.5
q128 0 202 72.5t74 199.5z" />
    <glyph glyph-name="tau" unicode="&#x3c4;" horiz-adv-x="980" 
d="M907 1065v-104h-362v-963h-113v963h-358v104h833z" />
    <glyph glyph-name="upsilon" unicode="&#x3c5;" horiz-adv-x="1099" 
d="M553 -20q-179 0 -284 102t-105 280v703h112v-703q0 -134 72.5 -205t204.5 -71t205 72t73 204v461q0 77 -39 118.5t-114 41.5h-37v98h51q121 0 186.5 -69t65.5 -197v-453q0 -175 -105 -278.5t-286 -103.5z" />
    <glyph glyph-name="phi" unicode="&#x3c6;" horiz-adv-x="1267" 
d="M852 1085q113 0 188.5 -68.5t75.5 -203.5v-418q0 -100 -32.5 -179t-90.5 -129t-133 -77t-164 -30v-390h-110v390q-122 5 -215.5 50.5t-150 139t-56.5 225.5v670h110v-666q0 -154 82 -230.5t230 -82.5v727q0 134 77 203t189 69zM1008 399v404q0 176 -156 176t-156 -176
v-717q148 6 230 82.5t82 230.5z" />
    <glyph glyph-name="chi" unicode="&#x3c7;" horiz-adv-x="1122" 
d="M1059 -305h22v-105h-51q-75 0 -124.5 24.5t-78.5 86.5l-254 561l-329 -672h-131l401 799l-233 514q-19 42 -47 58t-87 16h-30v104h49q76 0 126 -25t81 -89l211 -463l272 561h125l-342 -684l281 -617q9 -21 20 -34t20.5 -20.5t28 -10.5t30.5 -3.5t40 -0.5z" />
    <glyph glyph-name="psi" unicode="&#x3c8;" horiz-adv-x="1212" 
d="M971 1065h112v-670q0 -195 -117 -301t-304 -114v-390h-111v390q-187 8 -304.5 114t-117.5 301v670h111v-666q0 -154 82 -231.5t229 -83.5v1391h111v-1391q147 6 228 83.5t81 231.5v666z" />
    <glyph glyph-name="omega" unicode="&#x3c9;" horiz-adv-x="1380" 
d="M971 1081q121 0 186.5 -69t65.5 -197v-487q0 -74 -16.5 -136t-50.5 -110t-90 -75t-130 -27q-182 0 -246 159q-67 -159 -246 -159q-74 0 -130 27t-89.5 75t-50 110t-16.5 136v487q0 128 65.5 197t186.5 69h43v-104h-29q-154 0 -154 -154v-491q0 -52 9.5 -95t30 -77.5
t56 -54t83.5 -19.5q186 0 186 213v471h110v-471q0 -213 185 -213q49 0 85 19.5t56 54t29.5 77t9.5 93.5v493q0 154 -154 154h-28v104h43z" />
    <glyph glyph-name="iotadieresis" unicode="&#x3ca;" horiz-adv-x="522" 
d="M-6 1262v170h139v-170h-139zM305 1262v170h139v-170h-139zM412 0q-115 0 -181.5 61.5t-66.5 196.5v807h112v-815q0 -81 39 -113.5t107 -32.5h33v-104h-43z" />
    <glyph glyph-name="upsilondieresis" unicode="&#x3cb;" horiz-adv-x="1099" 
d="M211 1262v170h139v-170h-139zM649 1262v170h139v-170h-139zM553 -20q-179 0 -284 102t-105 280v703h112v-703q0 -134 72.5 -205t204.5 -71t205 72t73 204v461q0 77 -39 118.5t-114 41.5h-37v98h51q121 0 186.5 -69t65.5 -197v-453q0 -175 -105 -278.5t-286 -103.5z" />
    <glyph glyph-name="omicrontonos" unicode="&#x3cc;" horiz-adv-x="1067" 
d="M492 1219l59 321h108l-81 -321h-86zM535 -20q-179 0 -285.5 102.5t-106.5 275.5v349q0 173 106.5 275.5t285.5 102.5q177 0 283 -102.5t106 -275.5v-349q0 -173 -106 -275.5t-283 -102.5zM535 86q127 0 201.5 72.5t74.5 199.5v349q0 127 -74.5 199.5t-201.5 72.5
q-128 0 -203.5 -72.5t-75.5 -199.5v-349q0 -127 75.5 -199.5t203.5 -72.5z" />
    <glyph glyph-name="upsilontonos" unicode="&#x3cd;" horiz-adv-x="1099" 
d="M459 1219l59 321h109l-82 -321h-86zM553 -20q-179 0 -284 102t-105 280v703h112v-703q0 -134 72.5 -205t204.5 -71t205 72t73 204v461q0 77 -39 118.5t-114 41.5h-37v98h51q121 0 186.5 -69t65.5 -197v-453q0 -175 -105 -278.5t-286 -103.5z" />
    <glyph glyph-name="omegatonos" unicode="&#x3ce;" horiz-adv-x="1380" 
d="M817 1540l-82 -321h-86l60 321h108zM971 1081q121 0 186.5 -69t65.5 -197v-487q0 -74 -16.5 -136t-50.5 -110t-90 -75t-130 -27q-182 0 -246 159q-67 -159 -246 -159q-74 0 -130 27t-89.5 75t-50 110t-16.5 136v487q0 128 65.5 197t186.5 69h43v-104h-29
q-154 0 -154 -154v-491q0 -52 9.5 -95t30 -77.5t56 -54t83.5 -19.5q186 0 186 213v471h110v-471q0 -213 185 -213q49 0 85 19.5t56 54t29.5 77t9.5 93.5v493q0 154 -154 154h-28v104h43z" />
    <glyph glyph-name="uni0401" unicode="&#x401;" horiz-adv-x="1019" 
d="M266 1599v170h140v-170h-140zM705 1599v170h139v-170h-139zM934 1366h-655v-537h604v-108h-604v-612h655v-109h-768v1475h768v-109z" />
    <glyph glyph-name="uni0402" unicode="&#x402;" horiz-adv-x="1359" 
d="M844 1085q177 0 267.5 -99.5t90.5 -287.5v-419q0 -279 -264 -279h-96v98h92q156 0 156 187v395q0 151 -67.5 227t-197.5 76t-209 -81.5t-79 -225.5v-676h-113v1366h-369v109h848v-109h-366v-440q43 75 123 117t184 42z" />
    <glyph glyph-name="uni0403" unicode="&#x403;" horiz-adv-x="964" 
d="M500 1599l137 283h123l-166 -283h-94zM166 0v1475h764v-109h-651v-1366h-113z" />
    <glyph glyph-name="uni0404" unicode="&#x404;" horiz-adv-x="1056" 
d="M541 88q133 0 213 76t80 201h114q0 -172 -113 -278.5t-292 -106.5q-174 0 -287 108.5t-113 288.5v727q0 172 115 281.5t291 109.5q173 0 285 -103.5t118 -279.5h-112q-4 123 -86 198.5t-205 75.5q-130 0 -210.5 -79t-80.5 -211v-285h365v-100h-365v-320
q0 -142 78.5 -222.5t204.5 -80.5z" />
    <glyph glyph-name="uni0405" unicode="&#x405;" horiz-adv-x="1044" 
d="M518 -20q-189 0 -304 111t-114 306h113q-1 -147 81 -228t224 -81q139 0 225 80.5t86 208.5q0 102 -59 167t-195 132l-161 80q-138 65 -213.5 154.5t-75.5 217.5q0 159 110.5 263t284.5 104q187 0 296.5 -103.5t109.5 -277.5h-113q0 127 -79.5 199.5t-213.5 72.5
q-125 0 -202.5 -72t-77.5 -177q0 -97 52 -158.5t173 -118.5l182 -88q154 -74 226.5 -164.5t72.5 -222.5q0 -181 -121.5 -293t-306.5 -112z" />
    <glyph glyph-name="uni0406" unicode="&#x406;" horiz-adv-x="444" 
d="M166 0v1475h113v-1475h-113z" />
    <glyph glyph-name="uni0407" unicode="&#x407;" horiz-adv-x="444" 
d="M-68 1599v170h140v-170h-140zM371 1599v170h139v-170h-139zM166 0v1475h113v-1475h-113z" />
    <glyph glyph-name="uni0408" unicode="&#x408;" horiz-adv-x="919" 
d="M403 -20q-169 0 -266.5 102.5t-97.5 282.5h115q6 -277 249 -277q250 0 250 295v983h-489v109h602v-1110q0 -180 -97 -282.5t-266 -102.5z" />
    <glyph glyph-name="uni0409" unicode="&#x409;" horiz-adv-x="1699" 
d="M1241 879q186 0 296 -103t110 -282v-109q0 -179 -110 -282t-296 -103h-377v1366h-463v-1018q0 -165 -94.5 -259.5t-265.5 -90.5v106q248 0 248 250v1121h688v-596h264zM1534 387v102q0 131 -77.5 206t-217.5 75h-262v-661h262q140 0 217.5 74t77.5 204z" />
    <glyph glyph-name="uni040A" unicode="&#x40a;" horiz-adv-x="1693" 
d="M1182 840q179 0 289 -105t110 -278v-47q0 -182 -111.5 -296t-298.5 -114h-335v731h-557v-731h-113v1475h113v-635h557v635h112v-635h234zM1468 412v39q0 136 -76 208t-216 72h-228v-622h232q135 0 211.5 82t76.5 221z" />
    <glyph glyph-name="uni040B" unicode="&#x40b;" horiz-adv-x="1355" 
d="M817 1085q174 0 277.5 -101t103.5 -273v-711h-113v705q0 127 -74.5 200.5t-199.5 73.5q-127 0 -203 -75t-76 -199v-705h-112v1366h-367v109h848v-109h-369v-408q49 63 125 95t160 32z" />
    <glyph glyph-name="uni040C" unicode="&#x40c;" horiz-adv-x="1046" 
d="M741 1882l-166 -283h-94l137 283h123zM854 0l-457 719h-118v-719h-113v1475h113v-654h112l463 654h125l-490 -695l504 -780h-139z" />
    <glyph glyph-name="uni040E" unicode="&#x40e;" horiz-adv-x="999" 
d="M504 1593q-110 0 -180 62t-88 188h100q9 -79 54.5 -120.5t113.5 -41.5q67 0 112 41.5t54 120.5h102q-18 -126 -88 -188t-180 -62zM825 1475h119l-377 -1211q-48 -153 -131 -209.5t-221 -56.5h-33v106h54q83 0 138.5 43t86.5 142l35 114h-101l-340 1072h119l299 -957h57z
" />
    <glyph glyph-name="uni040F" unicode="&#x40f;" horiz-adv-x="1163" 
d="M524 -231v231h-358v1475h113v-1366h606v1366h114v-1475h-362v-231h-113z" />
    <glyph glyph-name="uni0410" unicode="&#x410;" 
d="M934 0l-113 418h-545l-112 -418h-111l398 1475h196l397 -1475h-110zM305 526h488l-228 840h-35z" />
    <glyph glyph-name="uni0411" unicode="&#x411;" horiz-adv-x="1067" 
d="M565 879q187 0 297.5 -103t110.5 -282v-109q0 -179 -110.5 -282t-297.5 -103h-399v1475h739v-109h-626v-487h286zM858 387v102q0 132 -77 206.5t-218 74.5h-284v-661h284q141 0 218 74t77 204z" />
    <glyph glyph-name="uni0412" unicode="&#x412;" horiz-adv-x="1120" 
d="M756 772q107 -30 169 -122t62 -232q0 -196 -109.5 -307t-306.5 -111h-405v1475h383q405 0 405 -365q0 -125 -52 -215.5t-146 -122.5zM543 1366h-264v-545h276q146 0 216.5 75t70.5 210q0 137 -72 198.5t-227 61.5zM578 109q148 0 222 80t74 229q0 148 -81.5 221.5
t-233.5 73.5h-280v-604h299z" />
    <glyph glyph-name="uni0413" unicode="&#x413;" horiz-adv-x="964" 
d="M166 0v1475h764v-109h-651v-1366h-113z" />
    <glyph glyph-name="uni0414" unicode="&#x414;" horiz-adv-x="1290" 
d="M1073 102h125v-333h-113v231h-915v-231h-113v333h125q138 88 158 318l90 1055h643v-1373zM449 397q-20 -202 -115 -295h624v1264h-421z" />
    <glyph glyph-name="uni0415" unicode="&#x415;" horiz-adv-x="1019" 
d="M934 1366h-655v-537h604v-108h-604v-612h655v-109h-768v1475h768v-109z" />
    <glyph glyph-name="uni0416" unicode="&#x416;" horiz-adv-x="1650" 
d="M1458 0l-457 721h-118v-721h-115v721h-117l-458 -721h-138l502 782l-489 693h129l460 -650h111v650h115v-650h110l461 650h129l-489 -693l501 -782h-137z" />
    <glyph glyph-name="uni0417" unicode="&#x417;" horiz-adv-x="1071" 
d="M696 760q112 -32 180 -122t68 -206v-39q0 -183 -114 -298t-300 -115q-180 0 -298 106t-123 270h112q4 -123 93 -195.5t221 -72.5q138 0 216 82t78 227v29q0 125 -85.5 203t-227.5 78h-80v98h82q137 0 215 84t78 225q0 131 -73 201.5t-208 70.5q-136 0 -212 -70.5
t-80 -203.5h-113q4 175 118.5 279t291.5 104q176 0 282.5 -102.5t106.5 -268.5q0 -127 -61 -226t-167 -138z" />
    <glyph glyph-name="uni0418" unicode="&#x418;" horiz-adv-x="1146" 
d="M813 1475h168v-1475h-111v1323l-538 -1323h-166v1475h110v-1321z" />
    <glyph glyph-name="uni0419" unicode="&#x419;" horiz-adv-x="1146" 
d="M594 1624q-115 0 -190.5 65t-96.5 191h105q13 -80 60.5 -121t121.5 -41t121.5 41t60.5 121h105q-20 -126 -96 -191t-191 -65zM813 1475h168v-1475h-111v1323l-538 -1323h-166v1475h110v-1321z" />
    <glyph glyph-name="uni041A" unicode="&#x41a;" horiz-adv-x="1046" 
d="M854 0l-457 719h-118v-719h-113v1475h113v-654h112l463 654h125l-490 -695l504 -780h-139z" />
    <glyph glyph-name="uni041B" unicode="&#x41b;" horiz-adv-x="1222" 
d="M41 -4v108q53 0 94.5 11t78 37t56 75.5t19.5 120.5v1127h768v-1475h-113v1366h-543v-1026q0 -165 -93.5 -256t-266.5 -88z" />
    <glyph glyph-name="uni041C" unicode="&#x41c;" horiz-adv-x="1327" 
d="M1008 1475h155v-1475h-112v1294l-338 -833h-97l-337 833v-1294h-113v1475h153l345 -861z" />
    <glyph glyph-name="uni041D" unicode="&#x41d;" horiz-adv-x="1165" 
d="M887 1475h112v-1475h-112v715h-608v-715h-113v1475h113v-654h608v654z" />
    <glyph glyph-name="uni041E" unicode="&#x41e;" 
d="M549 -20q-180 0 -293 107.5t-113 289.5v727q0 172 115 281.5t291 109.5t289.5 -109.5t113.5 -281.5v-727q0 -182 -112 -289.5t-291 -107.5zM549 88q128 0 209.5 80.5t81.5 212.5v715q0 132 -81 211t-210 79q-130 0 -210.5 -79t-80.5 -211v-715q0 -132 81.5 -212.5
t209.5 -80.5z" />
    <glyph glyph-name="uni041F" unicode="&#x41f;" horiz-adv-x="1165" 
d="M166 0v1475h833v-1475h-112v1366h-608v-1366h-113z" />
    <glyph glyph-name="uni0420" unicode="&#x420;" horiz-adv-x="1064" 
d="M567 1475q186 0 296 -103t110 -282v-109q0 -179 -110 -282t-296 -103h-288v-596h-113v1475h401zM860 985v102q0 130 -78 204.5t-219 74.5h-284v-661h284q142 0 219.5 74.5t77.5 205.5z" />
    <glyph glyph-name="uni0421" unicode="&#x421;" horiz-adv-x="1056" 
d="M543 -20q-174 0 -287 108.5t-113 288.5v727q0 172 115 281.5t291 109.5q173 0 285 -103.5t118 -279.5h-112q-4 123 -86 198.5t-205 75.5q-130 0 -210.5 -79t-80.5 -211v-705q0 -142 78.5 -222.5t204.5 -80.5q133 0 213 76t80 201h114q0 -172 -113 -278.5t-292 -106.5z
" />
    <glyph glyph-name="uni0422" unicode="&#x422;" horiz-adv-x="958" 
d="M903 1475v-109h-366v-1366h-113v1366h-369v109h848z" />
    <glyph glyph-name="uni0423" unicode="&#x423;" horiz-adv-x="999" 
d="M825 1475h119l-377 -1211q-48 -153 -131 -209.5t-221 -56.5h-33v106h54q83 0 138.5 43t86.5 142l35 114h-101l-340 1072h119l299 -957h57z" />
    <glyph glyph-name="uni0424" unicode="&#x424;" horiz-adv-x="1210" 
d="M662 1370q196 -7 302.5 -113t106.5 -292v-408q0 -189 -107 -299t-302 -119v-164h-113v164q-196 7 -303 113.5t-107 292.5v407q0 190 107.5 299.5t302.5 118.5v129h113v-129zM958 557v408q0 142 -76.5 218t-222.5 81v-1018q143 6 221 86t78 225zM254 545q0 -290 297 -299
v1018q-143 -6 -220 -86t-77 -226v-407z" />
    <glyph glyph-name="uni0425" unicode="&#x425;" horiz-adv-x="1028" 
d="M969 0h-123l-332 645l-332 -645h-123l392 754l-373 721h121l317 -613l315 613h121l-374 -721z" />
    <glyph glyph-name="uni0426" unicode="&#x426;" horiz-adv-x="1212" 
d="M1010 -231v231h-844v1475h113v-1366h608v1366h112v-1366h123v-340h-112z" />
    <glyph glyph-name="uni0427" unicode="&#x427;" horiz-adv-x="1054" 
d="M776 1475h113v-1475h-113v598h-317q-166 0 -270.5 101.5t-104.5 267.5v508h115v-500q0 -123 72.5 -196.5t195.5 -73.5h309v770z" />
    <glyph glyph-name="uni0428" unicode="&#x428;" horiz-adv-x="1368" 
d="M166 0v1475h113v-1366h350v1366h112v-1366h349v1366h112v-1475h-1036z" />
    <glyph glyph-name="uni0429" unicode="&#x429;" horiz-adv-x="1415" 
d="M1214 -231v231h-1048v1475h113v-1366h350v1366h112v-1366h351v1366h112v-1366h123v-340h-113z" />
    <glyph glyph-name="uni042A" unicode="&#x42a;" horiz-adv-x="1155" 
d="M653 879q187 0 297.5 -103t110.5 -282v-109q0 -179 -110.5 -282t-297.5 -103h-399v1372h-231v103h344v-596h286zM946 387v102q0 132 -77 206.5t-218 74.5h-284v-661h284q141 0 218 74t77 204z" />
    <glyph glyph-name="uni042B" unicode="&#x42b;" horiz-adv-x="1511" 
d="M565 879q187 0 297.5 -103t110.5 -282v-109q0 -179 -110.5 -282t-297.5 -103h-399v1475h113v-596h286zM1233 1475h113v-1475h-113v1475zM858 387v102q0 132 -77 206.5t-218 74.5h-284v-661h284q141 0 218 74t77 204z" />
    <glyph glyph-name="uni042C" unicode="&#x42c;" horiz-adv-x="1067" 
d="M565 879q187 0 297.5 -103t110.5 -282v-109q0 -179 -110.5 -282t-297.5 -103h-399v1475h113v-596h286zM858 387v102q0 132 -77 206.5t-218 74.5h-284v-661h284q141 0 218 74t77 204z" />
    <glyph glyph-name="uni042D" unicode="&#x42d;" horiz-adv-x="1044" 
d="M504 -20q-181 0 -291.5 107t-110.5 278h109q0 -124 82.5 -200.5t214.5 -76.5q128 0 204 73t76 206v344h-366v100h366v283q0 131 -80.5 211.5t-207.5 80.5q-125 0 -208 -76.5t-83 -197.5h-107q0 163 114.5 273t285.5 110q172 0 285.5 -112.5t113.5 -282.5v-740
q0 -168 -109.5 -274t-287.5 -106z" />
    <glyph glyph-name="uni042E" unicode="&#x42e;" horiz-adv-x="1593" 
d="M1044 1495q176 0 290 -109.5t114 -281.5v-727q0 -182 -112 -289.5t-292 -107.5t-292.5 107.5t-112.5 289.5v301h-360v-678h-113v1475h113v-691h360v320q0 172 114.5 281.5t290.5 109.5zM1335 381v715q0 132 -81 211t-210 79q-130 0 -210 -79t-80 -211v-715
q0 -132 81.5 -212.5t208.5 -80.5q128 0 209.5 80.5t81.5 212.5z" />
    <glyph glyph-name="uni042F" unicode="&#x42f;" horiz-adv-x="1103" 
d="M526 1475h414v-1475h-115v637h-235q-31 0 -47 2l-307 -639h-130l318 655q-138 36 -215.5 129.5t-77.5 227.5v73q0 171 108 280.5t287 109.5zM575 745h250v621h-295q-135 0 -210.5 -77t-75.5 -206v-63q0 -125 85.5 -200t245.5 -75z" />
    <glyph glyph-name="uni0430" unicode="&#x430;" horiz-adv-x="1052" 
d="M524 1085q171 0 272 -91t101 -249v-745h-111v125q-115 -145 -319 -145q-162 0 -258 88t-96 231q0 151 103 232t286 81h282v129q0 114 -66.5 177t-193.5 63q-121 0 -186.5 -57.5t-71.5 -157.5h-114q7 149 110 234t262 85zM483 84q133 0 217 80.5t84 206.5v141h-280
q-130 0 -205.5 -54t-75.5 -153q0 -103 71 -162t189 -59z" />
    <glyph glyph-name="uni0431" unicode="&#x431;" horiz-adv-x="1083" 
d="M553 1085q175 0 280 -102.5t105 -275.5v-349q0 -173 -105.5 -275.5t-283.5 -102.5q-179 0 -285 102.5t-106 275.5v650q0 172 109 278.5t284 106.5h43q68 0 99.5 18.5t31.5 63.5v20h109v-29q0 -83 -63.5 -130.5t-172.5 -47.5h-45q-131 0 -207 -73.5t-76 -200.5v-45
q94 116 283 116zM825 358v349q0 132 -72 202t-204 70q-133 0 -206 -70t-73 -202v-349q0 -130 72.5 -201t206.5 -71q132 0 204 70t72 202z" />
    <glyph glyph-name="uni0432" unicode="&#x432;" horiz-adv-x="1099" 
d="M788 559q80 -28 124 -91.5t44 -158.5q0 -143 -104.5 -226t-292.5 -83h-395v1065h420q169 0 259.5 -72t90.5 -205q-2 -78 -40.5 -139t-105.5 -90zM276 967v-363h318q227 0 227 182q0 181 -241 181h-304zM573 98q271 0 271 219q0 193 -252 193h-316v-412h297z" />
    <glyph glyph-name="uni0433" unicode="&#x433;" horiz-adv-x="888" 
d="M164 0v1065h657v-104h-545v-961h-112z" />
    <glyph glyph-name="uni0434" unicode="&#x434;" horiz-adv-x="1191" 
d="M971 104h129v-340h-111v236h-805v-236h-110v340h119q67 56 75 201l64 760h639v-961zM858 104v857h-422l-55 -662q-12 -137 -62 -195h539z" />
    <glyph glyph-name="uni0435" unicode="&#x435;" horiz-adv-x="1071" 
d="M924 510h-668v-154q0 -127 77 -199.5t202 -72.5q127 0 198 65t80 187h111q-7 -165 -112.5 -260.5t-276.5 -95.5q-179 0 -285.5 102.5t-106.5 275.5v353q0 170 107 272t285 102q180 0 284.5 -101t104.5 -273v-201zM535 981q-128 0 -203.5 -72t-75.5 -200v-101h555v101
q0 128 -74 200t-202 72z" />
    <glyph glyph-name="uni0436" unicode="&#x436;" horiz-adv-x="1517" 
d="M1040 561l420 -561h-139l-383 502h-123v-502h-113v502h-120l-385 -502h-140l422 559l-411 506h139l371 -459h124v459h113v-459h125l373 459h137z" />
    <glyph glyph-name="uni0437" unicode="&#x437;" horiz-adv-x="1001" 
d="M713 557q76 -35 120 -100.5t44 -155.5q0 -101 -55 -175.5t-140.5 -110t-187.5 -35.5q-73 0 -140 19.5t-122.5 57t-90 101.5t-35.5 145h111q6 -112 82.5 -166.5t192.5 -54.5t194 57t78 162q0 99 -65.5 150t-174.5 51h-84v100h90q104 0 158.5 52t54.5 134q0 92 -73 143.5
t-176 51.5q-112 0 -184.5 -53t-78.5 -164h-110q1 81 34.5 144t88 100t118 56t132.5 19q95 0 175 -31t133.5 -99.5t53.5 -163.5q0 -164 -143 -234z" />
    <glyph glyph-name="uni0438" unicode="&#x438;" horiz-adv-x="1099" 
d="M780 1065h154v-1065h-113v922l-495 -922h-162v1065h112v-942z" />
    <glyph glyph-name="uni0439" unicode="&#x439;" horiz-adv-x="1099" 
d="M549 1214q-115 0 -190.5 65t-96.5 191h105q13 -80 60.5 -120.5t121.5 -40.5t121.5 40.5t60.5 120.5h105q-20 -126 -96 -191t-191 -65zM780 1065h154v-1065h-113v922l-495 -922h-162v1065h112v-942z" />
    <glyph glyph-name="uni043A" unicode="&#x43a;" horiz-adv-x="1019" 
d="M543 557l422 -557h-144l-379 502h-163v-502h-115v1065h115v-465h161l373 465h139z" />
    <glyph glyph-name="uni043B" unicode="&#x43b;" horiz-adv-x="1079" 
d="M35 0v109h37q64 0 98.5 32t34.5 115v809h710v-1065h-112v961h-486v-703q0 -135 -65.5 -196.5t-179.5 -61.5h-37z" />
    <glyph glyph-name="uni043C" unicode="&#x43c;" horiz-adv-x="1243" 
d="M915 1065h164v-1065h-112v926l-293 -703h-105l-293 703v-926h-112v1065h166l293 -703z" />
    <glyph glyph-name="uni043D" unicode="&#x43d;" horiz-adv-x="1101" 
d="M164 0v1065h112v-453h547v453h113v-1065h-113v508h-547v-508h-112z" />
    <glyph glyph-name="uni043E" unicode="&#x43e;" horiz-adv-x="1067" 
d="M535 -20q-179 0 -285.5 102.5t-106.5 275.5v349q0 173 106.5 275.5t285.5 102.5q177 0 283 -102.5t106 -275.5v-349q0 -173 -106 -275.5t-283 -102.5zM535 86q127 0 201.5 72.5t74.5 199.5v349q0 127 -74.5 199.5t-201.5 72.5q-128 0 -203.5 -72.5t-75.5 -199.5v-349
q0 -127 75.5 -199.5t203.5 -72.5z" />
    <glyph glyph-name="uni043F" unicode="&#x43f;" horiz-adv-x="1101" 
d="M164 0v1065h772v-1065h-113v961h-547v-961h-112z" />
    <glyph glyph-name="uni0440" unicode="&#x440;" horiz-adv-x="1085" 
d="M561 1085q174 0 277.5 -101t103.5 -273v-357q0 -171 -104 -272.5t-277 -101.5q-83 0 -159 31t-126 95v-516h-112v1475h112v-107q50 64 126.5 95.5t158.5 31.5zM829 360v345q0 127 -74.5 200.5t-199.5 73.5q-127 0 -203 -75t-76 -199v-345q0 -124 76 -199t203 -75
t200.5 73t73.5 201z" />
    <glyph glyph-name="uni0441" unicode="&#x441;" horiz-adv-x="1030" 
d="M535 -20q-179 0 -285.5 102.5t-106.5 275.5v349q0 173 106.5 275.5t285.5 102.5q170 0 279 -98.5t110 -255.5h-111q-9 116 -82.5 182t-195.5 66q-127 0 -203 -73t-76 -199v-349q0 -125 77.5 -198.5t201.5 -73.5q127 0 197 65t81 189h111q-4 -162 -111 -261t-278 -99z" />
    <glyph glyph-name="uni0442" unicode="&#x442;" horiz-adv-x="980" 
d="M907 1065v-104h-362v-963h-113v963h-358v104h833z" />
    <glyph glyph-name="uni0443" unicode="&#x443;" horiz-adv-x="917" 
d="M139 -410v105h54q87 0 135.5 41t74.5 135l35 129h-71l-318 1065h117l283 -973h18l285 973h116l-366 -1225q-39 -135 -114.5 -192.5t-186.5 -57.5h-62z" />
    <glyph glyph-name="uni0444" unicode="&#x444;" horiz-adv-x="1161" 
d="M635 1085q175 -3 278 -105t103 -273v-349q0 -171 -103 -273t-278 -105v-390h-107v390q-175 2 -279 104t-104 274v349q0 172 104 274t279 104v390h107v-390zM903 358v349q0 129 -70 200t-200 72v-893q130 1 200 72t70 200zM258 358q0 -129 70.5 -199.5t199.5 -72.5v893
q-130 -1 -200 -72t-70 -200v-349z" />
    <glyph glyph-name="uni0445" unicode="&#x445;" horiz-adv-x="899" 
d="M854 0h-125l-283 446l-278 -446h-127l346 541l-334 524h123l275 -434l272 434h125l-336 -528z" />
    <glyph glyph-name="uni0446" unicode="&#x446;" horiz-adv-x="1130" 
d="M926 -236v236h-762v1069h112v-960h517v960h112v-960h133v-345h-112z" />
    <glyph glyph-name="uni0447" unicode="&#x447;" horiz-adv-x="1046" 
d="M778 0v451h-276q-185 0 -287 93.5t-102 266.5v254h112v-254q0 -120 73 -186t204 -66h276v506h113v-1065h-113z" />
    <glyph glyph-name="uni0448" unicode="&#x448;" horiz-adv-x="1232" 
d="M164 0v1065h112v-956h283v956h113v-956h284v956h111v-1065h-903z" />
    <glyph glyph-name="uni0449" unicode="&#x449;" horiz-adv-x="1292" 
d="M1087 -236v236h-923v1065h112v-956h283v956h113v-956h284v956h111v-956h133v-345h-113z" />
    <glyph glyph-name="uni044A" unicode="&#x44a;" horiz-adv-x="1112" 
d="M594 727q193 0 302.5 -98t109.5 -264q0 -168 -110 -266.5t-302 -98.5h-369v967h-196v98h309v-338h256zM596 104q142 0 219.5 67.5t77.5 190.5q0 126 -77 193.5t-220 67.5h-258v-519h258z" />
    <glyph glyph-name="uni044B" unicode="&#x44b;" horiz-adv-x="1355" 
d="M164 0v1065h112v-338h256q193 0 302.5 -98t109.5 -264q0 -168 -110 -266.5t-302 -98.5h-368zM1079 0v1065h111v-1065h-111zM276 104h259q142 0 219 67.5t77 190.5q0 126 -76.5 193.5t-219.5 67.5h-259v-519z" />
    <glyph glyph-name="uni044C" unicode="&#x44c;" horiz-adv-x="1050" 
d="M164 0v1065h112v-338h256q193 0 302.5 -98t109.5 -264q0 -168 -110 -266.5t-302 -98.5h-368zM276 104h259q142 0 219 67.5t77 190.5q0 126 -76.5 193.5t-219.5 67.5h-259v-519z" />
    <glyph glyph-name="uni044D" unicode="&#x44d;" horiz-adv-x="1042" 
d="M504 -20q-175 0 -282.5 98t-115.5 262h113q10 -120 85 -187t198 -67q133 0 208.5 71.5t75.5 204.5v134h-354v102h354v115q0 125 -76.5 195.5t-207.5 70.5q-125 0 -199.5 -65.5t-83.5 -184.5h-113q8 162 114 259t282 97q180 0 288.5 -101t108.5 -271v-351
q0 -176 -107 -279t-288 -103z" />
    <glyph glyph-name="uni044E" unicode="&#x44e;" horiz-adv-x="1452" 
d="M920 1085q177 0 283 -102.5t106 -275.5v-349q0 -173 -106 -275.5t-283 -102.5q-179 0 -285.5 102.5t-106.5 275.5v134h-254v-492h-110v1065h110v-467h254v109q0 173 106.5 275.5t285.5 102.5zM1196 358v349q0 127 -74.5 199.5t-201.5 72.5q-128 0 -203.5 -72.5
t-75.5 -199.5v-349q0 -127 75.5 -199.5t203.5 -72.5q127 0 201.5 72.5t74.5 199.5z" />
    <glyph glyph-name="uni044F" unicode="&#x44f;" horiz-adv-x="1103" 
d="M537 1065h403v-1065h-113v457h-280l-291 -457h-137l301 465q-126 22 -199.5 99t-73.5 200q0 146 106 223.5t284 77.5zM827 561v400h-286q-62 0 -109.5 -9t-88 -30t-62 -60.5t-21.5 -95.5q0 -102 69 -153.5t193 -51.5h305z" />
    <glyph glyph-name="uni0451" unicode="&#x451;" horiz-adv-x="1071" 
d="M244 1262v170h139v-170h-139zM682 1262v170h139v-170h-139zM924 510h-668v-154q0 -127 77 -199.5t202 -72.5q127 0 198 65t80 187h111q-7 -165 -112.5 -260.5t-276.5 -95.5q-179 0 -285.5 102.5t-106.5 275.5v353q0 170 107 272t285 102q180 0 284.5 -101t104.5 -273
v-201zM535 981q-128 0 -203.5 -72t-75.5 -200v-101h555v101q0 128 -74 200t-202 72z" />
    <glyph glyph-name="uni0452" unicode="&#x452;" horiz-adv-x="1099" 
d="M561 1085q174 0 277.5 -101t103.5 -273v-856q0 -265 -272 -265h-88v109h84q163 0 163 149v857q0 127 -74.5 200.5t-199.5 73.5q-127 0 -203 -75t-76 -199v-705h-112v1231h-137v102h137v142h112v-142h371v-102h-371v-273q49 63 125 95t160 32z" />
    <glyph glyph-name="uni0453" unicode="&#x453;" horiz-adv-x="888" 
d="M377 1245l141 289h121l-168 -289h-94zM164 0v1065h657v-104h-545v-961h-112z" />
    <glyph glyph-name="uni0454" unicode="&#x454;" horiz-adv-x="1030" 
d="M535 86q127 0 197 65t81 189h111q-4 -162 -111 -261t-278 -99q-179 0 -285.5 102.5t-106.5 275.5v349q0 173 106.5 275.5t285.5 102.5q170 0 279 -98.5t110 -255.5h-111q-9 116 -82.5 182t-195.5 66q-127 0 -203 -73t-76 -199v-105h354v-106h-354v-138
q0 -125 77.5 -198.5t201.5 -73.5z" />
    <glyph glyph-name="uni0455" unicode="&#x455;" horiz-adv-x="989" 
d="M494 -20q-110 0 -197 38t-142 119.5t-55 196.5h113q0 -117 77 -184.5t204 -67.5q128 0 202 57.5t74 143.5q0 72 -50 112t-157 74l-168 53q-132 41 -200 102.5t-68 172.5q0 129 103 208.5t266 79.5q179 0 277 -84.5t104 -232.5h-111q-16 215 -270 215q-117 0 -186.5 -52.5
t-69.5 -129.5q0 -71 47 -108t153 -70l168 -54q140 -44 208.5 -105.5t68.5 -174.5q0 -140 -109.5 -224.5t-281.5 -84.5z" />
    <glyph glyph-name="uni0456" unicode="&#x456;" horiz-adv-x="440" 
d="M156 1262v170h127v-170h-127zM164 0v1065h110v-1065h-110z" />
    <glyph glyph-name="uni0457" unicode="&#x457;" horiz-adv-x="440" 
d="M-8 1262v170h139v-170h-139zM303 1262v170h139v-170h-139zM164 0v1065h110v-1065h-110z" />
    <glyph glyph-name="uni0458" unicode="&#x458;" horiz-adv-x="477" 
d="M178 1262v170h127v-170h-127zM-39 -410v105h51q82 0 127 40.5t45 139.5v1190h113v-1196q0 -151 -75 -215t-206 -64h-55z" />
    <glyph glyph-name="uni0459" unicode="&#x459;" horiz-adv-x="1689" 
d="M1171 727q193 0 302.5 -98t109.5 -264q0 -168 -110 -266.5t-302 -98.5h-368v961h-486v-703q0 -135 -65.5 -196.5t-179.5 -61.5h-37v109h37q64 0 98.5 32t34.5 115v809h710v-338h256zM1174 104q142 0 219 67.5t77 190.5q0 126 -76.5 193.5t-219.5 67.5h-259v-519h259z" />
    <glyph glyph-name="uni045A" unicode="&#x45a;" horiz-adv-x="1705" 
d="M1223 641q179 0 277.5 -83t98.5 -224q0 -161 -97 -247.5t-279 -86.5h-402v537h-545v-537h-112v1065h112v-424h545v424h113v-424h289zM1229 104q258 0 258 228q0 99 -65 152t-193 53h-295v-433h295z" />
    <glyph glyph-name="uni045B" unicode="&#x45b;" horiz-adv-x="1099" 
d="M561 1085q174 0 277.5 -101t103.5 -273v-711h-113v705q0 127 -74.5 200.5t-199.5 73.5q-127 0 -203 -75t-76 -199v-705h-112v1231h-137v102h137v142h112v-142h371v-102h-371v-273q49 63 125 95t160 32z" />
    <glyph glyph-name="uni045C" unicode="&#x45c;" horiz-adv-x="1019" 
d="M729 1534l-168 -289h-94l141 289h121zM543 557l422 -557h-144l-379 502h-163v-502h-115v1065h115v-465h161l373 465h139z" />
    <glyph glyph-name="uni045E" unicode="&#x45e;" horiz-adv-x="917" 
d="M459 1214q-115 0 -190.5 65t-96.5 191h104q13 -80 61 -120.5t122 -40.5t121.5 40.5t60.5 120.5h104q-20 -126 -95.5 -191t-190.5 -65zM139 -410v105h54q87 0 135.5 41t74.5 135l35 129h-71l-318 1065h117l283 -973h18l285 973h116l-366 -1225q-39 -135 -114.5 -192.5
t-186.5 -57.5h-62z" />
    <glyph glyph-name="uni045F" unicode="&#x45f;" horiz-adv-x="1105" 
d="M496 -236v236h-332v1065h112v-956h553v956h113v-1065h-334v-236h-112z" />
    <glyph glyph-name="uni0490" unicode="&#x490;" horiz-adv-x="962" 
d="M166 0v1475h651v182h113v-291h-651v-1366h-113z" />
    <glyph glyph-name="uni0491" unicode="&#x491;" horiz-adv-x="888" 
d="M709 1305h112v-344h-545v-961h-112v1065h545v240z" />
    <glyph glyph-name="uni1E0D" unicode="&#x1e0d;" horiz-adv-x="1085" 
d="M809 1475h113v-1475h-111v106q-50 -64 -126 -95t-159 -31q-174 0 -278.5 101.5t-104.5 272.5v357q0 172 104.5 273t278.5 101q82 0 157.5 -30.5t125.5 -93.5v514zM809 360v345q0 123 -75.5 198.5t-201.5 75.5q-127 0 -201.5 -73.5t-74.5 -200.5v-345q0 -128 74 -201
t202 -73q126 0 201.5 75.5t75.5 198.5zM475 -328v154h141v-154h-141z" />
    <glyph glyph-name="uni1E25" unicode="&#x1e25;" horiz-adv-x="1099" 
d="M561 1085q174 0 277.5 -101t103.5 -273v-711h-113v705q0 127 -74.5 200.5t-199.5 73.5q-127 0 -203 -75t-76 -199v-705h-112v1475h112v-517q49 63 125 95t160 32zM481 -328v154h142v-154h-142z" />
    <glyph glyph-name="uni1E63" unicode="&#x1e63;" horiz-adv-x="989" 
d="M494 -20q-110 0 -197 38t-142 119.5t-55 196.5h113q0 -117 77 -184.5t204 -67.5q128 0 202 57.5t74 143.5q0 72 -50 112t-157 74l-168 53q-132 41 -200 102.5t-68 172.5q0 129 103 208.5t266 79.5q179 0 277 -84.5t104 -232.5h-111q-16 215 -270 215q-117 0 -186.5 -52.5
t-69.5 -129.5q0 -71 47 -108t153 -70l168 -54q140 -44 208.5 -105.5t68.5 -174.5q0 -140 -109.5 -224.5t-281.5 -84.5zM426 -328v154h141v-154h-141z" />
    <glyph glyph-name="uni1E6D" unicode="&#x1e6d;" horiz-adv-x="710" 
d="M637 961h-266v-703q0 -83 35 -118.5t112 -35.5h96v-104h-110q-116 0 -181 57.5t-65 180.5v723h-197v104h197v410h113v-410h266v-104zM375 -328v154h141v-154h-141z" />
    <glyph glyph-name="Wgrave" unicode="&#x1e80;" horiz-adv-x="1636" 
d="M864 1599h-92l-166 283h121zM1446 1475h119l-301 -1475h-150l-297 1249l-295 -1249h-149l-301 1475h118l261 -1342l309 1342h114l310 -1346z" />
    <glyph glyph-name="wgrave" unicode="&#x1e81;" horiz-adv-x="1370" 
d="M655 1245l-170 289h123l140 -289h-93zM324 0l-250 1065h114l209 -936h4l224 936h120l224 -936h4l209 936h114l-249 -1065h-148l-213 891h-2l-213 -891h-147z" />
    <glyph glyph-name="Wacute" unicode="&#x1e82;" horiz-adv-x="1636" 
d="M1030 1882l-166 -283h-94l137 283h123zM1446 1475h119l-301 -1475h-150l-297 1249l-295 -1249h-149l-301 1475h118l261 -1342l309 1342h114l310 -1346z" />
    <glyph glyph-name="wacute" unicode="&#x1e83;" horiz-adv-x="1370" 
d="M639 1245l141 289h121l-168 -289h-94zM324 0l-250 1065h114l209 -936h4l224 936h120l224 -936h4l209 936h114l-249 -1065h-148l-213 891h-2l-213 -891h-147z" />
    <glyph glyph-name="Wdieresis" unicode="&#x1e84;" horiz-adv-x="1636" 
d="M666 1769v-170h-140v170h140zM1104 1769v-170h-139v170h139zM1446 1475h119l-301 -1475h-150l-297 1249l-295 -1249h-149l-301 1475h118l261 -1342l309 1342h114l310 -1346z" />
    <glyph glyph-name="wdieresis" unicode="&#x1e85;" horiz-adv-x="1370" 
d="M395 1262v170h140v-170h-140zM834 1262v170h139v-170h-139zM324 0l-250 1065h114l209 -936h4l224 936h120l224 -936h4l209 936h114l-249 -1065h-148l-213 891h-2l-213 -891h-147z" />
    <glyph glyph-name="uni1E93" unicode="&#x1e93;" horiz-adv-x="911" 
d="M203 98h637v-98h-754v109l586 858h-566v98h685v-104zM389 -328v154h141v-154h-141z" />
    <glyph glyph-name="uni1EA0" unicode="&#x1ea0;" 
d="M934 0l-113 418h-545l-112 -418h-111l398 1475h196l397 -1475h-110zM305 526h488l-228 840h-35zM483 -328v154h142v-154h-142z" />
    <glyph glyph-name="uni1EA1" unicode="&#x1ea1;" horiz-adv-x="1052" 
d="M524 1085q171 0 272 -91t101 -249v-745h-111v125q-115 -145 -319 -145q-162 0 -258 88t-96 231q0 151 103 232t286 81h282v129q0 114 -66.5 177t-193.5 63q-121 0 -186.5 -57.5t-71.5 -157.5h-114q7 149 110 234t262 85zM483 84q133 0 217 80.5t84 206.5v141h-280
q-130 0 -205.5 -54t-75.5 -153q0 -103 71 -162t189 -59zM455 -328v154h141v-154h-141z" />
    <glyph glyph-name="uni1EA2" unicode="&#x1ea2;" 
d="M541 1561v84q94 6 94 84q0 30 -19.5 46.5t-52.5 16.5q-35 0 -82 -27l-37 68q55 43 129 43q68 0 110 -39.5t42 -105.5q0 -69 -48.5 -117.5t-135.5 -52.5zM934 0l-113 418h-545l-112 -418h-111l398 1475h196l397 -1475h-110zM305 526h488l-228 840h-35z" />
    <glyph glyph-name="uni1EA3" unicode="&#x1ea3;" horiz-adv-x="1052" 
d="M512 1196v82q96 8 96 86q0 29 -19 45t-52 16q-37 0 -84 -24l-37 65q54 45 129 45q69 0 111 -39.5t42 -105.5q0 -69 -48.5 -117.5t-137.5 -52.5zM524 1085q171 0 272 -91t101 -249v-745h-111v125q-115 -145 -319 -145q-162 0 -258 88t-96 231q0 151 103 232t286 81h282
v129q0 114 -66.5 177t-193.5 63q-121 0 -186.5 -57.5t-71.5 -157.5h-114q7 149 110 234t262 85zM483 84q133 0 217 80.5t84 206.5v141h-280q-130 0 -205.5 -54t-75.5 -153q0 -103 71 -162t189 -59z" />
    <glyph glyph-name="uni1EA4" unicode="&#x1ea4;" 
d="M793 2079l-183 -166h-116l182 166h117zM551 1753l-152 -141h-129l234 221h90l235 -221h-127zM647 1475l397 -1475h-110l-113 418h-545l-112 -418h-111l398 1475h196zM305 526h488l-228 840h-35z" />
    <glyph glyph-name="uni1EA5" unicode="&#x1ea5;" horiz-adv-x="1052" 
d="M782 1669l-182 -166h-117l183 166h116zM541 1343l-152 -141h-129l234 221h90l235 -221h-127zM524 1085q171 0 272 -91t101 -249v-745h-111v125q-115 -145 -319 -145q-162 0 -258 88t-96 231q0 151 103 232t286 81h282v129q0 114 -66.5 177t-193.5 63q-121 0 -186.5 -57.5
t-71.5 -157.5h-114q7 149 110 234t262 85zM784 371v141h-280q-130 0 -205.5 -54t-75.5 -153q0 -103 71 -162t189 -59q133 0 217 80.5t84 206.5z" />
    <glyph glyph-name="uni1EA6" unicode="&#x1ea6;" 
d="M623 1913h-117l-182 166h116zM551 1753l-152 -141h-129l234 221h90l235 -221h-127zM647 1475l397 -1475h-110l-113 418h-545l-112 -418h-111l398 1475h196zM305 526h488l-228 840h-35z" />
    <glyph glyph-name="uni1EA7" unicode="&#x1ea7;" horiz-adv-x="1052" 
d="M600 1503h-117l-182 166h117zM541 1343l-152 -141h-129l234 221h90l235 -221h-127zM524 1085q171 0 272 -91t101 -249v-745h-111v125q-115 -145 -319 -145q-162 0 -258 88t-96 231q0 151 103 232t286 81h282v129q0 114 -66.5 177t-193.5 63q-121 0 -186.5 -57.5
t-71.5 -157.5h-114q7 149 110 234t262 85zM784 371v141h-280q-130 0 -205.5 -54t-75.5 -153q0 -103 71 -162t189 -59q133 0 217 80.5t84 206.5z" />
    <glyph glyph-name="uni1EA8" unicode="&#x1ea8;" 
d="M541 2085q-41 0 -66 -25l-49 47q43 52 121 52q59 0 98 -35.5t39 -93.5q0 -66 -47 -110t-111 -44v74q33 0 55.5 21t22.5 54q0 30 -17 45t-46 15zM551 1753l-152 -141h-129l234 221h90l235 -221h-127zM647 1475l397 -1475h-110l-113 418h-545l-112 -418h-111l398 1475h196z
M305 526h488l-228 840h-35z" />
    <glyph glyph-name="uni1EA9" unicode="&#x1ea9;" horiz-adv-x="1052" 
d="M530 1675q-41 0 -65 -24l-49 47q42 51 121 51q59 0 98 -35.5t39 -93.5q0 -66 -47 -110t-111 -44v74q33 0 55.5 21.5t22.5 54.5q0 59 -64 59zM541 1343l-152 -141h-129l234 221h90l235 -221h-127zM524 1085q171 0 272 -91t101 -249v-745h-111v125q-115 -145 -319 -145
q-162 0 -258 88t-96 231q0 151 103 232t286 81h282v129q0 114 -66.5 177t-193.5 63q-121 0 -186.5 -57.5t-71.5 -157.5h-114q7 149 110 234t262 85zM784 371v141h-280q-130 0 -205.5 -54t-75.5 -153q0 -103 71 -162t189 -59q133 0 217 80.5t84 206.5z" />
    <glyph glyph-name="uni1EAA" unicode="&#x1eaa;" 
d="M434 2003q-26 0 -51 -15.5t-64 -54.5l-61 60q44 55 86.5 79.5t93.5 24.5q52 0 126.5 -43t113.5 -43q31 0 53 14t57 50l60 -62q-78 -96 -172 -96q-42 0 -86.5 21.5t-85 43t-70.5 21.5zM504 1833h90l235 -221h-127l-151 141l-152 -141h-129zM647 1475l397 -1475h-110
l-113 418h-545l-112 -418h-111l398 1475h196zM305 526h488l-228 840h-35z" />
    <glyph glyph-name="uni1EAB" unicode="&#x1eab;" horiz-adv-x="1052" 
d="M414 1591q-45 0 -105 -63l-57 59q78 99 164 99q48 0 132.5 -40t119.5 -40q29 0 48.5 12.5t53.5 46.5l59 -57q-78 -97 -161 -97q-48 0 -136 40t-118 40zM494 1423h90l235 -221h-127l-151 141l-152 -141h-129zM524 1085q171 0 272 -91t101 -249v-745h-111v125
q-115 -145 -319 -145q-162 0 -258 88t-96 231q0 151 103 232t286 81h282v129q0 114 -66.5 177t-193.5 63q-121 0 -186.5 -57.5t-71.5 -157.5h-114q7 149 110 234t262 85zM784 371v141h-280q-130 0 -205.5 -54t-75.5 -153q0 -103 71 -162t189 -59q133 0 217 80.5t84 206.5z
" />
    <glyph glyph-name="uni1EAC" unicode="&#x1eac;" 
d="M555 1810l-152 -213h-102l199 289h106l201 -289h-102zM647 1475l397 -1475h-110l-113 418h-545l-112 -418h-111l398 1475h196zM305 526h488l-228 840h-35zM483 -328v154h142v-154h-142z" />
    <glyph glyph-name="uni1EAD" unicode="&#x1ead;" horiz-adv-x="1052" 
d="M287 1243l198 289h113l201 -289h-103l-153 205l-154 -205h-102zM524 1085q171 0 272 -91t101 -249v-745h-111v125q-115 -145 -319 -145q-162 0 -258 88t-96 231q0 151 103 232t286 81h282v129q0 114 -66.5 177t-193.5 63q-121 0 -186.5 -57.5t-71.5 -157.5h-114
q7 149 110 234t262 85zM483 84q133 0 217 80.5t84 206.5v141h-280q-130 0 -205.5 -54t-75.5 -153q0 -103 71 -162t189 -59zM455 -328v154h141v-154h-141z" />
    <glyph glyph-name="uni1EAE" unicode="&#x1eae;" 
d="M496 1905l182 166h117l-183 -166h-116zM553 1593q-110 0 -180 62t-88 188h100q9 -79 54.5 -120.5t113.5 -41.5q67 0 112 41.5t54 120.5h102q-18 -126 -88 -188t-180 -62zM934 0l-113 418h-545l-112 -418h-111l398 1475h196l397 -1475h-110zM305 526h488l-228 840h-35z
" />
    <glyph glyph-name="uni1EAF" unicode="&#x1eaf;" horiz-adv-x="1052" 
d="M485 1511l183 166h116l-182 -166h-117zM543 1214q-115 0 -190.5 65t-96.5 191h104q13 -80 61 -120.5t122 -40.5t121.5 40.5t60.5 120.5h104q-20 -126 -95.5 -191t-190.5 -65zM524 1085q171 0 272 -91t101 -249v-745h-111v125q-115 -145 -319 -145q-162 0 -258 88t-96 231
q0 151 103 232t286 81h282v129q0 114 -66.5 177t-193.5 63q-121 0 -186.5 -57.5t-71.5 -157.5h-114q7 149 110 234t262 85zM483 84q133 0 217 80.5t84 206.5v141h-280q-130 0 -205.5 -54t-75.5 -153q0 -103 71 -162t189 -59z" />
    <glyph glyph-name="uni1EB0" unicode="&#x1eb0;" 
d="M508 1905l-182 166h116l183 -166h-117zM553 1593q-110 0 -180 62t-88 188h100q9 -79 54.5 -120.5t113.5 -41.5q67 0 112 41.5t54 120.5h102q-18 -126 -88 -188t-180 -62zM934 0l-113 418h-545l-112 -418h-111l398 1475h196l397 -1475h-110zM305 526h488l-228 840h-35z
" />
    <glyph glyph-name="uni1EB1" unicode="&#x1eb1;" horiz-adv-x="1052" 
d="M498 1511l-183 166h117l182 -166h-116zM543 1214q-115 0 -190.5 65t-96.5 191h104q13 -80 61 -120.5t122 -40.5t121.5 40.5t60.5 120.5h104q-20 -126 -95.5 -191t-190.5 -65zM524 1085q171 0 272 -91t101 -249v-745h-111v125q-115 -145 -319 -145q-162 0 -258 88t-96 231
q0 151 103 232t286 81h282v129q0 114 -66.5 177t-193.5 63q-121 0 -186.5 -57.5t-71.5 -157.5h-114q7 149 110 234t262 85zM483 84q133 0 217 80.5t84 206.5v141h-280q-130 0 -205.5 -54t-75.5 -153q0 -103 71 -162t189 -59z" />
    <glyph glyph-name="uni1EB2" unicode="&#x1eb2;" 
d="M526 1868v74q33 0 55.5 21t22.5 54q0 30 -17 45t-46 15q-41 0 -66 -25l-49 47q42 51 121 51q59 0 98 -35.5t39 -93.5q0 -66 -46.5 -109.5t-111.5 -43.5zM553 1593q-110 0 -180 62t-88 188h100q9 -79 54.5 -120.5t113.5 -41.5q67 0 112 41.5t54 120.5h102
q-18 -126 -88 -188t-180 -62zM934 0l-113 418h-545l-112 -418h-111l398 1475h196l397 -1475h-110zM305 526h488l-228 840h-35z" />
    <glyph glyph-name="uni1EB3" unicode="&#x1eb3;" horiz-adv-x="1052" 
d="M516 1475v73q33 0 55.5 21.5t22.5 54.5q0 59 -64 59q-41 0 -65 -24l-49 47q42 51 121 51q59 0 98 -35.5t39 -93.5q0 -66 -46.5 -109.5t-111.5 -43.5zM543 1214q-115 0 -190.5 65t-96.5 191h104q13 -80 61 -120.5t122 -40.5t121.5 40.5t60.5 120.5h104
q-20 -126 -95.5 -191t-190.5 -65zM524 1085q171 0 272 -91t101 -249v-745h-111v125q-115 -145 -319 -145q-162 0 -258 88t-96 231q0 151 103 232t286 81h282v129q0 114 -66.5 177t-193.5 63q-121 0 -186.5 -57.5t-71.5 -157.5h-114q7 149 110 234t262 85zM483 84
q133 0 217 80.5t84 206.5v141h-280q-130 0 -205.5 -54t-75.5 -153q0 -103 71 -162t189 -59z" />
    <glyph glyph-name="uni1EB4" unicode="&#x1eb4;" 
d="M676 1913q-42 0 -86.5 21.5t-85 43t-70.5 21.5q-26 0 -51 -15.5t-64 -54.5l-61 60q44 55 86.5 79.5t93.5 24.5q52 0 126.5 -43t113.5 -43q31 0 53 14t57 50l60 -62q-78 -96 -172 -96zM553 1591q-111 0 -180.5 61t-87.5 185h100q9 -77 54.5 -118.5t113.5 -41.5
q67 0 112 41.5t54 118.5h100q-17 -124 -86 -185t-180 -61zM934 0l-113 418h-545l-112 -418h-111l398 1475h196l397 -1475h-110zM305 526h488l-228 840h-35z" />
    <glyph glyph-name="uni1EB5" unicode="&#x1eb5;" horiz-adv-x="1052" 
d="M668 1511q-48 0 -136 40t-118 40q-45 0 -105 -63l-57 59q78 99 164 99q48 0 132.5 -40t119.5 -40q29 0 48.5 12.5t53.5 46.5l59 -57q-78 -97 -161 -97zM543 1188q-114 0 -188 60t-95 182h102q25 -150 181 -150q157 0 182 150h102q-20 -122 -94.5 -182t-189.5 -60z
M524 1085q171 0 272 -91t101 -249v-745h-111v125q-115 -145 -319 -145q-162 0 -258 88t-96 231q0 151 103 232t286 81h282v129q0 114 -66.5 177t-193.5 63q-121 0 -186.5 -57.5t-71.5 -157.5h-114q7 149 110 234t262 85zM483 84q133 0 217 80.5t84 206.5v141h-280
q-130 0 -205.5 -54t-75.5 -153q0 -103 71 -162t189 -59z" />
    <glyph glyph-name="uni1EB6" unicode="&#x1eb6;" 
d="M553 1593q-110 0 -180 62t-88 188h100q9 -79 54.5 -120.5t113.5 -41.5q67 0 112 41.5t54 120.5h102q-18 -126 -88 -188t-180 -62zM934 0l-113 418h-545l-112 -418h-111l398 1475h196l397 -1475h-110zM305 526h488l-228 840h-35zM483 -328v154h142v-154h-142z" />
    <glyph glyph-name="uni1EB7" unicode="&#x1eb7;" horiz-adv-x="1052" 
d="M543 1214q-115 0 -190.5 65t-96.5 191h104q13 -80 61 -120.5t122 -40.5t121.5 40.5t60.5 120.5h104q-20 -126 -95.5 -191t-190.5 -65zM524 1085q171 0 272 -91t101 -249v-745h-111v125q-115 -145 -319 -145q-162 0 -258 88t-96 231q0 151 103 232t286 81h282v129
q0 114 -66.5 177t-193.5 63q-121 0 -186.5 -57.5t-71.5 -157.5h-114q7 149 110 234t262 85zM483 84q133 0 217 80.5t84 206.5v141h-280q-130 0 -205.5 -54t-75.5 -153q0 -103 71 -162t189 -59zM455 -328v154h141v-154h-141z" />
    <glyph glyph-name="uni1EB8" unicode="&#x1eb8;" horiz-adv-x="1019" 
d="M934 1366h-655v-537h604v-108h-604v-612h655v-109h-768v1475h768v-109zM483 -328v154h142v-154h-142z" />
    <glyph glyph-name="uni1EB9" unicode="&#x1eb9;" horiz-adv-x="1071" 
d="M924 510h-668v-154q0 -127 77 -199.5t202 -72.5q127 0 198 65t80 187h111q-7 -165 -112.5 -260.5t-276.5 -95.5q-179 0 -285.5 102.5t-106.5 275.5v353q0 170 107 272t285 102q180 0 284.5 -101t104.5 -273v-201zM535 981q-128 0 -203.5 -72t-75.5 -200v-101h555v101
q0 128 -74 200t-202 72zM465 -328v154h141v-154h-141z" />
    <glyph glyph-name="uni1EBA" unicode="&#x1eba;" horiz-adv-x="1019" 
d="M545 1561v84q94 6 94 84q0 30 -19.5 46.5t-52.5 16.5q-35 0 -82 -27l-36 68q55 43 129 43q68 0 109.5 -39.5t41.5 -105.5q0 -69 -48.5 -117.5t-135.5 -52.5zM934 1366h-655v-537h604v-108h-604v-612h655v-109h-768v1475h768v-109z" />
    <glyph glyph-name="uni1EBB" unicode="&#x1ebb;" horiz-adv-x="1071" 
d="M504 1196v82q96 8 96 86q0 29 -19.5 45t-52.5 16q-38 0 -84 -24l-36 65q54 45 129 45q69 0 111 -39.5t42 -105.5q0 -69 -48.5 -117.5t-137.5 -52.5zM924 510h-668v-154q0 -127 77 -199.5t202 -72.5q127 0 198 65t80 187h111q-7 -165 -112.5 -260.5t-276.5 -95.5
q-179 0 -285.5 102.5t-106.5 275.5v353q0 170 107 272t285 102q180 0 284.5 -101t104.5 -273v-201zM535 981q-128 0 -203.5 -72t-75.5 -200v-101h555v101q0 128 -74 200t-202 72z" />
    <glyph glyph-name="uni1EBC" unicode="&#x1ebc;" horiz-adv-x="1019" 
d="M694 1599q-51 0 -146 39t-128 39q-30 0 -55.5 -14t-61.5 -53l-61 53q84 106 178 106q52 0 146.5 -39.5t131.5 -39.5q32 0 56 14t53 51l55 -55q-74 -101 -168 -101zM934 1366h-655v-537h604v-108h-604v-612h655v-109h-768v1475h768v-109z" />
    <glyph glyph-name="uni1EBD" unicode="&#x1ebd;" horiz-adv-x="1071" 
d="M676 1245q-52 0 -149 43t-128 43q-27 0 -52 -15t-64 -54l-62 65q84 103 178 103q52 0 144 -43.5t131 -43.5q32 0 53.5 14t56.5 52l62 -66q-80 -98 -170 -98zM924 510h-668v-154q0 -127 77 -199.5t202 -72.5q127 0 198 65t80 187h111q-7 -165 -112.5 -260.5t-276.5 -95.5
q-179 0 -285.5 102.5t-106.5 275.5v353q0 170 107 272t285 102q180 0 284.5 -101t104.5 -273v-201zM535 981q-128 0 -203.5 -72t-75.5 -200v-101h555v101q0 128 -74 200t-202 72z" />
    <glyph glyph-name="uni1EBE" unicode="&#x1ebe;" horiz-adv-x="1019" 
d="M797 2079l-183 -166h-116l182 166h117zM555 1753l-152 -141h-129l234 221h90l236 -221h-127zM934 1366h-655v-537h604v-108h-604v-612h655v-109h-768v1475h768v-109z" />
    <glyph glyph-name="uni1EBF" unicode="&#x1ebf;" horiz-adv-x="1071" 
d="M774 1669l-182 -166h-117l182 166h117zM532 1343l-151 -141h-129l233 221h90l236 -221h-127zM924 510h-668v-154q0 -127 77 -199.5t202 -72.5q127 0 198 65t80 187h111q-7 -165 -112.5 -260.5t-276.5 -95.5q-179 0 -285.5 102.5t-106.5 275.5v353q0 170 107 272t285 102
q180 0 284.5 -101t104.5 -273v-201zM256 709v-101h555v101q0 128 -74 200t-202 72t-203.5 -72t-75.5 -200z" />
    <glyph glyph-name="uni1EC0" unicode="&#x1ec0;" horiz-adv-x="1019" 
d="M627 1913h-117l-182 166h116zM555 1753l-152 -141h-129l234 221h90l236 -221h-127zM934 1366h-655v-537h604v-108h-604v-612h655v-109h-768v1475h768v-109z" />
    <glyph glyph-name="uni1EC1" unicode="&#x1ec1;" horiz-adv-x="1071" 
d="M592 1503h-117l-182 166h117zM532 1343l-151 -141h-129l233 221h90l236 -221h-127zM924 510h-668v-154q0 -127 77 -199.5t202 -72.5q127 0 198 65t80 187h111q-7 -165 -112.5 -260.5t-276.5 -95.5q-179 0 -285.5 102.5t-106.5 275.5v353q0 170 107 272t285 102
q180 0 284.5 -101t104.5 -273v-201zM256 709v-101h555v101q0 128 -74 200t-202 72t-203.5 -72t-75.5 -200z" />
    <glyph glyph-name="uni1EC2" unicode="&#x1ec2;" horiz-adv-x="1019" 
d="M545 2085q-41 0 -66 -25l-49 47q43 52 121 52q59 0 98 -35.5t39 -93.5q0 -66 -47 -110t-111 -44v74q33 0 55.5 21t22.5 54q0 30 -17 45t-46 15zM555 1753l-152 -141h-129l234 221h90l236 -221h-127zM934 1366h-655v-537h604v-108h-604v-612h655v-109h-768v1475h768v-109z
" />
    <glyph glyph-name="uni1EC3" unicode="&#x1ec3;" horiz-adv-x="1071" 
d="M522 1675q-41 0 -65 -24l-49 47q42 51 120 51q59 0 98.5 -35.5t39.5 -93.5q0 -66 -47 -110t-111 -44v74q33 0 55.5 21.5t22.5 54.5q0 59 -64 59zM532 1343l-151 -141h-129l233 221h90l236 -221h-127zM924 510h-668v-154q0 -127 77 -199.5t202 -72.5q127 0 198 65t80 187
h111q-7 -165 -112.5 -260.5t-276.5 -95.5q-179 0 -285.5 102.5t-106.5 275.5v353q0 170 107 272t285 102q180 0 284.5 -101t104.5 -273v-201zM256 709v-101h555v101q0 128 -74 200t-202 72t-203.5 -72t-75.5 -200z" />
    <glyph glyph-name="uni1EC4" unicode="&#x1ec4;" horiz-adv-x="1019" 
d="M438 2003q-26 0 -50.5 -15.5t-63.5 -54.5l-62 60q44 55 86.5 79.5t93.5 24.5q52 0 126.5 -43t113.5 -43q31 0 54 14t57 50l59 -62q-78 -96 -172 -96q-41 0 -86 21.5t-85.5 43t-70.5 21.5zM508 1833h90l236 -221h-127l-152 141l-152 -141h-129zM934 1366h-655v-537h604
v-108h-604v-612h655v-109h-768v1475h768v-109z" />
    <glyph glyph-name="uni1EC5" unicode="&#x1ec5;" horiz-adv-x="1071" 
d="M406 1591q-45 0 -105 -63l-57 59q78 99 164 99q48 0 132 -40t119 -40q29 0 49 12.5t54 46.5l59 -57q-78 -97 -162 -97q-48 0 -135.5 40t-117.5 40zM485 1423h90l236 -221h-127l-152 141l-151 -141h-129zM924 510h-668v-154q0 -127 77 -199.5t202 -72.5q127 0 198 65
t80 187h111q-7 -165 -112.5 -260.5t-276.5 -95.5q-179 0 -285.5 102.5t-106.5 275.5v353q0 170 107 272t285 102q180 0 284.5 -101t104.5 -273v-201zM256 709v-101h555v101q0 128 -74 200t-202 72t-203.5 -72t-75.5 -200z" />
    <glyph glyph-name="uni1EC6" unicode="&#x1ec6;" horiz-adv-x="1019" 
d="M559 1810l-151 -213h-103l199 289h106l201 -289h-102zM934 1366h-655v-537h604v-108h-604v-612h655v-109h-768v1475h768v-109zM483 -328v154h142v-154h-142z" />
    <glyph glyph-name="uni1EC7" unicode="&#x1ec7;" horiz-adv-x="1071" 
d="M279 1243l198 289h113l201 -289h-103l-153 205l-154 -205h-102zM924 510h-668v-154q0 -127 77 -199.5t202 -72.5q127 0 198 65t80 187h111q-7 -165 -112.5 -260.5t-276.5 -95.5q-179 0 -285.5 102.5t-106.5 275.5v353q0 170 107 272t285 102q180 0 284.5 -101t104.5 -273
v-201zM535 981q-128 0 -203.5 -72t-75.5 -200v-101h555v101q0 128 -74 200t-202 72zM465 -328v154h141v-154h-141z" />
    <glyph glyph-name="uni1EC8" unicode="&#x1ec8;" horiz-adv-x="444" 
d="M211 1561v84q94 6 94 84q0 30 -19.5 46.5t-52.5 16.5q-35 0 -81 -27l-37 68q55 43 129 43q68 0 109.5 -39.5t41.5 -105.5q0 -69 -48.5 -117.5t-135.5 -52.5zM166 0v1475h113v-1475h-113z" />
    <glyph glyph-name="uni1EC9" unicode="&#x1ec9;" horiz-adv-x="440" 
d="M188 1196v82q97 9 97 86q0 29 -19.5 45t-52.5 16q-37 0 -84 -24l-37 65q54 45 129 45q69 0 111.5 -39.5t42.5 -105.5q0 -69 -49 -117.5t-138 -52.5zM164 0v1065h110v-1065h-110z" />
    <glyph glyph-name="uni1ECA" unicode="&#x1eca;" horiz-adv-x="444" 
d="M166 0v1475h113v-1475h-113zM154 -328v154h141v-154h-141z" />
    <glyph glyph-name="uni1ECB" unicode="&#x1ecb;" horiz-adv-x="440" 
d="M156 1262v170h127v-170h-127zM164 0v1065h110v-1065h-110zM150 -328v154h141v-154h-141z" />
    <glyph glyph-name="uni1ECC" unicode="&#x1ecc;" 
d="M549 -20q-180 0 -293 107.5t-113 289.5v727q0 172 115 281.5t291 109.5t289.5 -109.5t113.5 -281.5v-727q0 -182 -112 -289.5t-291 -107.5zM549 88q128 0 209.5 80.5t81.5 212.5v715q0 132 -81 211t-210 79q-130 0 -210.5 -79t-80.5 -211v-715q0 -132 81.5 -212.5
t209.5 -80.5zM479 -328v154h142v-154h-142z" />
    <glyph glyph-name="uni1ECD" unicode="&#x1ecd;" horiz-adv-x="1067" 
d="M535 -20q-179 0 -285.5 102.5t-106.5 275.5v349q0 173 106.5 275.5t285.5 102.5q177 0 283 -102.5t106 -275.5v-349q0 -173 -106 -275.5t-283 -102.5zM535 86q127 0 201.5 72.5t74.5 199.5v349q0 127 -74.5 199.5t-201.5 72.5q-128 0 -203.5 -72.5t-75.5 -199.5v-349
q0 -127 75.5 -199.5t203.5 -72.5zM465 -328v154h141v-154h-141z" />
    <glyph glyph-name="uni1ECE" unicode="&#x1ece;" 
d="M537 1561v84q94 6 94 84q0 30 -19.5 46.5t-52.5 16.5q-35 0 -82 -27l-37 68q55 43 129 43q68 0 110 -39.5t42 -105.5q0 -69 -48.5 -117.5t-135.5 -52.5zM549 -20q-180 0 -293 107.5t-113 289.5v727q0 172 115 281.5t291 109.5t289.5 -109.5t113.5 -281.5v-727
q0 -182 -112 -289.5t-291 -107.5zM549 88q128 0 209.5 80.5t81.5 212.5v715q0 132 -81 211t-210 79q-130 0 -210.5 -79t-80.5 -211v-715q0 -132 81.5 -212.5t209.5 -80.5z" />
    <glyph glyph-name="uni1ECF" unicode="&#x1ecf;" horiz-adv-x="1067" 
d="M504 1196v82q96 8 96 86q0 29 -19.5 45t-52.5 16q-38 0 -84 -24l-36 65q54 45 129 45q69 0 111 -39.5t42 -105.5q0 -69 -48.5 -117.5t-137.5 -52.5zM535 -20q-179 0 -285.5 102.5t-106.5 275.5v349q0 173 106.5 275.5t285.5 102.5q177 0 283 -102.5t106 -275.5v-349
q0 -173 -106 -275.5t-283 -102.5zM535 86q127 0 201.5 72.5t74.5 199.5v349q0 127 -74.5 199.5t-201.5 72.5q-128 0 -203.5 -72.5t-75.5 -199.5v-349q0 -127 75.5 -199.5t203.5 -72.5z" />
    <glyph glyph-name="uni1ED0" unicode="&#x1ed0;" 
d="M788 2079l-182 -166h-117l183 166h116zM547 1753l-152 -141h-129l234 221h90l235 -221h-127zM549 1495q176 0 289.5 -109.5t113.5 -281.5v-727q0 -182 -112 -289.5t-291 -107.5q-180 0 -293 107.5t-113 289.5v727q0 172 115 281.5t291 109.5zM840 381v715q0 132 -81 211
t-210 79q-130 0 -210.5 -79t-80.5 -211v-715q0 -132 81.5 -212.5t209.5 -80.5t209.5 80.5t81.5 212.5z" />
    <glyph glyph-name="uni1ED1" unicode="&#x1ed1;" horiz-adv-x="1067" 
d="M774 1669l-182 -166h-117l182 166h117zM532 1343l-151 -141h-129l233 221h90l236 -221h-127zM535 1085q177 0 283 -102.5t106 -275.5v-349q0 -173 -106 -275.5t-283 -102.5q-179 0 -285.5 102.5t-106.5 275.5v349q0 173 106.5 275.5t285.5 102.5zM811 358v349
q0 127 -74.5 199.5t-201.5 72.5q-128 0 -203.5 -72.5t-75.5 -199.5v-349q0 -127 75.5 -199.5t203.5 -72.5q127 0 201.5 72.5t74.5 199.5z" />
    <glyph glyph-name="uni1ED2" unicode="&#x1ed2;" 
d="M618 1913h-116l-183 166h117zM547 1753l-152 -141h-129l234 221h90l235 -221h-127zM549 1495q176 0 289.5 -109.5t113.5 -281.5v-727q0 -182 -112 -289.5t-291 -107.5q-180 0 -293 107.5t-113 289.5v727q0 172 115 281.5t291 109.5zM840 381v715q0 132 -81 211t-210 79
q-130 0 -210.5 -79t-80.5 -211v-715q0 -132 81.5 -212.5t209.5 -80.5t209.5 80.5t81.5 212.5z" />
    <glyph glyph-name="uni1ED3" unicode="&#x1ed3;" horiz-adv-x="1067" 
d="M592 1503h-117l-182 166h117zM532 1343l-151 -141h-129l233 221h90l236 -221h-127zM535 1085q177 0 283 -102.5t106 -275.5v-349q0 -173 -106 -275.5t-283 -102.5q-179 0 -285.5 102.5t-106.5 275.5v349q0 173 106.5 275.5t285.5 102.5zM811 358v349q0 127 -74.5 199.5
t-201.5 72.5q-128 0 -203.5 -72.5t-75.5 -199.5v-349q0 -127 75.5 -199.5t203.5 -72.5q127 0 201.5 72.5t74.5 199.5z" />
    <glyph glyph-name="uni1ED4" unicode="&#x1ed4;" 
d="M537 2085q-41 0 -66 -25l-49 47q43 52 121 52q59 0 98 -35.5t39 -93.5q0 -66 -47 -110t-111 -44v74q33 0 55.5 21t22.5 54q0 30 -17 45t-46 15zM547 1753l-152 -141h-129l234 221h90l235 -221h-127zM549 1495q176 0 289.5 -109.5t113.5 -281.5v-727q0 -182 -112 -289.5
t-291 -107.5q-180 0 -293 107.5t-113 289.5v727q0 172 115 281.5t291 109.5zM840 381v715q0 132 -81 211t-210 79q-130 0 -210.5 -79t-80.5 -211v-715q0 -132 81.5 -212.5t209.5 -80.5t209.5 80.5t81.5 212.5z" />
    <glyph glyph-name="uni1ED5" unicode="&#x1ed5;" horiz-adv-x="1067" 
d="M522 1675q-41 0 -65 -24l-49 47q42 51 120 51q59 0 98.5 -35.5t39.5 -93.5q0 -66 -47 -110t-111 -44v74q33 0 55.5 21.5t22.5 54.5q0 59 -64 59zM532 1343l-151 -141h-129l233 221h90l236 -221h-127zM535 1085q177 0 283 -102.5t106 -275.5v-349q0 -173 -106 -275.5
t-283 -102.5q-179 0 -285.5 102.5t-106.5 275.5v349q0 173 106.5 275.5t285.5 102.5zM811 358v349q0 127 -74.5 199.5t-201.5 72.5q-128 0 -203.5 -72.5t-75.5 -199.5v-349q0 -127 75.5 -199.5t203.5 -72.5q127 0 201.5 72.5t74.5 199.5z" />
    <glyph glyph-name="uni1ED6" unicode="&#x1ed6;" 
d="M430 2003q-26 0 -51 -15.5t-64 -54.5l-61 60q44 55 86.5 79.5t93.5 24.5q52 0 126.5 -43t113.5 -43q31 0 53 14t57 50l60 -62q-78 -96 -172 -96q-42 0 -86.5 21.5t-85 43t-70.5 21.5zM500 1833h90l235 -221h-127l-151 141l-152 -141h-129zM549 1495q176 0 289.5 -109.5
t113.5 -281.5v-727q0 -182 -112 -289.5t-291 -107.5q-180 0 -293 107.5t-113 289.5v727q0 172 115 281.5t291 109.5zM840 381v715q0 132 -81 211t-210 79q-130 0 -210.5 -79t-80.5 -211v-715q0 -132 81.5 -212.5t209.5 -80.5t209.5 80.5t81.5 212.5z" />
    <glyph glyph-name="uni1ED7" unicode="&#x1ed7;" horiz-adv-x="1067" 
d="M406 1591q-45 0 -105 -63l-57 59q78 99 164 99q48 0 132 -40t119 -40q29 0 49 12.5t54 46.5l59 -57q-78 -97 -162 -97q-48 0 -135.5 40t-117.5 40zM485 1423h90l236 -221h-127l-152 141l-151 -141h-129zM535 1085q177 0 283 -102.5t106 -275.5v-349q0 -173 -106 -275.5
t-283 -102.5q-179 0 -285.5 102.5t-106.5 275.5v349q0 173 106.5 275.5t285.5 102.5zM811 358v349q0 127 -74.5 199.5t-201.5 72.5q-128 0 -203.5 -72.5t-75.5 -199.5v-349q0 -127 75.5 -199.5t203.5 -72.5q127 0 201.5 72.5t74.5 199.5z" />
    <glyph glyph-name="uni1ED8" unicode="&#x1ed8;" 
d="M551 1810l-152 -213h-102l199 289h106l201 -289h-103zM549 1495q176 0 289.5 -109.5t113.5 -281.5v-727q0 -182 -112 -289.5t-291 -107.5q-180 0 -293 107.5t-113 289.5v727q0 172 115 281.5t291 109.5zM840 381v715q0 132 -81 211t-210 79q-130 0 -210.5 -79t-80.5 -211
v-715q0 -132 81.5 -212.5t209.5 -80.5t209.5 80.5t81.5 212.5zM479 -328v154h142v-154h-142z" />
    <glyph glyph-name="uni1ED9" unicode="&#x1ed9;" horiz-adv-x="1067" 
d="M279 1243l198 289h113l201 -289h-103l-153 205l-154 -205h-102zM535 -20q-179 0 -285.5 102.5t-106.5 275.5v349q0 173 106.5 275.5t285.5 102.5q177 0 283 -102.5t106 -275.5v-349q0 -173 -106 -275.5t-283 -102.5zM535 86q127 0 201.5 72.5t74.5 199.5v349
q0 127 -74.5 199.5t-201.5 72.5q-128 0 -203.5 -72.5t-75.5 -199.5v-349q0 -127 75.5 -199.5t203.5 -72.5zM465 -328v154h141v-154h-141z" />
    <glyph glyph-name="uni1EDA" unicode="&#x1eda;" 
d="M762 1882l-166 -283h-94l137 283h123zM1030 1475h92v-187q0 -83 -41 -126.5t-116 -43.5h-13v-14v-727q0 -182 -112 -289.5t-291 -107.5q-180 0 -293 107.5t-113 289.5v727q0 172 115 281.5t291 109.5q147 0 253 -78t138 -209h10q80 0 80 86v181zM840 381v715
q0 132 -81 211t-210 79q-130 0 -210.5 -79t-80.5 -211v-715q0 -132 81.5 -212.5t209.5 -80.5t209.5 80.5t81.5 212.5z" />
    <glyph glyph-name="uni1EDB" unicode="&#x1edb;" horiz-adv-x="1069" 
d="M750 1534l-168 -289h-95l142 289h121zM936 1157h100v-153q0 -146 -129 -175q17 -63 17 -122v-349q0 -173 -106 -275.5t-283 -102.5q-179 0 -285.5 102.5t-106.5 275.5v349q0 173 106.5 275.5t285.5 102.5q112 0 197.5 -42.5t135.5 -120.5q37 7 52.5 28.5t15.5 63.5v143z
M811 358v349q0 127 -74.5 199.5t-201.5 72.5q-128 0 -203.5 -72.5t-75.5 -199.5v-349q0 -127 75.5 -199.5t203.5 -72.5q127 0 201.5 72.5t74.5 199.5z" />
    <glyph glyph-name="uni1EDC" unicode="&#x1edc;" 
d="M596 1599h-92l-166 283h121zM1030 1475h92v-187q0 -83 -41 -126.5t-116 -43.5h-13v-14v-727q0 -182 -112 -289.5t-291 -107.5q-180 0 -293 107.5t-113 289.5v727q0 172 115 281.5t291 109.5q147 0 253 -78t138 -209h10q80 0 80 86v181zM840 381v715q0 132 -81 211
t-210 79q-130 0 -210.5 -79t-80.5 -211v-715q0 -132 81.5 -212.5t209.5 -80.5t209.5 80.5t81.5 212.5z" />
    <glyph glyph-name="uni1EDD" unicode="&#x1edd;" horiz-adv-x="1069" 
d="M596 1245h-92l-170 289h123zM936 1157h100v-153q0 -146 -129 -175q17 -63 17 -122v-349q0 -173 -106 -275.5t-283 -102.5q-179 0 -285.5 102.5t-106.5 275.5v349q0 173 106.5 275.5t285.5 102.5q112 0 197.5 -42.5t135.5 -120.5q37 7 52.5 28.5t15.5 63.5v143zM811 358
v349q0 127 -74.5 199.5t-201.5 72.5q-128 0 -203.5 -72.5t-75.5 -199.5v-349q0 -127 75.5 -199.5t203.5 -72.5q127 0 201.5 72.5t74.5 199.5z" />
    <glyph glyph-name="uni1EDE" unicode="&#x1ede;" 
d="M559 1792q-35 0 -82 -27l-37 68q55 43 129 43q68 0 110 -39.5t42 -105.5q0 -69 -48.5 -117.5t-135.5 -52.5v84q94 6 94 84q0 30 -19.5 46.5t-52.5 16.5zM1030 1475h92v-187q0 -83 -41 -126.5t-116 -43.5h-13v-14v-727q0 -182 -112 -289.5t-291 -107.5q-180 0 -293 107.5
t-113 289.5v727q0 172 115 281.5t291 109.5q147 0 253 -78t138 -209h10q80 0 80 86v181zM840 381v715q0 132 -81 211t-210 79q-130 0 -210.5 -79t-80.5 -211v-715q0 -132 81.5 -212.5t209.5 -80.5t209.5 80.5t81.5 212.5z" />
    <glyph glyph-name="uni1EDF" unicode="&#x1edf;" horiz-adv-x="1069" 
d="M528 1425q-38 0 -84 -24l-36 65q54 45 129 45q69 0 111 -39.5t42 -105.5q0 -69 -48.5 -117.5t-137.5 -52.5v82q96 8 96 86q0 29 -19.5 45t-52.5 16zM936 1157h100v-153q0 -146 -129 -175q17 -63 17 -122v-349q0 -173 -106 -275.5t-283 -102.5q-179 0 -285.5 102.5
t-106.5 275.5v349q0 173 106.5 275.5t285.5 102.5q112 0 197.5 -42.5t135.5 -120.5q37 7 52.5 28.5t15.5 63.5v143zM811 358v349q0 127 -74.5 199.5t-201.5 72.5q-128 0 -203.5 -72.5t-75.5 -199.5v-349q0 -127 75.5 -199.5t203.5 -72.5q127 0 201.5 72.5t74.5 199.5z" />
    <glyph glyph-name="uni1EE0" unicode="&#x1ee0;" 
d="M412 1677q-30 0 -55.5 -14t-61.5 -53l-62 53q84 106 179 106q52 0 146 -39.5t132 -39.5q32 0 56 14t53 51l55 -55q-74 -101 -168 -101q-51 0 -146 39t-128 39zM1030 1475h92v-187q0 -83 -41 -126.5t-116 -43.5h-13v-14v-727q0 -182 -112 -289.5t-291 -107.5
q-180 0 -293 107.5t-113 289.5v727q0 172 115 281.5t291 109.5q147 0 253 -78t138 -209h10q80 0 80 86v181zM840 381v715q0 132 -81 211t-210 79q-130 0 -210.5 -79t-80.5 -211v-715q0 -132 81.5 -212.5t209.5 -80.5t209.5 80.5t81.5 212.5z" />
    <glyph glyph-name="uni1EE1" unicode="&#x1ee1;" horiz-adv-x="1069" 
d="M399 1331q-27 0 -52 -15t-64 -54l-62 65q84 103 178 103q52 0 144 -43.5t131 -43.5q32 0 53.5 14t56.5 52l62 -66q-80 -98 -170 -98q-52 0 -149 43t-128 43zM936 1157h100v-153q0 -146 -129 -175q17 -63 17 -122v-349q0 -173 -106 -275.5t-283 -102.5
q-179 0 -285.5 102.5t-106.5 275.5v349q0 173 106.5 275.5t285.5 102.5q112 0 197.5 -42.5t135.5 -120.5q37 7 52.5 28.5t15.5 63.5v143zM811 358v349q0 127 -74.5 199.5t-201.5 72.5q-128 0 -203.5 -72.5t-75.5 -199.5v-349q0 -127 75.5 -199.5t203.5 -72.5
q127 0 201.5 72.5t74.5 199.5z" />
    <glyph glyph-name="uni1EE2" unicode="&#x1ee2;" 
d="M1030 1475h92v-187q0 -83 -41 -126.5t-116 -43.5h-13v-14v-727q0 -182 -112 -289.5t-291 -107.5q-180 0 -293 107.5t-113 289.5v727q0 172 115 281.5t291 109.5q147 0 253 -78t138 -209h10q80 0 80 86v181zM840 381v715q0 132 -81 211t-210 79q-130 0 -210.5 -79
t-80.5 -211v-715q0 -132 81.5 -212.5t209.5 -80.5t209.5 80.5t81.5 212.5zM479 -328v154h142v-154h-142z" />
    <glyph glyph-name="uni1EE3" unicode="&#x1ee3;" horiz-adv-x="1069" 
d="M936 1157h100v-153q0 -146 -129 -175q17 -63 17 -122v-349q0 -173 -106 -275.5t-283 -102.5q-179 0 -285.5 102.5t-106.5 275.5v349q0 173 106.5 275.5t285.5 102.5q112 0 197.5 -42.5t135.5 -120.5q37 7 52.5 28.5t15.5 63.5v143zM811 358v349q0 127 -74.5 199.5
t-201.5 72.5q-128 0 -203.5 -72.5t-75.5 -199.5v-349q0 -127 75.5 -199.5t203.5 -72.5q127 0 201.5 72.5t74.5 199.5zM465 -328v154h141v-154h-141z" />
    <glyph glyph-name="uni1EE4" unicode="&#x1ee4;" 
d="M549 -20q-180 0 -293 107.5t-113 289.5v1098h115v-1094q0 -132 81.5 -212.5t209.5 -80.5t209.5 80.5t81.5 212.5v1094h112v-1098q0 -182 -112 -289.5t-291 -107.5zM479 -328v154h142v-154h-142z" />
    <glyph glyph-name="uni1EE5" unicode="&#x1ee5;" horiz-adv-x="1099" 
d="M821 1065h113v-1065h-111v125q-50 -69 -127 -107t-172 -38q-169 0 -267.5 100.5t-98.5 292.5v692h112v-686q0 -142 71 -217.5t196 -75.5q128 0 206 82t78 215v682zM479 -328v154h142v-154h-142z" />
    <glyph glyph-name="uni1EE6" unicode="&#x1ee6;" 
d="M537 1561v84q94 6 94 84q0 30 -19.5 46.5t-52.5 16.5q-35 0 -82 -27l-37 68q55 43 129 43q68 0 110 -39.5t42 -105.5q0 -69 -48.5 -117.5t-135.5 -52.5zM549 -20q-180 0 -293 107.5t-113 289.5v1098h115v-1094q0 -132 81.5 -212.5t209.5 -80.5t209.5 80.5t81.5 212.5
v1094h112v-1098q0 -182 -112 -289.5t-291 -107.5z" />
    <glyph glyph-name="uni1EE7" unicode="&#x1ee7;" horiz-adv-x="1099" 
d="M518 1196v82q96 8 96 86q0 29 -19 45t-52 16q-38 0 -84 -24l-37 65q54 45 129 45q69 0 111.5 -39.5t42.5 -105.5q0 -69 -49 -117.5t-138 -52.5zM821 1065h113v-1065h-111v125q-50 -69 -127 -107t-172 -38q-169 0 -267.5 100.5t-98.5 292.5v692h112v-686q0 -142 71 -217.5
t196 -75.5q128 0 206 82t78 215v682z" />
    <glyph glyph-name="uni1EE8" unicode="&#x1ee8;" horiz-adv-x="1116" 
d="M762 1882l-166 -283h-94l137 283h123zM1042 1475h93v-187q0 -83 -41.5 -126.5t-116.5 -43.5h-25v-741q0 -182 -112 -289.5t-291 -107.5q-180 0 -293 107.5t-113 289.5v1098h115v-1094q0 -132 81.5 -212.5t209.5 -80.5t209.5 80.5t81.5 212.5v1094h112v-267h11q41 0 60 21
t19 65v181z" />
    <glyph glyph-name="uni1EE9" unicode="&#x1ee9;" horiz-adv-x="1118" 
d="M764 1534l-168 -289h-94l141 289h121zM1038 1157h101v-153q0 -92 -50 -136t-155 -49v-819h-111v125q-50 -69 -127 -107t-172 -38q-169 0 -267.5 100.5t-98.5 292.5v692h112v-686q0 -142 71 -217.5t196 -75.5q128 0 206 82t78 215v682h113v-150q58 4 81 26t23 73v143z" />
    <glyph glyph-name="uni1EEA" unicode="&#x1eea;" horiz-adv-x="1116" 
d="M596 1599h-92l-166 283h121zM1042 1475h93v-187q0 -83 -41.5 -126.5t-116.5 -43.5h-25v-741q0 -182 -112 -289.5t-291 -107.5q-180 0 -293 107.5t-113 289.5v1098h115v-1094q0 -132 81.5 -212.5t209.5 -80.5t209.5 80.5t81.5 212.5v1094h112v-267h11q41 0 60 21t19 65
v181z" />
    <glyph glyph-name="uni1EEB" unicode="&#x1eeb;" horiz-adv-x="1118" 
d="M610 1245h-92l-170 289h123zM1038 1157h101v-153q0 -92 -50 -136t-155 -49v-819h-111v125q-50 -69 -127 -107t-172 -38q-169 0 -267.5 100.5t-98.5 292.5v692h112v-686q0 -142 71 -217.5t196 -75.5q128 0 206 82t78 215v682h113v-150q58 4 81 26t23 73v143z" />
    <glyph glyph-name="uni1EEC" unicode="&#x1eec;" horiz-adv-x="1116" 
d="M559 1792q-35 0 -82 -27l-37 68q55 43 129 43q68 0 110 -39.5t42 -105.5q0 -69 -48.5 -117.5t-135.5 -52.5v84q94 6 94 84q0 30 -19.5 46.5t-52.5 16.5zM1042 1475h93v-187q0 -83 -41.5 -126.5t-116.5 -43.5h-25v-741q0 -182 -112 -289.5t-291 -107.5q-180 0 -293 107.5
t-113 289.5v1098h115v-1094q0 -132 81.5 -212.5t209.5 -80.5t209.5 80.5t81.5 212.5v1094h112v-267h11q41 0 60 21t19 65v181z" />
    <glyph glyph-name="uni1EED" unicode="&#x1eed;" horiz-adv-x="1118" 
d="M543 1425q-38 0 -84 -24l-37 65q54 45 129 45q69 0 111.5 -39.5t42.5 -105.5q0 -69 -49 -117.5t-138 -52.5v82q96 8 96 86q0 29 -19 45t-52 16zM1038 1157h101v-153q0 -92 -50 -136t-155 -49v-819h-111v125q-50 -69 -127 -107t-172 -38q-169 0 -267.5 100.5t-98.5 292.5
v692h112v-686q0 -142 71 -217.5t196 -75.5q128 0 206 82t78 215v682h113v-150q58 4 81 26t23 73v143z" />
    <glyph glyph-name="uni1EEE" unicode="&#x1eee;" horiz-adv-x="1116" 
d="M412 1677q-30 0 -55.5 -14t-61.5 -53l-62 53q84 106 179 106q52 0 146 -39.5t132 -39.5q32 0 56 14t53 51l55 -55q-74 -101 -168 -101q-51 0 -146 39t-128 39zM1042 1475h93v-187q0 -83 -41.5 -126.5t-116.5 -43.5h-25v-741q0 -182 -112 -289.5t-291 -107.5
q-180 0 -293 107.5t-113 289.5v1098h115v-1094q0 -132 81.5 -212.5t209.5 -80.5t209.5 80.5t81.5 212.5v1094h112v-267h11q41 0 60 21t19 65v181z" />
    <glyph glyph-name="uni1EEF" unicode="&#x1eef;" horiz-adv-x="1118" 
d="M414 1331q-27 0 -52.5 -15t-64.5 -54l-61 65q84 103 178 103q52 0 143.5 -43.5t130.5 -43.5q32 0 54 14t57 52l61 -66q-80 -98 -170 -98q-52 0 -148 43t-128 43zM1038 1157h101v-153q0 -92 -50 -136t-155 -49v-819h-111v125q-50 -69 -127 -107t-172 -38
q-169 0 -267.5 100.5t-98.5 292.5v692h112v-686q0 -142 71 -217.5t196 -75.5q128 0 206 82t78 215v682h113v-150q58 4 81 26t23 73v143z" />
    <glyph glyph-name="uni1EF0" unicode="&#x1ef0;" horiz-adv-x="1116" 
d="M1042 1475h93v-187q0 -83 -41.5 -126.5t-116.5 -43.5h-25v-741q0 -182 -112 -289.5t-291 -107.5q-180 0 -293 107.5t-113 289.5v1098h115v-1094q0 -132 81.5 -212.5t209.5 -80.5t209.5 80.5t81.5 212.5v1094h112v-267h11q41 0 60 21t19 65v181zM479 -328v154h142v-154
h-142z" />
    <glyph glyph-name="uni1EF1" unicode="&#x1ef1;" horiz-adv-x="1118" 
d="M1038 1157h101v-153q0 -92 -50 -136t-155 -49v-819h-111v125q-50 -69 -127 -107t-172 -38q-169 0 -267.5 100.5t-98.5 292.5v692h112v-686q0 -142 71 -217.5t196 -75.5q128 0 206 82t78 215v682h113v-150q58 4 81 26t23 73v143zM479 -328v154h142v-154h-142z" />
    <glyph glyph-name="Ygrave" unicode="&#x1ef2;" horiz-adv-x="991" 
d="M543 1599h-92l-166 283h121zM815 1475h121l-383 -951v-524h-115v524l-383 951h121l320 -807z" />
    <glyph glyph-name="ygrave" unicode="&#x1ef3;" horiz-adv-x="917" 
d="M428 1245l-170 289h123l139 -289h-92zM139 -410v105h54q87 0 135.5 41t74.5 135l35 129h-71l-318 1065h117l283 -973h18l285 973h116l-366 -1225q-39 -135 -114.5 -192.5t-186.5 -57.5h-62z" />
    <glyph glyph-name="uni1EF4" unicode="&#x1ef4;" horiz-adv-x="991" 
d="M438 0v524l-383 951h121l320 -807l319 807h121l-383 -951v-524h-115zM426 -328v154h141v-154h-141z" />
    <glyph glyph-name="uni1EF5" unicode="&#x1ef5;" horiz-adv-x="917" 
d="M139 -410v105h54q87 0 135.5 41t74.5 135l35 129h-71l-318 1065h117l283 -973h18l285 973h116l-366 -1225q-39 -135 -114.5 -192.5t-186.5 -57.5h-62zM625 -328v154h141v-154h-141z" />
    <glyph glyph-name="uni1EF6" unicode="&#x1ef6;" horiz-adv-x="991" 
d="M506 1792q-35 0 -82 -27l-37 68q55 43 129 43q68 0 110 -39.5t42 -105.5q0 -69 -49 -117.5t-136 -52.5v84q95 6 95 84q0 30 -19.5 46.5t-52.5 16.5zM815 1475h121l-383 -951v-524h-115v524l-383 951h121l320 -807z" />
    <glyph glyph-name="uni1EF7" unicode="&#x1ef7;" horiz-adv-x="917" 
d="M428 1196v82q96 8 96 86q0 29 -19 45t-52 16q-37 0 -84 -24l-37 65q54 45 129 45q69 0 111 -39.5t42 -105.5q0 -69 -48.5 -117.5t-137.5 -52.5zM139 -410v105h54q87 0 135.5 41t74.5 135l35 129h-71l-318 1065h117l283 -973h18l285 973h116l-366 -1225
q-39 -135 -114.5 -192.5t-186.5 -57.5h-62z" />
    <glyph glyph-name="uni1EF8" unicode="&#x1ef8;" horiz-adv-x="991" 
d="M358 1677q-30 0 -55 -14t-61 -53l-62 53q84 106 178 106q52 0 147 -39.5t132 -39.5q32 0 55.5 14t52.5 51l56 -55q-74 -101 -168 -101q-51 0 -146.5 39t-128.5 39zM815 1475h121l-383 -951v-524h-115v524l-383 951h121l320 -807z" />
    <glyph glyph-name="uni1EF9" unicode="&#x1ef9;" horiz-adv-x="917" 
d="M600 1245q-52 0 -148 43t-128 43q-27 0 -52.5 -15t-64.5 -54l-62 65q84 103 179 103q52 0 143.5 -43.5t130.5 -43.5q32 0 54 14t57 52l61 -66q-80 -98 -170 -98zM139 -410v105h54q87 0 135.5 41t74.5 135l35 129h-71l-318 1065h117l283 -973h18l285 973h116l-366 -1225
q-39 -135 -114.5 -192.5t-186.5 -57.5h-62z" />
    <glyph glyph-name="endash" unicode="&#x2013;" horiz-adv-x="1095" 
d="M166 512v100h764v-100h-764z" />
    <glyph glyph-name="emdash" unicode="&#x2014;" horiz-adv-x="1712" 
d="M166 512v100h1382v-100h-1382z" />
    <glyph glyph-name="uni2015" unicode="&#x2015;" horiz-adv-x="1228" 
d="M-68 532v99h1366v-99h-1366z" />
    <glyph glyph-name="quoteleft" unicode="&#x2018;" horiz-adv-x="462" 
d="M137 1128l107 396h102l-80 -396h-129z" />
    <glyph glyph-name="quoteright" unicode="&#x2019;" horiz-adv-x="460" 
d="M117 1128l76 396h131l-107 -396h-100z" />
    <glyph glyph-name="quotesinglbase" unicode="&#x201a;" horiz-adv-x="460" 
d="M117 -229l76 395h131l-107 -395h-100z" />
    <glyph glyph-name="quotedblleft" unicode="&#x201c;" horiz-adv-x="761" 
d="M137 1128l107 396h102l-80 -396h-129zM436 1128l109 396h100l-78 -396h-131z" />
    <glyph glyph-name="quotedblright" unicode="&#x201d;" horiz-adv-x="759" 
d="M117 1128l76 396h131l-107 -396h-100zM416 1128l78 396h129l-105 -396h-102z" />
    <glyph glyph-name="quotedblbase" unicode="&#x201e;" horiz-adv-x="759" 
d="M117 -229l76 395h131l-107 -395h-100zM416 -229l78 395h129l-105 -395h-102z" />
    <glyph glyph-name="dagger" unicode="&#x2020;" horiz-adv-x="905" 
d="M748 1065v-104h-238v-1102h-113v1102h-239v104h239v410h113v-410h238z" />
    <glyph glyph-name="daggerdbl" unicode="&#x2021;" horiz-adv-x="905" 
d="M748 961h-238v-588h238v-105h-238v-409h-113v409h-239v105h239v588h-239v104h239v410h113v-410h238v-104z" />
    <glyph glyph-name="bullet" unicode="&#x2022;" horiz-adv-x="747" 
d="M373 510q-86 0 -146.5 62t-60.5 149t60.5 149t146.5 62q87 0 149 -62t62 -149t-62 -149t-149 -62z" />
    <glyph glyph-name="ellipsis" unicode="&#x2026;" horiz-adv-x="1363" 
d="M158 0v172h149v-172h-149zM606 0v172h150v-172h-150zM1055 0v172h151v-172h-151z" />
    <glyph glyph-name="perthousand" unicode="&#x2030;" horiz-adv-x="2217" 
d="M461 -111l553 1684h96l-549 -1684h-100zM356 774q-116 0 -185 67t-69 185v217q0 115 69 183.5t185 68.5q120 0 189 -67.5t69 -184.5v-217q0 -116 -70 -184t-188 -68zM356 870q75 0 116.5 41t41.5 115v219q0 73 -41 113.5t-117 40.5q-74 0 -114.5 -40.5t-40.5 -113.5v-219
q0 -73 40.5 -114.5t114.5 -41.5zM1212 -12q-116 0 -185 68t-69 184v219q0 114 69 182t185 68q120 0 189 -67t69 -183v-219q0 -116 -70 -184t-188 -68zM1858 -12q-116 0 -185 68t-69 184v219q0 114 69 182t185 68q120 0 189 -67t69 -183v-219q0 -116 -70 -184t-188 -68z
M1212 86q75 0 116.5 41t41.5 113v219q0 73 -41 113t-117 40q-74 0 -114.5 -40t-40.5 -113v-219q0 -71 40.5 -112.5t114.5 -41.5zM1858 86q75 0 116 41t41 113v219q0 73 -40.5 113t-116.5 40q-74 0 -115 -40t-41 -113v-219q0 -71 41 -112.5t115 -41.5z" />
    <glyph glyph-name="guilsinglleft" unicode="&#x2039;" horiz-adv-x="571" 
d="M428 176l-365 363l365 364v-139l-225 -225l225 -226v-137z" />
    <glyph glyph-name="guilsinglright" unicode="&#x203a;" horiz-adv-x="569" 
d="M145 176v137l228 226l-228 225v139l363 -364z" />
    <glyph glyph-name="fraction" unicode="&#x2044;" horiz-adv-x="266" 
d="M-190 -102l550 1683h97l-547 -1683h-100z" />
    <glyph glyph-name="dong" unicode="&#x20ab;" horiz-adv-x="1085" 
d="M1059 1333v-102h-137v-1231h-111v106q-50 -64 -126 -95t-159 -31q-174 0 -278.5 101.5t-104.5 272.5v357q0 172 104.5 273t278.5 101q82 0 157.5 -30.5t125.5 -93.5v270h-371v102h371v142h113v-142h137zM809 360v345q0 123 -75.5 198.5t-201.5 75.5q-127 0 -201.5 -73.5
t-74.5 -200.5v-345q0 -128 74 -201t202 -73q126 0 201.5 75.5t75.5 198.5zM264 -250v92h600v-92h-600z" />
    <glyph glyph-name="Euro" unicode="&#x20ac;" horiz-adv-x="1173" 
d="M657 88q133 0 213 76t80 201h115q0 -172 -113.5 -278.5t-292.5 -106.5q-174 0 -286.5 108.5t-112.5 288.5v155h-229v99h229v209h-229v98h229v166q0 172 115 281.5t291 109.5q173 0 285 -103.5t118 -279.5h-113q-4 123 -85.5 198.5t-204.5 75.5q-130 0 -210.5 -79
t-80.5 -211v-158h330v-98h-330v-209h330v-99h-330v-141q0 -142 78 -222.5t204 -80.5z" />
    <glyph glyph-name="uni2116" unicode="&#x2116;" horiz-adv-x="1875" 
d="M1511 1495q125 0 197 -69.5t72 -194.5v-240q0 -122 -72.5 -193t-196.5 -71q-126 0 -197 70t-71 194v240q0 123 72.5 193.5t195.5 70.5zM870 158v1317h111v-1475h-162l-543 1315v-1315h-110v1475h162zM1688 991v240q0 84 -46.5 130t-130.5 46q-82 0 -128 -46.5t-46 -129.5
v-240q0 -83 45.5 -129.5t128.5 -46.5t130 46.5t47 129.5z" />
    <glyph glyph-name="uni2117" unicode="&#x2117;" horiz-adv-x="1781" 
d="M891 1458q150 0 285 -58t231 -156.5t152.5 -235t56.5 -287.5t-56.5 -286.5t-152.5 -233.5t-231 -155.5t-285 -57.5t-285 57.5t-231 155.5t-152.5 233.5t-56.5 286.5t56.5 287.5t152.5 235t231 156.5t285 58zM889 76q176 0 323 85.5t231.5 234t84.5 325.5q0 134 -50 254
t-135 206.5t-203.5 137.5t-250.5 51q-175 0 -321 -86t-230 -235.5t-84 -327.5q0 -177 84 -325.5t230 -234t321 -85.5zM944 1122q97 0 157 -58.5t60 -156.5v-51q0 -98 -59 -155.5t-156 -57.5h-158v-332h-86v811h242zM1075 858v45q0 65 -35.5 100t-97.5 35h-154v-315h156
q62 0 96.5 35t34.5 100z" />
    <glyph glyph-name="trademark" unicode="&#x2122;" horiz-adv-x="1470" 
d="M92 1393v82h490v-82h-199v-658h-90v658h-201zM1112 1475h150v-740h-91v656l-157 -486h-96l-160 488v-658h-88v740h149l148 -455z" />
    <glyph glyph-name="partialdiff" unicode="&#x2202;" horiz-adv-x="1091" 
d="M430 1475q236 0 370 -133.5t134 -346.5v-633q0 -175 -106.5 -278.5t-286.5 -103.5q-182 0 -290 103.5t-108 278.5v261q0 175 105.5 278t283.5 103q84 0 161 -31.5t126 -91.5v112q0 179 -103.5 277t-279.5 98h-147v107h141zM819 362v261q0 123 -75.5 197.5t-202.5 74.5
q-130 0 -206.5 -72.5t-76.5 -199.5v-261q0 -126 78 -200t205 -74q128 0 203 73t75 201z" />
    <glyph glyph-name="emptyset" unicode="&#x2205;" horiz-adv-x="1259" 
d="M903 1008q124 -73 197.5 -201t73.5 -279q0 -148 -74 -274.5t-199.5 -200t-271.5 -73.5q-104 0 -191 34l-96 -207h-111l117 252q-119 73 -190.5 197.5t-71.5 269.5q0 152 73 280.5t198 202.5t272 74q93 0 184 -32l102 219h111zM195 530q0 -120 53 -218.5t145 -159.5
l377 806q-74 23 -141 23q-185 0 -309.5 -129t-124.5 -322zM629 84q186 0 311 128.5t125 317.5q0 121 -55 222.5t-150 162.5l-377 -806q70 -25 146 -25z" />
    <glyph glyph-name="product" unicode="&#x220f;" horiz-adv-x="1165" 
d="M166 0v1475h833v-1475h-112v1366h-608v-1366h-113z" />
    <glyph glyph-name="summation" unicode="&#x2211;" horiz-adv-x="1126" 
d="M991 1475v-109h-704l637 -625l-635 -635h702v-106h-858v109l629 632l-627 625v109h856z" />
    <glyph glyph-name="minus" unicode="&#x2212;" horiz-adv-x="1142" 
d="M178 569v109h787v-109h-787z" />
    <glyph glyph-name="radical" unicode="&#x221a;" horiz-adv-x="1234" 
d="M446 -410l-299 1076h115l264 -963h68l493 1772h115l-524 -1885h-232z" />
    <glyph glyph-name="infinity" unicode="&#x221e;" horiz-adv-x="1765" 
d="M1315 965q158 0 257 -110t99 -282t-99 -281.5t-257 -109.5q-62 0 -117.5 16.5t-97.5 41.5t-83 65.5t-70.5 78.5t-63.5 89q-104 -161 -203.5 -226t-226.5 -65q-158 0 -257.5 109.5t-99.5 281.5t99.5 282t257.5 110q61 0 116 -16t97.5 -41.5t83 -65t70 -77.5t63.5 -89
q106 160 205.5 224.5t226.5 64.5zM459 289q96 0 175.5 60t184.5 222q-36 55 -59 88.5t-59.5 76t-69.5 66t-78 40t-94 16.5q-118 0 -186 -80.5t-68 -204.5t68 -204t186 -80zM1309 289q117 0 184.5 80t67.5 204t-67.5 204.5t-184.5 80.5q-96 0 -174.5 -60t-186.5 -223
q43 -69 74.5 -111t76.5 -87t97 -66.5t113 -21.5z" />
    <glyph glyph-name="integral" unicode="&#x222b;" horiz-adv-x="657" 
d="M524 1475h66v-105h-66q-90 0 -131 -35t-41 -129v-1351q0 -265 -272 -265h-88v109h84q164 0 164 149v1354q0 137 69 205t215 68z" />
    <glyph glyph-name="approxequal" unicode="&#x2248;" horiz-adv-x="1040" 
d="M236 645l-64 64q108 98 203 98q45 0 99.5 -24.5t105.5 -49t86 -24.5q36 0 65 14t76 53l63 -63q-107 -99 -202 -99q-44 0 -102.5 25t-110 49.5t-78.5 24.5q-33 0 -63 -14.5t-78 -53.5zM238 455l-64 63q108 98 203 98q45 0 99.5 -24.5t105.5 -49t86 -24.5t64.5 14t76.5 54
l63 -64q-106 -98 -202 -98q-44 0 -102.5 24.5t-110 49t-78.5 24.5q-34 0 -64 -14.5t-77 -52.5z" />
    <glyph glyph-name="notequal" unicode="&#x2260;" horiz-adv-x="1099" 
d="M969 1327l-240 -512h207v-98h-252l-102 -219h354v-99h-401l-250 -534h-111l250 534h-217v99h264l102 219h-366v98h411l240 512h111z" />
    <glyph glyph-name="lessequal" unicode="&#x2264;" horiz-adv-x="993" 
d="M829 260h-147l-526 526l526 525h147l-526 -525zM883 0h-754v109h754v-109z" />
    <glyph glyph-name="greaterequal" unicode="&#x2265;" horiz-adv-x="993" 
d="M164 260l526 526l-526 525h147l527 -525l-527 -526h-147zM111 0v109h753v-109h-753z" />
    <glyph glyph-name="lozenge" unicode="&#x25ca;" horiz-adv-x="1095" 
d="M487 0l-346 735l346 740h123l344 -740l-344 -735h-123zM549 113l287 622l-287 627l-287 -627z" />
    <glyph glyph-name="uni00A40301" horiz-adv-x="919" 
d="M414 1599l137 283h123l-166 -283h-94zM403 -20q-169 0 -266.5 102.5t-97.5 282.5h115q6 -277 249 -277q250 0 250 295v983h-489v109h602v-1110q0 -180 -97 -282.5t-266 -102.5z" />
    <glyph glyph-name="uni006A0301" horiz-adv-x="477" 
d="M195 1245l141 289h121l-168 -289h-94zM-39 -410v105h51q82 0 127 40.5t45 139.5v1190h113v-1196q0 -151 -75 -215t-206 -64h-55z" />
    <glyph glyph-name="zero.lf" 
d="M541 -20q-182 0 -292 112.5t-110 296.5v698q0 182 113.5 295t300.5 113q184 0 294.5 -113t110.5 -297v-698q0 -183 -114 -295t-303 -112zM547 88q129 0 214 77t85 224v696q0 148 -84.5 224.5t-212.5 76.5t-212.5 -77.5t-84.5 -223.5v-696q0 -149 84 -225t211 -76z" />
    <glyph glyph-name="one.lf" horiz-adv-x="706" 
d="M346 0v1366l-289 -47v104l402 62v-1485h-113z" />
    <glyph glyph-name="two.lf" horiz-adv-x="1028" 
d="M121 0v213q0 72 19 134t46.5 106.5t79.5 92t96.5 78.5t118.5 78q72 45 117.5 77t90 72.5t68 78.5t38 87t14.5 107q0 122 -77 192t-204 70q-135 0 -213 -67t-84 -209h-112q5 177 113.5 281t295.5 104q177 0 286.5 -101t109.5 -272q0 -71 -18 -131.5t-46.5 -107t-78.5 -94
t-100 -84t-126 -84.5q-77 -48 -120 -78t-87.5 -70t-66 -77.5t-35 -87t-13.5 -111.5v-88h693v-109h-805z" />
    <glyph glyph-name="three.lf" horiz-adv-x="1017" 
d="M489 846q179 -3 282 -104.5t103 -274.5v-100q0 -174 -113.5 -280.5t-285.5 -106.5q-173 0 -288 105t-115 280h114q0 -126 79 -201.5t210 -75.5q130 0 208.5 76t78.5 201v100q0 129 -77.5 203.5t-211.5 74.5h-115v93l367 530h-596v109h721v-111z" />
    <glyph glyph-name="four.lf" horiz-adv-x="1015" 
d="M729 1065h115v-1065h-115v424h-661v135l409 916h117l-416 -943h551v533z" />
    <glyph glyph-name="five.lf" horiz-adv-x="1007" 
d="M504 874q175 0 286 -104t111 -276v-129q0 -174 -113 -279.5t-286 -105.5q-172 0 -288 105t-116 280h113q0 -127 80 -202t211 -75q132 0 209 75.5t77 201.5v124q0 124 -78 200.5t-210 76.5h-342v100l63 609h637v-109h-534l-52 -492h232z" />
    <glyph glyph-name="six.lf" horiz-adv-x="1071" 
d="M559 918q180 0 286.5 -108t106.5 -288v-141q0 -180 -111 -290.5t-298 -110.5t-295.5 110t-108.5 291v614q0 213 133 346.5t369 133.5h160v-109h-166q-176 0 -279.5 -97.5t-103.5 -275.5v-215q45 67 124.5 103.5t182.5 36.5zM840 383v139q0 130 -80 209.5t-217 79.5
q-131 0 -211 -77.5t-80 -213.5v-137q0 -134 78 -214.5t213 -80.5q141 0 219 78.5t78 216.5z" />
    <glyph glyph-name="seven.lf" horiz-adv-x="960" 
d="M51 1475h846v-109l-578 -1366h-114l575 1366h-729v109z" />
    <glyph glyph-name="eight.lf" horiz-adv-x="1116" 
d="M760 760q100 -47 158.5 -144.5t58.5 -226.5q0 -181 -115.5 -294t-304.5 -113t-303.5 113t-114.5 294q0 129 57.5 227t157.5 144q-91 52 -144.5 142t-53.5 202q0 170 113.5 280.5t287.5 110.5t287.5 -110.5t113.5 -280.5q0 -112 -53.5 -202t-144.5 -142zM270 1100
q0 -131 78.5 -210t208.5 -79q131 0 210 79.5t79 209.5q0 131 -79 208.5t-210 77.5t-209 -77t-78 -209zM557 88q140 0 222.5 81.5t82.5 221.5q0 143 -83.5 229.5t-221.5 86.5t-221.5 -86.5t-83.5 -229.5q0 -140 83 -221.5t222 -81.5z" />
    <glyph glyph-name="nine.lf" horiz-adv-x="1071" 
d="M528 1495q187 0 295.5 -110t108.5 -291v-615q0 -213 -133 -346t-369 -133h-160v109h166q177 0 280 97t103 275v215q-45 -66 -124 -102.5t-183 -36.5q-181 0 -287 108t-106 287v142q0 180 111 290.5t298 110.5zM528 664q131 0 211 77t80 213v138q0 133 -78 213.5
t-213 80.5q-141 0 -219 -78t-78 -216v-140q0 -130 80 -209t217 -79z" />
    <glyph glyph-name="zero.subs" horiz-adv-x="565" 
d="M281 -195q-104 0 -162 58.5t-58 156.5v338q0 96 60 152.5t164 56.5t161.5 -56.5t57.5 -154.5v-336q0 -98 -60 -156.5t-163 -58.5zM283 -109q62 0 97.5 33.5t35.5 102.5v325q0 66 -35.5 97.5t-95.5 31.5q-62 0 -98.5 -32.5t-36.5 -96.5v-325q0 -69 35.5 -102.5t97.5 -33.5
z" />
    <glyph glyph-name="one.subs" horiz-adv-x="425" 
d="M203 -184v657l-144 -20v73l232 41v-751h-88z" />
    <glyph glyph-name="two.subs" horiz-adv-x="540" 
d="M150 -96h337v-88h-426v129q0 55 25 100.5t62 74.5t81 59.5t81 55t62 60t25 76.5q0 50 -32.5 81t-90.5 31q-25 0 -50.5 -9t-49.5 -39t-27 -77h-86q2 80 56 144.5t157 64.5q94 0 152.5 -55t58.5 -143q0 -62 -34.5 -112.5t-83.5 -84.5t-98.5 -64.5t-84 -67t-34.5 -77.5v-59z
" />
    <glyph glyph-name="three.subs" horiz-adv-x="538" 
d="M279 256q94 -1 146 -54t52 -145v-53q0 -89 -60.5 -144t-152.5 -55q-93 0 -153 54t-60 143h88q0 -51 34 -81t91 -30q56 0 90.5 31t34.5 80v55q0 57 -33 88t-92 31h-94v76l192 219h-282v86h387v-86z" />
    <glyph glyph-name="four.subs" horiz-adv-x="563" 
d="M381 369h86v-553h-86v202h-324v93l168 446h92l-167 -451h231v263z" />
    <glyph glyph-name="five.subs" horiz-adv-x="552" 
d="M276 258q95 0 155.5 -51t60.5 -137v-68q0 -89 -61.5 -143t-154.5 -54q-92 0 -153.5 52.5t-61.5 140.5h86q0 -49 35.5 -78t93.5 -29t92.5 30.5t34.5 80.5v66q0 48 -35 77t-96 29h-180v80l33 303h342v-84h-268l-25 -215h102z" />
    <glyph glyph-name="six.subs" horiz-adv-x="526" 
d="M274 276q93 0 147 -53.5t54 -144.5v-66q0 -92 -56 -149.5t-151 -57.5q-96 0 -151.5 57t-55.5 150v305q0 105 67.5 172.5t188.5 67.5h82v-80h-84q-76 0 -121 -43.5t-44 -118.5l2 -79q48 40 122 40zM387 10v68q0 54 -32 85.5t-87 31.5q-53 0 -85.5 -31t-32.5 -88v-66
q0 -55 32 -90t86 -35q56 0 87.5 34t31.5 91z" />
    <glyph glyph-name="seven.subs" horiz-adv-x="526" 
d="M39 557h453v-88l-304 -653h-94l301 653h-356v88z" />
    <glyph glyph-name="eight.subs" horiz-adv-x="555" 
d="M391 197q53 -22 82 -69.5t29 -113.5q0 -92 -62 -150.5t-164 -58.5q-101 0 -162 58.5t-61 150.5q0 66 29 113.5t82 69.5q-47 24 -74 68.5t-27 103.5q0 86 59.5 142t153.5 56q95 0 155.5 -55.5t60.5 -142.5q0 -58 -27.5 -103t-73.5 -69zM276 485q-57 0 -90.5 -33t-33.5 -87
q0 -57 33.5 -91t90.5 -34q58 0 92.5 34t34.5 91q0 54 -34.5 87t-92.5 33zM276 -113q63 0 100.5 34.5t37.5 94.5q0 63 -37.5 100.5t-100.5 37.5q-62 0 -98.5 -37.5t-36.5 -100.5q0 -60 36.5 -94.5t98.5 -34.5z" />
    <glyph glyph-name="nine.subs" horiz-adv-x="526" 
d="M258 567q96 0 151.5 -57t55.5 -150v-305q0 -105 -67.5 -172t-188.5 -67h-82v80h84q76 0 121.5 43t44.5 118l-2 80q-49 -41 -123 -41q-93 0 -147 54t-54 145v65q0 92 56 149.5t151 57.5zM258 178q53 0 86 31t33 88v65q0 55 -32 90t-87 35q-56 0 -87.5 -34t-31.5 -91v-67
q0 -54 32 -85.5t87 -31.5z" />
    <glyph glyph-name="zero.dnom" horiz-adv-x="565" 
d="M281 -10q-104 0 -162 58.5t-58 156.5v338q0 96 60 152.5t164 56.5t161.5 -56.5t57.5 -154.5v-336q0 -98 -60 -156.5t-163 -58.5zM283 76q62 0 97.5 33t35.5 102v326q0 66 -35.5 97.5t-95.5 31.5q-62 0 -98.5 -32.5t-36.5 -96.5v-326q0 -69 35.5 -102t97.5 -33z" />
    <glyph glyph-name="one.dnom" horiz-adv-x="425" 
d="M203 0v657l-144 -20v74l232 41v-752h-88z" />
    <glyph glyph-name="two.dnom" horiz-adv-x="540" 
d="M150 88h337v-88h-426v129q0 55 25 100.5t62 74.5t81 59.5t81 55t62 60t25 76.5q0 51 -33 82t-90 31q-25 0 -50.5 -9t-49.5 -39t-27 -77h-86q2 80 56 144.5t157 64.5q94 0 152.5 -55.5t58.5 -143.5q0 -62 -34.5 -112.5t-83.5 -84.5t-98.5 -64.5t-84 -67t-34.5 -77.5v-59z
" />
    <glyph glyph-name="three.dnom" horiz-adv-x="538" 
d="M279 440q94 -2 146 -54t52 -144v-54q0 -89 -60.5 -143.5t-152.5 -54.5q-93 0 -153 53.5t-60 142.5h88q0 -51 34 -80.5t91 -29.5q56 0 90.5 30.5t34.5 79.5v56q0 57 -33 87.5t-92 30.5h-94v76l192 219h-282v86h387v-86z" />
    <glyph glyph-name="four.dnom" horiz-adv-x="563" 
d="M381 553h86v-553h-86v203h-324v92l168 446h92l-167 -450h231v262z" />
    <glyph glyph-name="five.dnom" horiz-adv-x="552" 
d="M276 442q95 0 155.5 -51t60.5 -137v-68q0 -89 -61.5 -142.5t-154.5 -53.5q-92 0 -153.5 52t-61.5 140h86q0 -49 35.5 -77.5t93.5 -28.5t92.5 30t34.5 80v66q0 48 -35 77t-96 29h-180v80l33 303h342v-84h-268l-25 -215h102z" />
    <glyph glyph-name="six.dnom" horiz-adv-x="526" 
d="M274 461q93 0 147 -54t54 -145v-65q0 -92 -56 -149.5t-151 -57.5q-96 0 -151.5 57t-55.5 150v305q0 105 67.5 172t188.5 67h82v-79h-84q-76 0 -121 -43.5t-44 -118.5l2 -80q49 41 122 41zM387 195v67q0 54 -32 85.5t-87 31.5q-53 0 -85.5 -31t-32.5 -88v-65q0 -55 32 -90
t86 -35q56 0 87.5 34t31.5 91z" />
    <glyph glyph-name="seven.dnom" horiz-adv-x="526" 
d="M39 741h453v-88l-304 -653h-94l301 653h-356v88z" />
    <glyph glyph-name="eight.dnom" horiz-adv-x="555" 
d="M391 381q53 -22 82 -69t29 -113q0 -92 -62 -150.5t-164 -58.5q-101 0 -162 58.5t-61 150.5q0 66 29 113t82 69q-47 24 -74 68.5t-27 103.5q0 87 60 143t153 56q95 0 155.5 -56t60.5 -143q0 -58 -27.5 -103t-73.5 -69zM276 670q-57 0 -90.5 -33.5t-33.5 -87.5
q0 -57 33.5 -91t90.5 -34q58 0 92.5 34t34.5 91q0 54 -34.5 87.5t-92.5 33.5zM276 72q63 0 100.5 34.5t37.5 94.5q0 63 -37.5 100t-100.5 37q-62 0 -98.5 -37t-36.5 -100q0 -60 36.5 -94.5t98.5 -34.5z" />
    <glyph glyph-name="nine.dnom" horiz-adv-x="526" 
d="M258 752q96 0 151.5 -57t55.5 -150v-305q0 -105 -67.5 -172.5t-188.5 -67.5h-82v80h84q76 0 121.5 43.5t44.5 118.5l-2 80q-49 -41 -123 -41q-93 0 -147 53.5t-54 144.5v66q0 92 56 149.5t151 57.5zM258 362q53 0 86 31t33 88v66q0 55 -32 90t-87 35q-56 0 -87.5 -34
t-31.5 -91v-68q0 -54 32 -85.5t87 -31.5z" />
    <glyph glyph-name="zero.numr" horiz-adv-x="565" 
d="M281 723q-104 0 -162 58.5t-58 156.5v338q0 96 60 152.5t164 56.5t161.5 -56.5t57.5 -154.5v-336q0 -98 -60 -156.5t-163 -58.5zM283 809q62 0 97.5 33t35.5 102v326q0 66 -35.5 97.5t-95.5 31.5q-62 0 -98.5 -32.5t-36.5 -96.5v-326q0 -69 35.5 -102t97.5 -33z" />
    <glyph glyph-name="one.numr" horiz-adv-x="425" 
d="M203 733v658l-144 -21v74l232 41v-752h-88z" />
    <glyph glyph-name="two.numr" horiz-adv-x="540" 
d="M150 821h337v-88h-426v129q0 55 25 100.5t62 74.5t81 59.5t81 55t62 60t25 76.5q0 51 -33 82t-90 31q-25 0 -50.5 -9t-49.5 -39t-27 -77h-86q2 80 56 144.5t157 64.5q94 0 152.5 -55.5t58.5 -143.5q0 -62 -34.5 -112.5t-83.5 -84t-98.5 -64t-84 -67t-34.5 -77.5v-60z" />
    <glyph glyph-name="three.numr" horiz-adv-x="538" 
d="M279 1174q94 -1 146 -54t52 -145v-53q0 -89 -60.5 -144t-152.5 -55q-93 0 -153 54t-60 143h88q0 -51 34 -81t91 -30q56 0 90.5 31t34.5 80v55q0 57 -33 88t-92 31h-94v75l192 220h-282v86h387v-86z" />
    <glyph glyph-name="four.numr" horiz-adv-x="563" 
d="M381 1286h86v-553h-86v203h-324v92l168 447h92l-167 -451h231v262z" />
    </font>
</defs>
</svg>
