<svg width="21" height="16" viewBox="0 0 21 16" fill="none" xmlns="http://www.w3.org/2000/svg">
<path d="M20.8651 3.53282C20.8651 1.65787 19.5073 0.149579 17.8295 0.149579C15.557 0.0416654 13.2393 0 10.8708 0H10.1324C7.76959 0 5.44781 0.0416655 3.17526 0.149996C1.50161 0.149996 0.143822 1.66662 0.143822 3.54157C0.0412703 5.02445 -0.0022118 6.50774 0.000249451 7.99103C-0.00385263 9.47433 0.0426376 10.959 0.13972 12.4451C0.13972 14.32 1.49751 15.8408 3.17116 15.8408C5.55857 15.9533 8.00751 16.0033 10.4975 15.9991C12.9915 16.0075 15.4336 15.9547 17.8238 15.8408C19.5015 15.8408 20.8593 14.32 20.8593 12.4451C20.9578 10.9576 21.0029 9.47433 20.9988 7.98687C21.0081 6.50357 20.9635 5.01889 20.8651 3.53282ZM8.49156 12.0784V3.89114L14.4396 7.9827L8.49156 12.0784Z" fill="white"/>
</svg>
