<svg width="20" height="13" viewBox="0 0 20 13" fill="none" xmlns="http://www.w3.org/2000/svg">
<path d="M1 7.25C0.585787 7.25 0.25 6.91421 0.25 6.5C0.25 6.08578 0.585787 5.75 1 5.75L1 7.25ZM19.5303 5.96967C19.8232 6.26256 19.8232 6.73744 19.5303 7.03033L14.7574 11.8033C14.4645 12.0962 13.9896 12.0962 13.6967 11.8033C13.4038 11.5104 13.4038 11.0355 13.6967 10.7426L17.9393 6.5L13.6967 2.25736C13.4038 1.96447 13.4038 1.48959 13.6967 1.1967C13.9896 0.903805 14.4645 0.903805 14.7574 1.1967L19.5303 5.96967ZM1 5.75L19 5.75L19 7.25L1 7.25L1 5.75Z" fill="black"/>
</svg>
